<svg width="30" height="30" viewBox="0 0 30 30" fill="none" xmlns="http://www.w3.org/2000/svg">
<path d="M25.6107 4.39339C22.7802 1.56029 19.0166 0 15.0137 0C11.4056 0 7.97287 1.27785 5.25627 3.61519L2.34993 0.75943L1.76765 10.6329L11.8048 9.89067L8.9566 7.25235C10.6805 5.89874 12.7986 5.16243 15.0137 5.16243C20.4332 5.16243 24.8424 9.5755 24.8424 15C24.8424 20.4245 20.4332 24.8378 15.0137 24.8378C12.5256 24.8378 10.1518 23.9051 8.32947 22.2118C6.51695 20.5273 5.41168 18.2458 5.21759 15.7874L5.1535 14.9778H0L0.0556183 15.9091C0.528259 23.8106 7.09854 30 15.0137 30C19.0166 30 22.7802 28.4397 25.6107 25.6066C28.4411 22.7735 30 19.0066 30 15C30 10.9934 28.4411 7.22649 25.6107 4.39339Z" fill="#186FE1"/>
</svg>
