<svg width="99" height="99" viewBox="0 0 99 99" fill="none" xmlns="http://www.w3.org/2000/svg">
<circle cx="49.1953" cy="49.1965" r="35.6919" transform="rotate(57.9282 49.1953 49.1965)" fill="#186FE1"/>
<circle cx="49.1953" cy="49.1965" r="35.6919" transform="rotate(57.9282 49.1953 49.1965)" fill="url(#paint0_linear)"/>
<g filter="url(#filter0_f)">
<path d="M62.8495 64.016C62.7535 63.92 62.7055 63.872 62.7055 63.872L61.1215 63.8L58.1695 63.872C56.5855 63.872 55.4095 63.896 54.6415 63.944H51.1855L50.4655 64.016L48.7375 63.944C48.6895 63.944 48.6175 63.944 48.5215 63.944C48.4255 63.896 48.3775 63.848 48.3775 63.8C48.3775 63.704 48.4015 63.608 48.4495 63.512L49.3855 60.704C49.6735 59.936 49.9375 59.384 50.1775 59.048C50.5615 58.328 51.1855 57.248 52.0495 55.808C52.8655 54.464 53.8735 53.264 55.0735 52.208L56.8735 50.768C57.0175 50.624 57.5935 50.096 58.6015 49.184C59.6575 48.272 60.5695 47.288 61.3375 46.232C62.1055 45.368 62.6335 44.312 62.9215 43.064C63.2575 41.528 63.4495 40.184 63.4975 39.032C63.5455 37.688 63.4255 36.248 63.1375 34.712C62.9935 34.04 62.6815 32.84 62.2015 31.112C61.7215 29.816 61.0495 28.784 60.1855 28.016C59.0335 26.864 57.7855 26.024 56.4415 25.496C55.6255 25.208 54.7375 25.016 53.7775 24.92C52.8655 24.776 52.2895 24.68 52.0495 24.632C51.9535 24.632 51.8335 24.608 51.6895 24.56C51.5935 24.512 51.4975 24.512 51.4015 24.56C50.4895 24.656 49.8175 24.776 49.3855 24.92L46.9375 25.856C45.9295 26.336 45.3775 26.624 45.2815 26.72C44.7535 27.056 44.2975 27.464 43.9135 27.944C43.5295 28.376 43.0495 29 42.4735 29.816C41.5615 31.256 41.1055 33.176 41.1055 35.576C41.1055 35.912 41.0815 36.32 41.0335 36.8C41.0335 37.232 41.0575 37.76 41.1055 38.384C41.1055 39.488 41.3695 40.28 41.8975 40.76C42.0895 40.952 42.2335 40.952 42.3295 40.76L42.6175 40.904C42.6175 40.856 42.6655 40.736 42.7615 40.544L43.0495 40.76C43.4335 41.144 43.8415 41.264 44.2735 41.12C44.5135 41.072 44.7535 41 44.9935 40.904C45.2815 40.808 45.4975 40.736 45.6415 40.688H45.8575L46.3615 40.616C46.3615 40.616 46.4095 40.616 46.5055 40.616C46.6015 40.568 46.6735 40.568 46.7215 40.616C46.9615 40.712 47.0815 40.64 47.0815 40.4C47.4655 40.64 47.6815 40.592 47.7295 40.256C47.8255 39.968 47.9215 39.536 48.0175 38.96C48.2095 38.144 48.3295 37.472 48.3775 36.944C48.5215 35.504 48.9535 34.304 49.6735 33.344C50.2975 32.576 51.0895 32.192 52.0495 32.192C53.0095 32.24 53.8975 32.6 54.7135 33.272C55.0975 33.56 55.3615 33.968 55.5055 34.496C55.8415 35.312 56.0335 36.056 56.0815 36.728L56.1535 37.88C56.1535 38.984 56.1295 39.8 56.0815 40.328C55.8895 41.384 55.3135 42.44 54.3535 43.496C53.6335 44.312 52.7215 45.128 51.6175 45.944C50.4175 46.904 49.6495 47.624 49.3135 48.104L48.7375 48.68C46.9615 50.6 46.0495 51.584 46.0015 51.632C45.8095 51.824 45.5935 52.088 45.3535 52.424C45.1615 52.76 44.9695 53.048 44.7775 53.288C44.1055 54.008 43.4095 55.088 42.6895 56.528C42.4015 57.152 42.1855 57.704 42.0415 58.184C41.8975 58.664 41.7535 59.072 41.6095 59.408L41.1775 61.208C41.0335 61.976 40.9615 62.792 40.9615 63.656C40.8655 64.52 40.7695 65.864 40.6735 67.688V70.28C40.8175 70.28 40.9375 70.256 41.0335 70.208C41.0335 70.4 41.0575 70.568 41.1055 70.712C41.2015 70.808 41.3455 70.904 41.5375 71C41.8255 70.904 41.9935 70.856 42.0415 70.856C42.2335 70.856 42.4015 70.952 42.5455 71.144C42.7855 71.336 43.0255 71.336 43.2655 71.144C43.5535 71 43.8175 70.928 44.0575 70.928C44.2495 70.928 44.4895 70.976 44.7775 71.072H44.9935C45.0415 71.072 45.1375 71.048 45.2815 71C45.4735 71 45.6175 71.048 45.7135 71.144H46.0735H46.5775H47.0815C47.1295 71.192 47.1775 71.192 47.2255 71.144C47.2735 71.144 47.3215 71.144 47.3695 71.144C47.7535 71.048 48.0415 71 48.2335 71C50.3455 71 51.9535 70.976 53.0575 70.928C54.6895 70.928 55.9375 70.904 56.8015 70.856H59.8255L62.4895 70.928C62.7775 70.928 62.9455 70.808 62.9935 70.568L62.9215 69.776C62.9215 69.68 62.8975 69.584 62.8495 69.488C62.8495 69.392 62.8735 69.272 62.9215 69.128C62.9695 69.032 62.9935 68.888 62.9935 68.696L62.9215 67.832C62.9215 67.688 62.8975 67.544 62.8495 67.4C62.8015 67.208 62.7775 67.016 62.7775 66.824C62.7775 66.776 62.8495 66.536 62.9935 66.104C62.9935 65.864 62.9695 65.696 62.9215 65.6L62.8495 65.312C62.8495 65.216 62.8495 65.072 62.8495 64.88C62.8975 64.64 62.8495 64.424 62.7055 64.232L62.8495 64.016ZM59.8975 45.152C60.0415 44.816 60.1855 44.528 60.3295 44.288C60.5215 44 60.6895 43.688 60.8335 43.352L61.6255 41.552L61.4815 42.272L59.8975 45.368L59.5375 46.088C59.2015 46.616 58.9855 46.928 58.8895 47.024L54.3535 51.272L54.2095 51.344L53.9935 51.632L52.4815 52.928L52.1935 53.072C52.1935 53.072 52.4575 52.808 52.9855 52.28C52.9375 52.328 53.2735 52.064 53.9935 51.488L54.2095 51.344L54.5695 50.912L57.5935 48.032L59.5375 46.088L59.8975 45.152ZM60.1855 67.976C59.2255 67.88 57.8095 67.832 55.9375 67.832C54.8335 67.832 53.1295 67.88 50.8255 67.976L48.3055 68.048L48.2335 67.904L48.9535 67.832V67.76C48.8095 67.712 48.5695 67.688 48.2335 67.688L48.3055 67.616L52.4815 67.472V67.544L52.3375 67.616C52.4815 67.616 52.6735 67.64 52.9135 67.688C53.2015 67.736 53.4175 67.688 53.5615 67.544C53.6095 67.496 53.6575 67.496 53.7055 67.544C53.7535 67.544 53.8015 67.544 53.8495 67.544C54.0415 67.544 54.2095 67.568 54.3535 67.616C54.4975 67.664 54.6655 67.688 54.8575 67.688L58.5295 67.616L58.8175 67.544H57.3775V67.472C57.5215 67.424 57.7135 67.4 57.9535 67.4C58.1455 67.4 58.4335 67.448 58.8175 67.544L60.1855 67.76V67.976ZM44.5615 60.992C44.5615 60.944 44.5375 60.92 44.4895 60.92C44.4895 60.872 44.5135 60.824 44.5615 60.776C44.6575 60.728 44.7055 60.632 44.7055 60.488C44.7535 60.344 44.7775 60.224 44.7775 60.128L45.1375 59.336C45.6175 58.136 45.9295 57.392 46.0735 57.104C46.5055 56.192 46.9375 55.448 47.3695 54.872C47.7055 54.344 48.3055 53.6 49.1695 52.64C49.3615 52.4 49.9135 51.824 50.8255 50.912L52.4095 49.256L55.8655 46.16C55.8655 46.16 56.2255 45.728 56.9455 44.864L58.0255 43.208C58.6975 42.104 59.1295 40.976 59.3215 39.824V39.32C59.1295 37.544 58.9615 36.128 58.8175 35.072C58.7695 34.832 58.6735 34.544 58.5295 34.208C58.3855 33.824 58.2895 33.512 58.2415 33.272L57.6655 31.76C57.5215 31.328 57.2335 30.968 56.8015 30.68C56.3695 30.344 56.1055 30.128 56.0095 30.032C55.5295 29.648 55.0015 29.384 54.4255 29.24C53.8975 29.048 53.2015 28.88 52.3375 28.736L52.9135 28.808H53.4895C54.3535 29 55.0495 29.264 55.5775 29.6C56.3935 30.128 56.8495 30.44 56.9455 30.536C57.4735 30.92 57.9535 31.664 58.3855 32.768C58.4335 32.912 58.5055 33.176 58.6015 33.56C58.7455 33.944 58.9135 34.28 59.1055 34.568C59.2495 34.856 59.3215 35.168 59.3215 35.504C59.3695 35.744 59.4175 36.056 59.4655 36.44C59.5135 36.776 59.5375 37.184 59.5375 37.664C59.5855 38 59.6095 38.504 59.6095 39.176C59.6095 39.656 59.5855 40.016 59.5375 40.256C59.4895 40.832 59.2495 41.504 58.8175 42.272C58.4815 42.896 58.1455 43.448 57.8095 43.928C57.5215 44.36 57.2815 44.744 57.0895 45.08C56.6575 45.8 55.9855 46.544 55.0735 47.312L50.5375 51.56C49.0975 52.904 47.9215 54.44 47.0095 56.168C46.0975 57.752 45.3775 59.408 44.8495 61.136L44.7055 61.352V60.92L44.5615 60.992ZM46.2175 60.344C46.3135 59.96 46.4095 59.624 46.5055 59.336C46.6495 59.048 46.7695 58.808 46.8655 58.616C47.3455 57.368 48.0415 56.12 48.9535 54.872L50.4655 53C51.4255 52.04 52.1695 51.344 52.6975 50.912L55.3615 48.392L56.6575 47.168C57.2335 46.592 57.6895 46.184 58.0255 45.944C58.0255 45.992 57.9775 46.064 57.8815 46.16L56.7295 47.312L54.3535 49.544L53.2015 50.624C51.8575 51.872 50.9935 52.712 50.6095 53.144C49.6975 54.2 48.9295 55.208 48.3055 56.168C47.6815 57.176 47.0575 58.496 46.4335 60.128L45.6415 62.648C45.5455 62.84 45.4975 63.152 45.4975 63.584V63.872H45.3535L45.2815 63.224L46.2175 60.344ZM61.6255 68.48C61.3375 68.48 60.9055 68.432 60.3295 68.336C59.5135 68.24 58.2415 68.192 56.5135 68.192L49.3135 68.408H48.4495L48.1615 68.336V68.192L48.4495 68.12L53.2015 67.976L55.9375 67.904L58.2415 67.976C59.0095 67.976 59.5855 68 59.9695 68.048C60.4495 68.096 61.0015 68.216 61.6255 68.408V68.48ZM51.3295 49.904C49.2175 52.016 47.6575 53.912 46.6495 55.592C45.4015 57.704 44.4655 59.936 43.8415 62.288C43.9375 61.328 44.1535 60.416 44.4895 59.552C44.8255 58.688 45.3055 57.632 45.9295 56.384C46.5535 55.184 47.4175 53.936 48.5215 52.64C49.6255 51.296 50.5615 50.384 51.3295 49.904ZM47.3695 53.432C46.4575 54.824 45.5455 56.48 44.6335 58.4C43.8175 60.32 43.3855 62.12 43.3375 63.8H43.1935C43.1935 63.704 43.1695 63.56 43.1215 63.368C43.1215 63.176 43.1455 63.008 43.1935 62.864C43.4335 61.088 43.8655 59.528 44.4895 58.184L46.2175 54.872C46.3615 54.632 46.5295 54.392 46.7215 54.152C46.9135 53.864 47.0815 53.6 47.2255 53.36L47.3695 53.432ZM46.5775 52.424C43.8415 56.072 42.2815 59.84 41.8975 63.728V63.584C41.8975 62.864 41.9455 62.336 42.0415 62C42.5695 59.552 43.2175 57.632 43.9855 56.24C44.4175 55.52 45.1135 54.44 46.0735 53C46.1695 52.76 46.2895 52.568 46.4335 52.424H46.5775ZM57.8815 33.2C58.3615 33.968 58.6255 34.592 58.6735 35.072C58.7215 35.888 58.8415 37.232 59.0335 39.104V39.392C59.0335 39.872 58.9135 40.472 58.6735 41.192L58.4575 41.768H58.3855L58.8175 40.112C58.8655 39.92 58.8895 39.584 58.8895 39.104L58.8175 37.592L58.6735 36.656C58.6735 36.464 58.6495 36.272 58.6015 36.08C58.5535 35.888 58.5295 35.696 58.5295 35.504C58.5295 34.928 58.3855 34.4 58.0975 33.92C57.9535 33.536 57.8575 33.296 57.8095 33.2H57.8815ZM48.3055 66.32C49.0735 66.224 50.2255 66.176 51.7615 66.176C53.2495 66.176 54.3775 66.2 55.1455 66.248V66.32L48.3055 66.392V66.32ZM61.9135 65.744C61.7695 65.744 61.4575 65.792 60.9775 65.888V65.96L61.5535 66.104L59.8975 65.96C59.8975 65.96 59.9695 65.888 60.1135 65.744L58.8895 65.312C60.0895 65.312 61.0975 65.408 61.9135 65.6V65.744ZM58.0975 37.88C58.1455 38.168 58.1695 38.576 58.1695 39.104C58.1695 39.872 58.0015 40.712 57.6655 41.624L57.8815 40.184C57.9775 39.512 58.0015 39.032 57.9535 38.744C57.9535 38.12 57.9295 37.424 57.8815 36.656C57.8335 35.84 57.7855 35.216 57.7375 34.784C57.7375 34.496 57.7135 34.304 57.6655 34.208C57.6655 34.16 57.6655 34.136 57.6655 34.136C57.7135 34.136 57.7375 34.136 57.7375 34.136L57.8095 34.424L58.0975 37.88ZM51.1855 54.584C50.2255 55.976 49.4335 57.248 48.8095 58.4C48.2335 59.504 47.7775 60.68 47.4415 61.928C48.0655 59.288 49.3135 56.84 51.1855 54.584ZM60.2575 66.752C60.4495 66.752 60.7375 66.8 61.1215 66.896V67.04H60.4735L56.1535 66.824C56.0095 66.824 55.8895 66.8 55.7935 66.752L55.8655 66.68L60.2575 66.752ZM49.7455 56.168C48.1135 59 47.1535 61.52 46.8655 63.728C46.7695 63.056 47.0335 61.88 47.6575 60.2C48.3295 58.472 49.0255 57.128 49.7455 56.168ZM51.8335 65.6C52.6495 65.6 53.2495 65.624 53.6335 65.672V65.816H48.3055V65.672L51.8335 65.6ZM60.4735 40.328C60.5215 40.136 60.5455 39.872 60.5455 39.536C60.5455 39.152 60.4975 38.576 60.4015 37.808L60.0415 34.28C60.0415 34.088 60.0175 33.944 59.9695 33.848C59.9215 33.704 59.8735 33.584 59.8255 33.488C60.0175 33.728 60.1615 34.16 60.2575 34.784C60.3535 36.224 60.4495 37.352 60.5455 38.168C60.6415 38.744 60.6895 39.2 60.6895 39.536C60.6895 39.776 60.6415 40.136 60.5455 40.616C60.4975 40.664 60.4735 40.736 60.4735 40.832H60.4015L60.4735 40.328ZM47.5855 57.68C47.4895 58.016 47.2975 58.52 47.0095 59.192C46.2415 61.256 45.7855 62.792 45.6415 63.8C45.6415 63.752 45.6175 63.704 45.5695 63.656C45.5695 63.56 45.5935 63.464 45.6415 63.368C45.6415 62.984 45.7135 62.624 45.8575 62.288C46.3375 60.608 46.8895 59.144 47.5135 57.896L47.5855 57.68ZM47.6575 53C47.7535 52.616 48.3295 51.896 49.3855 50.84C50.4895 49.784 51.4495 48.896 52.2655 48.176C52.0255 48.512 51.6895 48.872 51.2575 49.256C50.8735 49.64 50.5615 49.928 50.3215 50.12C48.9295 51.512 48.0415 52.472 47.6575 53ZM48.3775 65.456L49.8895 65.384C50.1775 65.336 50.6575 65.312 51.3295 65.312C51.9535 65.312 52.5775 65.384 53.2015 65.528H48.3775V65.456ZM61.1935 39.536C61.2895 40.16 61.1935 40.976 60.9055 41.984C60.6175 42.944 60.2815 43.544 59.8975 43.784C60.7135 42.248 61.1455 40.832 61.1935 39.536ZM44.3455 63.512C44.3455 63.704 44.2735 63.8 44.1295 63.8C44.0815 63.8 44.0335 63.776 43.9855 63.728C43.9855 63.632 43.9855 63.56 43.9855 63.512V63.296C43.9855 62.768 44.1535 62.168 44.4895 61.496V61.64L44.3455 63.512ZM42.2575 39.104C42.0655 39.056 41.9695 38.864 41.9695 38.528V36.584C41.9695 36.2 42.0175 35.576 42.1135 34.712C42.1135 34.904 42.1135 35.192 42.1135 35.576C42.1615 35.96 42.1615 36.272 42.1135 36.512V38.528C42.1135 38.72 42.1615 38.912 42.2575 39.104ZM53.3455 51.632C53.5375 51.344 53.9695 50.888 54.6415 50.264C55.3135 49.64 55.8175 49.232 56.1535 49.04L53.3455 51.632ZM46.2895 63.8C46.3375 62.888 46.5295 62 46.8655 61.136C47.2015 60.224 47.3935 59.696 47.4415 59.552C47.1055 60.752 46.7215 62.168 46.2895 63.8ZM61.0495 66.608C60.4735 66.512 59.6575 66.416 58.6015 66.32C58.7935 66.272 59.1055 66.248 59.5375 66.248C60.2575 66.248 60.7615 66.32 61.0495 66.464V66.608ZM55.2895 30.032C56.0095 30.32 56.5375 30.632 56.8735 30.968C57.2575 31.256 57.4735 31.616 57.5215 32.048C57.2335 31.568 56.9215 31.184 56.5855 30.896C56.4415 30.752 56.2255 30.608 55.9375 30.464C55.6495 30.272 55.4335 30.128 55.2895 30.032ZM58.8175 44.504C59.1055 43.88 59.5855 42.944 60.2575 41.696C60.1135 42.272 59.8735 42.848 59.5375 43.424C59.2015 44 58.9855 44.384 58.8895 44.576L58.8175 44.504ZM41.4655 38.096C41.4175 37.328 41.4415 36.176 41.5375 34.64V38.096H41.4655ZM56.1535 45.584C56.1535 45.536 56.1295 45.512 56.0815 45.512L57.5935 43.064L57.6655 43.136L56.1535 45.584ZM61.6975 37.952L61.4095 34.856H61.5535L61.7695 37.952H61.6975ZM61.7695 43.928C61.5295 44.36 61.3135 44.744 61.1215 45.08C60.9295 45.416 60.7615 45.704 60.6175 45.944L60.4735 45.872L61.6975 43.928H61.7695ZM43.4095 37.736C43.5055 37.064 43.6015 36.152 43.6975 35H43.7695L43.5535 37.736H43.4095ZM56.5135 34.064C56.9455 34.448 57.1135 34.976 57.0175 35.648L56.5135 34.064ZM56.3695 25.64C57.2335 26.12 57.8815 26.456 58.3135 26.648L58.2415 26.72L56.3695 25.784V25.64ZM59.3935 32.696C59.2975 32.504 59.0575 31.88 58.6735 30.824C58.9615 31.16 59.2015 31.784 59.3935 32.696ZM57.1615 36.08C57.1615 36.368 57.2095 36.848 57.3055 37.52H57.2335C57.1375 37.328 57.0655 37.088 57.0175 36.8C57.0175 36.464 57.0175 36.224 57.0175 36.08H57.1615ZM59.3935 65.744H57.0895H59.3935ZM48.8815 60.848C48.8815 60.656 48.9775 60.32 49.1695 59.84L49.3135 59.912C49.2175 60.104 49.1215 60.44 49.0255 60.92L48.8815 60.848ZM54.5695 66.824H53.3455V66.752H54.5695V66.824ZM54.3535 52.352L55.5775 51.2L54.4255 52.352H54.3535ZM55.0735 65.744H54.0655V65.672H55.0735V65.744ZM51.1135 66.896C50.8255 66.944 50.3935 66.968 49.8175 66.968C49.8175 66.92 49.7935 66.896 49.7455 66.896H51.1135ZM60.8335 38.96C60.8335 38.624 60.7855 38.12 60.6895 37.448H60.7615L60.9055 38.96H60.8335ZM55.5055 66.176H56.3695V66.248H55.5055V66.176ZM51.4015 53.504L50.6095 54.368C50.6095 54.32 50.5855 54.296 50.5375 54.296L51.3295 53.432L51.4015 53.504ZM49.9615 55.664C50.3455 55.184 50.6095 54.824 50.7535 54.584C50.7535 54.632 50.7535 54.656 50.7535 54.656C50.8015 54.656 50.8255 54.656 50.8255 54.656L50.1055 55.736L49.9615 55.664ZM53.7055 47.6C54.0895 47.216 54.4015 46.952 54.6415 46.808V46.88L53.7775 47.672L53.7055 47.6ZM56.8735 41.336C56.8735 41.384 56.7535 41.696 56.5135 42.272C56.5135 42.224 56.4895 42.2 56.4415 42.2C56.5375 41.912 56.6575 41.6 56.8015 41.264L56.8735 41.336ZM62.7775 39.752V38.816V39.752ZM61.8415 39.608V38.384V39.608ZM60.1135 33.488C60.0175 33.296 59.9215 33.128 59.8255 32.984C59.7295 32.792 59.6575 32.648 59.6095 32.552C59.6095 32.504 59.6095 32.48 59.6095 32.48C59.6575 32.48 59.6815 32.48 59.6815 32.48L60.1855 33.416L60.1135 33.488Z" fill="#FFE419"/>
</g>
<g filter="url(#filter1_d)">
<path d="M59.3495 64.016C59.2535 63.92 59.2055 63.872 59.2055 63.872L57.6215 63.8L54.6695 63.872C53.0855 63.872 51.9095 63.896 51.1415 63.944H47.6855L46.9655 64.016L45.2375 63.944C45.1895 63.944 45.1175 63.944 45.0215 63.944C44.9255 63.896 44.8775 63.848 44.8775 63.8C44.8775 63.704 44.9015 63.608 44.9495 63.512L45.8855 60.704C46.1735 59.936 46.4375 59.384 46.6775 59.048C47.0615 58.328 47.6855 57.248 48.5495 55.808C49.3655 54.464 50.3735 53.264 51.5735 52.208L53.3735 50.768C53.5175 50.624 54.0935 50.096 55.1015 49.184C56.1575 48.272 57.0695 47.288 57.8375 46.232C58.6055 45.368 59.1335 44.312 59.4215 43.064C59.7575 41.528 59.9495 40.184 59.9975 39.032C60.0455 37.688 59.9255 36.248 59.6375 34.712C59.4935 34.04 59.1815 32.84 58.7015 31.112C58.2215 29.816 57.5495 28.784 56.6855 28.016C55.5335 26.864 54.2855 26.024 52.9415 25.496C52.1255 25.208 51.2375 25.016 50.2775 24.92C49.3655 24.776 48.7895 24.68 48.5495 24.632C48.4535 24.632 48.3335 24.608 48.1895 24.56C48.0935 24.512 47.9975 24.512 47.9015 24.56C46.9895 24.656 46.3175 24.776 45.8855 24.92L43.4375 25.856C42.4295 26.336 41.8775 26.624 41.7815 26.72C41.2535 27.056 40.7975 27.464 40.4135 27.944C40.0295 28.376 39.5495 29 38.9735 29.816C38.0615 31.256 37.6055 33.176 37.6055 35.576C37.6055 35.912 37.5815 36.32 37.5335 36.8C37.5335 37.232 37.5575 37.76 37.6055 38.384C37.6055 39.488 37.8695 40.28 38.3975 40.76C38.5895 40.952 38.7335 40.952 38.8295 40.76L39.1175 40.904C39.1175 40.856 39.1655 40.736 39.2615 40.544L39.5495 40.76C39.9335 41.144 40.3415 41.264 40.7735 41.12C41.0135 41.072 41.2535 41 41.4935 40.904C41.7815 40.808 41.9975 40.736 42.1415 40.688H42.3575L42.8615 40.616C42.8615 40.616 42.9095 40.616 43.0055 40.616C43.1015 40.568 43.1735 40.568 43.2215 40.616C43.4615 40.712 43.5815 40.64 43.5815 40.4C43.9655 40.64 44.1815 40.592 44.2295 40.256C44.3255 39.968 44.4215 39.536 44.5175 38.96C44.7095 38.144 44.8295 37.472 44.8775 36.944C45.0215 35.504 45.4535 34.304 46.1735 33.344C46.7975 32.576 47.5895 32.192 48.5495 32.192C49.5095 32.24 50.3975 32.6 51.2135 33.272C51.5975 33.56 51.8615 33.968 52.0055 34.496C52.3415 35.312 52.5335 36.056 52.5815 36.728L52.6535 37.88C52.6535 38.984 52.6295 39.8 52.5815 40.328C52.3895 41.384 51.8135 42.44 50.8535 43.496C50.1335 44.312 49.2215 45.128 48.1175 45.944C46.9175 46.904 46.1495 47.624 45.8135 48.104L45.2375 48.68C43.4615 50.6 42.5495 51.584 42.5015 51.632C42.3095 51.824 42.0935 52.088 41.8535 52.424C41.6615 52.76 41.4695 53.048 41.2775 53.288C40.6055 54.008 39.9095 55.088 39.1895 56.528C38.9015 57.152 38.6855 57.704 38.5415 58.184C38.3975 58.664 38.2535 59.072 38.1095 59.408L37.6775 61.208C37.5335 61.976 37.4615 62.792 37.4615 63.656C37.3655 64.52 37.2695 65.864 37.1735 67.688V70.28C37.3175 70.28 37.4375 70.256 37.5335 70.208C37.5335 70.4 37.5575 70.568 37.6055 70.712C37.7015 70.808 37.8455 70.904 38.0375 71C38.3255 70.904 38.4935 70.856 38.5415 70.856C38.7335 70.856 38.9015 70.952 39.0455 71.144C39.2855 71.336 39.5255 71.336 39.7655 71.144C40.0535 71 40.3175 70.928 40.5575 70.928C40.7495 70.928 40.9895 70.976 41.2775 71.072H41.4935C41.5415 71.072 41.6375 71.048 41.7815 71C41.9735 71 42.1175 71.048 42.2135 71.144H42.5735H43.0775H43.5815C43.6295 71.192 43.6775 71.192 43.7255 71.144C43.7735 71.144 43.8215 71.144 43.8695 71.144C44.2535 71.048 44.5415 71 44.7335 71C46.8455 71 48.4535 70.976 49.5575 70.928C51.1895 70.928 52.4375 70.904 53.3015 70.856H56.3255L58.9895 70.928C59.2775 70.928 59.4455 70.808 59.4935 70.568L59.4215 69.776C59.4215 69.68 59.3975 69.584 59.3495 69.488C59.3495 69.392 59.3735 69.272 59.4215 69.128C59.4695 69.032 59.4935 68.888 59.4935 68.696L59.4215 67.832C59.4215 67.688 59.3975 67.544 59.3495 67.4C59.3015 67.208 59.2775 67.016 59.2775 66.824C59.2775 66.776 59.3495 66.536 59.4935 66.104C59.4935 65.864 59.4695 65.696 59.4215 65.6L59.3495 65.312C59.3495 65.216 59.3495 65.072 59.3495 64.88C59.3975 64.64 59.3495 64.424 59.2055 64.232L59.3495 64.016ZM56.3975 45.152C56.5415 44.816 56.6855 44.528 56.8295 44.288C57.0215 44 57.1895 43.688 57.3335 43.352L58.1255 41.552L57.9815 42.272L56.3975 45.368L56.0375 46.088C55.7015 46.616 55.4855 46.928 55.3895 47.024L50.8535 51.272L50.7095 51.344L50.4935 51.632L48.9815 52.928L48.6935 53.072C48.6935 53.072 48.9575 52.808 49.4855 52.28C49.4375 52.328 49.7735 52.064 50.4935 51.488L50.7095 51.344L51.0695 50.912L54.0935 48.032L56.0375 46.088L56.3975 45.152ZM56.6855 67.976C55.7255 67.88 54.3095 67.832 52.4375 67.832C51.3335 67.832 49.6295 67.88 47.3255 67.976L44.8055 68.048L44.7335 67.904L45.4535 67.832V67.76C45.3095 67.712 45.0695 67.688 44.7335 67.688L44.8055 67.616L48.9815 67.472V67.544L48.8375 67.616C48.9815 67.616 49.1735 67.64 49.4135 67.688C49.7015 67.736 49.9175 67.688 50.0615 67.544C50.1095 67.496 50.1575 67.496 50.2055 67.544C50.2535 67.544 50.3015 67.544 50.3495 67.544C50.5415 67.544 50.7095 67.568 50.8535 67.616C50.9975 67.664 51.1655 67.688 51.3575 67.688L55.0295 67.616L55.3175 67.544H53.8775V67.472C54.0215 67.424 54.2135 67.4 54.4535 67.4C54.6455 67.4 54.9335 67.448 55.3175 67.544L56.6855 67.76V67.976ZM41.0615 60.992C41.0615 60.944 41.0375 60.92 40.9895 60.92C40.9895 60.872 41.0135 60.824 41.0615 60.776C41.1575 60.728 41.2055 60.632 41.2055 60.488C41.2535 60.344 41.2775 60.224 41.2775 60.128L41.6375 59.336C42.1175 58.136 42.4295 57.392 42.5735 57.104C43.0055 56.192 43.4375 55.448 43.8695 54.872C44.2055 54.344 44.8055 53.6 45.6695 52.64C45.8615 52.4 46.4135 51.824 47.3255 50.912L48.9095 49.256L52.3655 46.16C52.3655 46.16 52.7255 45.728 53.4455 44.864L54.5255 43.208C55.1975 42.104 55.6295 40.976 55.8215 39.824V39.32C55.6295 37.544 55.4615 36.128 55.3175 35.072C55.2695 34.832 55.1735 34.544 55.0295 34.208C54.8855 33.824 54.7895 33.512 54.7415 33.272L54.1655 31.76C54.0215 31.328 53.7335 30.968 53.3015 30.68C52.8695 30.344 52.6055 30.128 52.5095 30.032C52.0295 29.648 51.5015 29.384 50.9255 29.24C50.3975 29.048 49.7015 28.88 48.8375 28.736L49.4135 28.808H49.9895C50.8535 29 51.5495 29.264 52.0775 29.6C52.8935 30.128 53.3495 30.44 53.4455 30.536C53.9735 30.92 54.4535 31.664 54.8855 32.768C54.9335 32.912 55.0055 33.176 55.1015 33.56C55.2455 33.944 55.4135 34.28 55.6055 34.568C55.7495 34.856 55.8215 35.168 55.8215 35.504C55.8695 35.744 55.9175 36.056 55.9655 36.44C56.0135 36.776 56.0375 37.184 56.0375 37.664C56.0855 38 56.1095 38.504 56.1095 39.176C56.1095 39.656 56.0855 40.016 56.0375 40.256C55.9895 40.832 55.7495 41.504 55.3175 42.272C54.9815 42.896 54.6455 43.448 54.3095 43.928C54.0215 44.36 53.7815 44.744 53.5895 45.08C53.1575 45.8 52.4855 46.544 51.5735 47.312L47.0375 51.56C45.5975 52.904 44.4215 54.44 43.5095 56.168C42.5975 57.752 41.8775 59.408 41.3495 61.136L41.2055 61.352V60.92L41.0615 60.992ZM42.7175 60.344C42.8135 59.96 42.9095 59.624 43.0055 59.336C43.1495 59.048 43.2695 58.808 43.3655 58.616C43.8455 57.368 44.5415 56.12 45.4535 54.872L46.9655 53C47.9255 52.04 48.6695 51.344 49.1975 50.912L51.8615 48.392L53.1575 47.168C53.7335 46.592 54.1895 46.184 54.5255 45.944C54.5255 45.992 54.4775 46.064 54.3815 46.16L53.2295 47.312L50.8535 49.544L49.7015 50.624C48.3575 51.872 47.4935 52.712 47.1095 53.144C46.1975 54.2 45.4295 55.208 44.8055 56.168C44.1815 57.176 43.5575 58.496 42.9335 60.128L42.1415 62.648C42.0455 62.84 41.9975 63.152 41.9975 63.584V63.872H41.8535L41.7815 63.224L42.7175 60.344ZM58.1255 68.48C57.8375 68.48 57.4055 68.432 56.8295 68.336C56.0135 68.24 54.7415 68.192 53.0135 68.192L45.8135 68.408H44.9495L44.6615 68.336V68.192L44.9495 68.12L49.7015 67.976L52.4375 67.904L54.7415 67.976C55.5095 67.976 56.0855 68 56.4695 68.048C56.9495 68.096 57.5015 68.216 58.1255 68.408V68.48ZM47.8295 49.904C45.7175 52.016 44.1575 53.912 43.1495 55.592C41.9015 57.704 40.9655 59.936 40.3415 62.288C40.4375 61.328 40.6535 60.416 40.9895 59.552C41.3255 58.688 41.8055 57.632 42.4295 56.384C43.0535 55.184 43.9175 53.936 45.0215 52.64C46.1255 51.296 47.0615 50.384 47.8295 49.904ZM43.8695 53.432C42.9575 54.824 42.0455 56.48 41.1335 58.4C40.3175 60.32 39.8855 62.12 39.8375 63.8H39.6935C39.6935 63.704 39.6695 63.56 39.6215 63.368C39.6215 63.176 39.6455 63.008 39.6935 62.864C39.9335 61.088 40.3655 59.528 40.9895 58.184L42.7175 54.872C42.8615 54.632 43.0295 54.392 43.2215 54.152C43.4135 53.864 43.5815 53.6 43.7255 53.36L43.8695 53.432ZM43.0775 52.424C40.3415 56.072 38.7815 59.84 38.3975 63.728V63.584C38.3975 62.864 38.4455 62.336 38.5415 62C39.0695 59.552 39.7175 57.632 40.4855 56.24C40.9175 55.52 41.6135 54.44 42.5735 53C42.6695 52.76 42.7895 52.568 42.9335 52.424H43.0775ZM54.3815 33.2C54.8615 33.968 55.1255 34.592 55.1735 35.072C55.2215 35.888 55.3415 37.232 55.5335 39.104V39.392C55.5335 39.872 55.4135 40.472 55.1735 41.192L54.9575 41.768H54.8855L55.3175 40.112C55.3655 39.92 55.3895 39.584 55.3895 39.104L55.3175 37.592L55.1735 36.656C55.1735 36.464 55.1495 36.272 55.1015 36.08C55.0535 35.888 55.0295 35.696 55.0295 35.504C55.0295 34.928 54.8855 34.4 54.5975 33.92C54.4535 33.536 54.3575 33.296 54.3095 33.2H54.3815ZM44.8055 66.32C45.5735 66.224 46.7255 66.176 48.2615 66.176C49.7495 66.176 50.8775 66.2 51.6455 66.248V66.32L44.8055 66.392V66.32ZM58.4135 65.744C58.2695 65.744 57.9575 65.792 57.4775 65.888V65.96L58.0535 66.104L56.3975 65.96C56.3975 65.96 56.4695 65.888 56.6135 65.744L55.3895 65.312C56.5895 65.312 57.5975 65.408 58.4135 65.6V65.744ZM54.5975 37.88C54.6455 38.168 54.6695 38.576 54.6695 39.104C54.6695 39.872 54.5015 40.712 54.1655 41.624L54.3815 40.184C54.4775 39.512 54.5015 39.032 54.4535 38.744C54.4535 38.12 54.4295 37.424 54.3815 36.656C54.3335 35.84 54.2855 35.216 54.2375 34.784C54.2375 34.496 54.2135 34.304 54.1655 34.208C54.1655 34.16 54.1655 34.136 54.1655 34.136C54.2135 34.136 54.2375 34.136 54.2375 34.136L54.3095 34.424L54.5975 37.88ZM47.6855 54.584C46.7255 55.976 45.9335 57.248 45.3095 58.4C44.7335 59.504 44.2775 60.68 43.9415 61.928C44.5655 59.288 45.8135 56.84 47.6855 54.584ZM56.7575 66.752C56.9495 66.752 57.2375 66.8 57.6215 66.896V67.04H56.9735L52.6535 66.824C52.5095 66.824 52.3895 66.8 52.2935 66.752L52.3655 66.68L56.7575 66.752ZM46.2455 56.168C44.6135 59 43.6535 61.52 43.3655 63.728C43.2695 63.056 43.5335 61.88 44.1575 60.2C44.8295 58.472 45.5255 57.128 46.2455 56.168ZM48.3335 65.6C49.1495 65.6 49.7495 65.624 50.1335 65.672V65.816H44.8055V65.672L48.3335 65.6ZM56.9735 40.328C57.0215 40.136 57.0455 39.872 57.0455 39.536C57.0455 39.152 56.9975 38.576 56.9015 37.808L56.5415 34.28C56.5415 34.088 56.5175 33.944 56.4695 33.848C56.4215 33.704 56.3735 33.584 56.3255 33.488C56.5175 33.728 56.6615 34.16 56.7575 34.784C56.8535 36.224 56.9495 37.352 57.0455 38.168C57.1415 38.744 57.1895 39.2 57.1895 39.536C57.1895 39.776 57.1415 40.136 57.0455 40.616C56.9975 40.664 56.9735 40.736 56.9735 40.832H56.9015L56.9735 40.328ZM44.0855 57.68C43.9895 58.016 43.7975 58.52 43.5095 59.192C42.7415 61.256 42.2855 62.792 42.1415 63.8C42.1415 63.752 42.1175 63.704 42.0695 63.656C42.0695 63.56 42.0935 63.464 42.1415 63.368C42.1415 62.984 42.2135 62.624 42.3575 62.288C42.8375 60.608 43.3895 59.144 44.0135 57.896L44.0855 57.68ZM44.1575 53C44.2535 52.616 44.8295 51.896 45.8855 50.84C46.9895 49.784 47.9495 48.896 48.7655 48.176C48.5255 48.512 48.1895 48.872 47.7575 49.256C47.3735 49.64 47.0615 49.928 46.8215 50.12C45.4295 51.512 44.5415 52.472 44.1575 53ZM44.8775 65.456L46.3895 65.384C46.6775 65.336 47.1575 65.312 47.8295 65.312C48.4535 65.312 49.0775 65.384 49.7015 65.528H44.8775V65.456ZM57.6935 39.536C57.7895 40.16 57.6935 40.976 57.4055 41.984C57.1175 42.944 56.7815 43.544 56.3975 43.784C57.2135 42.248 57.6455 40.832 57.6935 39.536ZM40.8455 63.512C40.8455 63.704 40.7735 63.8 40.6295 63.8C40.5815 63.8 40.5335 63.776 40.4855 63.728C40.4855 63.632 40.4855 63.56 40.4855 63.512V63.296C40.4855 62.768 40.6535 62.168 40.9895 61.496V61.64L40.8455 63.512ZM38.7575 39.104C38.5655 39.056 38.4695 38.864 38.4695 38.528V36.584C38.4695 36.2 38.5175 35.576 38.6135 34.712C38.6135 34.904 38.6135 35.192 38.6135 35.576C38.6615 35.96 38.6615 36.272 38.6135 36.512V38.528C38.6135 38.72 38.6615 38.912 38.7575 39.104ZM49.8455 51.632C50.0375 51.344 50.4695 50.888 51.1415 50.264C51.8135 49.64 52.3175 49.232 52.6535 49.04L49.8455 51.632ZM42.7895 63.8C42.8375 62.888 43.0295 62 43.3655 61.136C43.7015 60.224 43.8935 59.696 43.9415 59.552C43.6055 60.752 43.2215 62.168 42.7895 63.8ZM57.5495 66.608C56.9735 66.512 56.1575 66.416 55.1015 66.32C55.2935 66.272 55.6055 66.248 56.0375 66.248C56.7575 66.248 57.2615 66.32 57.5495 66.464V66.608ZM51.7895 30.032C52.5095 30.32 53.0375 30.632 53.3735 30.968C53.7575 31.256 53.9735 31.616 54.0215 32.048C53.7335 31.568 53.4215 31.184 53.0855 30.896C52.9415 30.752 52.7255 30.608 52.4375 30.464C52.1495 30.272 51.9335 30.128 51.7895 30.032ZM55.3175 44.504C55.6055 43.88 56.0855 42.944 56.7575 41.696C56.6135 42.272 56.3735 42.848 56.0375 43.424C55.7015 44 55.4855 44.384 55.3895 44.576L55.3175 44.504ZM37.9655 38.096C37.9175 37.328 37.9415 36.176 38.0375 34.64V38.096H37.9655ZM52.6535 45.584C52.6535 45.536 52.6295 45.512 52.5815 45.512L54.0935 43.064L54.1655 43.136L52.6535 45.584ZM58.1975 37.952L57.9095 34.856H58.0535L58.2695 37.952H58.1975ZM58.2695 43.928C58.0295 44.36 57.8135 44.744 57.6215 45.08C57.4295 45.416 57.2615 45.704 57.1175 45.944L56.9735 45.872L58.1975 43.928H58.2695ZM39.9095 37.736C40.0055 37.064 40.1015 36.152 40.1975 35H40.2695L40.0535 37.736H39.9095ZM53.0135 34.064C53.4455 34.448 53.6135 34.976 53.5175 35.648L53.0135 34.064ZM52.8695 25.64C53.7335 26.12 54.3815 26.456 54.8135 26.648L54.7415 26.72L52.8695 25.784V25.64ZM55.8935 32.696C55.7975 32.504 55.5575 31.88 55.1735 30.824C55.4615 31.16 55.7015 31.784 55.8935 32.696ZM53.6615 36.08C53.6615 36.368 53.7095 36.848 53.8055 37.52H53.7335C53.6375 37.328 53.5655 37.088 53.5175 36.8C53.5175 36.464 53.5175 36.224 53.5175 36.08H53.6615ZM55.8935 65.744H53.5895H55.8935ZM45.3815 60.848C45.3815 60.656 45.4775 60.32 45.6695 59.84L45.8135 59.912C45.7175 60.104 45.6215 60.44 45.5255 60.92L45.3815 60.848ZM51.0695 66.824H49.8455V66.752H51.0695V66.824ZM50.8535 52.352L52.0775 51.2L50.9255 52.352H50.8535ZM51.5735 65.744H50.5655V65.672H51.5735V65.744ZM47.6135 66.896C47.3255 66.944 46.8935 66.968 46.3175 66.968C46.3175 66.92 46.2935 66.896 46.2455 66.896H47.6135ZM57.3335 38.96C57.3335 38.624 57.2855 38.12 57.1895 37.448H57.2615L57.4055 38.96H57.3335ZM52.0055 66.176H52.8695V66.248H52.0055V66.176ZM47.9015 53.504L47.1095 54.368C47.1095 54.32 47.0855 54.296 47.0375 54.296L47.8295 53.432L47.9015 53.504ZM46.4615 55.664C46.8455 55.184 47.1095 54.824 47.2535 54.584C47.2535 54.632 47.2535 54.656 47.2535 54.656C47.3015 54.656 47.3255 54.656 47.3255 54.656L46.6055 55.736L46.4615 55.664ZM50.2055 47.6C50.5895 47.216 50.9015 46.952 51.1415 46.808V46.88L50.2775 47.672L50.2055 47.6ZM53.3735 41.336C53.3735 41.384 53.2535 41.696 53.0135 42.272C53.0135 42.224 52.9895 42.2 52.9415 42.2C53.0375 41.912 53.1575 41.6 53.3015 41.264L53.3735 41.336ZM59.2775 39.752V38.816V39.752ZM58.3415 39.608V38.384V39.608ZM56.6135 33.488C56.5175 33.296 56.4215 33.128 56.3255 32.984C56.2295 32.792 56.1575 32.648 56.1095 32.552C56.1095 32.504 56.1095 32.48 56.1095 32.48C56.1575 32.48 56.1815 32.48 56.1815 32.48L56.6855 33.416L56.6135 33.488Z" fill="#FFE419"/>
</g>
<path d="M61.8495 64.016C61.7535 63.92 61.7055 63.872 61.7055 63.872L60.1215 63.8L57.1695 63.872C55.5855 63.872 54.4095 63.896 53.6415 63.944H50.1855L49.4655 64.016L47.7375 63.944C47.6895 63.944 47.6175 63.944 47.5215 63.944C47.4255 63.896 47.3775 63.848 47.3775 63.8C47.3775 63.704 47.4015 63.608 47.4495 63.512L48.3855 60.704C48.6735 59.936 48.9375 59.384 49.1775 59.048C49.5615 58.328 50.1855 57.248 51.0495 55.808C51.8655 54.464 52.8735 53.264 54.0735 52.208L55.8735 50.768C56.0175 50.624 56.5935 50.096 57.6015 49.184C58.6575 48.272 59.5695 47.288 60.3375 46.232C61.1055 45.368 61.6335 44.312 61.9215 43.064C62.2575 41.528 62.4495 40.184 62.4975 39.032C62.5455 37.688 62.4255 36.248 62.1375 34.712C61.9935 34.04 61.6815 32.84 61.2015 31.112C60.7215 29.816 60.0495 28.784 59.1855 28.016C58.0335 26.864 56.7855 26.024 55.4415 25.496C54.6255 25.208 53.7375 25.016 52.7775 24.92C51.8655 24.776 51.2895 24.68 51.0495 24.632C50.9535 24.632 50.8335 24.608 50.6895 24.56C50.5935 24.512 50.4975 24.512 50.4015 24.56C49.4895 24.656 48.8175 24.776 48.3855 24.92L45.9375 25.856C44.9295 26.336 44.3775 26.624 44.2815 26.72C43.7535 27.056 43.2975 27.464 42.9135 27.944C42.5295 28.376 42.0495 29 41.4735 29.816C40.5615 31.256 40.1055 33.176 40.1055 35.576C40.1055 35.912 40.0815 36.32 40.0335 36.8C40.0335 37.232 40.0575 37.76 40.1055 38.384C40.1055 39.488 40.3695 40.28 40.8975 40.76C41.0895 40.952 41.2335 40.952 41.3295 40.76L41.6175 40.904C41.6175 40.856 41.6655 40.736 41.7615 40.544L42.0495 40.76C42.4335 41.144 42.8415 41.264 43.2735 41.12C43.5135 41.072 43.7535 41 43.9935 40.904C44.2815 40.808 44.4975 40.736 44.6415 40.688H44.8575L45.3615 40.616C45.3615 40.616 45.4095 40.616 45.5055 40.616C45.6015 40.568 45.6735 40.568 45.7215 40.616C45.9615 40.712 46.0815 40.64 46.0815 40.4C46.4655 40.64 46.6815 40.592 46.7295 40.256C46.8255 39.968 46.9215 39.536 47.0175 38.96C47.2095 38.144 47.3295 37.472 47.3775 36.944C47.5215 35.504 47.9535 34.304 48.6735 33.344C49.2975 32.576 50.0895 32.192 51.0495 32.192C52.0095 32.24 52.8975 32.6 53.7135 33.272C54.0975 33.56 54.3615 33.968 54.5055 34.496C54.8415 35.312 55.0335 36.056 55.0815 36.728L55.1535 37.88C55.1535 38.984 55.1295 39.8 55.0815 40.328C54.8895 41.384 54.3135 42.44 53.3535 43.496C52.6335 44.312 51.7215 45.128 50.6175 45.944C49.4175 46.904 48.6495 47.624 48.3135 48.104L47.7375 48.68C45.9615 50.6 45.0495 51.584 45.0015 51.632C44.8095 51.824 44.5935 52.088 44.3535 52.424C44.1615 52.76 43.9695 53.048 43.7775 53.288C43.1055 54.008 42.4095 55.088 41.6895 56.528C41.4015 57.152 41.1855 57.704 41.0415 58.184C40.8975 58.664 40.7535 59.072 40.6095 59.408L40.1775 61.208C40.0335 61.976 39.9615 62.792 39.9615 63.656C39.8655 64.52 39.7695 65.864 39.6735 67.688V70.28C39.8175 70.28 39.9375 70.256 40.0335 70.208C40.0335 70.4 40.0575 70.568 40.1055 70.712C40.2015 70.808 40.3455 70.904 40.5375 71C40.8255 70.904 40.9935 70.856 41.0415 70.856C41.2335 70.856 41.4015 70.952 41.5455 71.144C41.7855 71.336 42.0255 71.336 42.2655 71.144C42.5535 71 42.8175 70.928 43.0575 70.928C43.2495 70.928 43.4895 70.976 43.7775 71.072H43.9935C44.0415 71.072 44.1375 71.048 44.2815 71C44.4735 71 44.6175 71.048 44.7135 71.144H45.0735H45.5775H46.0815C46.1295 71.192 46.1775 71.192 46.2255 71.144C46.2735 71.144 46.3215 71.144 46.3695 71.144C46.7535 71.048 47.0415 71 47.2335 71C49.3455 71 50.9535 70.976 52.0575 70.928C53.6895 70.928 54.9375 70.904 55.8015 70.856H58.8255L61.4895 70.928C61.7775 70.928 61.9455 70.808 61.9935 70.568L61.9215 69.776C61.9215 69.68 61.8975 69.584 61.8495 69.488C61.8495 69.392 61.8735 69.272 61.9215 69.128C61.9695 69.032 61.9935 68.888 61.9935 68.696L61.9215 67.832C61.9215 67.688 61.8975 67.544 61.8495 67.4C61.8015 67.208 61.7775 67.016 61.7775 66.824C61.7775 66.776 61.8495 66.536 61.9935 66.104C61.9935 65.864 61.9695 65.696 61.9215 65.6L61.8495 65.312C61.8495 65.216 61.8495 65.072 61.8495 64.88C61.8975 64.64 61.8495 64.424 61.7055 64.232L61.8495 64.016ZM58.8975 45.152C59.0415 44.816 59.1855 44.528 59.3295 44.288C59.5215 44 59.6895 43.688 59.8335 43.352L60.6255 41.552L60.4815 42.272L58.8975 45.368L58.5375 46.088C58.2015 46.616 57.9855 46.928 57.8895 47.024L53.3535 51.272L53.2095 51.344L52.9935 51.632L51.4815 52.928L51.1935 53.072C51.1935 53.072 51.4575 52.808 51.9855 52.28C51.9375 52.328 52.2735 52.064 52.9935 51.488L53.2095 51.344L53.5695 50.912L56.5935 48.032L58.5375 46.088L58.8975 45.152ZM59.1855 67.976C58.2255 67.88 56.8095 67.832 54.9375 67.832C53.8335 67.832 52.1295 67.88 49.8255 67.976L47.3055 68.048L47.2335 67.904L47.9535 67.832V67.76C47.8095 67.712 47.5695 67.688 47.2335 67.688L47.3055 67.616L51.4815 67.472V67.544L51.3375 67.616C51.4815 67.616 51.6735 67.64 51.9135 67.688C52.2015 67.736 52.4175 67.688 52.5615 67.544C52.6095 67.496 52.6575 67.496 52.7055 67.544C52.7535 67.544 52.8015 67.544 52.8495 67.544C53.0415 67.544 53.2095 67.568 53.3535 67.616C53.4975 67.664 53.6655 67.688 53.8575 67.688L57.5295 67.616L57.8175 67.544H56.3775V67.472C56.5215 67.424 56.7135 67.4 56.9535 67.4C57.1455 67.4 57.4335 67.448 57.8175 67.544L59.1855 67.76V67.976ZM43.5615 60.992C43.5615 60.944 43.5375 60.92 43.4895 60.92C43.4895 60.872 43.5135 60.824 43.5615 60.776C43.6575 60.728 43.7055 60.632 43.7055 60.488C43.7535 60.344 43.7775 60.224 43.7775 60.128L44.1375 59.336C44.6175 58.136 44.9295 57.392 45.0735 57.104C45.5055 56.192 45.9375 55.448 46.3695 54.872C46.7055 54.344 47.3055 53.6 48.1695 52.64C48.3615 52.4 48.9135 51.824 49.8255 50.912L51.4095 49.256L54.8655 46.16C54.8655 46.16 55.2255 45.728 55.9455 44.864L57.0255 43.208C57.6975 42.104 58.1295 40.976 58.3215 39.824V39.32C58.1295 37.544 57.9615 36.128 57.8175 35.072C57.7695 34.832 57.6735 34.544 57.5295 34.208C57.3855 33.824 57.2895 33.512 57.2415 33.272L56.6655 31.76C56.5215 31.328 56.2335 30.968 55.8015 30.68C55.3695 30.344 55.1055 30.128 55.0095 30.032C54.5295 29.648 54.0015 29.384 53.4255 29.24C52.8975 29.048 52.2015 28.88 51.3375 28.736L51.9135 28.808H52.4895C53.3535 29 54.0495 29.264 54.5775 29.6C55.3935 30.128 55.8495 30.44 55.9455 30.536C56.4735 30.92 56.9535 31.664 57.3855 32.768C57.4335 32.912 57.5055 33.176 57.6015 33.56C57.7455 33.944 57.9135 34.28 58.1055 34.568C58.2495 34.856 58.3215 35.168 58.3215 35.504C58.3695 35.744 58.4175 36.056 58.4655 36.44C58.5135 36.776 58.5375 37.184 58.5375 37.664C58.5855 38 58.6095 38.504 58.6095 39.176C58.6095 39.656 58.5855 40.016 58.5375 40.256C58.4895 40.832 58.2495 41.504 57.8175 42.272C57.4815 42.896 57.1455 43.448 56.8095 43.928C56.5215 44.36 56.2815 44.744 56.0895 45.08C55.6575 45.8 54.9855 46.544 54.0735 47.312L49.5375 51.56C48.0975 52.904 46.9215 54.44 46.0095 56.168C45.0975 57.752 44.3775 59.408 43.8495 61.136L43.7055 61.352V60.92L43.5615 60.992ZM45.2175 60.344C45.3135 59.96 45.4095 59.624 45.5055 59.336C45.6495 59.048 45.7695 58.808 45.8655 58.616C46.3455 57.368 47.0415 56.12 47.9535 54.872L49.4655 53C50.4255 52.04 51.1695 51.344 51.6975 50.912L54.3615 48.392L55.6575 47.168C56.2335 46.592 56.6895 46.184 57.0255 45.944C57.0255 45.992 56.9775 46.064 56.8815 46.16L55.7295 47.312L53.3535 49.544L52.2015 50.624C50.8575 51.872 49.9935 52.712 49.6095 53.144C48.6975 54.2 47.9295 55.208 47.3055 56.168C46.6815 57.176 46.0575 58.496 45.4335 60.128L44.6415 62.648C44.5455 62.84 44.4975 63.152 44.4975 63.584V63.872H44.3535L44.2815 63.224L45.2175 60.344ZM60.6255 68.48C60.3375 68.48 59.9055 68.432 59.3295 68.336C58.5135 68.24 57.2415 68.192 55.5135 68.192L48.3135 68.408H47.4495L47.1615 68.336V68.192L47.4495 68.12L52.2015 67.976L54.9375 67.904L57.2415 67.976C58.0095 67.976 58.5855 68 58.9695 68.048C59.4495 68.096 60.0015 68.216 60.6255 68.408V68.48ZM50.3295 49.904C48.2175 52.016 46.6575 53.912 45.6495 55.592C44.4015 57.704 43.4655 59.936 42.8415 62.288C42.9375 61.328 43.1535 60.416 43.4895 59.552C43.8255 58.688 44.3055 57.632 44.9295 56.384C45.5535 55.184 46.4175 53.936 47.5215 52.64C48.6255 51.296 49.5615 50.384 50.3295 49.904ZM46.3695 53.432C45.4575 54.824 44.5455 56.48 43.6335 58.4C42.8175 60.32 42.3855 62.12 42.3375 63.8H42.1935C42.1935 63.704 42.1695 63.56 42.1215 63.368C42.1215 63.176 42.1455 63.008 42.1935 62.864C42.4335 61.088 42.8655 59.528 43.4895 58.184L45.2175 54.872C45.3615 54.632 45.5295 54.392 45.7215 54.152C45.9135 53.864 46.0815 53.6 46.2255 53.36L46.3695 53.432ZM45.5775 52.424C42.8415 56.072 41.2815 59.84 40.8975 63.728V63.584C40.8975 62.864 40.9455 62.336 41.0415 62C41.5695 59.552 42.2175 57.632 42.9855 56.24C43.4175 55.52 44.1135 54.44 45.0735 53C45.1695 52.76 45.2895 52.568 45.4335 52.424H45.5775ZM56.8815 33.2C57.3615 33.968 57.6255 34.592 57.6735 35.072C57.7215 35.888 57.8415 37.232 58.0335 39.104V39.392C58.0335 39.872 57.9135 40.472 57.6735 41.192L57.4575 41.768H57.3855L57.8175 40.112C57.8655 39.92 57.8895 39.584 57.8895 39.104L57.8175 37.592L57.6735 36.656C57.6735 36.464 57.6495 36.272 57.6015 36.08C57.5535 35.888 57.5295 35.696 57.5295 35.504C57.5295 34.928 57.3855 34.4 57.0975 33.92C56.9535 33.536 56.8575 33.296 56.8095 33.2H56.8815ZM47.3055 66.32C48.0735 66.224 49.2255 66.176 50.7615 66.176C52.2495 66.176 53.3775 66.2 54.1455 66.248V66.32L47.3055 66.392V66.32ZM60.9135 65.744C60.7695 65.744 60.4575 65.792 59.9775 65.888V65.96L60.5535 66.104L58.8975 65.96C58.8975 65.96 58.9695 65.888 59.1135 65.744L57.8895 65.312C59.0895 65.312 60.0975 65.408 60.9135 65.6V65.744ZM57.0975 37.88C57.1455 38.168 57.1695 38.576 57.1695 39.104C57.1695 39.872 57.0015 40.712 56.6655 41.624L56.8815 40.184C56.9775 39.512 57.0015 39.032 56.9535 38.744C56.9535 38.12 56.9295 37.424 56.8815 36.656C56.8335 35.84 56.7855 35.216 56.7375 34.784C56.7375 34.496 56.7135 34.304 56.6655 34.208C56.6655 34.16 56.6655 34.136 56.6655 34.136C56.7135 34.136 56.7375 34.136 56.7375 34.136L56.8095 34.424L57.0975 37.88ZM50.1855 54.584C49.2255 55.976 48.4335 57.248 47.8095 58.4C47.2335 59.504 46.7775 60.68 46.4415 61.928C47.0655 59.288 48.3135 56.84 50.1855 54.584ZM59.2575 66.752C59.4495 66.752 59.7375 66.8 60.1215 66.896V67.04H59.4735L55.1535 66.824C55.0095 66.824 54.8895 66.8 54.7935 66.752L54.8655 66.68L59.2575 66.752ZM48.7455 56.168C47.1135 59 46.1535 61.52 45.8655 63.728C45.7695 63.056 46.0335 61.88 46.6575 60.2C47.3295 58.472 48.0255 57.128 48.7455 56.168ZM50.8335 65.6C51.6495 65.6 52.2495 65.624 52.6335 65.672V65.816H47.3055V65.672L50.8335 65.6ZM59.4735 40.328C59.5215 40.136 59.5455 39.872 59.5455 39.536C59.5455 39.152 59.4975 38.576 59.4015 37.808L59.0415 34.28C59.0415 34.088 59.0175 33.944 58.9695 33.848C58.9215 33.704 58.8735 33.584 58.8255 33.488C59.0175 33.728 59.1615 34.16 59.2575 34.784C59.3535 36.224 59.4495 37.352 59.5455 38.168C59.6415 38.744 59.6895 39.2 59.6895 39.536C59.6895 39.776 59.6415 40.136 59.5455 40.616C59.4975 40.664 59.4735 40.736 59.4735 40.832H59.4015L59.4735 40.328ZM46.5855 57.68C46.4895 58.016 46.2975 58.52 46.0095 59.192C45.2415 61.256 44.7855 62.792 44.6415 63.8C44.6415 63.752 44.6175 63.704 44.5695 63.656C44.5695 63.56 44.5935 63.464 44.6415 63.368C44.6415 62.984 44.7135 62.624 44.8575 62.288C45.3375 60.608 45.8895 59.144 46.5135 57.896L46.5855 57.68ZM46.6575 53C46.7535 52.616 47.3295 51.896 48.3855 50.84C49.4895 49.784 50.4495 48.896 51.2655 48.176C51.0255 48.512 50.6895 48.872 50.2575 49.256C49.8735 49.64 49.5615 49.928 49.3215 50.12C47.9295 51.512 47.0415 52.472 46.6575 53ZM47.3775 65.456L48.8895 65.384C49.1775 65.336 49.6575 65.312 50.3295 65.312C50.9535 65.312 51.5775 65.384 52.2015 65.528H47.3775V65.456ZM60.1935 39.536C60.2895 40.16 60.1935 40.976 59.9055 41.984C59.6175 42.944 59.2815 43.544 58.8975 43.784C59.7135 42.248 60.1455 40.832 60.1935 39.536ZM43.3455 63.512C43.3455 63.704 43.2735 63.8 43.1295 63.8C43.0815 63.8 43.0335 63.776 42.9855 63.728C42.9855 63.632 42.9855 63.56 42.9855 63.512V63.296C42.9855 62.768 43.1535 62.168 43.4895 61.496V61.64L43.3455 63.512ZM41.2575 39.104C41.0655 39.056 40.9695 38.864 40.9695 38.528V36.584C40.9695 36.2 41.0175 35.576 41.1135 34.712C41.1135 34.904 41.1135 35.192 41.1135 35.576C41.1615 35.96 41.1615 36.272 41.1135 36.512V38.528C41.1135 38.72 41.1615 38.912 41.2575 39.104ZM52.3455 51.632C52.5375 51.344 52.9695 50.888 53.6415 50.264C54.3135 49.64 54.8175 49.232 55.1535 49.04L52.3455 51.632ZM45.2895 63.8C45.3375 62.888 45.5295 62 45.8655 61.136C46.2015 60.224 46.3935 59.696 46.4415 59.552C46.1055 60.752 45.7215 62.168 45.2895 63.8ZM60.0495 66.608C59.4735 66.512 58.6575 66.416 57.6015 66.32C57.7935 66.272 58.1055 66.248 58.5375 66.248C59.2575 66.248 59.7615 66.32 60.0495 66.464V66.608ZM54.2895 30.032C55.0095 30.32 55.5375 30.632 55.8735 30.968C56.2575 31.256 56.4735 31.616 56.5215 32.048C56.2335 31.568 55.9215 31.184 55.5855 30.896C55.4415 30.752 55.2255 30.608 54.9375 30.464C54.6495 30.272 54.4335 30.128 54.2895 30.032ZM57.8175 44.504C58.1055 43.88 58.5855 42.944 59.2575 41.696C59.1135 42.272 58.8735 42.848 58.5375 43.424C58.2015 44 57.9855 44.384 57.8895 44.576L57.8175 44.504ZM40.4655 38.096C40.4175 37.328 40.4415 36.176 40.5375 34.64V38.096H40.4655ZM55.1535 45.584C55.1535 45.536 55.1295 45.512 55.0815 45.512L56.5935 43.064L56.6655 43.136L55.1535 45.584ZM60.6975 37.952L60.4095 34.856H60.5535L60.7695 37.952H60.6975ZM60.7695 43.928C60.5295 44.36 60.3135 44.744 60.1215 45.08C59.9295 45.416 59.7615 45.704 59.6175 45.944L59.4735 45.872L60.6975 43.928H60.7695ZM42.4095 37.736C42.5055 37.064 42.6015 36.152 42.6975 35H42.7695L42.5535 37.736H42.4095ZM55.5135 34.064C55.9455 34.448 56.1135 34.976 56.0175 35.648L55.5135 34.064ZM55.3695 25.64C56.2335 26.12 56.8815 26.456 57.3135 26.648L57.2415 26.72L55.3695 25.784V25.64ZM58.3935 32.696C58.2975 32.504 58.0575 31.88 57.6735 30.824C57.9615 31.16 58.2015 31.784 58.3935 32.696ZM56.1615 36.08C56.1615 36.368 56.2095 36.848 56.3055 37.52H56.2335C56.1375 37.328 56.0655 37.088 56.0175 36.8C56.0175 36.464 56.0175 36.224 56.0175 36.08H56.1615ZM58.3935 65.744H56.0895H58.3935ZM47.8815 60.848C47.8815 60.656 47.9775 60.32 48.1695 59.84L48.3135 59.912C48.2175 60.104 48.1215 60.44 48.0255 60.92L47.8815 60.848ZM53.5695 66.824H52.3455V66.752H53.5695V66.824ZM53.3535 52.352L54.5775 51.2L53.4255 52.352H53.3535ZM54.0735 65.744H53.0655V65.672H54.0735V65.744ZM50.1135 66.896C49.8255 66.944 49.3935 66.968 48.8175 66.968C48.8175 66.92 48.7935 66.896 48.7455 66.896H50.1135ZM59.8335 38.96C59.8335 38.624 59.7855 38.12 59.6895 37.448H59.7615L59.9055 38.96H59.8335ZM54.5055 66.176H55.3695V66.248H54.5055V66.176ZM50.4015 53.504L49.6095 54.368C49.6095 54.32 49.5855 54.296 49.5375 54.296L50.3295 53.432L50.4015 53.504ZM48.9615 55.664C49.3455 55.184 49.6095 54.824 49.7535 54.584C49.7535 54.632 49.7535 54.656 49.7535 54.656C49.8015 54.656 49.8255 54.656 49.8255 54.656L49.1055 55.736L48.9615 55.664ZM52.7055 47.6C53.0895 47.216 53.4015 46.952 53.6415 46.808V46.88L52.7775 47.672L52.7055 47.6ZM55.8735 41.336C55.8735 41.384 55.7535 41.696 55.5135 42.272C55.5135 42.224 55.4895 42.2 55.4415 42.2C55.5375 41.912 55.6575 41.6 55.8015 41.264L55.8735 41.336ZM61.7775 39.752V38.816V39.752ZM60.8415 39.608V38.384V39.608ZM59.1135 33.488C59.0175 33.296 58.9215 33.128 58.8255 32.984C58.7295 32.792 58.6575 32.648 58.6095 32.552C58.6095 32.504 58.6095 32.48 58.6095 32.48C58.6575 32.48 58.6815 32.48 58.6815 32.48L59.1855 33.416L59.1135 33.488Z" fill="#FFE419"/>
<defs>
<filter id="filter0_f" x="30.6719" y="14.5244" width="42.8343" height="66.764" filterUnits="userSpaceOnUse" color-interpolation-filters="sRGB">
<feFlood flood-opacity="0" result="BackgroundImageFix"/>
<feBlend mode="normal" in="SourceGraphic" in2="BackgroundImageFix" result="shape"/>
<feGaussianBlur stdDeviation="5" result="effect1_foregroundBlur"/>
</filter>
<filter id="filter1_d" x="33.1719" y="24.5244" width="30.8343" height="54.764" filterUnits="userSpaceOnUse" color-interpolation-filters="sRGB">
<feFlood flood-opacity="0" result="BackgroundImageFix"/>
<feColorMatrix in="SourceAlpha" type="matrix" values="0 0 0 0 0 0 0 0 0 0 0 0 0 0 0 0 0 0 127 0"/>
<feOffset dy="4"/>
<feGaussianBlur stdDeviation="2"/>
<feColorMatrix type="matrix" values="0 0 0 0 0 0 0 0 0 0 0 0 0 0 0 0 0 0 0.25 0"/>
<feBlend mode="normal" in2="BackgroundImageFix" result="effect1_dropShadow"/>
<feBlend mode="normal" in="SourceGraphic" in2="effect1_dropShadow" result="shape"/>
</filter>
<linearGradient id="paint0_linear" x1="-3.99648" y1="56.5851" x2="107.265" y2="57.628" gradientUnits="userSpaceOnUse">
<stop offset="0.396106" stop-color="#3DFFFF"/>
<stop offset="1" stop-color="white" stop-opacity="0"/>
</linearGradient>
</defs>
</svg>
