<svg width="99" height="99" viewBox="0 0 99 99" fill="none" xmlns="http://www.w3.org/2000/svg">
<circle cx="49.1953" cy="49.1965" r="35.6919" transform="rotate(57.9282 49.1953 49.1965)" fill="#186FE1"/>
<circle cx="49.1953" cy="49.1965" r="35.6919" transform="rotate(57.9282 49.1953 49.1965)" fill="url(#paint0_linear)"/>
<g filter="url(#filter0_f)">
<path d="M34.595 63.872C34.691 63.824 34.811 63.8 34.955 63.8C35.051 63.8 35.195 63.848 35.387 63.944C35.579 63.992 35.747 64.016 35.891 64.016C36.179 64.016 36.467 63.992 36.755 63.944C37.043 63.896 37.331 63.872 37.619 63.872C40.307 63.776 42.299 63.728 43.595 63.728L48.347 63.8C48.683 63.8 48.875 63.824 48.923 63.872C48.971 63.92 48.995 64.112 48.995 64.448V70.28C48.995 70.52 49.019 70.664 49.067 70.712C49.163 70.76 49.307 70.76 49.499 70.712C49.835 70.712 50.051 70.784 50.147 70.928C50.147 70.976 50.195 71 50.291 71L50.795 70.928C51.035 70.928 51.299 71 51.587 71.144C51.635 71.192 51.731 71.216 51.875 71.216C52.067 71.12 52.355 71.144 52.739 71.288C52.979 71.432 53.363 71.552 53.891 71.648C54.083 71.648 54.227 71.624 54.323 71.576C54.515 71.48 54.683 71.384 54.827 71.288C55.019 71.24 55.235 71.264 55.475 71.36L55.691 70.928C55.787 70.16 55.835 69.584 55.835 69.2L55.619 64.52V64.304C55.619 64.016 55.811 63.872 56.195 63.872C56.483 63.824 56.939 63.8 57.563 63.8C57.851 63.752 58.019 63.704 58.067 63.656C58.115 63.608 58.187 63.464 58.283 63.224C58.283 63.176 58.283 63.104 58.283 63.008C58.331 62.864 58.331 62.768 58.283 62.72C58.283 62.72 58.163 62.6 57.923 62.36C58.115 62.216 58.211 62.072 58.211 61.928C58.211 61.832 58.187 61.712 58.139 61.568C58.091 61.424 58.091 61.28 58.139 61.136L57.275 61.064H56.555V60.92H57.923C58.115 60.92 58.259 60.896 58.355 60.848C58.307 60.8 58.283 60.752 58.283 60.704C58.283 60.608 58.259 60.536 58.211 60.488C58.451 60.344 58.571 60.248 58.571 60.2C58.571 60.056 58.451 59.888 58.211 59.696L58.427 59.408C58.283 59.312 58.115 59.216 57.923 59.12L57.419 58.904H57.779C58.115 58.904 58.331 58.832 58.427 58.688C58.571 58.496 58.571 58.256 58.427 57.968L58.787 57.608C58.499 57.512 58.259 57.56 58.067 57.752C57.971 57.848 57.875 57.896 57.779 57.896C57.683 57.896 57.611 57.896 57.563 57.896C57.419 57.848 57.227 57.824 56.987 57.824C57.323 57.968 57.635 58.088 57.923 58.184V58.328L55.763 58.112V57.968C56.051 57.872 56.267 57.824 56.411 57.824L55.763 57.68V57.608C55.811 57.56 55.907 57.488 56.051 57.392C56.195 57.296 56.339 57.296 56.483 57.392C56.627 57.488 56.819 57.536 57.059 57.536C57.251 57.536 57.539 57.488 57.923 57.392C57.875 57.344 57.803 57.32 57.707 57.32L56.339 57.176C56.051 57.176 55.859 57.152 55.763 57.104C55.667 57.008 55.643 56.816 55.691 56.528C55.691 54.56 55.715 53.096 55.763 52.136V49.472L55.835 41.408C55.883 40.976 55.907 40.328 55.907 39.464C55.907 39.368 55.883 39.2 55.835 38.96C55.835 38.672 55.859 38.432 55.907 38.24L55.979 36.368C55.931 35.6 55.907 34.472 55.907 32.984L55.979 28.88L55.907 25.496L55.835 25.424H55.547C55.451 25.184 55.307 25.112 55.115 25.208C54.923 25.208 54.755 25.136 54.611 24.992C54.371 24.848 54.107 24.776 53.819 24.776C53.579 24.776 53.339 24.848 53.099 24.992C52.955 25.04 52.811 25.088 52.667 25.136C52.523 25.184 52.379 25.232 52.235 25.28L52.091 25.208C51.755 24.968 51.539 24.848 51.443 24.848C51.347 24.848 51.131 24.968 50.795 25.208C50.795 25.256 50.723 25.28 50.579 25.28C50.339 25.28 50.171 25.304 50.075 25.352C50.027 25.352 49.955 25.376 49.859 25.424C49.811 25.424 49.739 25.4 49.643 25.352C49.547 25.304 49.427 25.28 49.283 25.28C48.803 25.28 48.515 25.616 48.419 26.288C48.419 26.432 48.395 26.552 48.347 26.648C48.155 27.08 47.819 27.728 47.339 28.592L46.475 30.536L45.179 33.272L43.379 37.088C42.803 38.288 41.987 40.088 40.931 42.488C40.835 42.632 40.739 42.776 40.643 42.92C40.547 43.064 40.451 43.208 40.355 43.352L39.347 45.728L38.051 48.392C37.859 48.776 37.331 49.88 36.467 51.704L35.315 54.224L34.667 55.592C34.235 56.408 33.875 57.224 33.587 58.04L33.515 58.256C33.131 58.736 32.795 59.504 32.507 60.56C32.459 60.608 32.435 60.656 32.435 60.704C32.483 60.752 32.507 60.8 32.507 60.848C32.699 61.04 32.795 61.256 32.795 61.496C32.795 61.688 32.699 61.88 32.507 62.072L32.939 62.648C33.035 62.696 33.131 62.744 33.227 62.792C33.323 62.84 33.419 62.912 33.515 63.008C33.515 63.008 33.467 63.056 33.371 63.152L33.587 63.512C33.731 63.608 33.803 63.704 33.803 63.8C33.851 63.848 33.803 63.92 33.659 64.016L34.595 63.872ZM54.179 70.784C54.179 70.976 54.131 71.072 54.035 71.072C53.987 71.12 53.867 71.12 53.675 71.072L54.179 70.568V70.424C54.083 70.328 54.035 70.208 54.035 70.064C54.035 69.968 54.059 69.848 54.107 69.704C54.203 69.56 54.275 69.44 54.323 69.344L54.395 69.632C54.395 69.776 54.347 69.944 54.251 70.136C54.203 70.328 54.179 70.472 54.179 70.568V70.784ZM38.627 49.76L39.275 48.392C39.419 48.008 39.683 47.432 40.067 46.664C40.931 44.648 42.275 41.624 44.099 37.592L45.251 35.144L46.979 31.472L48.635 28.016L48.923 27.44C48.923 27.488 48.923 27.512 48.923 27.512C48.971 27.512 48.995 27.512 48.995 27.512L48.923 27.8L47.267 31.184L44.459 37.16L41.363 43.784L39.779 47.528L39.275 48.392L38.699 49.832L38.627 49.76ZM48.707 29.672C48.803 29.672 48.851 29.696 48.851 29.744L47.987 31.616L47.843 32.048C47.411 33.056 46.715 34.568 45.755 36.584L44.459 39.536L42.875 42.92L40.787 47.528L38.555 52.424L37.763 54.08L36.827 56.24L36.539 56.6H36.467L36.611 56.168L40.211 48.536C40.595 47.816 40.979 46.928 41.363 45.872L42.443 43.28C43.499 40.976 44.315 39.248 44.891 38.096C45.515 36.704 46.499 34.616 47.843 31.832C47.939 31.736 47.987 31.688 47.987 31.688L48.707 29.672ZM41.363 47.24C41.651 46.472 41.843 45.992 41.939 45.8L45.395 38.312C45.587 37.88 46.139 36.68 47.051 34.712C47.051 34.664 47.099 34.592 47.195 34.496C47.243 34.448 47.315 34.328 47.411 34.136C47.555 33.944 47.603 33.728 47.555 33.488C47.555 33.44 47.627 33.272 47.771 32.984L48.779 30.896L48.923 30.68C48.971 30.824 48.995 31.064 48.995 31.4C48.995 31.688 48.947 31.904 48.851 32.048L45.035 40.184L40.931 49.112L37.619 56.24L37.403 56.6H37.331L37.691 55.52L37.115 56.6C37.115 56.552 37.091 56.528 37.043 56.528L41.219 47.528H41.291L41.363 47.672L41.651 47.096L41.363 47.24ZM41.939 56.6C41.939 56.552 41.963 56.48 42.011 56.384C42.059 56.24 42.107 56.144 42.155 56.096C42.347 55.856 42.539 55.448 42.731 54.872C42.827 54.536 43.019 54.08 43.307 53.504L45.899 47.888C46.043 47.648 46.211 47.24 46.403 46.664C46.499 46.376 46.691 45.992 46.979 45.512C47.459 44.36 47.843 43.496 48.131 42.92C48.275 42.536 48.539 41.96 48.923 41.192L48.995 41.264L49.067 41.84V45.656V50.912C49.019 52.16 48.995 54.008 48.995 56.456C48.995 56.648 48.947 56.768 48.851 56.816C48.803 56.864 48.659 56.864 48.419 56.816L45.755 56.672C44.219 56.672 43.067 56.648 42.299 56.6H41.939ZM48.995 38.888C48.995 39.128 47.675 42.152 45.035 47.96C42.395 53.72 40.979 56.648 40.787 56.744L44.099 49.472C45.539 46.208 47.147 42.68 48.923 38.888H48.995ZM52.811 55.304C52.907 53.768 52.955 52.592 52.955 51.776V47.672C52.955 45.512 52.931 43.88 52.883 42.776V40.04V38.24C52.835 37.088 52.811 35.36 52.811 33.056V32.48H52.955V32.84C53.003 34.328 53.027 36.536 53.027 39.464C53.075 40.28 53.099 41.456 53.099 42.992L53.027 47.456L53.099 49.04C53.003 51.824 52.955 53.912 52.955 55.304H52.811ZM39.491 48.608C40.979 45.056 43.403 39.824 46.763 32.912H46.835L39.635 48.68L39.491 48.608ZM42.515 49.04C42.611 48.608 43.667 46.208 45.683 41.84C47.699 37.472 48.827 35.216 49.067 35.072L48.851 35.576L47.483 38.528L45.683 42.272C44.819 44.192 44.291 45.368 44.099 45.8C44.003 45.992 43.955 46.136 43.955 46.232C43.859 46.424 43.619 46.952 43.235 47.816L42.587 49.112L42.515 49.04ZM53.243 40.904C53.243 37.736 53.219 35.36 53.171 33.776L53.099 32.336V31.976H53.243L53.315 32.336C53.411 34.448 53.459 36.032 53.459 37.088L53.387 40.472V45.8V48.752L53.243 48.68V47.024V40.904ZM45.107 45.512C45.107 45.704 45.083 45.848 45.035 45.944L43.595 49.184L42.011 52.64C41.819 53.024 41.627 53.408 41.435 53.792C41.291 54.128 41.147 54.44 41.003 54.728L40.355 56.24C40.307 56.288 40.259 56.36 40.211 56.456C40.163 56.504 40.115 56.6 40.067 56.744L39.923 56.6L45.035 45.512H45.107ZM40.211 60.776C40.211 60.632 40.259 60.536 40.355 60.488C40.499 60.44 40.595 60.416 40.643 60.416H42.371L47.483 60.632C47.771 60.68 48.179 60.704 48.707 60.704V60.776H40.211ZM40.715 59.696C40.907 59.504 42.179 59.408 44.531 59.408C47.267 59.408 48.755 59.504 48.995 59.696L48.563 59.768L45.323 59.624L41.219 59.696H40.715ZM52.019 49.904C51.923 49.52 51.875 47.024 51.875 42.416C51.875 38.96 51.923 36.992 52.019 36.512V49.904ZM51.515 49.976C51.467 48.92 51.443 47.336 51.443 45.224V39.392V36.44H51.587L51.659 36.8C51.707 36.752 51.731 36.656 51.731 36.512C51.731 36.56 51.731 36.584 51.731 36.584C51.779 36.584 51.803 36.584 51.803 36.584C51.803 37.016 51.755 37.328 51.659 37.52C51.563 37.808 51.515 38.288 51.515 38.96L51.587 43.568L51.515 47.672L51.587 49.328C51.635 49.472 51.635 49.592 51.587 49.688C51.587 49.784 51.587 49.88 51.587 49.976H51.515ZM50.291 41.912C50.291 43.016 50.219 44.144 50.075 45.296C49.979 44.816 49.931 44.432 49.931 44.144L50.003 43.064V40.76V40.4V39.752C50.003 39.176 50.075 38.744 50.219 38.456L50.291 41.912ZM39.347 62.216C39.731 62.072 41.123 62 43.523 62C46.499 62 48.275 62.072 48.851 62.216H39.347ZM45.467 44.576C45.467 44.336 45.779 43.568 46.403 42.272C47.027 40.928 47.435 40.184 47.627 40.04C47.627 40.232 47.603 40.352 47.555 40.4L45.611 44.432C45.611 44.528 45.563 44.576 45.467 44.576ZM41.579 57.536C41.627 57.392 41.771 57.32 42.011 57.32L45.971 57.464C46.931 57.464 47.651 57.488 48.131 57.536H48.851L48.779 57.68L41.579 57.536ZM38.915 56.6C39.491 55.208 40.139 53.84 40.859 52.496L42.227 49.544L42.371 49.616L39.059 56.672L38.915 56.6ZM53.747 68.912C53.795 69.008 53.819 69.176 53.819 69.416L53.603 70.712C53.603 71 53.459 71.096 53.171 71L53.603 68.912H53.747ZM51.299 40.76C51.347 42.008 51.299 43.4 51.155 44.936V40.76H51.299ZM47.555 39.752C47.699 39.464 47.843 39.152 47.987 38.816C48.131 38.432 48.299 38.072 48.491 37.736L48.563 37.952C48.563 38.24 48.443 38.6 48.203 39.032C47.963 39.464 47.747 39.704 47.555 39.752ZM44.243 57.824C45.683 57.92 46.739 57.968 47.411 57.968V58.112C46.739 58.112 45.683 58.064 44.243 57.968V57.824ZM46.979 32.336C47.315 31.664 47.771 30.656 48.347 29.312C48.395 29.312 48.419 29.336 48.419 29.384L47.123 32.408L46.979 32.336ZM45.107 58.832H42.947V58.76H45.107V58.832ZM50.291 28.448C50.291 28.736 50.219 29.024 50.075 29.312L50.003 28.808C50.003 28.424 50.099 28.112 50.291 27.872V28.448ZM48.995 28.808C48.755 29.336 48.539 29.792 48.347 30.176C48.155 30.56 47.987 30.92 47.843 31.256C47.843 31.208 47.819 31.184 47.771 31.184L48.851 28.808H48.995ZM55.763 62.576C55.859 62.384 56.051 62.288 56.339 62.288C56.627 62.288 56.819 62.36 56.915 62.504L55.763 62.576ZM53.315 51.56V49.544H53.387V51.56H53.315ZM51.155 48.536C51.155 47.624 51.131 46.952 51.083 46.52H51.227V48.536H51.155ZM51.371 37.376C51.371 37.424 51.299 37.808 51.155 38.528V37.016H51.299L51.371 37.376ZM50.075 48.248V46.304V48.176V48.248ZM48.995 38.096C48.947 38.528 48.707 39.008 48.275 39.536L48.923 38.096H48.995ZM48.851 34.136C48.611 34.568 48.419 34.976 48.275 35.36L48.131 35.288L48.707 34.064L48.851 34.136ZM46.403 41.84C46.691 41.168 46.931 40.664 47.123 40.328H47.195C47.099 40.52 46.859 41.048 46.475 41.912C46.427 41.912 46.403 41.912 46.403 41.912C46.403 41.864 46.403 41.84 46.403 41.84ZM53.315 52.208C53.315 52.784 53.291 53.216 53.243 53.504H53.171L53.243 52.208H53.315ZM33.803 62.72C33.515 62.72 33.323 62.624 33.227 62.432L34.091 62.576L34.019 62.72H33.803ZM53.099 29.672C53.099 29.624 53.075 29.528 53.027 29.384C53.027 29.24 53.075 29.12 53.171 29.024H53.315L53.243 29.888L53.099 29.816V29.672ZM53.243 27.872C53.387 28.112 53.339 28.328 53.099 28.52C53.099 28.232 53.123 28.016 53.171 27.872H53.243ZM56.051 59.408H57.707H56.051ZM48.131 40.04C48.083 40.184 47.963 40.52 47.771 41.048L47.627 40.976L48.059 40.04H48.131ZM40.355 49.832L39.851 50.84L39.059 52.64L39.707 51.344L40.355 49.832ZM38.843 53L37.691 55.52L38.483 53.936L38.843 53ZM40.355 49.832L41.075 48.248L40.355 49.832ZM42.443 45.152C42.299 45.344 42.131 45.68 41.939 46.16H42.011L42.515 45.152H42.443ZM46.259 36.8C46.259 36.752 46.235 36.728 46.187 36.728L45.827 37.592H45.899C46.139 37.16 46.259 36.896 46.259 36.8Z" fill="#FFE419"/>
</g>
<g filter="url(#filter1_d)">
<path d="M34.095 63.872C34.191 63.824 34.311 63.8 34.455 63.8C34.551 63.8 34.695 63.848 34.887 63.944C35.079 63.992 35.247 64.016 35.391 64.016C35.679 64.016 35.967 63.992 36.255 63.944C36.543 63.896 36.831 63.872 37.119 63.872C39.807 63.776 41.799 63.728 43.095 63.728L47.847 63.8C48.183 63.8 48.375 63.824 48.423 63.872C48.471 63.92 48.495 64.112 48.495 64.448V70.28C48.495 70.52 48.519 70.664 48.567 70.712C48.663 70.76 48.807 70.76 48.999 70.712C49.335 70.712 49.551 70.784 49.647 70.928C49.647 70.976 49.695 71 49.791 71L50.295 70.928C50.535 70.928 50.799 71 51.087 71.144C51.135 71.192 51.231 71.216 51.375 71.216C51.567 71.12 51.855 71.144 52.239 71.288C52.479 71.432 52.863 71.552 53.391 71.648C53.583 71.648 53.727 71.624 53.823 71.576C54.015 71.48 54.183 71.384 54.327 71.288C54.519 71.24 54.735 71.264 54.975 71.36L55.191 70.928C55.287 70.16 55.335 69.584 55.335 69.2L55.119 64.52V64.304C55.119 64.016 55.311 63.872 55.695 63.872C55.983 63.824 56.439 63.8 57.063 63.8C57.351 63.752 57.519 63.704 57.567 63.656C57.615 63.608 57.687 63.464 57.783 63.224C57.783 63.176 57.783 63.104 57.783 63.008C57.831 62.864 57.831 62.768 57.783 62.72C57.783 62.72 57.663 62.6 57.423 62.36C57.615 62.216 57.711 62.072 57.711 61.928C57.711 61.832 57.687 61.712 57.639 61.568C57.591 61.424 57.591 61.28 57.639 61.136L56.775 61.064H56.055V60.92H57.423C57.615 60.92 57.759 60.896 57.855 60.848C57.807 60.8 57.783 60.752 57.783 60.704C57.783 60.608 57.759 60.536 57.711 60.488C57.951 60.344 58.071 60.248 58.071 60.2C58.071 60.056 57.951 59.888 57.711 59.696L57.927 59.408C57.783 59.312 57.615 59.216 57.423 59.12L56.919 58.904H57.279C57.615 58.904 57.831 58.832 57.927 58.688C58.071 58.496 58.071 58.256 57.927 57.968L58.287 57.608C57.999 57.512 57.759 57.56 57.567 57.752C57.471 57.848 57.375 57.896 57.279 57.896C57.183 57.896 57.111 57.896 57.063 57.896C56.919 57.848 56.727 57.824 56.487 57.824C56.823 57.968 57.135 58.088 57.423 58.184V58.328L55.263 58.112V57.968C55.551 57.872 55.767 57.824 55.911 57.824L55.263 57.68V57.608C55.311 57.56 55.407 57.488 55.551 57.392C55.695 57.296 55.839 57.296 55.983 57.392C56.127 57.488 56.319 57.536 56.559 57.536C56.751 57.536 57.039 57.488 57.423 57.392C57.375 57.344 57.303 57.32 57.207 57.32L55.839 57.176C55.551 57.176 55.359 57.152 55.263 57.104C55.167 57.008 55.143 56.816 55.191 56.528C55.191 54.56 55.215 53.096 55.263 52.136V49.472L55.335 41.408C55.383 40.976 55.407 40.328 55.407 39.464C55.407 39.368 55.383 39.2 55.335 38.96C55.335 38.672 55.359 38.432 55.407 38.24L55.479 36.368C55.431 35.6 55.407 34.472 55.407 32.984L55.479 28.88L55.407 25.496L55.335 25.424H55.047C54.951 25.184 54.807 25.112 54.615 25.208C54.423 25.208 54.255 25.136 54.111 24.992C53.871 24.848 53.607 24.776 53.319 24.776C53.079 24.776 52.839 24.848 52.599 24.992C52.455 25.04 52.311 25.088 52.167 25.136C52.023 25.184 51.879 25.232 51.735 25.28L51.591 25.208C51.255 24.968 51.039 24.848 50.943 24.848C50.847 24.848 50.631 24.968 50.295 25.208C50.295 25.256 50.223 25.28 50.079 25.28C49.839 25.28 49.671 25.304 49.575 25.352C49.527 25.352 49.455 25.376 49.359 25.424C49.311 25.424 49.239 25.4 49.143 25.352C49.047 25.304 48.927 25.28 48.783 25.28C48.303 25.28 48.015 25.616 47.919 26.288C47.919 26.432 47.895 26.552 47.847 26.648C47.655 27.08 47.319 27.728 46.839 28.592L45.975 30.536L44.679 33.272L42.879 37.088C42.303 38.288 41.487 40.088 40.431 42.488C40.335 42.632 40.239 42.776 40.143 42.92C40.047 43.064 39.951 43.208 39.855 43.352L38.847 45.728L37.551 48.392C37.359 48.776 36.831 49.88 35.967 51.704L34.815 54.224L34.167 55.592C33.735 56.408 33.375 57.224 33.087 58.04L33.015 58.256C32.631 58.736 32.295 59.504 32.007 60.56C31.959 60.608 31.935 60.656 31.935 60.704C31.983 60.752 32.007 60.8 32.007 60.848C32.199 61.04 32.295 61.256 32.295 61.496C32.295 61.688 32.199 61.88 32.007 62.072L32.439 62.648C32.535 62.696 32.631 62.744 32.727 62.792C32.823 62.84 32.919 62.912 33.015 63.008C33.015 63.008 32.967 63.056 32.871 63.152L33.087 63.512C33.231 63.608 33.303 63.704 33.303 63.8C33.351 63.848 33.303 63.92 33.159 64.016L34.095 63.872ZM53.679 70.784C53.679 70.976 53.631 71.072 53.535 71.072C53.487 71.12 53.367 71.12 53.175 71.072L53.679 70.568V70.424C53.583 70.328 53.535 70.208 53.535 70.064C53.535 69.968 53.559 69.848 53.607 69.704C53.703 69.56 53.775 69.44 53.823 69.344L53.895 69.632C53.895 69.776 53.847 69.944 53.751 70.136C53.703 70.328 53.679 70.472 53.679 70.568V70.784ZM38.127 49.76L38.775 48.392C38.919 48.008 39.183 47.432 39.567 46.664C40.431 44.648 41.775 41.624 43.599 37.592L44.751 35.144L46.479 31.472L48.135 28.016L48.423 27.44C48.423 27.488 48.423 27.512 48.423 27.512C48.471 27.512 48.495 27.512 48.495 27.512L48.423 27.8L46.767 31.184L43.959 37.16L40.863 43.784L39.279 47.528L38.775 48.392L38.199 49.832L38.127 49.76ZM48.207 29.672C48.303 29.672 48.351 29.696 48.351 29.744L47.487 31.616L47.343 32.048C46.911 33.056 46.215 34.568 45.255 36.584L43.959 39.536L42.375 42.92L40.287 47.528L38.055 52.424L37.263 54.08L36.327 56.24L36.039 56.6H35.967L36.111 56.168L39.711 48.536C40.095 47.816 40.479 46.928 40.863 45.872L41.943 43.28C42.999 40.976 43.815 39.248 44.391 38.096C45.015 36.704 45.999 34.616 47.343 31.832C47.439 31.736 47.487 31.688 47.487 31.688L48.207 29.672ZM40.863 47.24C41.151 46.472 41.343 45.992 41.439 45.8L44.895 38.312C45.087 37.88 45.639 36.68 46.551 34.712C46.551 34.664 46.599 34.592 46.695 34.496C46.743 34.448 46.815 34.328 46.911 34.136C47.055 33.944 47.103 33.728 47.055 33.488C47.055 33.44 47.127 33.272 47.271 32.984L48.279 30.896L48.423 30.68C48.471 30.824 48.495 31.064 48.495 31.4C48.495 31.688 48.447 31.904 48.351 32.048L44.535 40.184L40.431 49.112L37.119 56.24L36.903 56.6H36.831L37.191 55.52L36.615 56.6C36.615 56.552 36.591 56.528 36.543 56.528L40.719 47.528H40.791L40.863 47.672L41.151 47.096L40.863 47.24ZM41.439 56.6C41.439 56.552 41.463 56.48 41.511 56.384C41.559 56.24 41.607 56.144 41.655 56.096C41.847 55.856 42.039 55.448 42.231 54.872C42.327 54.536 42.519 54.08 42.807 53.504L45.399 47.888C45.543 47.648 45.711 47.24 45.903 46.664C45.999 46.376 46.191 45.992 46.479 45.512C46.959 44.36 47.343 43.496 47.631 42.92C47.775 42.536 48.039 41.96 48.423 41.192L48.495 41.264L48.567 41.84V45.656V50.912C48.519 52.16 48.495 54.008 48.495 56.456C48.495 56.648 48.447 56.768 48.351 56.816C48.303 56.864 48.159 56.864 47.919 56.816L45.255 56.672C43.719 56.672 42.567 56.648 41.799 56.6H41.439ZM48.495 38.888C48.495 39.128 47.175 42.152 44.535 47.96C41.895 53.72 40.479 56.648 40.287 56.744L43.599 49.472C45.039 46.208 46.647 42.68 48.423 38.888H48.495ZM52.311 55.304C52.407 53.768 52.455 52.592 52.455 51.776V47.672C52.455 45.512 52.431 43.88 52.383 42.776V40.04V38.24C52.335 37.088 52.311 35.36 52.311 33.056V32.48H52.455V32.84C52.503 34.328 52.527 36.536 52.527 39.464C52.575 40.28 52.599 41.456 52.599 42.992L52.527 47.456L52.599 49.04C52.503 51.824 52.455 53.912 52.455 55.304H52.311ZM38.991 48.608C40.479 45.056 42.903 39.824 46.263 32.912H46.335L39.135 48.68L38.991 48.608ZM42.015 49.04C42.111 48.608 43.167 46.208 45.183 41.84C47.199 37.472 48.327 35.216 48.567 35.072L48.351 35.576L46.983 38.528L45.183 42.272C44.319 44.192 43.791 45.368 43.599 45.8C43.503 45.992 43.455 46.136 43.455 46.232C43.359 46.424 43.119 46.952 42.735 47.816L42.087 49.112L42.015 49.04ZM52.743 40.904C52.743 37.736 52.719 35.36 52.671 33.776L52.599 32.336V31.976H52.743L52.815 32.336C52.911 34.448 52.959 36.032 52.959 37.088L52.887 40.472V45.8V48.752L52.743 48.68V47.024V40.904ZM44.607 45.512C44.607 45.704 44.583 45.848 44.535 45.944L43.095 49.184L41.511 52.64C41.319 53.024 41.127 53.408 40.935 53.792C40.791 54.128 40.647 54.44 40.503 54.728L39.855 56.24C39.807 56.288 39.759 56.36 39.711 56.456C39.663 56.504 39.615 56.6 39.567 56.744L39.423 56.6L44.535 45.512H44.607ZM39.711 60.776C39.711 60.632 39.759 60.536 39.855 60.488C39.999 60.44 40.095 60.416 40.143 60.416H41.871L46.983 60.632C47.271 60.68 47.679 60.704 48.207 60.704V60.776H39.711ZM40.215 59.696C40.407 59.504 41.679 59.408 44.031 59.408C46.767 59.408 48.255 59.504 48.495 59.696L48.063 59.768L44.823 59.624L40.719 59.696H40.215ZM51.519 49.904C51.423 49.52 51.375 47.024 51.375 42.416C51.375 38.96 51.423 36.992 51.519 36.512V49.904ZM51.015 49.976C50.967 48.92 50.943 47.336 50.943 45.224V39.392V36.44H51.087L51.159 36.8C51.207 36.752 51.231 36.656 51.231 36.512C51.231 36.56 51.231 36.584 51.231 36.584C51.279 36.584 51.303 36.584 51.303 36.584C51.303 37.016 51.255 37.328 51.159 37.52C51.063 37.808 51.015 38.288 51.015 38.96L51.087 43.568L51.015 47.672L51.087 49.328C51.135 49.472 51.135 49.592 51.087 49.688C51.087 49.784 51.087 49.88 51.087 49.976H51.015ZM49.791 41.912C49.791 43.016 49.719 44.144 49.575 45.296C49.479 44.816 49.431 44.432 49.431 44.144L49.503 43.064V40.76V40.4V39.752C49.503 39.176 49.575 38.744 49.719 38.456L49.791 41.912ZM38.847 62.216C39.231 62.072 40.623 62 43.023 62C45.999 62 47.775 62.072 48.351 62.216H38.847ZM44.967 44.576C44.967 44.336 45.279 43.568 45.903 42.272C46.527 40.928 46.935 40.184 47.127 40.04C47.127 40.232 47.103 40.352 47.055 40.4L45.111 44.432C45.111 44.528 45.063 44.576 44.967 44.576ZM41.079 57.536C41.127 57.392 41.271 57.32 41.511 57.32L45.471 57.464C46.431 57.464 47.151 57.488 47.631 57.536H48.351L48.279 57.68L41.079 57.536ZM38.415 56.6C38.991 55.208 39.639 53.84 40.359 52.496L41.727 49.544L41.871 49.616L38.559 56.672L38.415 56.6ZM53.247 68.912C53.295 69.008 53.319 69.176 53.319 69.416L53.103 70.712C53.103 71 52.959 71.096 52.671 71L53.103 68.912H53.247ZM50.799 40.76C50.847 42.008 50.799 43.4 50.655 44.936V40.76H50.799ZM47.055 39.752C47.199 39.464 47.343 39.152 47.487 38.816C47.631 38.432 47.799 38.072 47.991 37.736L48.063 37.952C48.063 38.24 47.943 38.6 47.703 39.032C47.463 39.464 47.247 39.704 47.055 39.752ZM43.743 57.824C45.183 57.92 46.239 57.968 46.911 57.968V58.112C46.239 58.112 45.183 58.064 43.743 57.968V57.824ZM46.479 32.336C46.815 31.664 47.271 30.656 47.847 29.312C47.895 29.312 47.919 29.336 47.919 29.384L46.623 32.408L46.479 32.336ZM44.607 58.832H42.447V58.76H44.607V58.832ZM49.791 28.448C49.791 28.736 49.719 29.024 49.575 29.312L49.503 28.808C49.503 28.424 49.599 28.112 49.791 27.872V28.448ZM48.495 28.808C48.255 29.336 48.039 29.792 47.847 30.176C47.655 30.56 47.487 30.92 47.343 31.256C47.343 31.208 47.319 31.184 47.271 31.184L48.351 28.808H48.495ZM55.263 62.576C55.359 62.384 55.551 62.288 55.839 62.288C56.127 62.288 56.319 62.36 56.415 62.504L55.263 62.576ZM52.815 51.56V49.544H52.887V51.56H52.815ZM50.655 48.536C50.655 47.624 50.631 46.952 50.583 46.52H50.727V48.536H50.655ZM50.871 37.376C50.871 37.424 50.799 37.808 50.655 38.528V37.016H50.799L50.871 37.376ZM49.575 48.248V46.304V48.176V48.248ZM48.495 38.096C48.447 38.528 48.207 39.008 47.775 39.536L48.423 38.096H48.495ZM48.351 34.136C48.111 34.568 47.919 34.976 47.775 35.36L47.631 35.288L48.207 34.064L48.351 34.136ZM45.903 41.84C46.191 41.168 46.431 40.664 46.623 40.328H46.695C46.599 40.52 46.359 41.048 45.975 41.912C45.927 41.912 45.903 41.912 45.903 41.912C45.903 41.864 45.903 41.84 45.903 41.84ZM52.815 52.208C52.815 52.784 52.791 53.216 52.743 53.504H52.671L52.743 52.208H52.815ZM33.303 62.72C33.015 62.72 32.823 62.624 32.727 62.432L33.591 62.576L33.519 62.72H33.303ZM52.599 29.672C52.599 29.624 52.575 29.528 52.527 29.384C52.527 29.24 52.575 29.12 52.671 29.024H52.815L52.743 29.888L52.599 29.816V29.672ZM52.743 27.872C52.887 28.112 52.839 28.328 52.599 28.52C52.599 28.232 52.623 28.016 52.671 27.872H52.743ZM55.551 59.408H57.207H55.551ZM47.631 40.04C47.583 40.184 47.463 40.52 47.271 41.048L47.127 40.976L47.559 40.04H47.631ZM39.855 49.832L39.351 50.84L38.559 52.64L39.207 51.344L39.855 49.832ZM38.343 53L37.191 55.52L37.983 53.936L38.343 53ZM39.855 49.832L40.575 48.248L39.855 49.832ZM41.943 45.152C41.799 45.344 41.631 45.68 41.439 46.16H41.511L42.015 45.152H41.943ZM45.759 36.8C45.759 36.752 45.735 36.728 45.687 36.728L45.327 37.592H45.399C45.639 37.16 45.759 36.896 45.759 36.8Z" fill="#FFE419"/>
</g>
<path d="M36.595 63.872C36.691 63.824 36.811 63.8 36.955 63.8C37.051 63.8 37.195 63.848 37.387 63.944C37.579 63.992 37.747 64.016 37.891 64.016C38.179 64.016 38.467 63.992 38.755 63.944C39.043 63.896 39.331 63.872 39.619 63.872C42.307 63.776 44.299 63.728 45.595 63.728L50.347 63.8C50.683 63.8 50.875 63.824 50.923 63.872C50.971 63.92 50.995 64.112 50.995 64.448V70.28C50.995 70.52 51.019 70.664 51.067 70.712C51.163 70.76 51.307 70.76 51.499 70.712C51.835 70.712 52.051 70.784 52.147 70.928C52.147 70.976 52.195 71 52.291 71L52.795 70.928C53.035 70.928 53.299 71 53.587 71.144C53.635 71.192 53.731 71.216 53.875 71.216C54.067 71.12 54.355 71.144 54.739 71.288C54.979 71.432 55.363 71.552 55.891 71.648C56.083 71.648 56.227 71.624 56.323 71.576C56.515 71.48 56.683 71.384 56.827 71.288C57.019 71.24 57.235 71.264 57.475 71.36L57.691 70.928C57.787 70.16 57.835 69.584 57.835 69.2L57.619 64.52V64.304C57.619 64.016 57.811 63.872 58.195 63.872C58.483 63.824 58.939 63.8 59.563 63.8C59.851 63.752 60.019 63.704 60.067 63.656C60.115 63.608 60.187 63.464 60.283 63.224C60.283 63.176 60.283 63.104 60.283 63.008C60.331 62.864 60.331 62.768 60.283 62.72C60.283 62.72 60.163 62.6 59.923 62.36C60.115 62.216 60.211 62.072 60.211 61.928C60.211 61.832 60.187 61.712 60.139 61.568C60.091 61.424 60.091 61.28 60.139 61.136L59.275 61.064H58.555V60.92H59.923C60.115 60.92 60.259 60.896 60.355 60.848C60.307 60.8 60.283 60.752 60.283 60.704C60.283 60.608 60.259 60.536 60.211 60.488C60.451 60.344 60.571 60.248 60.571 60.2C60.571 60.056 60.451 59.888 60.211 59.696L60.427 59.408C60.283 59.312 60.115 59.216 59.923 59.12L59.419 58.904H59.779C60.115 58.904 60.331 58.832 60.427 58.688C60.571 58.496 60.571 58.256 60.427 57.968L60.787 57.608C60.499 57.512 60.259 57.56 60.067 57.752C59.971 57.848 59.875 57.896 59.779 57.896C59.683 57.896 59.611 57.896 59.563 57.896C59.419 57.848 59.227 57.824 58.987 57.824C59.323 57.968 59.635 58.088 59.923 58.184V58.328L57.763 58.112V57.968C58.051 57.872 58.267 57.824 58.411 57.824L57.763 57.68V57.608C57.811 57.56 57.907 57.488 58.051 57.392C58.195 57.296 58.339 57.296 58.483 57.392C58.627 57.488 58.819 57.536 59.059 57.536C59.251 57.536 59.539 57.488 59.923 57.392C59.875 57.344 59.803 57.32 59.707 57.32L58.339 57.176C58.051 57.176 57.859 57.152 57.763 57.104C57.667 57.008 57.643 56.816 57.691 56.528C57.691 54.56 57.715 53.096 57.763 52.136V49.472L57.835 41.408C57.883 40.976 57.907 40.328 57.907 39.464C57.907 39.368 57.883 39.2 57.835 38.96C57.835 38.672 57.859 38.432 57.907 38.24L57.979 36.368C57.931 35.6 57.907 34.472 57.907 32.984L57.979 28.88L57.907 25.496L57.835 25.424H57.547C57.451 25.184 57.307 25.112 57.115 25.208C56.923 25.208 56.755 25.136 56.611 24.992C56.371 24.848 56.107 24.776 55.819 24.776C55.579 24.776 55.339 24.848 55.099 24.992C54.955 25.04 54.811 25.088 54.667 25.136C54.523 25.184 54.379 25.232 54.235 25.28L54.091 25.208C53.755 24.968 53.539 24.848 53.443 24.848C53.347 24.848 53.131 24.968 52.795 25.208C52.795 25.256 52.723 25.28 52.579 25.28C52.339 25.28 52.171 25.304 52.075 25.352C52.027 25.352 51.955 25.376 51.859 25.424C51.811 25.424 51.739 25.4 51.643 25.352C51.547 25.304 51.427 25.28 51.283 25.28C50.803 25.28 50.515 25.616 50.419 26.288C50.419 26.432 50.395 26.552 50.347 26.648C50.155 27.08 49.819 27.728 49.339 28.592L48.475 30.536L47.179 33.272L45.379 37.088C44.803 38.288 43.987 40.088 42.931 42.488C42.835 42.632 42.739 42.776 42.643 42.92C42.547 43.064 42.451 43.208 42.355 43.352L41.347 45.728L40.051 48.392C39.859 48.776 39.331 49.88 38.467 51.704L37.315 54.224L36.667 55.592C36.235 56.408 35.875 57.224 35.587 58.04L35.515 58.256C35.131 58.736 34.795 59.504 34.507 60.56C34.459 60.608 34.435 60.656 34.435 60.704C34.483 60.752 34.507 60.8 34.507 60.848C34.699 61.04 34.795 61.256 34.795 61.496C34.795 61.688 34.699 61.88 34.507 62.072L34.939 62.648C35.035 62.696 35.131 62.744 35.227 62.792C35.323 62.84 35.419 62.912 35.515 63.008C35.515 63.008 35.467 63.056 35.371 63.152L35.587 63.512C35.731 63.608 35.803 63.704 35.803 63.8C35.851 63.848 35.803 63.92 35.659 64.016L36.595 63.872ZM56.179 70.784C56.179 70.976 56.131 71.072 56.035 71.072C55.987 71.12 55.867 71.12 55.675 71.072L56.179 70.568V70.424C56.083 70.328 56.035 70.208 56.035 70.064C56.035 69.968 56.059 69.848 56.107 69.704C56.203 69.56 56.275 69.44 56.323 69.344L56.395 69.632C56.395 69.776 56.347 69.944 56.251 70.136C56.203 70.328 56.179 70.472 56.179 70.568V70.784ZM40.627 49.76L41.275 48.392C41.419 48.008 41.683 47.432 42.067 46.664C42.931 44.648 44.275 41.624 46.099 37.592L47.251 35.144L48.979 31.472L50.635 28.016L50.923 27.44C50.923 27.488 50.923 27.512 50.923 27.512C50.971 27.512 50.995 27.512 50.995 27.512L50.923 27.8L49.267 31.184L46.459 37.16L43.363 43.784L41.779 47.528L41.275 48.392L40.699 49.832L40.627 49.76ZM50.707 29.672C50.803 29.672 50.851 29.696 50.851 29.744L49.987 31.616L49.843 32.048C49.411 33.056 48.715 34.568 47.755 36.584L46.459 39.536L44.875 42.92L42.787 47.528L40.555 52.424L39.763 54.08L38.827 56.24L38.539 56.6H38.467L38.611 56.168L42.211 48.536C42.595 47.816 42.979 46.928 43.363 45.872L44.443 43.28C45.499 40.976 46.315 39.248 46.891 38.096C47.515 36.704 48.499 34.616 49.843 31.832C49.939 31.736 49.987 31.688 49.987 31.688L50.707 29.672ZM43.363 47.24C43.651 46.472 43.843 45.992 43.939 45.8L47.395 38.312C47.587 37.88 48.139 36.68 49.051 34.712C49.051 34.664 49.099 34.592 49.195 34.496C49.243 34.448 49.315 34.328 49.411 34.136C49.555 33.944 49.603 33.728 49.555 33.488C49.555 33.44 49.627 33.272 49.771 32.984L50.779 30.896L50.923 30.68C50.971 30.824 50.995 31.064 50.995 31.4C50.995 31.688 50.947 31.904 50.851 32.048L47.035 40.184L42.931 49.112L39.619 56.24L39.403 56.6H39.331L39.691 55.52L39.115 56.6C39.115 56.552 39.091 56.528 39.043 56.528L43.219 47.528H43.291L43.363 47.672L43.651 47.096L43.363 47.24ZM43.939 56.6C43.939 56.552 43.963 56.48 44.011 56.384C44.059 56.24 44.107 56.144 44.155 56.096C44.347 55.856 44.539 55.448 44.731 54.872C44.827 54.536 45.019 54.08 45.307 53.504L47.899 47.888C48.043 47.648 48.211 47.24 48.403 46.664C48.499 46.376 48.691 45.992 48.979 45.512C49.459 44.36 49.843 43.496 50.131 42.92C50.275 42.536 50.539 41.96 50.923 41.192L50.995 41.264L51.067 41.84V45.656V50.912C51.019 52.16 50.995 54.008 50.995 56.456C50.995 56.648 50.947 56.768 50.851 56.816C50.803 56.864 50.659 56.864 50.419 56.816L47.755 56.672C46.219 56.672 45.067 56.648 44.299 56.6H43.939ZM50.995 38.888C50.995 39.128 49.675 42.152 47.035 47.96C44.395 53.72 42.979 56.648 42.787 56.744L46.099 49.472C47.539 46.208 49.147 42.68 50.923 38.888H50.995ZM54.811 55.304C54.907 53.768 54.955 52.592 54.955 51.776V47.672C54.955 45.512 54.931 43.88 54.883 42.776V40.04V38.24C54.835 37.088 54.811 35.36 54.811 33.056V32.48H54.955V32.84C55.003 34.328 55.027 36.536 55.027 39.464C55.075 40.28 55.099 41.456 55.099 42.992L55.027 47.456L55.099 49.04C55.003 51.824 54.955 53.912 54.955 55.304H54.811ZM41.491 48.608C42.979 45.056 45.403 39.824 48.763 32.912H48.835L41.635 48.68L41.491 48.608ZM44.515 49.04C44.611 48.608 45.667 46.208 47.683 41.84C49.699 37.472 50.827 35.216 51.067 35.072L50.851 35.576L49.483 38.528L47.683 42.272C46.819 44.192 46.291 45.368 46.099 45.8C46.003 45.992 45.955 46.136 45.955 46.232C45.859 46.424 45.619 46.952 45.235 47.816L44.587 49.112L44.515 49.04ZM55.243 40.904C55.243 37.736 55.219 35.36 55.171 33.776L55.099 32.336V31.976H55.243L55.315 32.336C55.411 34.448 55.459 36.032 55.459 37.088L55.387 40.472V45.8V48.752L55.243 48.68V47.024V40.904ZM47.107 45.512C47.107 45.704 47.083 45.848 47.035 45.944L45.595 49.184L44.011 52.64C43.819 53.024 43.627 53.408 43.435 53.792C43.291 54.128 43.147 54.44 43.003 54.728L42.355 56.24C42.307 56.288 42.259 56.36 42.211 56.456C42.163 56.504 42.115 56.6 42.067 56.744L41.923 56.6L47.035 45.512H47.107ZM42.211 60.776C42.211 60.632 42.259 60.536 42.355 60.488C42.499 60.44 42.595 60.416 42.643 60.416H44.371L49.483 60.632C49.771 60.68 50.179 60.704 50.707 60.704V60.776H42.211ZM42.715 59.696C42.907 59.504 44.179 59.408 46.531 59.408C49.267 59.408 50.755 59.504 50.995 59.696L50.563 59.768L47.323 59.624L43.219 59.696H42.715ZM54.019 49.904C53.923 49.52 53.875 47.024 53.875 42.416C53.875 38.96 53.923 36.992 54.019 36.512V49.904ZM53.515 49.976C53.467 48.92 53.443 47.336 53.443 45.224V39.392V36.44H53.587L53.659 36.8C53.707 36.752 53.731 36.656 53.731 36.512C53.731 36.56 53.731 36.584 53.731 36.584C53.779 36.584 53.803 36.584 53.803 36.584C53.803 37.016 53.755 37.328 53.659 37.52C53.563 37.808 53.515 38.288 53.515 38.96L53.587 43.568L53.515 47.672L53.587 49.328C53.635 49.472 53.635 49.592 53.587 49.688C53.587 49.784 53.587 49.88 53.587 49.976H53.515ZM52.291 41.912C52.291 43.016 52.219 44.144 52.075 45.296C51.979 44.816 51.931 44.432 51.931 44.144L52.003 43.064V40.76V40.4V39.752C52.003 39.176 52.075 38.744 52.219 38.456L52.291 41.912ZM41.347 62.216C41.731 62.072 43.123 62 45.523 62C48.499 62 50.275 62.072 50.851 62.216H41.347ZM47.467 44.576C47.467 44.336 47.779 43.568 48.403 42.272C49.027 40.928 49.435 40.184 49.627 40.04C49.627 40.232 49.603 40.352 49.555 40.4L47.611 44.432C47.611 44.528 47.563 44.576 47.467 44.576ZM43.579 57.536C43.627 57.392 43.771 57.32 44.011 57.32L47.971 57.464C48.931 57.464 49.651 57.488 50.131 57.536H50.851L50.779 57.68L43.579 57.536ZM40.915 56.6C41.491 55.208 42.139 53.84 42.859 52.496L44.227 49.544L44.371 49.616L41.059 56.672L40.915 56.6ZM55.747 68.912C55.795 69.008 55.819 69.176 55.819 69.416L55.603 70.712C55.603 71 55.459 71.096 55.171 71L55.603 68.912H55.747ZM53.299 40.76C53.347 42.008 53.299 43.4 53.155 44.936V40.76H53.299ZM49.555 39.752C49.699 39.464 49.843 39.152 49.987 38.816C50.131 38.432 50.299 38.072 50.491 37.736L50.563 37.952C50.563 38.24 50.443 38.6 50.203 39.032C49.963 39.464 49.747 39.704 49.555 39.752ZM46.243 57.824C47.683 57.92 48.739 57.968 49.411 57.968V58.112C48.739 58.112 47.683 58.064 46.243 57.968V57.824ZM48.979 32.336C49.315 31.664 49.771 30.656 50.347 29.312C50.395 29.312 50.419 29.336 50.419 29.384L49.123 32.408L48.979 32.336ZM47.107 58.832H44.947V58.76H47.107V58.832ZM52.291 28.448C52.291 28.736 52.219 29.024 52.075 29.312L52.003 28.808C52.003 28.424 52.099 28.112 52.291 27.872V28.448ZM50.995 28.808C50.755 29.336 50.539 29.792 50.347 30.176C50.155 30.56 49.987 30.92 49.843 31.256C49.843 31.208 49.819 31.184 49.771 31.184L50.851 28.808H50.995ZM57.763 62.576C57.859 62.384 58.051 62.288 58.339 62.288C58.627 62.288 58.819 62.36 58.915 62.504L57.763 62.576ZM55.315 51.56V49.544H55.387V51.56H55.315ZM53.155 48.536C53.155 47.624 53.131 46.952 53.083 46.52H53.227V48.536H53.155ZM53.371 37.376C53.371 37.424 53.299 37.808 53.155 38.528V37.016H53.299L53.371 37.376ZM52.075 48.248V46.304V48.176V48.248ZM50.995 38.096C50.947 38.528 50.707 39.008 50.275 39.536L50.923 38.096H50.995ZM50.851 34.136C50.611 34.568 50.419 34.976 50.275 35.36L50.131 35.288L50.707 34.064L50.851 34.136ZM48.403 41.84C48.691 41.168 48.931 40.664 49.123 40.328H49.195C49.099 40.52 48.859 41.048 48.475 41.912C48.427 41.912 48.403 41.912 48.403 41.912C48.403 41.864 48.403 41.84 48.403 41.84ZM55.315 52.208C55.315 52.784 55.291 53.216 55.243 53.504H55.171L55.243 52.208H55.315ZM35.803 62.72C35.515 62.72 35.323 62.624 35.227 62.432L36.091 62.576L36.019 62.72H35.803ZM55.099 29.672C55.099 29.624 55.075 29.528 55.027 29.384C55.027 29.24 55.075 29.12 55.171 29.024H55.315L55.243 29.888L55.099 29.816V29.672ZM55.243 27.872C55.387 28.112 55.339 28.328 55.099 28.52C55.099 28.232 55.123 28.016 55.171 27.872H55.243ZM58.051 59.408H59.707H58.051ZM50.131 40.04C50.083 40.184 49.963 40.52 49.771 41.048L49.627 40.976L50.059 40.04H50.131ZM42.355 49.832L41.851 50.84L41.059 52.64L41.707 51.344L42.355 49.832ZM40.843 53L39.691 55.52L40.483 53.936L40.843 53ZM42.355 49.832L43.075 48.248L42.355 49.832ZM44.443 45.152C44.299 45.344 44.131 45.68 43.939 46.16H44.011L44.515 45.152H44.443ZM48.259 36.8C48.259 36.752 48.235 36.728 48.187 36.728L47.827 37.592H47.899C48.139 37.16 48.259 36.896 48.259 36.8Z" fill="#FFE419"/>
<defs>
<filter id="filter0_f" x="22.4336" y="14.7764" width="46.352" height="66.872" filterUnits="userSpaceOnUse" color-interpolation-filters="sRGB">
<feFlood flood-opacity="0" result="BackgroundImageFix"/>
<feBlend mode="normal" in="SourceGraphic" in2="BackgroundImageFix" result="shape"/>
<feGaussianBlur stdDeviation="5" result="effect1_foregroundBlur"/>
</filter>
<filter id="filter1_d" x="27.9336" y="24.7764" width="34.352" height="54.872" filterUnits="userSpaceOnUse" color-interpolation-filters="sRGB">
<feFlood flood-opacity="0" result="BackgroundImageFix"/>
<feColorMatrix in="SourceAlpha" type="matrix" values="0 0 0 0 0 0 0 0 0 0 0 0 0 0 0 0 0 0 127 0"/>
<feOffset dy="4"/>
<feGaussianBlur stdDeviation="2"/>
<feColorMatrix type="matrix" values="0 0 0 0 0 0 0 0 0 0 0 0 0 0 0 0 0 0 0.25 0"/>
<feBlend mode="normal" in2="BackgroundImageFix" result="effect1_dropShadow"/>
<feBlend mode="normal" in="SourceGraphic" in2="effect1_dropShadow" result="shape"/>
</filter>
<linearGradient id="paint0_linear" x1="-3.99648" y1="56.5851" x2="107.265" y2="57.628" gradientUnits="userSpaceOnUse">
<stop offset="0.396106" stop-color="#3DFFFF"/>
<stop offset="1" stop-color="white" stop-opacity="0"/>
</linearGradient>
</defs>
</svg>
