<svg width="99" height="99" viewBox="0 0 99 99" fill="none" xmlns="http://www.w3.org/2000/svg">
<circle cx="49.1953" cy="49.1965" r="35.6919" transform="rotate(57.9282 49.1953 49.1965)" fill="#186FE1"/>
<circle cx="49.1953" cy="49.1965" r="35.6919" transform="rotate(57.9282 49.1953 49.1965)" fill="url(#paint0_linear)"/>
<g filter="url(#filter0_f)">
<path d="M48.5013 47.384C48.4533 47.576 48.4293 47.84 48.4293 48.176C48.4293 48.32 48.4533 48.416 48.5013 48.464L48.5733 48.896C48.5733 49.04 48.4533 49.208 48.2133 49.4C48.0693 49.496 48.0693 49.616 48.2133 49.76C48.3573 50.048 48.5493 50.312 48.7893 50.552L49.2933 50.768L49.7973 50.912C49.9413 50.96 50.0853 51.032 50.2293 51.128C50.3733 51.176 50.5413 51.224 50.7333 51.272C51.2133 51.368 51.6933 51.536 52.1733 51.776C52.6533 52.016 52.9413 52.16 53.0373 52.208C53.1333 52.256 53.4213 52.52 53.9013 53C54.6213 53.816 55.1253 54.704 55.4133 55.664C55.6533 56.864 55.7493 57.944 55.7013 58.904C55.7013 60.728 55.3893 62.168 54.7653 63.224C54.2853 64.04 53.6613 64.448 52.8933 64.448C52.6533 64.4 52.3413 64.4 51.9573 64.448C51.5733 64.448 51.2853 64.448 51.0933 64.448C50.1813 64.448 49.5573 64.184 49.2213 63.656C49.0773 63.416 48.8853 62.96 48.6453 62.288C48.5973 62.048 48.5733 61.76 48.5733 61.424C48.5733 61.088 48.5493 60.824 48.5013 60.632C48.4533 60.488 48.4293 60.248 48.4293 59.912C48.4293 59.672 48.4773 59.264 48.5733 58.688V57.824C48.5253 57.488 48.3093 57.368 47.9253 57.464C47.8773 57.464 47.7813 57.488 47.6373 57.536C47.5413 57.584 47.4213 57.536 47.2773 57.392H47.2053H46.6293L46.4853 57.68H46.4133L46.2693 57.248C46.1253 57.104 46.0293 57.056 45.9813 57.104C45.9333 57.152 45.8373 57.176 45.6933 57.176C45.5973 57.128 45.5253 57.104 45.4773 57.104C45.3333 57.008 45.2133 57.008 45.1173 57.104C44.7813 57.296 44.5413 57.248 44.3973 56.96L43.7493 57.536C43.7013 57.2 43.5573 57.008 43.3173 56.96C43.0773 56.864 42.9093 56.792 42.8133 56.744C42.5733 57.128 42.3813 57.32 42.2373 57.32C42.1413 57.32 41.9493 57.248 41.6613 57.104C41.4213 57.68 41.2293 58.208 41.0853 58.688V58.904L41.1572 59.84C41.1572 60.032 41.1333 60.296 41.0853 60.632C41.0853 60.968 41.1093 61.376 41.1572 61.856C41.2533 64.4 41.9733 66.512 43.3173 68.192C43.9413 68.912 44.4213 69.344 44.7573 69.488C43.4613 68.48 42.5493 67.16 42.0213 65.528C42.1173 65.528 42.1653 65.552 42.1653 65.6C42.3093 65.984 42.7173 66.68 43.3893 67.688C44.1093 68.744 45.1173 69.608 46.4133 70.28C47.9013 71.144 49.5093 71.528 51.2373 71.432L53.5413 71.144C55.2213 71 56.8773 70.448 58.5093 69.488L58.8693 69.2L58.9413 69.344C58.7493 69.44 58.5333 69.584 58.2933 69.776C58.0533 69.92 57.7893 70.064 57.5013 70.208C56.2053 70.832 54.3813 71.288 52.0293 71.576L50.0133 71.648C51.5013 71.648 52.7733 71.576 53.8293 71.432C54.8853 71.336 55.9173 71.072 56.9253 70.64C58.5093 69.92 59.7333 69.008 60.5973 67.904C61.3653 66.944 61.8693 66.08 62.1093 65.312C62.2053 64.688 62.3973 63.752 62.6853 62.504C62.7333 62.264 62.7573 61.856 62.7573 61.28L62.8293 59.84C62.8293 59.648 62.8293 59.432 62.8293 59.192C62.8773 58.952 62.8773 58.664 62.8293 58.328C62.8293 57.896 62.8053 57.368 62.7573 56.744C62.7573 56.072 62.7093 55.304 62.6133 54.44C62.5653 54.056 62.4693 53.672 62.3253 53.288C62.1813 52.856 62.0853 52.568 62.0373 52.424C61.7493 51.848 61.4133 51.224 61.0293 50.552C60.7413 49.976 60.3813 49.4 59.9492 48.824C59.9492 48.824 59.4453 48.32 58.4373 47.312C58.4373 47.312 58.5333 47.216 58.7253 47.024C59.4933 46.112 59.9013 45.632 59.9492 45.584C60.2373 45.248 60.4773 44.936 60.6693 44.648C60.8613 44.36 61.0293 44.12 61.1733 43.928L61.3893 43.496L62.1093 41.552C62.3973 40.592 62.5893 39.872 62.6853 39.392C62.7813 38.768 62.8773 37.736 62.9733 36.296C63.0693 34.76 62.9253 33.56 62.5413 32.696L62.3973 32.048C61.9653 30.224 61.0293 28.736 59.5893 27.584C59.1093 27.152 58.5093 26.744 57.7892 26.36C55.9653 25.4 53.9253 24.848 51.6693 24.704L51.0933 24.776C50.8533 24.824 50.5653 24.896 50.2293 24.992C49.9413 25.088 49.6053 25.16 49.2213 25.208C48.3573 25.4 47.6853 25.592 47.2053 25.784C46.1973 26.216 45.4293 26.696 44.9013 27.224C44.1333 27.848 43.3413 28.928 42.5253 30.464C42.0453 31.328 41.7813 32.144 41.7333 32.912C41.6853 33.104 41.6613 33.32 41.6613 33.56C41.6613 33.8 41.6373 34.016 41.5893 34.208C41.3973 34.688 41.3493 35.264 41.4453 35.936C41.4453 35.984 41.4453 36.08 41.4453 36.224C41.4933 36.32 41.4933 36.416 41.4453 36.512L41.3733 36.728C41.3733 36.968 41.5653 37.184 41.9493 37.376C42.0453 37.28 42.1173 37.232 42.1653 37.232H42.2373C42.3333 37.424 42.4053 37.544 42.4533 37.592C42.5493 37.64 42.6693 37.568 42.8133 37.376C42.8613 37.328 42.9813 37.328 43.1733 37.376C43.4133 37.424 43.5093 37.496 43.4613 37.592C43.4613 37.832 43.5093 37.928 43.6053 37.88C43.7493 37.832 43.8453 37.808 43.8933 37.808C44.0853 37.808 44.2533 37.784 44.3973 37.736V37.448L44.7573 37.664C44.8053 37.808 44.9253 37.88 45.1173 37.88H46.4853L46.6293 37.808C46.7253 37.904 46.7973 38 46.8453 38.096C46.9413 38.192 47.0373 38.288 47.1333 38.384C47.2293 38.48 47.3493 38.48 47.4933 38.384L47.5653 38.096L47.6373 37.808H47.7093C47.7093 38 47.7333 38.168 47.7812 38.312H47.8533L48.0693 37.88L48.2133 36.512C48.2133 35.264 48.4773 34.184 49.0053 33.272C49.2933 32.792 49.5573 32.432 49.7973 32.192C50.1813 31.712 50.7333 31.52 51.4533 31.616L52.7493 31.688C53.6133 31.688 54.2613 32.024 54.6933 32.696C55.4133 33.608 55.7733 34.688 55.7733 35.936C55.7733 37.184 55.5333 38.312 55.0533 39.32C54.4773 40.52 53.7573 41.456 52.8933 42.128C51.7893 43.088 50.5413 43.856 49.1493 44.432C48.7653 44.624 48.5493 44.84 48.5013 45.08C48.5013 45.176 48.4533 45.344 48.3573 45.584C48.3092 45.776 48.3333 45.992 48.4293 46.232C48.5733 46.376 48.5973 46.544 48.5013 46.736C48.4533 46.928 48.5253 47.096 48.7173 47.24L48.5013 47.384ZM55.1973 32.336C55.1973 32.336 55.3173 32.456 55.5573 32.696C55.7493 33.176 55.9173 33.536 56.0613 33.776C56.2053 34.064 56.3013 34.376 56.3493 34.712C56.3973 35.048 56.4213 35.264 56.4213 35.36L56.6373 36.296C56.7333 36.68 56.7812 36.92 56.7812 37.016C56.7812 37.256 56.7333 37.568 56.6373 37.952C56.5893 38.24 56.5173 38.48 56.4213 38.672C56.3253 38.864 56.2533 39.032 56.2053 39.176L56.0613 39.104L56.2053 38.816C56.2533 38.624 56.3253 38.384 56.4213 38.096C56.5173 37.808 56.5893 37.496 56.6373 37.16C56.6373 36.92 56.6133 36.728 56.5653 36.584C56.5173 36.392 56.4693 36.224 56.4213 36.08C56.4213 35.888 56.3973 35.72 56.3493 35.576C56.3013 35.432 56.2773 35.264 56.2773 35.072C56.1813 34.448 56.0373 33.992 55.8453 33.704L55.1973 32.336C54.8133 31.904 54.2133 31.64 53.3973 31.544C53.1093 31.544 52.7973 31.496 52.4613 31.4C52.1253 31.304 51.9093 31.232 51.8133 31.184C51.6693 31.136 51.4293 31.112 51.0933 31.112C50.7093 31.112 50.3253 31.208 49.9413 31.4C49.7973 31.448 49.6053 31.52 49.3652 31.616C49.1733 31.664 48.9573 31.736 48.7173 31.832C48.8613 31.688 48.9333 31.616 48.9333 31.616C49.8933 31.184 50.6853 30.968 51.3093 30.968C51.8373 30.968 52.3173 31.064 52.7493 31.256C52.9413 31.352 53.2053 31.424 53.5413 31.472C53.8773 31.52 54.1413 31.568 54.3333 31.616C54.7653 31.712 55.0533 31.952 55.1973 32.336ZM55.9173 28.952C55.7733 28.904 55.5813 28.856 55.3413 28.808C55.1013 28.712 54.9093 28.616 54.7653 28.52C54.2853 28.184 53.5413 27.968 52.5333 27.872H52.3893V27.728H52.8213L55.1973 28.304L56.2053 28.736V28.88C56.1093 28.832 55.9653 28.808 55.7733 28.808L55.9173 28.952H56.1333L57.8613 30.104C57.8613 30.104 57.9093 30.152 58.0053 30.248C58.0053 30.248 57.9813 30.248 57.9333 30.248C57.9333 30.248 57.9333 30.272 57.9333 30.32C57.7893 30.224 57.1173 29.768 55.9173 28.952ZM59.5173 51.416C60.0453 51.944 60.3813 52.64 60.5253 53.504C60.8133 54.56 61.0053 55.376 61.1013 55.952C61.1493 56.24 61.1973 56.6 61.2453 57.032C61.2933 57.416 61.3173 57.728 61.3173 57.968C61.3653 59.072 61.3173 60.296 61.1733 61.64C61.0773 62.12 60.9813 62.528 60.8853 62.864L61.1013 61.136C61.1973 60.176 61.2453 59.48 61.2453 59.048C61.2453 57.992 61.1733 57.008 61.0293 56.096C60.9333 55.472 60.8133 54.944 60.6693 54.512C60.5733 54.032 60.4773 53.624 60.3813 53.288C60.2373 52.952 60.0933 52.664 59.9492 52.424C59.8533 52.136 59.7573 51.896 59.6613 51.704L59.5173 51.488L58.2933 49.688L57.2133 48.536C57.2613 48.536 57.2852 48.536 57.2852 48.536C57.2852 48.488 57.2852 48.464 57.2852 48.464C58.3413 49.424 59.0853 50.408 59.5173 51.416ZM56.1333 69.416C55.0773 69.848 53.9973 70.064 52.8933 70.064C51.9333 70.16 51.2373 70.208 50.8053 70.208C50.4213 70.208 50.1333 70.184 49.9413 70.136C48.3573 69.992 46.9893 69.44 45.8373 68.48C45.0693 67.856 44.3973 67.112 43.8213 66.248C43.1493 65.24 42.7653 63.968 42.6693 62.432V61.136H42.8133V62.432C42.8613 64.304 43.5573 65.984 44.9013 67.472C46.5813 69.296 48.6693 70.16 51.1653 70.064C52.1253 70.064 53.1093 69.992 54.1173 69.848C55.2213 69.608 56.2773 69.248 57.2852 68.768L57.5733 68.624L57.6453 68.768L56.1333 69.416ZM53.4693 44.648C53.4693 44.552 53.4933 44.504 53.5413 44.504C53.4933 44.504 53.3733 44.552 53.1813 44.648V44.576C53.4693 44.336 53.8533 44.048 54.3333 43.712C54.8133 43.328 55.1973 42.968 55.4853 42.632C56.3973 41.384 56.9493 40.544 57.1413 40.112C57.3813 39.632 57.5733 39.152 57.7173 38.672C57.9093 38.192 58.0293 37.736 58.0773 37.304C58.0773 38.504 57.9333 39.416 57.6453 40.04C56.9253 41.528 55.9173 42.824 54.6213 43.928L53.5413 44.72L53.4693 44.648ZM55.1973 66.32C54.2853 66.656 53.2773 66.872 52.1733 66.968H51.2373C50.5653 66.968 50.0613 66.92 49.7253 66.824C48.7173 66.584 47.9493 66.152 47.4213 65.528C46.5573 64.712 46.0773 63.728 45.9813 62.576C45.9333 62.24 45.9093 61.736 45.9093 61.064V60.704H45.9813C46.0293 60.8 46.0533 60.92 46.0533 61.064C46.0533 62.12 46.1253 62.912 46.2693 63.44C46.6533 64.448 47.1813 65.216 47.8533 65.744C48.7653 66.512 49.8933 66.896 51.2373 66.896C51.7653 66.896 52.1733 66.872 52.4613 66.824L55.1973 66.32ZM58.3653 38.816C58.2693 39.296 58.1733 39.608 58.0773 39.752C57.5013 41 57.0933 41.816 56.8533 42.2C56.5653 42.632 56.0373 43.232 55.2693 44C55.1253 44.096 54.7653 44.336 54.1893 44.72C54.0933 44.816 53.9733 44.816 53.8293 44.72C54.8373 44.144 55.7493 43.28 56.5653 42.128C57.3813 41.12 57.9573 40.016 58.2933 38.816H58.3653ZM47.4933 62.144C47.6373 63.632 48.4293 64.712 49.8693 65.384L50.0133 65.456C50.0613 65.456 50.0853 65.48 50.0853 65.528C50.0853 65.528 50.0853 65.552 50.0853 65.6C50.0853 65.6 50.0613 65.6 50.0133 65.6C49.4373 65.36 49.0533 65.168 48.8613 65.024C47.8053 64.16 47.2773 63.2 47.2773 62.144L47.2053 60.92C47.2053 60.584 47.2533 60.176 47.3493 59.696L47.4933 62.144ZM60.3093 58.832C60.3093 60.032 60.1413 61.472 59.8053 63.152C59.6133 64.208 59.1573 65.288 58.4373 66.392L58.3653 66.536H58.2933L58.4373 66.248C59.1093 65.288 59.5893 63.824 59.8773 61.856C60.1653 60.512 60.2613 59.096 60.1653 57.608V57.464H60.2373L60.3093 58.832ZM55.7013 40.184C54.9333 41.576 54.0693 42.56 53.1093 43.136C52.9653 43.232 52.5573 43.616 51.8853 44.288L51.6693 44.504L51.5973 44.432L52.1733 43.712C52.5093 43.472 53.0133 43.064 53.6853 42.488C54.5973 41.672 55.2933 40.736 55.7733 39.68L55.9173 39.392L56.0613 39.464L55.7013 40.184ZM46.1253 35.576C46.1253 34.904 46.2213 34.304 46.4133 33.776C46.6053 33.296 46.9413 32.624 47.4213 31.76C47.6133 31.328 47.8773 30.992 48.2133 30.752C48.5973 30.464 48.8133 30.296 48.8613 30.248C49.1493 30.008 49.5333 29.888 50.0133 29.888V29.96C49.4853 30.008 48.8373 30.368 48.0693 31.04C47.9253 31.232 47.7813 31.424 47.6373 31.616C47.4933 31.808 47.3733 31.976 47.2773 32.12C46.4613 33.272 46.1013 34.784 46.1973 36.656V36.872L46.1253 35.576ZM43.8213 61.568C43.8213 61.712 43.8693 62.168 43.9653 62.936C44.0613 63.656 44.2533 64.304 44.5413 64.88C45.0693 65.984 45.7893 66.896 46.7013 67.616C45.7893 67.136 45.0453 66.32 44.4693 65.168C43.8933 63.968 43.6773 62.768 43.8213 61.568ZM60.5973 41.552C59.9733 43.04 58.8453 44.576 57.2133 46.16C57.8373 45.44 58.4613 44.696 59.0853 43.928C59.7093 43.112 60.2133 42.32 60.5973 41.552ZM56.9253 51.92C56.1573 50.864 55.5333 50.12 55.0533 49.688C55.3413 49.736 55.8453 50.192 56.5653 51.056C57.2853 51.92 57.7653 52.664 58.0053 53.288L56.9253 51.92ZM58.5813 42.488C58.5813 42.296 58.7013 41.888 58.9413 41.264C59.2293 40.592 59.4213 40.232 59.5173 40.184C59.5173 40.712 59.3733 41.216 59.0853 41.696C58.7973 42.128 58.6293 42.392 58.5813 42.488ZM59.0133 40.256C58.5333 41.6 58.0053 42.536 57.4293 43.064H57.3573L59.0133 40.256ZM53.0373 43.424C54.1893 42.608 55.1733 41.504 55.9893 40.112C55.9413 40.496 55.5333 41.12 54.7653 41.984C54.0453 42.848 53.4693 43.328 53.0373 43.424ZM44.9013 33.704C44.9493 33.128 45.0933 32.624 45.3333 32.192C45.6213 31.712 46.0293 31.088 46.5573 30.32C45.9333 31.184 45.3813 32.312 44.9013 33.704ZM55.8453 45.296C56.3253 45.056 56.7813 44.624 57.2133 44L57.8613 43.28C57.9093 43.28 57.9333 43.304 57.9333 43.352L57.5733 43.856L56.6373 45.008C56.5413 45.152 56.3973 45.272 56.2053 45.368C56.0133 45.416 55.8693 45.464 55.7733 45.512L55.7013 45.368L55.8453 45.296ZM59.3733 33.92C59.6133 34.256 59.7333 34.712 59.7333 35.288C59.7333 35.672 59.7093 35.96 59.6613 36.152H59.5893L59.3733 33.92ZM59.8053 30.32C59.9013 30.608 60.0933 31.088 60.3813 31.76C60.7173 32.384 60.9093 33.008 60.9573 33.632C60.1893 31.568 59.7813 30.488 59.7333 30.392C59.7333 30.344 59.7333 30.32 59.7333 30.32C59.7813 30.32 59.8053 30.32 59.8053 30.32ZM53.9733 68.84C55.7013 68.504 56.9973 67.904 57.8613 67.04C56.9493 68.096 55.6533 68.696 53.9733 68.84ZM44.4693 63.44C44.7573 64.496 45.2133 65.36 45.8373 66.032L45.6933 66.104C45.5973 65.96 45.3573 65.624 44.9733 65.096C44.6373 64.568 44.4693 64.016 44.4693 63.44ZM59.5173 33.848L59.0853 32.624C59.0373 32.432 59.0133 32.168 59.0133 31.832H59.1573L59.6613 33.92L59.5173 33.848ZM59.8053 38.024C59.9013 38.168 59.9492 38.408 59.9492 38.744C59.9492 39.224 59.8293 39.584 59.5893 39.824L59.8053 38.024ZM59.3733 36.656C59.5173 37.664 59.5893 38.216 59.5893 38.312C59.5893 38.648 59.5413 38.912 59.4453 39.104L59.3013 36.656H59.3733ZM51.5973 65.744C51.5493 65.696 51.5253 65.624 51.5253 65.528C52.0533 65.528 52.8453 65.48 53.9013 65.384L53.9733 65.528L51.5973 65.744ZM61.1013 65.672C61.2453 65.144 61.4853 64.088 61.8213 62.504C61.8693 62.744 61.7973 63.224 61.6053 63.944C61.4613 64.616 61.2933 65.192 61.1013 65.672ZM46.1253 64.304C45.6933 63.392 45.5253 62.576 45.6213 61.856L46.1253 64.304ZM58.6533 39.896C58.6053 39.848 58.5813 39.728 58.5813 39.536C58.5813 38.96 58.7253 38.432 59.0133 37.952L58.6533 39.896ZM50.3733 29.816C50.5653 29.624 50.8053 29.528 51.0933 29.528C51.2853 29.528 51.5733 29.576 51.9573 29.672L50.3733 29.816ZM61.5333 38.168C61.5813 38.264 61.6053 38.432 61.6053 38.672C61.6053 38.96 61.5333 39.296 61.3893 39.68L61.5333 38.168ZM46.7733 59.048C46.9173 59.336 46.9893 59.696 46.9893 60.128C46.9893 60.512 47.0133 60.824 47.0613 61.064H46.9173V60.056C46.9173 59.768 46.8693 59.432 46.7733 59.048ZM55.9893 31.112C56.4693 31.448 56.7813 31.832 56.9253 32.264L55.9893 31.112ZM41.7333 64.952L41.5173 63.656H41.6613L41.8773 64.952H41.7333ZM62.3253 59.192L62.1813 57.176C62.2293 57.176 62.2533 57.152 62.2533 57.104V59.192H62.3253ZM45.4773 69.128L44.3973 68.192C44.3973 68.144 44.4213 68.12 44.4693 68.12L45.4053 69.2L45.4773 69.128ZM58.0773 30.464C58.3653 30.608 58.5573 30.92 58.6533 31.4L58.0773 30.464ZM47.6373 64.88L46.9893 64.016L47.1333 63.944L47.7812 64.808L47.6373 64.88ZM48.1413 68.552C47.4693 68.216 47.0613 68.024 46.9173 67.976L46.9893 67.832L48.1413 68.48V68.552ZM51.8853 69.128H50.1573V69.056H51.8853V69.128ZM58.0053 46.088L58.8693 45.08C58.9173 45.08 58.9413 45.104 58.9413 45.152L58.0053 46.16V46.088ZM42.1653 64.16L41.9493 63.152L42.0933 63.08L42.2373 64.16H42.1653ZM50.3733 68.408V68.336H52.1733V68.408H51.5253H50.3733ZM46.3413 66.68C46.3893 66.68 46.4133 66.68 46.4133 66.68C46.4133 66.632 46.4133 66.608 46.4133 66.608L47.4933 67.328V67.4L46.3413 66.68ZM53.9013 26.432L55.1973 26.864C55.1973 26.912 55.1733 26.936 55.1253 26.936L53.9013 26.504V26.432ZM57.9333 41.696C57.9813 41.696 58.0053 41.72 58.0053 41.768L57.2852 42.776C57.2852 42.728 57.2613 42.704 57.2133 42.704L57.9333 41.696ZM53.8293 68.048C54.3093 67.952 54.6693 67.856 54.9093 67.76C54.9093 67.808 54.9093 67.832 54.9093 67.832C54.9573 67.832 54.9813 67.832 54.9813 67.832L53.8293 68.12V68.048ZM57.5733 34.856C57.4773 34.568 57.4293 34.352 57.4293 34.208C57.4773 34.208 57.5013 34.184 57.5013 34.136L57.7173 34.856H57.5733ZM56.4213 64.016C56.4213 64.4 56.2533 64.712 55.9173 64.952L56.4213 64.016ZM44.6133 61.064V62.432H44.5413V61.064H44.6133ZM43.3893 66.896L42.9573 66.176H43.1013L43.4613 66.896H43.3893ZM58.6533 28.808L59.1573 29.312C59.1573 29.312 59.1573 29.336 59.1573 29.384C59.1573 29.384 59.1333 29.384 59.0853 29.384L58.5813 28.808H58.6533ZM45.8373 70.28C45.8373 70.328 45.8133 70.352 45.7653 70.352L46.7013 70.784V70.712L45.8373 70.28ZM55.9173 42.344C56.2533 42.104 56.6373 41.576 57.0693 40.76C57.5013 39.944 57.7413 39.344 57.7892 38.96C57.1172 40.592 56.4933 41.72 55.9173 42.344Z" fill="#FFE419"/>
</g>
<g filter="url(#filter1_d)">
<path d="M45.0013 47.384C44.9533 47.576 44.9293 47.84 44.9293 48.176C44.9293 48.32 44.9533 48.416 45.0013 48.464L45.0733 48.896C45.0733 49.04 44.9533 49.208 44.7133 49.4C44.5693 49.496 44.5693 49.616 44.7133 49.76C44.8573 50.048 45.0493 50.312 45.2893 50.552L45.7933 50.768L46.2973 50.912C46.4413 50.96 46.5853 51.032 46.7293 51.128C46.8733 51.176 47.0413 51.224 47.2333 51.272C47.7133 51.368 48.1933 51.536 48.6733 51.776C49.1533 52.016 49.4413 52.16 49.5373 52.208C49.6333 52.256 49.9213 52.52 50.4013 53C51.1213 53.816 51.6253 54.704 51.9133 55.664C52.1533 56.864 52.2493 57.944 52.2013 58.904C52.2013 60.728 51.8893 62.168 51.2653 63.224C50.7853 64.04 50.1613 64.448 49.3933 64.448C49.1533 64.4 48.8413 64.4 48.4573 64.448C48.0733 64.448 47.7853 64.448 47.5933 64.448C46.6813 64.448 46.0573 64.184 45.7213 63.656C45.5773 63.416 45.3853 62.96 45.1453 62.288C45.0973 62.048 45.0733 61.76 45.0733 61.424C45.0733 61.088 45.0493 60.824 45.0013 60.632C44.9533 60.488 44.9293 60.248 44.9293 59.912C44.9293 59.672 44.9773 59.264 45.0733 58.688V57.824C45.0253 57.488 44.8093 57.368 44.4253 57.464C44.3773 57.464 44.2813 57.488 44.1373 57.536C44.0413 57.584 43.9213 57.536 43.7773 57.392H43.7053H43.1293L42.9853 57.68H42.9133L42.7693 57.248C42.6253 57.104 42.5293 57.056 42.4813 57.104C42.4333 57.152 42.3373 57.176 42.1933 57.176C42.0973 57.128 42.0253 57.104 41.9773 57.104C41.8333 57.008 41.7133 57.008 41.6173 57.104C41.2813 57.296 41.0413 57.248 40.8973 56.96L40.2493 57.536C40.2013 57.2 40.0573 57.008 39.8173 56.96C39.5773 56.864 39.4093 56.792 39.3133 56.744C39.0733 57.128 38.8813 57.32 38.7373 57.32C38.6413 57.32 38.4493 57.248 38.1613 57.104C37.9213 57.68 37.7293 58.208 37.5853 58.688V58.904L37.6572 59.84C37.6572 60.032 37.6333 60.296 37.5853 60.632C37.5853 60.968 37.6093 61.376 37.6572 61.856C37.7533 64.4 38.4733 66.512 39.8173 68.192C40.4413 68.912 40.9213 69.344 41.2573 69.488C39.9613 68.48 39.0493 67.16 38.5213 65.528C38.6173 65.528 38.6653 65.552 38.6653 65.6C38.8093 65.984 39.2173 66.68 39.8893 67.688C40.6093 68.744 41.6173 69.608 42.9133 70.28C44.4013 71.144 46.0093 71.528 47.7373 71.432L50.0413 71.144C51.7213 71 53.3773 70.448 55.0093 69.488L55.3693 69.2L55.4413 69.344C55.2493 69.44 55.0333 69.584 54.7933 69.776C54.5533 69.92 54.2893 70.064 54.0013 70.208C52.7053 70.832 50.8813 71.288 48.5293 71.576L46.5133 71.648C48.0013 71.648 49.2733 71.576 50.3293 71.432C51.3853 71.336 52.4173 71.072 53.4253 70.64C55.0093 69.92 56.2333 69.008 57.0973 67.904C57.8653 66.944 58.3693 66.08 58.6093 65.312C58.7053 64.688 58.8973 63.752 59.1853 62.504C59.2333 62.264 59.2573 61.856 59.2573 61.28L59.3293 59.84C59.3293 59.648 59.3293 59.432 59.3293 59.192C59.3773 58.952 59.3773 58.664 59.3293 58.328C59.3293 57.896 59.3053 57.368 59.2573 56.744C59.2573 56.072 59.2093 55.304 59.1133 54.44C59.0653 54.056 58.9693 53.672 58.8253 53.288C58.6813 52.856 58.5853 52.568 58.5373 52.424C58.2493 51.848 57.9133 51.224 57.5293 50.552C57.2413 49.976 56.8813 49.4 56.4492 48.824C56.4492 48.824 55.9453 48.32 54.9373 47.312C54.9373 47.312 55.0333 47.216 55.2253 47.024C55.9933 46.112 56.4013 45.632 56.4492 45.584C56.7373 45.248 56.9773 44.936 57.1693 44.648C57.3613 44.36 57.5293 44.12 57.6733 43.928L57.8893 43.496L58.6093 41.552C58.8973 40.592 59.0893 39.872 59.1853 39.392C59.2813 38.768 59.3773 37.736 59.4733 36.296C59.5693 34.76 59.4253 33.56 59.0413 32.696L58.8973 32.048C58.4653 30.224 57.5293 28.736 56.0893 27.584C55.6093 27.152 55.0093 26.744 54.2892 26.36C52.4653 25.4 50.4253 24.848 48.1693 24.704L47.5933 24.776C47.3533 24.824 47.0653 24.896 46.7293 24.992C46.4413 25.088 46.1053 25.16 45.7213 25.208C44.8573 25.4 44.1853 25.592 43.7053 25.784C42.6973 26.216 41.9293 26.696 41.4013 27.224C40.6333 27.848 39.8413 28.928 39.0253 30.464C38.5453 31.328 38.2813 32.144 38.2333 32.912C38.1853 33.104 38.1613 33.32 38.1613 33.56C38.1613 33.8 38.1373 34.016 38.0893 34.208C37.8973 34.688 37.8493 35.264 37.9453 35.936C37.9453 35.984 37.9453 36.08 37.9453 36.224C37.9933 36.32 37.9933 36.416 37.9453 36.512L37.8733 36.728C37.8733 36.968 38.0653 37.184 38.4493 37.376C38.5453 37.28 38.6173 37.232 38.6653 37.232H38.7373C38.8333 37.424 38.9053 37.544 38.9533 37.592C39.0493 37.64 39.1693 37.568 39.3133 37.376C39.3613 37.328 39.4813 37.328 39.6733 37.376C39.9133 37.424 40.0093 37.496 39.9613 37.592C39.9613 37.832 40.0093 37.928 40.1053 37.88C40.2493 37.832 40.3453 37.808 40.3933 37.808C40.5853 37.808 40.7533 37.784 40.8973 37.736V37.448L41.2573 37.664C41.3053 37.808 41.4253 37.88 41.6173 37.88H42.9853L43.1293 37.808C43.2253 37.904 43.2973 38 43.3453 38.096C43.4413 38.192 43.5373 38.288 43.6333 38.384C43.7293 38.48 43.8493 38.48 43.9933 38.384L44.0653 38.096L44.1373 37.808H44.2093C44.2093 38 44.2333 38.168 44.2812 38.312H44.3533L44.5693 37.88L44.7133 36.512C44.7133 35.264 44.9773 34.184 45.5053 33.272C45.7933 32.792 46.0573 32.432 46.2973 32.192C46.6813 31.712 47.2333 31.52 47.9533 31.616L49.2493 31.688C50.1133 31.688 50.7613 32.024 51.1933 32.696C51.9133 33.608 52.2733 34.688 52.2733 35.936C52.2733 37.184 52.0333 38.312 51.5533 39.32C50.9773 40.52 50.2573 41.456 49.3933 42.128C48.2893 43.088 47.0413 43.856 45.6493 44.432C45.2653 44.624 45.0493 44.84 45.0013 45.08C45.0013 45.176 44.9533 45.344 44.8573 45.584C44.8092 45.776 44.8333 45.992 44.9293 46.232C45.0733 46.376 45.0973 46.544 45.0013 46.736C44.9533 46.928 45.0253 47.096 45.2173 47.24L45.0013 47.384ZM51.6973 32.336C51.6973 32.336 51.8173 32.456 52.0573 32.696C52.2493 33.176 52.4173 33.536 52.5613 33.776C52.7053 34.064 52.8013 34.376 52.8493 34.712C52.8973 35.048 52.9213 35.264 52.9213 35.36L53.1373 36.296C53.2333 36.68 53.2812 36.92 53.2812 37.016C53.2812 37.256 53.2333 37.568 53.1373 37.952C53.0893 38.24 53.0173 38.48 52.9213 38.672C52.8253 38.864 52.7533 39.032 52.7053 39.176L52.5613 39.104L52.7053 38.816C52.7533 38.624 52.8253 38.384 52.9213 38.096C53.0173 37.808 53.0893 37.496 53.1373 37.16C53.1373 36.92 53.1133 36.728 53.0653 36.584C53.0173 36.392 52.9693 36.224 52.9213 36.08C52.9213 35.888 52.8973 35.72 52.8493 35.576C52.8013 35.432 52.7773 35.264 52.7773 35.072C52.6813 34.448 52.5373 33.992 52.3453 33.704L51.6973 32.336C51.3133 31.904 50.7133 31.64 49.8973 31.544C49.6093 31.544 49.2973 31.496 48.9613 31.4C48.6253 31.304 48.4093 31.232 48.3133 31.184C48.1693 31.136 47.9293 31.112 47.5933 31.112C47.2093 31.112 46.8253 31.208 46.4413 31.4C46.2973 31.448 46.1053 31.52 45.8652 31.616C45.6733 31.664 45.4573 31.736 45.2173 31.832C45.3613 31.688 45.4333 31.616 45.4333 31.616C46.3933 31.184 47.1853 30.968 47.8093 30.968C48.3373 30.968 48.8173 31.064 49.2493 31.256C49.4413 31.352 49.7053 31.424 50.0413 31.472C50.3773 31.52 50.6413 31.568 50.8333 31.616C51.2653 31.712 51.5533 31.952 51.6973 32.336ZM52.4173 28.952C52.2733 28.904 52.0813 28.856 51.8413 28.808C51.6013 28.712 51.4093 28.616 51.2653 28.52C50.7853 28.184 50.0413 27.968 49.0333 27.872H48.8893V27.728H49.3213L51.6973 28.304L52.7053 28.736V28.88C52.6093 28.832 52.4653 28.808 52.2733 28.808L52.4173 28.952H52.6333L54.3613 30.104C54.3613 30.104 54.4093 30.152 54.5053 30.248C54.5053 30.248 54.4813 30.248 54.4333 30.248C54.4333 30.248 54.4333 30.272 54.4333 30.32C54.2893 30.224 53.6173 29.768 52.4173 28.952ZM56.0173 51.416C56.5453 51.944 56.8813 52.64 57.0253 53.504C57.3133 54.56 57.5053 55.376 57.6013 55.952C57.6493 56.24 57.6973 56.6 57.7453 57.032C57.7933 57.416 57.8173 57.728 57.8173 57.968C57.8653 59.072 57.8173 60.296 57.6733 61.64C57.5773 62.12 57.4813 62.528 57.3853 62.864L57.6013 61.136C57.6973 60.176 57.7453 59.48 57.7453 59.048C57.7453 57.992 57.6733 57.008 57.5293 56.096C57.4333 55.472 57.3133 54.944 57.1693 54.512C57.0733 54.032 56.9773 53.624 56.8813 53.288C56.7373 52.952 56.5933 52.664 56.4492 52.424C56.3533 52.136 56.2573 51.896 56.1613 51.704L56.0173 51.488L54.7933 49.688L53.7133 48.536C53.7613 48.536 53.7852 48.536 53.7852 48.536C53.7852 48.488 53.7852 48.464 53.7852 48.464C54.8413 49.424 55.5853 50.408 56.0173 51.416ZM52.6333 69.416C51.5773 69.848 50.4973 70.064 49.3933 70.064C48.4333 70.16 47.7373 70.208 47.3053 70.208C46.9213 70.208 46.6333 70.184 46.4413 70.136C44.8573 69.992 43.4893 69.44 42.3373 68.48C41.5693 67.856 40.8973 67.112 40.3213 66.248C39.6493 65.24 39.2653 63.968 39.1693 62.432V61.136H39.3133V62.432C39.3613 64.304 40.0573 65.984 41.4013 67.472C43.0813 69.296 45.1693 70.16 47.6653 70.064C48.6253 70.064 49.6093 69.992 50.6173 69.848C51.7213 69.608 52.7773 69.248 53.7852 68.768L54.0733 68.624L54.1453 68.768L52.6333 69.416ZM49.9693 44.648C49.9693 44.552 49.9933 44.504 50.0413 44.504C49.9933 44.504 49.8733 44.552 49.6813 44.648V44.576C49.9693 44.336 50.3533 44.048 50.8333 43.712C51.3133 43.328 51.6973 42.968 51.9853 42.632C52.8973 41.384 53.4493 40.544 53.6413 40.112C53.8813 39.632 54.0733 39.152 54.2173 38.672C54.4093 38.192 54.5293 37.736 54.5773 37.304C54.5773 38.504 54.4333 39.416 54.1453 40.04C53.4253 41.528 52.4173 42.824 51.1213 43.928L50.0413 44.72L49.9693 44.648ZM51.6973 66.32C50.7853 66.656 49.7773 66.872 48.6733 66.968H47.7373C47.0653 66.968 46.5613 66.92 46.2253 66.824C45.2173 66.584 44.4493 66.152 43.9213 65.528C43.0573 64.712 42.5773 63.728 42.4813 62.576C42.4333 62.24 42.4093 61.736 42.4093 61.064V60.704H42.4813C42.5293 60.8 42.5533 60.92 42.5533 61.064C42.5533 62.12 42.6253 62.912 42.7693 63.44C43.1533 64.448 43.6813 65.216 44.3533 65.744C45.2653 66.512 46.3933 66.896 47.7373 66.896C48.2653 66.896 48.6733 66.872 48.9613 66.824L51.6973 66.32ZM54.8653 38.816C54.7693 39.296 54.6733 39.608 54.5773 39.752C54.0013 41 53.5933 41.816 53.3533 42.2C53.0653 42.632 52.5373 43.232 51.7693 44C51.6253 44.096 51.2653 44.336 50.6893 44.72C50.5933 44.816 50.4733 44.816 50.3293 44.72C51.3373 44.144 52.2493 43.28 53.0653 42.128C53.8813 41.12 54.4573 40.016 54.7933 38.816H54.8653ZM43.9933 62.144C44.1373 63.632 44.9293 64.712 46.3693 65.384L46.5133 65.456C46.5613 65.456 46.5853 65.48 46.5853 65.528C46.5853 65.528 46.5853 65.552 46.5853 65.6C46.5853 65.6 46.5613 65.6 46.5133 65.6C45.9373 65.36 45.5533 65.168 45.3613 65.024C44.3053 64.16 43.7773 63.2 43.7773 62.144L43.7053 60.92C43.7053 60.584 43.7533 60.176 43.8493 59.696L43.9933 62.144ZM56.8093 58.832C56.8093 60.032 56.6413 61.472 56.3053 63.152C56.1133 64.208 55.6573 65.288 54.9373 66.392L54.8653 66.536H54.7933L54.9373 66.248C55.6093 65.288 56.0893 63.824 56.3773 61.856C56.6653 60.512 56.7613 59.096 56.6653 57.608V57.464H56.7373L56.8093 58.832ZM52.2013 40.184C51.4333 41.576 50.5693 42.56 49.6093 43.136C49.4653 43.232 49.0573 43.616 48.3853 44.288L48.1693 44.504L48.0973 44.432L48.6733 43.712C49.0093 43.472 49.5133 43.064 50.1853 42.488C51.0973 41.672 51.7933 40.736 52.2733 39.68L52.4173 39.392L52.5613 39.464L52.2013 40.184ZM42.6253 35.576C42.6253 34.904 42.7213 34.304 42.9133 33.776C43.1053 33.296 43.4413 32.624 43.9213 31.76C44.1133 31.328 44.3773 30.992 44.7133 30.752C45.0973 30.464 45.3133 30.296 45.3613 30.248C45.6493 30.008 46.0333 29.888 46.5133 29.888V29.96C45.9853 30.008 45.3373 30.368 44.5693 31.04C44.4253 31.232 44.2813 31.424 44.1373 31.616C43.9933 31.808 43.8733 31.976 43.7773 32.12C42.9613 33.272 42.6013 34.784 42.6973 36.656V36.872L42.6253 35.576ZM40.3213 61.568C40.3213 61.712 40.3693 62.168 40.4653 62.936C40.5613 63.656 40.7533 64.304 41.0413 64.88C41.5693 65.984 42.2893 66.896 43.2013 67.616C42.2893 67.136 41.5453 66.32 40.9693 65.168C40.3933 63.968 40.1773 62.768 40.3213 61.568ZM57.0973 41.552C56.4733 43.04 55.3453 44.576 53.7133 46.16C54.3373 45.44 54.9613 44.696 55.5853 43.928C56.2093 43.112 56.7133 42.32 57.0973 41.552ZM53.4253 51.92C52.6573 50.864 52.0333 50.12 51.5533 49.688C51.8413 49.736 52.3453 50.192 53.0653 51.056C53.7853 51.92 54.2653 52.664 54.5053 53.288L53.4253 51.92ZM55.0813 42.488C55.0813 42.296 55.2013 41.888 55.4413 41.264C55.7293 40.592 55.9213 40.232 56.0173 40.184C56.0173 40.712 55.8733 41.216 55.5853 41.696C55.2973 42.128 55.1293 42.392 55.0813 42.488ZM55.5133 40.256C55.0333 41.6 54.5053 42.536 53.9293 43.064H53.8573L55.5133 40.256ZM49.5373 43.424C50.6893 42.608 51.6733 41.504 52.4893 40.112C52.4413 40.496 52.0333 41.12 51.2653 41.984C50.5453 42.848 49.9693 43.328 49.5373 43.424ZM41.4013 33.704C41.4493 33.128 41.5933 32.624 41.8333 32.192C42.1213 31.712 42.5293 31.088 43.0573 30.32C42.4333 31.184 41.8813 32.312 41.4013 33.704ZM52.3453 45.296C52.8253 45.056 53.2813 44.624 53.7133 44L54.3613 43.28C54.4093 43.28 54.4333 43.304 54.4333 43.352L54.0733 43.856L53.1373 45.008C53.0413 45.152 52.8973 45.272 52.7053 45.368C52.5133 45.416 52.3693 45.464 52.2733 45.512L52.2013 45.368L52.3453 45.296ZM55.8733 33.92C56.1133 34.256 56.2333 34.712 56.2333 35.288C56.2333 35.672 56.2093 35.96 56.1613 36.152H56.0893L55.8733 33.92ZM56.3053 30.32C56.4013 30.608 56.5933 31.088 56.8813 31.76C57.2173 32.384 57.4093 33.008 57.4573 33.632C56.6893 31.568 56.2813 30.488 56.2333 30.392C56.2333 30.344 56.2333 30.32 56.2333 30.32C56.2813 30.32 56.3053 30.32 56.3053 30.32ZM50.4733 68.84C52.2013 68.504 53.4973 67.904 54.3613 67.04C53.4493 68.096 52.1533 68.696 50.4733 68.84ZM40.9693 63.44C41.2573 64.496 41.7133 65.36 42.3373 66.032L42.1933 66.104C42.0973 65.96 41.8573 65.624 41.4733 65.096C41.1373 64.568 40.9693 64.016 40.9693 63.44ZM56.0173 33.848L55.5853 32.624C55.5373 32.432 55.5133 32.168 55.5133 31.832H55.6573L56.1613 33.92L56.0173 33.848ZM56.3053 38.024C56.4013 38.168 56.4492 38.408 56.4492 38.744C56.4492 39.224 56.3293 39.584 56.0893 39.824L56.3053 38.024ZM55.8733 36.656C56.0173 37.664 56.0893 38.216 56.0893 38.312C56.0893 38.648 56.0413 38.912 55.9453 39.104L55.8013 36.656H55.8733ZM48.0973 65.744C48.0493 65.696 48.0253 65.624 48.0253 65.528C48.5533 65.528 49.3453 65.48 50.4013 65.384L50.4733 65.528L48.0973 65.744ZM57.6013 65.672C57.7453 65.144 57.9853 64.088 58.3213 62.504C58.3693 62.744 58.2973 63.224 58.1053 63.944C57.9613 64.616 57.7933 65.192 57.6013 65.672ZM42.6253 64.304C42.1933 63.392 42.0253 62.576 42.1213 61.856L42.6253 64.304ZM55.1533 39.896C55.1053 39.848 55.0813 39.728 55.0813 39.536C55.0813 38.96 55.2253 38.432 55.5133 37.952L55.1533 39.896ZM46.8733 29.816C47.0653 29.624 47.3053 29.528 47.5933 29.528C47.7853 29.528 48.0733 29.576 48.4573 29.672L46.8733 29.816ZM58.0333 38.168C58.0813 38.264 58.1053 38.432 58.1053 38.672C58.1053 38.96 58.0333 39.296 57.8893 39.68L58.0333 38.168ZM43.2733 59.048C43.4173 59.336 43.4893 59.696 43.4893 60.128C43.4893 60.512 43.5133 60.824 43.5613 61.064H43.4173V60.056C43.4173 59.768 43.3693 59.432 43.2733 59.048ZM52.4893 31.112C52.9693 31.448 53.2813 31.832 53.4253 32.264L52.4893 31.112ZM38.2333 64.952L38.0173 63.656H38.1613L38.3773 64.952H38.2333ZM58.8253 59.192L58.6813 57.176C58.7293 57.176 58.7533 57.152 58.7533 57.104V59.192H58.8253ZM41.9773 69.128L40.8973 68.192C40.8973 68.144 40.9213 68.12 40.9693 68.12L41.9053 69.2L41.9773 69.128ZM54.5773 30.464C54.8653 30.608 55.0573 30.92 55.1533 31.4L54.5773 30.464ZM44.1373 64.88L43.4893 64.016L43.6333 63.944L44.2812 64.808L44.1373 64.88ZM44.6413 68.552C43.9693 68.216 43.5613 68.024 43.4173 67.976L43.4893 67.832L44.6413 68.48V68.552ZM48.3853 69.128H46.6573V69.056H48.3853V69.128ZM54.5053 46.088L55.3693 45.08C55.4173 45.08 55.4413 45.104 55.4413 45.152L54.5053 46.16V46.088ZM38.6653 64.16L38.4493 63.152L38.5933 63.08L38.7373 64.16H38.6653ZM46.8733 68.408V68.336H48.6733V68.408H48.0253H46.8733ZM42.8413 66.68C42.8893 66.68 42.9133 66.68 42.9133 66.68C42.9133 66.632 42.9133 66.608 42.9133 66.608L43.9933 67.328V67.4L42.8413 66.68ZM50.4013 26.432L51.6973 26.864C51.6973 26.912 51.6733 26.936 51.6253 26.936L50.4013 26.504V26.432ZM54.4333 41.696C54.4813 41.696 54.5053 41.72 54.5053 41.768L53.7852 42.776C53.7852 42.728 53.7613 42.704 53.7133 42.704L54.4333 41.696ZM50.3293 68.048C50.8093 67.952 51.1693 67.856 51.4093 67.76C51.4093 67.808 51.4093 67.832 51.4093 67.832C51.4573 67.832 51.4813 67.832 51.4813 67.832L50.3293 68.12V68.048ZM54.0733 34.856C53.9773 34.568 53.9293 34.352 53.9293 34.208C53.9773 34.208 54.0013 34.184 54.0013 34.136L54.2173 34.856H54.0733ZM52.9213 64.016C52.9213 64.4 52.7533 64.712 52.4173 64.952L52.9213 64.016ZM41.1133 61.064V62.432H41.0413V61.064H41.1133ZM39.8893 66.896L39.4573 66.176H39.6013L39.9613 66.896H39.8893ZM55.1533 28.808L55.6573 29.312C55.6573 29.312 55.6573 29.336 55.6573 29.384C55.6573 29.384 55.6333 29.384 55.5853 29.384L55.0813 28.808H55.1533ZM42.3373 70.28C42.3373 70.328 42.3133 70.352 42.2653 70.352L43.2013 70.784V70.712L42.3373 70.28ZM52.4173 42.344C52.7533 42.104 53.1373 41.576 53.5693 40.76C54.0013 39.944 54.2413 39.344 54.2892 38.96C53.6172 40.592 52.9933 41.72 52.4173 42.344Z" fill="#FFE419"/>
</g>
<path d="M47.5013 47.384C47.4533 47.576 47.4293 47.84 47.4293 48.176C47.4293 48.32 47.4533 48.416 47.5013 48.464L47.5733 48.896C47.5733 49.04 47.4533 49.208 47.2133 49.4C47.0693 49.496 47.0693 49.616 47.2133 49.76C47.3573 50.048 47.5493 50.312 47.7893 50.552L48.2933 50.768L48.7973 50.912C48.9413 50.96 49.0853 51.032 49.2293 51.128C49.3733 51.176 49.5413 51.224 49.7333 51.272C50.2133 51.368 50.6933 51.536 51.1733 51.776C51.6533 52.016 51.9413 52.16 52.0373 52.208C52.1333 52.256 52.4213 52.52 52.9013 53C53.6213 53.816 54.1253 54.704 54.4133 55.664C54.6533 56.864 54.7493 57.944 54.7013 58.904C54.7013 60.728 54.3893 62.168 53.7653 63.224C53.2853 64.04 52.6613 64.448 51.8933 64.448C51.6533 64.4 51.3413 64.4 50.9573 64.448C50.5733 64.448 50.2853 64.448 50.0933 64.448C49.1813 64.448 48.5573 64.184 48.2213 63.656C48.0773 63.416 47.8853 62.96 47.6453 62.288C47.5973 62.048 47.5733 61.76 47.5733 61.424C47.5733 61.088 47.5493 60.824 47.5013 60.632C47.4533 60.488 47.4293 60.248 47.4293 59.912C47.4293 59.672 47.4773 59.264 47.5733 58.688V57.824C47.5253 57.488 47.3093 57.368 46.9253 57.464C46.8773 57.464 46.7813 57.488 46.6373 57.536C46.5413 57.584 46.4213 57.536 46.2773 57.392H46.2053H45.6293L45.4853 57.68H45.4133L45.2693 57.248C45.1253 57.104 45.0293 57.056 44.9813 57.104C44.9333 57.152 44.8373 57.176 44.6933 57.176C44.5973 57.128 44.5253 57.104 44.4773 57.104C44.3333 57.008 44.2133 57.008 44.1173 57.104C43.7813 57.296 43.5413 57.248 43.3973 56.96L42.7493 57.536C42.7013 57.2 42.5573 57.008 42.3173 56.96C42.0773 56.864 41.9093 56.792 41.8133 56.744C41.5733 57.128 41.3813 57.32 41.2373 57.32C41.1413 57.32 40.9493 57.248 40.6613 57.104C40.4213 57.68 40.2293 58.208 40.0853 58.688V58.904L40.1572 59.84C40.1572 60.032 40.1333 60.296 40.0853 60.632C40.0853 60.968 40.1093 61.376 40.1572 61.856C40.2533 64.4 40.9733 66.512 42.3173 68.192C42.9413 68.912 43.4213 69.344 43.7573 69.488C42.4613 68.48 41.5493 67.16 41.0213 65.528C41.1173 65.528 41.1653 65.552 41.1653 65.6C41.3093 65.984 41.7173 66.68 42.3893 67.688C43.1093 68.744 44.1173 69.608 45.4133 70.28C46.9013 71.144 48.5093 71.528 50.2373 71.432L52.5413 71.144C54.2213 71 55.8773 70.448 57.5093 69.488L57.8693 69.2L57.9413 69.344C57.7493 69.44 57.5333 69.584 57.2933 69.776C57.0533 69.92 56.7893 70.064 56.5013 70.208C55.2053 70.832 53.3813 71.288 51.0293 71.576L49.0133 71.648C50.5013 71.648 51.7733 71.576 52.8293 71.432C53.8853 71.336 54.9173 71.072 55.9253 70.64C57.5093 69.92 58.7333 69.008 59.5973 67.904C60.3653 66.944 60.8693 66.08 61.1093 65.312C61.2053 64.688 61.3973 63.752 61.6853 62.504C61.7333 62.264 61.7573 61.856 61.7573 61.28L61.8293 59.84C61.8293 59.648 61.8293 59.432 61.8293 59.192C61.8773 58.952 61.8773 58.664 61.8293 58.328C61.8293 57.896 61.8053 57.368 61.7573 56.744C61.7573 56.072 61.7093 55.304 61.6133 54.44C61.5653 54.056 61.4693 53.672 61.3253 53.288C61.1813 52.856 61.0853 52.568 61.0373 52.424C60.7493 51.848 60.4133 51.224 60.0293 50.552C59.7413 49.976 59.3813 49.4 58.9492 48.824C58.9492 48.824 58.4453 48.32 57.4373 47.312C57.4373 47.312 57.5333 47.216 57.7253 47.024C58.4933 46.112 58.9013 45.632 58.9492 45.584C59.2373 45.248 59.4773 44.936 59.6693 44.648C59.8613 44.36 60.0293 44.12 60.1733 43.928L60.3893 43.496L61.1093 41.552C61.3973 40.592 61.5893 39.872 61.6853 39.392C61.7813 38.768 61.8773 37.736 61.9733 36.296C62.0693 34.76 61.9253 33.56 61.5413 32.696L61.3973 32.048C60.9653 30.224 60.0293 28.736 58.5893 27.584C58.1093 27.152 57.5093 26.744 56.7892 26.36C54.9653 25.4 52.9253 24.848 50.6693 24.704L50.0933 24.776C49.8533 24.824 49.5653 24.896 49.2293 24.992C48.9413 25.088 48.6053 25.16 48.2213 25.208C47.3573 25.4 46.6853 25.592 46.2053 25.784C45.1973 26.216 44.4293 26.696 43.9013 27.224C43.1333 27.848 42.3413 28.928 41.5253 30.464C41.0453 31.328 40.7813 32.144 40.7333 32.912C40.6853 33.104 40.6613 33.32 40.6613 33.56C40.6613 33.8 40.6373 34.016 40.5893 34.208C40.3973 34.688 40.3493 35.264 40.4453 35.936C40.4453 35.984 40.4453 36.08 40.4453 36.224C40.4933 36.32 40.4933 36.416 40.4453 36.512L40.3733 36.728C40.3733 36.968 40.5653 37.184 40.9493 37.376C41.0453 37.28 41.1173 37.232 41.1653 37.232H41.2373C41.3333 37.424 41.4053 37.544 41.4533 37.592C41.5493 37.64 41.6693 37.568 41.8133 37.376C41.8613 37.328 41.9813 37.328 42.1733 37.376C42.4133 37.424 42.5093 37.496 42.4613 37.592C42.4613 37.832 42.5093 37.928 42.6053 37.88C42.7493 37.832 42.8453 37.808 42.8933 37.808C43.0853 37.808 43.2533 37.784 43.3973 37.736V37.448L43.7573 37.664C43.8053 37.808 43.9253 37.88 44.1173 37.88H45.4853L45.6293 37.808C45.7253 37.904 45.7973 38 45.8453 38.096C45.9413 38.192 46.0373 38.288 46.1333 38.384C46.2293 38.48 46.3493 38.48 46.4933 38.384L46.5653 38.096L46.6373 37.808H46.7093C46.7093 38 46.7333 38.168 46.7812 38.312H46.8533L47.0693 37.88L47.2133 36.512C47.2133 35.264 47.4773 34.184 48.0053 33.272C48.2933 32.792 48.5573 32.432 48.7973 32.192C49.1813 31.712 49.7333 31.52 50.4533 31.616L51.7493 31.688C52.6133 31.688 53.2613 32.024 53.6933 32.696C54.4133 33.608 54.7733 34.688 54.7733 35.936C54.7733 37.184 54.5333 38.312 54.0533 39.32C53.4773 40.52 52.7573 41.456 51.8933 42.128C50.7893 43.088 49.5413 43.856 48.1493 44.432C47.7653 44.624 47.5493 44.84 47.5013 45.08C47.5013 45.176 47.4533 45.344 47.3573 45.584C47.3092 45.776 47.3333 45.992 47.4293 46.232C47.5733 46.376 47.5973 46.544 47.5013 46.736C47.4533 46.928 47.5253 47.096 47.7173 47.24L47.5013 47.384ZM54.1973 32.336C54.1973 32.336 54.3173 32.456 54.5573 32.696C54.7493 33.176 54.9173 33.536 55.0613 33.776C55.2053 34.064 55.3013 34.376 55.3493 34.712C55.3973 35.048 55.4213 35.264 55.4213 35.36L55.6373 36.296C55.7333 36.68 55.7812 36.92 55.7812 37.016C55.7812 37.256 55.7333 37.568 55.6373 37.952C55.5893 38.24 55.5173 38.48 55.4213 38.672C55.3253 38.864 55.2533 39.032 55.2053 39.176L55.0613 39.104L55.2053 38.816C55.2533 38.624 55.3253 38.384 55.4213 38.096C55.5173 37.808 55.5893 37.496 55.6373 37.16C55.6373 36.92 55.6133 36.728 55.5653 36.584C55.5173 36.392 55.4693 36.224 55.4213 36.08C55.4213 35.888 55.3973 35.72 55.3493 35.576C55.3013 35.432 55.2773 35.264 55.2773 35.072C55.1813 34.448 55.0373 33.992 54.8453 33.704L54.1973 32.336C53.8133 31.904 53.2133 31.64 52.3973 31.544C52.1093 31.544 51.7973 31.496 51.4613 31.4C51.1253 31.304 50.9093 31.232 50.8133 31.184C50.6693 31.136 50.4293 31.112 50.0933 31.112C49.7093 31.112 49.3253 31.208 48.9413 31.4C48.7973 31.448 48.6053 31.52 48.3652 31.616C48.1733 31.664 47.9573 31.736 47.7173 31.832C47.8613 31.688 47.9333 31.616 47.9333 31.616C48.8933 31.184 49.6853 30.968 50.3093 30.968C50.8373 30.968 51.3173 31.064 51.7493 31.256C51.9413 31.352 52.2053 31.424 52.5413 31.472C52.8773 31.52 53.1413 31.568 53.3333 31.616C53.7653 31.712 54.0533 31.952 54.1973 32.336ZM54.9173 28.952C54.7733 28.904 54.5813 28.856 54.3413 28.808C54.1013 28.712 53.9093 28.616 53.7653 28.52C53.2853 28.184 52.5413 27.968 51.5333 27.872H51.3893V27.728H51.8213L54.1973 28.304L55.2053 28.736V28.88C55.1093 28.832 54.9653 28.808 54.7733 28.808L54.9173 28.952H55.1333L56.8613 30.104C56.8613 30.104 56.9093 30.152 57.0053 30.248C57.0053 30.248 56.9813 30.248 56.9333 30.248C56.9333 30.248 56.9333 30.272 56.9333 30.32C56.7893 30.224 56.1173 29.768 54.9173 28.952ZM58.5173 51.416C59.0453 51.944 59.3813 52.64 59.5253 53.504C59.8133 54.56 60.0053 55.376 60.1013 55.952C60.1493 56.24 60.1973 56.6 60.2453 57.032C60.2933 57.416 60.3173 57.728 60.3173 57.968C60.3653 59.072 60.3173 60.296 60.1733 61.64C60.0773 62.12 59.9813 62.528 59.8853 62.864L60.1013 61.136C60.1973 60.176 60.2453 59.48 60.2453 59.048C60.2453 57.992 60.1733 57.008 60.0293 56.096C59.9333 55.472 59.8133 54.944 59.6693 54.512C59.5733 54.032 59.4773 53.624 59.3813 53.288C59.2373 52.952 59.0933 52.664 58.9492 52.424C58.8533 52.136 58.7573 51.896 58.6613 51.704L58.5173 51.488L57.2933 49.688L56.2133 48.536C56.2613 48.536 56.2852 48.536 56.2852 48.536C56.2852 48.488 56.2852 48.464 56.2852 48.464C57.3413 49.424 58.0853 50.408 58.5173 51.416ZM55.1333 69.416C54.0773 69.848 52.9973 70.064 51.8933 70.064C50.9333 70.16 50.2373 70.208 49.8053 70.208C49.4213 70.208 49.1333 70.184 48.9413 70.136C47.3573 69.992 45.9893 69.44 44.8373 68.48C44.0693 67.856 43.3973 67.112 42.8213 66.248C42.1493 65.24 41.7653 63.968 41.6693 62.432V61.136H41.8133V62.432C41.8613 64.304 42.5573 65.984 43.9013 67.472C45.5813 69.296 47.6693 70.16 50.1653 70.064C51.1253 70.064 52.1093 69.992 53.1173 69.848C54.2213 69.608 55.2773 69.248 56.2852 68.768L56.5733 68.624L56.6453 68.768L55.1333 69.416ZM52.4693 44.648C52.4693 44.552 52.4933 44.504 52.5413 44.504C52.4933 44.504 52.3733 44.552 52.1813 44.648V44.576C52.4693 44.336 52.8533 44.048 53.3333 43.712C53.8133 43.328 54.1973 42.968 54.4853 42.632C55.3973 41.384 55.9493 40.544 56.1413 40.112C56.3813 39.632 56.5733 39.152 56.7173 38.672C56.9093 38.192 57.0293 37.736 57.0773 37.304C57.0773 38.504 56.9333 39.416 56.6453 40.04C55.9253 41.528 54.9173 42.824 53.6213 43.928L52.5413 44.72L52.4693 44.648ZM54.1973 66.32C53.2853 66.656 52.2773 66.872 51.1733 66.968H50.2373C49.5653 66.968 49.0613 66.92 48.7253 66.824C47.7173 66.584 46.9493 66.152 46.4213 65.528C45.5573 64.712 45.0773 63.728 44.9813 62.576C44.9333 62.24 44.9093 61.736 44.9093 61.064V60.704H44.9813C45.0293 60.8 45.0533 60.92 45.0533 61.064C45.0533 62.12 45.1253 62.912 45.2693 63.44C45.6533 64.448 46.1813 65.216 46.8533 65.744C47.7653 66.512 48.8933 66.896 50.2373 66.896C50.7653 66.896 51.1733 66.872 51.4613 66.824L54.1973 66.32ZM57.3653 38.816C57.2693 39.296 57.1733 39.608 57.0773 39.752C56.5013 41 56.0933 41.816 55.8533 42.2C55.5653 42.632 55.0373 43.232 54.2693 44C54.1253 44.096 53.7653 44.336 53.1893 44.72C53.0933 44.816 52.9733 44.816 52.8293 44.72C53.8373 44.144 54.7493 43.28 55.5653 42.128C56.3813 41.12 56.9573 40.016 57.2933 38.816H57.3653ZM46.4933 62.144C46.6373 63.632 47.4293 64.712 48.8693 65.384L49.0133 65.456C49.0613 65.456 49.0853 65.48 49.0853 65.528C49.0853 65.528 49.0853 65.552 49.0853 65.6C49.0853 65.6 49.0613 65.6 49.0133 65.6C48.4373 65.36 48.0533 65.168 47.8613 65.024C46.8053 64.16 46.2773 63.2 46.2773 62.144L46.2053 60.92C46.2053 60.584 46.2533 60.176 46.3493 59.696L46.4933 62.144ZM59.3093 58.832C59.3093 60.032 59.1413 61.472 58.8053 63.152C58.6133 64.208 58.1573 65.288 57.4373 66.392L57.3653 66.536H57.2933L57.4373 66.248C58.1093 65.288 58.5893 63.824 58.8773 61.856C59.1653 60.512 59.2613 59.096 59.1653 57.608V57.464H59.2373L59.3093 58.832ZM54.7013 40.184C53.9333 41.576 53.0693 42.56 52.1093 43.136C51.9653 43.232 51.5573 43.616 50.8853 44.288L50.6693 44.504L50.5973 44.432L51.1733 43.712C51.5093 43.472 52.0133 43.064 52.6853 42.488C53.5973 41.672 54.2933 40.736 54.7733 39.68L54.9173 39.392L55.0613 39.464L54.7013 40.184ZM45.1253 35.576C45.1253 34.904 45.2213 34.304 45.4133 33.776C45.6053 33.296 45.9413 32.624 46.4213 31.76C46.6133 31.328 46.8773 30.992 47.2133 30.752C47.5973 30.464 47.8133 30.296 47.8613 30.248C48.1493 30.008 48.5333 29.888 49.0133 29.888V29.96C48.4853 30.008 47.8373 30.368 47.0693 31.04C46.9253 31.232 46.7813 31.424 46.6373 31.616C46.4933 31.808 46.3733 31.976 46.2773 32.12C45.4613 33.272 45.1013 34.784 45.1973 36.656V36.872L45.1253 35.576ZM42.8213 61.568C42.8213 61.712 42.8693 62.168 42.9653 62.936C43.0613 63.656 43.2533 64.304 43.5413 64.88C44.0693 65.984 44.7893 66.896 45.7013 67.616C44.7893 67.136 44.0453 66.32 43.4693 65.168C42.8933 63.968 42.6773 62.768 42.8213 61.568ZM59.5973 41.552C58.9733 43.04 57.8453 44.576 56.2133 46.16C56.8373 45.44 57.4613 44.696 58.0853 43.928C58.7093 43.112 59.2133 42.32 59.5973 41.552ZM55.9253 51.92C55.1573 50.864 54.5333 50.12 54.0533 49.688C54.3413 49.736 54.8453 50.192 55.5653 51.056C56.2853 51.92 56.7653 52.664 57.0053 53.288L55.9253 51.92ZM57.5813 42.488C57.5813 42.296 57.7013 41.888 57.9413 41.264C58.2293 40.592 58.4213 40.232 58.5173 40.184C58.5173 40.712 58.3733 41.216 58.0853 41.696C57.7973 42.128 57.6293 42.392 57.5813 42.488ZM58.0133 40.256C57.5333 41.6 57.0053 42.536 56.4293 43.064H56.3573L58.0133 40.256ZM52.0373 43.424C53.1893 42.608 54.1733 41.504 54.9893 40.112C54.9413 40.496 54.5333 41.12 53.7653 41.984C53.0453 42.848 52.4693 43.328 52.0373 43.424ZM43.9013 33.704C43.9493 33.128 44.0933 32.624 44.3333 32.192C44.6213 31.712 45.0293 31.088 45.5573 30.32C44.9333 31.184 44.3813 32.312 43.9013 33.704ZM54.8453 45.296C55.3253 45.056 55.7813 44.624 56.2133 44L56.8613 43.28C56.9093 43.28 56.9333 43.304 56.9333 43.352L56.5733 43.856L55.6373 45.008C55.5413 45.152 55.3973 45.272 55.2053 45.368C55.0133 45.416 54.8693 45.464 54.7733 45.512L54.7013 45.368L54.8453 45.296ZM58.3733 33.92C58.6133 34.256 58.7333 34.712 58.7333 35.288C58.7333 35.672 58.7093 35.96 58.6613 36.152H58.5893L58.3733 33.92ZM58.8053 30.32C58.9013 30.608 59.0933 31.088 59.3813 31.76C59.7173 32.384 59.9093 33.008 59.9573 33.632C59.1893 31.568 58.7813 30.488 58.7333 30.392C58.7333 30.344 58.7333 30.32 58.7333 30.32C58.7813 30.32 58.8053 30.32 58.8053 30.32ZM52.9733 68.84C54.7013 68.504 55.9973 67.904 56.8613 67.04C55.9493 68.096 54.6533 68.696 52.9733 68.84ZM43.4693 63.44C43.7573 64.496 44.2133 65.36 44.8373 66.032L44.6933 66.104C44.5973 65.96 44.3573 65.624 43.9733 65.096C43.6373 64.568 43.4693 64.016 43.4693 63.44ZM58.5173 33.848L58.0853 32.624C58.0373 32.432 58.0133 32.168 58.0133 31.832H58.1573L58.6613 33.92L58.5173 33.848ZM58.8053 38.024C58.9013 38.168 58.9492 38.408 58.9492 38.744C58.9492 39.224 58.8293 39.584 58.5893 39.824L58.8053 38.024ZM58.3733 36.656C58.5173 37.664 58.5893 38.216 58.5893 38.312C58.5893 38.648 58.5413 38.912 58.4453 39.104L58.3013 36.656H58.3733ZM50.5973 65.744C50.5493 65.696 50.5253 65.624 50.5253 65.528C51.0533 65.528 51.8453 65.48 52.9013 65.384L52.9733 65.528L50.5973 65.744ZM60.1013 65.672C60.2453 65.144 60.4853 64.088 60.8213 62.504C60.8693 62.744 60.7973 63.224 60.6053 63.944C60.4613 64.616 60.2933 65.192 60.1013 65.672ZM45.1253 64.304C44.6933 63.392 44.5253 62.576 44.6213 61.856L45.1253 64.304ZM57.6533 39.896C57.6053 39.848 57.5813 39.728 57.5813 39.536C57.5813 38.96 57.7253 38.432 58.0133 37.952L57.6533 39.896ZM49.3733 29.816C49.5653 29.624 49.8053 29.528 50.0933 29.528C50.2853 29.528 50.5733 29.576 50.9573 29.672L49.3733 29.816ZM60.5333 38.168C60.5813 38.264 60.6053 38.432 60.6053 38.672C60.6053 38.96 60.5333 39.296 60.3893 39.68L60.5333 38.168ZM45.7733 59.048C45.9173 59.336 45.9893 59.696 45.9893 60.128C45.9893 60.512 46.0133 60.824 46.0613 61.064H45.9173V60.056C45.9173 59.768 45.8693 59.432 45.7733 59.048ZM54.9893 31.112C55.4693 31.448 55.7813 31.832 55.9253 32.264L54.9893 31.112ZM40.7333 64.952L40.5173 63.656H40.6613L40.8773 64.952H40.7333ZM61.3253 59.192L61.1813 57.176C61.2293 57.176 61.2533 57.152 61.2533 57.104V59.192H61.3253ZM44.4773 69.128L43.3973 68.192C43.3973 68.144 43.4213 68.12 43.4693 68.12L44.4053 69.2L44.4773 69.128ZM57.0773 30.464C57.3653 30.608 57.5573 30.92 57.6533 31.4L57.0773 30.464ZM46.6373 64.88L45.9893 64.016L46.1333 63.944L46.7812 64.808L46.6373 64.88ZM47.1413 68.552C46.4693 68.216 46.0613 68.024 45.9173 67.976L45.9893 67.832L47.1413 68.48V68.552ZM50.8853 69.128H49.1573V69.056H50.8853V69.128ZM57.0053 46.088L57.8693 45.08C57.9173 45.08 57.9413 45.104 57.9413 45.152L57.0053 46.16V46.088ZM41.1653 64.16L40.9493 63.152L41.0933 63.08L41.2373 64.16H41.1653ZM49.3733 68.408V68.336H51.1733V68.408H50.5253H49.3733ZM45.3413 66.68C45.3893 66.68 45.4133 66.68 45.4133 66.68C45.4133 66.632 45.4133 66.608 45.4133 66.608L46.4933 67.328V67.4L45.3413 66.68ZM52.9013 26.432L54.1973 26.864C54.1973 26.912 54.1733 26.936 54.1253 26.936L52.9013 26.504V26.432ZM56.9333 41.696C56.9813 41.696 57.0053 41.72 57.0053 41.768L56.2852 42.776C56.2852 42.728 56.2613 42.704 56.2133 42.704L56.9333 41.696ZM52.8293 68.048C53.3093 67.952 53.6693 67.856 53.9093 67.76C53.9093 67.808 53.9093 67.832 53.9093 67.832C53.9573 67.832 53.9813 67.832 53.9813 67.832L52.8293 68.12V68.048ZM56.5733 34.856C56.4773 34.568 56.4293 34.352 56.4293 34.208C56.4773 34.208 56.5013 34.184 56.5013 34.136L56.7173 34.856H56.5733ZM55.4213 64.016C55.4213 64.4 55.2533 64.712 54.9173 64.952L55.4213 64.016ZM43.6133 61.064V62.432H43.5413V61.064H43.6133ZM42.3893 66.896L41.9573 66.176H42.1013L42.4613 66.896H42.3893ZM57.6533 28.808L58.1573 29.312C58.1573 29.312 58.1573 29.336 58.1573 29.384C58.1573 29.384 58.1333 29.384 58.0853 29.384L57.5813 28.808H57.6533ZM44.8373 70.28C44.8373 70.328 44.8133 70.352 44.7653 70.352L45.7013 70.784V70.712L44.8373 70.28ZM54.9173 42.344C55.2533 42.104 55.6373 41.576 56.0693 40.76C56.5013 39.944 56.7413 39.344 56.7892 38.96C56.1172 40.592 55.4933 41.72 54.9173 42.344Z" fill="#FFE419"/>
<defs>
<filter id="filter0_f" x="31.0859" y="14.7041" width="41.9168" height="66.944" filterUnits="userSpaceOnUse" color-interpolation-filters="sRGB">
<feFlood flood-opacity="0" result="BackgroundImageFix"/>
<feBlend mode="normal" in="SourceGraphic" in2="BackgroundImageFix" result="shape"/>
<feGaussianBlur stdDeviation="5" result="effect1_foregroundBlur"/>
</filter>
<filter id="filter1_d" x="33.5859" y="24.7041" width="29.9168" height="54.944" filterUnits="userSpaceOnUse" color-interpolation-filters="sRGB">
<feFlood flood-opacity="0" result="BackgroundImageFix"/>
<feColorMatrix in="SourceAlpha" type="matrix" values="0 0 0 0 0 0 0 0 0 0 0 0 0 0 0 0 0 0 127 0"/>
<feOffset dy="4"/>
<feGaussianBlur stdDeviation="2"/>
<feColorMatrix type="matrix" values="0 0 0 0 0 0 0 0 0 0 0 0 0 0 0 0 0 0 0.25 0"/>
<feBlend mode="normal" in2="BackgroundImageFix" result="effect1_dropShadow"/>
<feBlend mode="normal" in="SourceGraphic" in2="effect1_dropShadow" result="shape"/>
</filter>
<linearGradient id="paint0_linear" x1="-3.99648" y1="56.5851" x2="107.265" y2="57.628" gradientUnits="userSpaceOnUse">
<stop offset="0.396106" stop-color="#3DFFFF"/>
<stop offset="1" stop-color="white" stop-opacity="0"/>
</linearGradient>
</defs>
</svg>
