<svg width="99" height="99" viewBox="0 0 99 99" fill="none" xmlns="http://www.w3.org/2000/svg">
<circle cx="49.1953" cy="49.1965" r="35.6919" transform="rotate(57.9282 49.1953 49.1965)" fill="#186FE1"/>
<circle cx="49.1953" cy="49.1965" r="35.6919" transform="rotate(57.9282 49.1953 49.1965)" fill="url(#paint0_linear)"/>
<g filter="url(#filter0_f)">
<path d="M48.088 43.784C48.088 46.904 48.064 49.256 48.016 50.84V55.376C47.968 56.384 47.944 57.848 47.944 59.768V66.824L48.016 67.76L47.872 69.416V69.632C47.872 69.92 47.968 70.232 48.16 70.568C48.4 70.856 48.568 71.072 48.664 71.216C48.664 71.168 48.712 71.048 48.808 70.856C49.048 71.24 49.384 71.384 49.816 71.288H49.888C49.984 71.288 50.128 71.312 50.32 71.36C50.512 71.408 50.704 71.336 50.896 71.144L51.04 71.216L51.256 71.288C51.4 71.24 51.568 71.192 51.76 71.144C51.952 71.144 52.096 71.096 52.192 71C52.24 70.952 52.384 70.928 52.624 70.928H52.984C53.08 70.928 53.152 70.88 53.2 70.784C53.248 70.688 53.248 70.544 53.2 70.352C53.344 70.496 53.416 70.568 53.416 70.568C53.992 70.568 54.424 70.592 54.712 70.64C54.712 70.64 54.736 70.616 54.784 70.568C54.832 70.52 54.856 70.472 54.856 70.424C54.904 70.184 54.928 69.824 54.928 69.344L55 66.176V61.136C55.048 60.512 55.048 59.96 55 59.48C55 59 55 58.592 55 58.256V56.816C55.048 55.904 55.072 54.536 55.072 52.712V47.096V44.144C55.024 43.52 55 42.608 55 41.408L55.072 39.32C55.024 38.408 55 37.064 55 35.288C54.952 34.472 54.928 33.224 54.928 31.544L54.856 26.504C54.808 26.312 54.784 26.144 54.784 26C54.832 25.808 54.832 25.616 54.784 25.424C54.736 25.28 54.688 25.184 54.64 25.136C54.592 25.04 54.544 24.968 54.496 24.92H54.352V25.568H54.208C54.208 25.424 54.184 25.328 54.136 25.28C54.04 24.848 53.824 24.728 53.488 24.92C53.248 25.016 53.056 25.136 52.912 25.28C52.672 25.424 52.408 25.568 52.12 25.712C51.88 25.856 51.64 26.024 51.4 26.216L46.648 30.248L45.208 31.544L42.688 33.56L41.536 34.64L40.312 35.72C40.12 35.912 40.072 36.08 40.168 36.224L40.024 36.584C39.976 36.68 39.856 36.824 39.664 37.016L39.808 37.088L39.88 36.944C40.072 36.944 40.192 36.968 40.24 37.016C40.24 37.016 40.24 37.04 40.24 37.088C40.288 37.136 40.288 37.184 40.24 37.232C40.048 37.376 40 37.52 40.096 37.664C40.192 37.808 40.24 37.904 40.24 37.952C40.288 38.096 40.288 38.216 40.24 38.312C40.24 38.408 40.192 38.456 40.096 38.456L39.88 37.736H39.808C39.76 37.784 39.688 37.88 39.592 38.024C39.496 38.168 39.52 38.312 39.664 38.456C39.712 38.552 39.736 38.744 39.736 39.032V39.896L39.952 40.832L40.096 40.688C40.144 40.784 40.144 40.904 40.096 41.048C40.096 41.192 40.048 41.288 39.952 41.336C39.856 41.432 39.76 41.576 39.664 41.768C39.616 41.864 39.592 42.032 39.592 42.272L39.52 42.416C39.712 42.656 39.808 42.92 39.808 43.208C39.808 43.496 39.808 43.688 39.808 43.784C39.808 43.928 39.856 44 39.952 44C40.096 44.048 40.12 44.168 40.024 44.36C39.928 44.6 39.952 44.888 40.096 45.224C40.528 45.032 41.08 44.6 41.752 43.928H41.392L41.32 43.784L45.064 40.616H45.136L43.408 42.488L43.48 42.632L48.16 38.744V39.104L48.088 43.784ZM50.032 54.44L49.96 57.968V62.504V63.224C49.96 63.56 49.936 63.824 49.888 64.016C49.744 64.352 49.672 64.76 49.672 65.24C49.672 65.72 49.672 66.104 49.672 66.392L49.528 66.104L49.24 66.248L49.168 65.744L49.24 62.216C49.288 61.64 49.312 60.8 49.312 59.696V57.176C49.312 54.872 49.336 53.168 49.384 52.064C49.48 49.952 49.528 48.344 49.528 47.24C49.576 47 49.576 46.712 49.528 46.376C49.528 45.992 49.528 45.728 49.528 45.584L49.6 38.168C49.6 37.736 49.624 37.472 49.672 37.376C49.768 37.28 50.032 37.136 50.464 36.944L50.248 41.984V40.904H50.176V41.048C50.176 41.24 50.128 41.504 50.032 41.84C49.984 42.176 50.008 42.464 50.104 42.704C50.152 42.848 50.152 42.992 50.104 43.136C50.104 43.28 50.104 43.4 50.104 43.496C50.104 44.888 50.08 45.944 50.032 46.664C49.984 48.056 49.864 49.976 49.672 52.424L49.744 54.44H49.816L49.96 54.152L50.032 54.44ZM48.16 35.36C48.16 35.6 48.088 35.792 47.944 35.936L46.648 37.016C45.736 37.832 44.824 38.6 43.912 39.32L41.392 41.48C41.248 41.624 40.816 41.84 40.096 42.128L40.024 41.624C40.168 41.624 40.288 41.648 40.384 41.696C40.576 41.36 40.792 41.12 41.032 40.976L42.688 39.68L43.552 38.888L48.016 35.216L48.16 35.144V35.36ZM50.608 60.272C50.512 59.312 50.464 58.592 50.464 58.112L50.68 52.784C50.68 51.056 50.728 48.416 50.824 44.864V39.68C50.824 38.432 50.848 37.496 50.896 36.872C50.896 36.776 50.944 36.632 51.04 36.44C51.088 37.4 51.112 38.84 51.112 40.76C51.112 43.976 51.04 47.216 50.896 50.48C50.848 51.536 50.8 53.072 50.752 55.088C50.704 57.056 50.68 58.784 50.68 60.272H50.608ZM40.888 40.4C40.552 40.496 40.36 40.52 40.312 40.472C40.456 40.136 40.744 39.8 41.176 39.464C41.656 39.08 41.968 38.816 42.112 38.672C42.352 38.384 42.664 38.072 43.048 37.736C43.48 37.4 43.816 37.136 44.056 36.944C44.92 36.176 45.568 35.624 46 35.288L48.088 33.704L48.232 33.776C48.136 34.016 48.064 34.136 48.016 34.136C47.536 34.616 46.768 35.288 45.712 36.152L45.208 36.584C45.256 36.536 44.44 37.28 42.76 38.816C42.664 38.864 42.568 38.96 42.472 39.104C42.424 39.248 42.376 39.344 42.328 39.392L40.888 40.688V40.4ZM49.096 46.736C49.096 46.4 49.024 46.16 48.88 46.016C48.832 45.968 48.808 45.872 48.808 45.728C48.856 44.528 48.88 42.728 48.88 40.328L49.024 39.968V44.072H49.096V37.808C49.192 37.904 49.24 39.368 49.24 42.2C49.24 46.52 49.192 48.968 49.096 49.544V47.096V46.736ZM42.544 41.624C42.16 42.008 41.968 42.2 41.968 42.2C42.016 42.2 42.04 42.224 42.04 42.272L48.016 37.088L48.088 37.232C48.088 37.328 48.04 37.376 47.944 37.376L45.424 39.608C44.272 40.568 43.432 41.312 42.904 41.84C42.664 42.08 42.376 42.344 42.04 42.632C41.704 42.872 41.44 43.064 41.248 43.208C41.152 43.304 41.032 43.352 40.888 43.352C41.368 42.632 41.92 42.056 42.544 41.624ZM48.592 54.44V65.816L48.376 65.888L48.592 54.44ZM42.904 41.336C42.904 41.336 42.88 41.336 42.832 41.336C42.832 41.336 42.832 41.312 42.832 41.264C43.744 40.304 44.776 39.368 45.928 38.456C47.08 37.544 47.776 36.992 48.016 36.8H48.088L42.904 41.336ZM51.904 45.008V36.368H51.976V45.008H51.904ZM51.472 58.112C51.52 58.64 51.544 59.408 51.544 60.416C51.544 61.232 51.496 62.504 51.4 64.232V58.112H51.472ZM51.544 45.44V36.368H51.616V45.44H51.544ZM48.736 50.912C48.736 49.904 48.784 48.44 48.88 46.52H48.952L48.736 50.912ZM49.672 34.568C49.672 34.52 49.648 34.472 49.6 34.424C49.6 34.376 49.624 34.328 49.672 34.28C49.672 33.8 49.96 33.632 50.536 33.776L49.672 34.568ZM45.928 32.696C46.888 31.832 47.632 31.208 48.16 30.824L48.232 30.896L46 32.768L45.928 32.696ZM50.248 47.024V43.424V47.024ZM49.6 32.768C49.696 32.48 49.768 32.312 49.816 32.264C49.816 32.168 49.888 32.12 50.032 32.12C50.176 32.216 50.2 32.312 50.104 32.408C50.056 32.504 49.936 32.648 49.744 32.84L49.6 32.768ZM41.896 35.792L43.264 34.496L43.336 34.64L41.968 35.864L41.896 35.792ZM51.4 66.248C51.352 65.864 51.328 65.312 51.328 64.592H51.472V66.248H51.4ZM46.36 38.96L47.512 37.952C47.512 38 47.536 38.024 47.584 38.024L46.36 39.032V38.96ZM51.904 45.8C51.904 46.376 51.88 46.808 51.832 47.096V45.8H51.904ZM40.384 36.944C40.624 36.8 40.984 36.536 41.464 36.152L41.536 36.296L40.456 37.016C40.456 36.968 40.432 36.944 40.384 36.944ZM50.896 33.416C50.944 33.272 50.968 33.08 50.968 32.84L51.112 32.912V33.416H50.896ZM51.112 31.256V31.832H50.968V31.256H51.112ZM44.2 33.632L44.992 32.984C45.04 32.984 45.064 33.008 45.064 33.056L44.272 33.704L44.2 33.632ZM49.816 55.952C49.816 56.192 49.792 56.384 49.744 56.528L49.528 57.752C49.528 57.992 49.528 58.304 49.528 58.688C49.576 59.024 49.576 59.456 49.528 59.984L49.456 63.728V64.376C49.648 63.608 49.744 62.48 49.744 60.992V58.472C49.744 57.32 49.768 56.48 49.816 55.952ZM50.176 39.68H50.248V37.808H50.176V39.68ZM49.024 44.576V45.512V44.576Z" fill="#FFE419"/>
</g>
<g filter="url(#filter1_d)">
<path d="M48.088 45.784C48.088 48.904 48.064 51.256 48.016 52.84V57.376C47.968 58.384 47.944 59.848 47.944 61.768V68.824L48.016 69.76L47.872 71.416V71.632C47.872 71.92 47.968 72.232 48.16 72.568C48.4 72.856 48.568 73.072 48.664 73.216C48.664 73.168 48.712 73.048 48.808 72.856C49.048 73.24 49.384 73.384 49.816 73.288H49.888C49.984 73.288 50.128 73.312 50.32 73.36C50.512 73.408 50.704 73.336 50.896 73.144L51.04 73.216L51.256 73.288C51.4 73.24 51.568 73.192 51.76 73.144C51.952 73.144 52.096 73.096 52.192 73C52.24 72.952 52.384 72.928 52.624 72.928H52.984C53.08 72.928 53.152 72.88 53.2 72.784C53.248 72.688 53.248 72.544 53.2 72.352C53.344 72.496 53.416 72.568 53.416 72.568C53.992 72.568 54.424 72.592 54.712 72.64C54.712 72.64 54.736 72.616 54.784 72.568C54.832 72.52 54.856 72.472 54.856 72.424C54.904 72.184 54.928 71.824 54.928 71.344L55 68.176V63.136C55.048 62.512 55.048 61.96 55 61.48C55 61 55 60.592 55 60.256V58.816C55.048 57.904 55.072 56.536 55.072 54.712V49.096V46.144C55.024 45.52 55 44.608 55 43.408L55.072 41.32C55.024 40.408 55 39.064 55 37.288C54.952 36.472 54.928 35.224 54.928 33.544L54.856 28.504C54.808 28.312 54.784 28.144 54.784 28C54.832 27.808 54.832 27.616 54.784 27.424C54.736 27.28 54.688 27.184 54.64 27.136C54.592 27.04 54.544 26.968 54.496 26.92H54.352V27.568H54.208C54.208 27.424 54.184 27.328 54.136 27.28C54.04 26.848 53.824 26.728 53.488 26.92C53.248 27.016 53.056 27.136 52.912 27.28C52.672 27.424 52.408 27.568 52.12 27.712C51.88 27.856 51.64 28.024 51.4 28.216L46.648 32.248L45.208 33.544L42.688 35.56L41.536 36.64L40.312 37.72C40.12 37.912 40.072 38.08 40.168 38.224L40.024 38.584C39.976 38.68 39.856 38.824 39.664 39.016L39.808 39.088L39.88 38.944C40.072 38.944 40.192 38.968 40.24 39.016C40.24 39.016 40.24 39.04 40.24 39.088C40.288 39.136 40.288 39.184 40.24 39.232C40.048 39.376 40 39.52 40.096 39.664C40.192 39.808 40.24 39.904 40.24 39.952C40.288 40.096 40.288 40.216 40.24 40.312C40.24 40.408 40.192 40.456 40.096 40.456L39.88 39.736H39.808C39.76 39.784 39.688 39.88 39.592 40.024C39.496 40.168 39.52 40.312 39.664 40.456C39.712 40.552 39.736 40.744 39.736 41.032V41.896L39.952 42.832L40.096 42.688C40.144 42.784 40.144 42.904 40.096 43.048C40.096 43.192 40.048 43.288 39.952 43.336C39.856 43.432 39.76 43.576 39.664 43.768C39.616 43.864 39.592 44.032 39.592 44.272L39.52 44.416C39.712 44.656 39.808 44.92 39.808 45.208C39.808 45.496 39.808 45.688 39.808 45.784C39.808 45.928 39.856 46 39.952 46C40.096 46.048 40.12 46.168 40.024 46.36C39.928 46.6 39.952 46.888 40.096 47.224C40.528 47.032 41.08 46.6 41.752 45.928H41.392L41.32 45.784L45.064 42.616H45.136L43.408 44.488L43.48 44.632L48.16 40.744V41.104L48.088 45.784ZM50.032 56.44L49.96 59.968V64.504V65.224C49.96 65.56 49.936 65.824 49.888 66.016C49.744 66.352 49.672 66.76 49.672 67.24C49.672 67.72 49.672 68.104 49.672 68.392L49.528 68.104L49.24 68.248L49.168 67.744L49.24 64.216C49.288 63.64 49.312 62.8 49.312 61.696V59.176C49.312 56.872 49.336 55.168 49.384 54.064C49.48 51.952 49.528 50.344 49.528 49.24C49.576 49 49.576 48.712 49.528 48.376C49.528 47.992 49.528 47.728 49.528 47.584L49.6 40.168C49.6 39.736 49.624 39.472 49.672 39.376C49.768 39.28 50.032 39.136 50.464 38.944L50.248 43.984V42.904H50.176V43.048C50.176 43.24 50.128 43.504 50.032 43.84C49.984 44.176 50.008 44.464 50.104 44.704C50.152 44.848 50.152 44.992 50.104 45.136C50.104 45.28 50.104 45.4 50.104 45.496C50.104 46.888 50.08 47.944 50.032 48.664C49.984 50.056 49.864 51.976 49.672 54.424L49.744 56.44H49.816L49.96 56.152L50.032 56.44ZM48.16 37.36C48.16 37.6 48.088 37.792 47.944 37.936L46.648 39.016C45.736 39.832 44.824 40.6 43.912 41.32L41.392 43.48C41.248 43.624 40.816 43.84 40.096 44.128L40.024 43.624C40.168 43.624 40.288 43.648 40.384 43.696C40.576 43.36 40.792 43.12 41.032 42.976L42.688 41.68L43.552 40.888L48.016 37.216L48.16 37.144V37.36ZM50.608 62.272C50.512 61.312 50.464 60.592 50.464 60.112L50.68 54.784C50.68 53.056 50.728 50.416 50.824 46.864V41.68C50.824 40.432 50.848 39.496 50.896 38.872C50.896 38.776 50.944 38.632 51.04 38.44C51.088 39.4 51.112 40.84 51.112 42.76C51.112 45.976 51.04 49.216 50.896 52.48C50.848 53.536 50.8 55.072 50.752 57.088C50.704 59.056 50.68 60.784 50.68 62.272H50.608ZM40.888 42.4C40.552 42.496 40.36 42.52 40.312 42.472C40.456 42.136 40.744 41.8 41.176 41.464C41.656 41.08 41.968 40.816 42.112 40.672C42.352 40.384 42.664 40.072 43.048 39.736C43.48 39.4 43.816 39.136 44.056 38.944C44.92 38.176 45.568 37.624 46 37.288L48.088 35.704L48.232 35.776C48.136 36.016 48.064 36.136 48.016 36.136C47.536 36.616 46.768 37.288 45.712 38.152L45.208 38.584C45.256 38.536 44.44 39.28 42.76 40.816C42.664 40.864 42.568 40.96 42.472 41.104C42.424 41.248 42.376 41.344 42.328 41.392L40.888 42.688V42.4ZM49.096 48.736C49.096 48.4 49.024 48.16 48.88 48.016C48.832 47.968 48.808 47.872 48.808 47.728C48.856 46.528 48.88 44.728 48.88 42.328L49.024 41.968V46.072H49.096V39.808C49.192 39.904 49.24 41.368 49.24 44.2C49.24 48.52 49.192 50.968 49.096 51.544V49.096V48.736ZM42.544 43.624C42.16 44.008 41.968 44.2 41.968 44.2C42.016 44.2 42.04 44.224 42.04 44.272L48.016 39.088L48.088 39.232C48.088 39.328 48.04 39.376 47.944 39.376L45.424 41.608C44.272 42.568 43.432 43.312 42.904 43.84C42.664 44.08 42.376 44.344 42.04 44.632C41.704 44.872 41.44 45.064 41.248 45.208C41.152 45.304 41.032 45.352 40.888 45.352C41.368 44.632 41.92 44.056 42.544 43.624ZM48.592 56.44V67.816L48.376 67.888L48.592 56.44ZM42.904 43.336C42.904 43.336 42.88 43.336 42.832 43.336C42.832 43.336 42.832 43.312 42.832 43.264C43.744 42.304 44.776 41.368 45.928 40.456C47.08 39.544 47.776 38.992 48.016 38.8H48.088L42.904 43.336ZM51.904 47.008V38.368H51.976V47.008H51.904ZM51.472 60.112C51.52 60.64 51.544 61.408 51.544 62.416C51.544 63.232 51.496 64.504 51.4 66.232V60.112H51.472ZM51.544 47.44V38.368H51.616V47.44H51.544ZM48.736 52.912C48.736 51.904 48.784 50.44 48.88 48.52H48.952L48.736 52.912ZM49.672 36.568C49.672 36.52 49.648 36.472 49.6 36.424C49.6 36.376 49.624 36.328 49.672 36.28C49.672 35.8 49.96 35.632 50.536 35.776L49.672 36.568ZM45.928 34.696C46.888 33.832 47.632 33.208 48.16 32.824L48.232 32.896L46 34.768L45.928 34.696ZM50.248 49.024V45.424V49.024ZM49.6 34.768C49.696 34.48 49.768 34.312 49.816 34.264C49.816 34.168 49.888 34.12 50.032 34.12C50.176 34.216 50.2 34.312 50.104 34.408C50.056 34.504 49.936 34.648 49.744 34.84L49.6 34.768ZM41.896 37.792L43.264 36.496L43.336 36.64L41.968 37.864L41.896 37.792ZM51.4 68.248C51.352 67.864 51.328 67.312 51.328 66.592H51.472V68.248H51.4ZM46.36 40.96L47.512 39.952C47.512 40 47.536 40.024 47.584 40.024L46.36 41.032V40.96ZM51.904 47.8C51.904 48.376 51.88 48.808 51.832 49.096V47.8H51.904ZM40.384 38.944C40.624 38.8 40.984 38.536 41.464 38.152L41.536 38.296L40.456 39.016C40.456 38.968 40.432 38.944 40.384 38.944ZM50.896 35.416C50.944 35.272 50.968 35.08 50.968 34.84L51.112 34.912V35.416H50.896ZM51.112 33.256V33.832H50.968V33.256H51.112ZM44.2 35.632L44.992 34.984C45.04 34.984 45.064 35.008 45.064 35.056L44.272 35.704L44.2 35.632ZM49.816 57.952C49.816 58.192 49.792 58.384 49.744 58.528L49.528 59.752C49.528 59.992 49.528 60.304 49.528 60.688C49.576 61.024 49.576 61.456 49.528 61.984L49.456 65.728V66.376C49.648 65.608 49.744 64.48 49.744 62.992V60.472C49.744 59.32 49.768 58.48 49.816 57.952ZM50.176 41.68H50.248V39.808H50.176V41.68ZM49.024 46.576V47.512V46.576Z" fill="#FFE419"/>
</g>
<defs>
<filter id="filter0_f" x="29.5195" y="14.8311" width="35.552" height="66.543" filterUnits="userSpaceOnUse" color-interpolation-filters="sRGB">
<feFlood flood-opacity="0" result="BackgroundImageFix"/>
<feBlend mode="normal" in="SourceGraphic" in2="BackgroundImageFix" result="shape"/>
<feGaussianBlur stdDeviation="5" result="effect1_foregroundBlur"/>
</filter>
<filter id="filter1_d" x="35.5195" y="26.8311" width="23.552" height="54.543" filterUnits="userSpaceOnUse" color-interpolation-filters="sRGB">
<feFlood flood-opacity="0" result="BackgroundImageFix"/>
<feColorMatrix in="SourceAlpha" type="matrix" values="0 0 0 0 0 0 0 0 0 0 0 0 0 0 0 0 0 0 127 0"/>
<feOffset dy="4"/>
<feGaussianBlur stdDeviation="2"/>
<feColorMatrix type="matrix" values="0 0 0 0 0 0 0 0 0 0 0 0 0 0 0 0 0 0 0.25 0"/>
<feBlend mode="normal" in2="BackgroundImageFix" result="effect1_dropShadow"/>
<feBlend mode="normal" in="SourceGraphic" in2="effect1_dropShadow" result="shape"/>
</filter>
<linearGradient id="paint0_linear" x1="-3.99648" y1="56.5851" x2="107.265" y2="57.628" gradientUnits="userSpaceOnUse">
<stop offset="0.396106" stop-color="#3DFFFF"/>
<stop offset="1" stop-color="white" stop-opacity="0"/>
</linearGradient>
</defs>
</svg>
