<svg width="72" height="72" viewBox="0 0 72 72" fill="none" xmlns="http://www.w3.org/2000/svg">
<circle opacity="0.8" cx="36" cy="36" r="36" fill="#FFE419"/>
<path d="M26.0189 30.4439H21V41.6248H26.0189L35.507 48.6624C35.507 48.6624 37.2507 50.1192 37.2507 48.6137C37.2507 47.1038 37.2507 24.61 37.2507 23.2365C37.2507 22.0545 35.7159 23.2094 35.7159 23.2094L26.0189 30.4439Z" fill="#186FE1"/>
<path d="M42.6538 28.2614C42.1548 27.7635 41.3474 27.7635 40.8484 28.2614C40.3494 28.7615 40.3494 29.5722 40.8484 30.0646C42.4914 31.7109 43.3054 33.8475 43.3086 36.0003C43.3043 38.1575 42.4904 40.3071 40.8484 41.948C40.3494 42.4448 40.3494 43.2587 40.8484 43.7577C41.0974 44.0066 41.4231 44.13 41.7533 44.13C42.0791 44.13 42.4049 44.0077 42.6538 43.7577C44.7936 41.6157 45.863 38.8026 45.8609 36.0003C45.863 33.2013 44.7904 30.3969 42.6538 28.2614Z" fill="#186FE1"/>
</svg>
