<svg width="11718" height="242" viewBox="0 0 11718 242" fill="none" xmlns="http://www.w3.org/2000/svg">
<g filter="url(#filter0_f)">
<path d="M13 75.1344C117.833 131.968 425.4 211.534 817 75.1344C1306.5 -95.3656 1463 221.134 2011 138.134C2559 55.1344 2476.5 22.1342 3231.5 73.1342C3986.5 124.134 4716 272.634 5091.5 87.6342C5391.9 -60.3658 5729.67 51.6342 5861 126.134" stroke="#FFE419" stroke-width="10"/>
</g>
<g filter="url(#filter1_f)">
<path d="M5857 124.134C5961.83 180.968 6269.4 260.534 6661 124.134C7150.5 -46.3656 7307 270.134 7855 187.134C8403 104.134 8320.5 71.1342 9075.5 122.134C9830.5 173.134 10560 321.634 10935.5 136.634C11235.9 -11.3658 11573.7 100.634 11705 175.134" stroke="#FFE419" stroke-width="10"/>
</g>
<path d="M13 75.1344C117.833 131.968 425.4 211.534 817 75.1344C1306.5 -95.3656 1463 221.134 2011 138.134C2559 55.1344 2476.5 22.1342 3231.5 73.1342C3986.5 124.134 4716 272.634 5091.5 87.6342C5391.9 -60.3658 5729.67 51.6342 5861 126.134" stroke="#FFE419" stroke-width="10"/>
<defs>
<filter id="filter0_f" x="0.617188" y="0" width="5872.85" height="192.883" filterUnits="userSpaceOnUse" color-interpolation-filters="sRGB">
<feFlood flood-opacity="0" result="BackgroundImageFix"/>
<feBlend mode="normal" in="SourceGraphic" in2="BackgroundImageFix" result="shape"/>
<feGaussianBlur stdDeviation="5" result="effect1_foregroundBlur"/>
</filter>
<filter id="filter1_f" x="5844.62" y="49" width="5872.85" height="192.883" filterUnits="userSpaceOnUse" color-interpolation-filters="sRGB">
<feFlood flood-opacity="0" result="BackgroundImageFix"/>
<feBlend mode="normal" in="SourceGraphic" in2="BackgroundImageFix" result="shape"/>
<feGaussianBlur stdDeviation="5" result="effect1_foregroundBlur"/>
</filter>
</defs>
</svg>
