<svg id="illustrationchapterOnePartThree" xmlns="http://www.w3.org/2000/svg" xmlns:xlink="http://www.w3.org/1999/xlink" viewBox="0 0 1825.26 554.09">
  <defs>
    <style>
      .hidden {
        opacity: 0;
      }
      .cls-custom {
        fill: #186fe1;
        stroke: #ffe419;
        stroke-width: 3px;
      }
      .cls-custom-line {
        stroke: #ffe419;
        stroke-miterlimit: 10;
        stroke-width: 8.98px;
      }
      .cls-1, .cls-3, .cls-4, .cls-8 {
        fill: none;
      }

      .cls-1, .cls-10, .cls-11, .cls-12, .cls-13, .cls-14, .cls-15, .cls-16, .cls-17, .cls-18, .cls-19, .cls-20, .cls-21, .cls-22, .cls-23, .cls-24, .cls-25, .cls-26, .cls-27, .cls-28, .cls-29, .cls-3, .cls-30, .cls-31, .cls-32, .cls-33, .cls-34, .cls-35, .cls-4, .cls-5, .cls-6, .cls-7, .cls-9 {
        stroke: #ffe419;
      }

      .cls-1 {
        stroke-width: 3px;
      }

      .cls-2 {
        fill: #fff;
      }

      .cls-3 {
        stroke-width: 3px;
      }

      .cls-4 {
        stroke-width: 2px;
      }

      .cls-10, .cls-11, .cls-12, .cls-13, .cls-14, .cls-15, .cls-16, .cls-17, .cls-18, .cls-19, .cls-20, .cls-21, .cls-22, .cls-23, .cls-24, .cls-25, .cls-26, .cls-27, .cls-28, .cls-29, .cls-30, .cls-31, .cls-32, .cls-33, .cls-34, .cls-35, .cls-5, .cls-6, .cls-7, .cls-9 {
        stroke-width: 2.99px;
      }

      .cls-5 {
        fill: url(#Dégradé_sans_nom);
      }

      .cls-6 {
        fill: url(#Dégradé_sans_nom_2);
      }

      .cls-7 {
        fill: url(#Dégradé_sans_nom_3);
      }

      .cls-8 {
        stroke: #00fbfd;
        stroke-miterlimit: 10;
        stroke-width: 8.98px;
      }

      .cls-9 {
        fill: url(#Dégradé_sans_nom_4);
      }

      .cls-10 {
        fill: url(#Dégradé_sans_nom_5);
      }

      .cls-11 {
        fill: url(#Dégradé_sans_nom_6);
      }

      .cls-12 {
        fill: url(#Dégradé_sans_nom_7);
      }

      .cls-13 {
        fill: url(#Dégradé_sans_nom_8);
      }

      .cls-14 {
        fill: url(#Dégradé_sans_nom_9);
      }

      .cls-15 {
        fill: url(#Dégradé_sans_nom_10);
      }

      .cls-16 {
        fill: url(#Dégradé_sans_nom_11);
      }

      .cls-17 {
        fill: url(#Dégradé_sans_nom_12);
      }

      .cls-18 {
        fill: url(#Dégradé_sans_nom_13);
      }

      .cls-19 {
        fill: url(#Dégradé_sans_nom_14);
      }

      .cls-20 {
        fill: url(#Dégradé_sans_nom_15);
      }

      .cls-21 {
        fill: url(#Dégradé_sans_nom_16);
      }

      .cls-22 {
        fill: url(#Dégradé_sans_nom_17);
      }

      .cls-23 {
        fill: url(#Dégradé_sans_nom_18);
      }

      .cls-24 {
        fill: url(#Dégradé_sans_nom_19);
      }

      .cls-25 {
        fill: url(#Dégradé_sans_nom_20);
      }

      .cls-26 {
        fill: url(#Dégradé_sans_nom_21);
      }

      .cls-27 {
        fill: url(#Dégradé_sans_nom_22);
      }

      .cls-28 {
        fill: url(#Dégradé_sans_nom_23);
      }

      .cls-29 {
        fill: url(#Dégradé_sans_nom_24);
      }

      .cls-30 {
        fill: url(#Dégradé_sans_nom_25);
      }

      .cls-31 {
        fill: url(#Dégradé_sans_nom_26);
      }

      .cls-32 {
        fill: url(#Dégradé_sans_nom_27);
      }

      .cls-33 {
        fill: url(#Dégradé_sans_nom_28);
      }

      .cls-34 {
        fill: url(#Dégradé_sans_nom_29);
      }

      .cls-35 {
        fill: url(#Dégradé_sans_nom_30);
      }

      .cls-36 {
        fill: #e6e6e6;
      }

      .cls-37 {
        fill: #3f3d56;
      }

      .cls-38 {
        fill: #186fe1;
      }

      .cls-39 {
        fill: #69fc24;
      }
    </style>
    <linearGradient id="Dégradé_sans_nom" data-name="Dégradé sans nom" x1="1365.29" y1="448.56" x2="1313.54" y2="359.18" gradientTransform="matrix(1, 0, 0, -1, 0, 1043)" gradientUnits="userSpaceOnUse">
      <stop offset="0" stop-color="#2a3fdd"/>
      <stop offset="1" stop-color="#00fbfd"/>
    </linearGradient>
    <linearGradient id="Dégradé_sans_nom_2" data-name="Dégradé sans nom 2" x1="1300.13" y1="426.52" x2="1274.24" y2="381.78" xlink:href="#Dégradé_sans_nom"/>
    <linearGradient id="Dégradé_sans_nom_3" data-name="Dégradé sans nom 3" x1="1282.17" y1="358.81" x2="1322.6" y2="476.61" xlink:href="#Dégradé_sans_nom"/>
    <linearGradient id="Dégradé_sans_nom_4" data-name="Dégradé sans nom 4" x1="1185.15" y1="373.68" x2="1130.92" y2="280.01" xlink:href="#Dégradé_sans_nom"/>
    <linearGradient id="Dégradé_sans_nom_5" data-name="Dégradé sans nom 5" x1="1116.89" y1="350.61" x2="1089.75" y2="303.73" xlink:href="#Dégradé_sans_nom"/>
    <linearGradient id="Dégradé_sans_nom_6" data-name="Dégradé sans nom 6" x1="1098.04" y1="279.64" x2="1140.41" y2="403.08" xlink:href="#Dégradé_sans_nom"/>
    <linearGradient id="Dégradé_sans_nom_7" data-name="Dégradé sans nom 7" x1="825.56" y1="543.37" x2="771.33" y2="449.7" xlink:href="#Dégradé_sans_nom"/>
    <linearGradient id="Dégradé_sans_nom_8" data-name="Dégradé sans nom 8" x1="757.32" y1="520.35" x2="730.18" y2="473.47" xlink:href="#Dégradé_sans_nom"/>
    <linearGradient id="Dégradé_sans_nom_9" data-name="Dégradé sans nom 9" x1="738.54" y1="449.1" x2="780.76" y2="572.67" xlink:href="#Dégradé_sans_nom"/>
    <linearGradient id="Dégradé_sans_nom_10" data-name="Dégradé sans nom 10" x1="994.38" y1="610.67" x2="940.16" y2="517" gradientTransform="matrix(1, 0, 0, -1, 0, 1043)" gradientUnits="userSpaceOnUse">
      <stop offset="0" stop-color="#ff918b"/>
      <stop offset="1" stop-color="#d9ffab"/>
    </linearGradient>
    <linearGradient id="Dégradé_sans_nom_11" data-name="Dégradé sans nom 11" x1="926.16" y1="587.65" x2="899.02" y2="540.77" xlink:href="#Dégradé_sans_nom_10"/>
    <linearGradient id="Dégradé_sans_nom_12" data-name="Dégradé sans nom 12" x1="907.32" y1="516.7" x2="949.72" y2="640.19" xlink:href="#Dégradé_sans_nom_10"/>
    <linearGradient id="Dégradé_sans_nom_13" data-name="Dégradé sans nom 13" x1="1184.55" y1="538.07" x2="1130.27" y2="444.31" xlink:href="#Dégradé_sans_nom"/>
    <linearGradient id="Dégradé_sans_nom_14" data-name="Dégradé sans nom 14" x1="1116.45" y1="514.96" x2="1089.31" y2="468.08" xlink:href="#Dégradé_sans_nom"/>
    <linearGradient id="Dégradé_sans_nom_15" data-name="Dégradé sans nom 15" x1="1097.64" y1="444.04" x2="1140.01" y2="567.49" xlink:href="#Dégradé_sans_nom"/>
    <linearGradient id="Dégradé_sans_nom_16" data-name="Dégradé sans nom 16" x1="994.85" y1="446.37" x2="940.62" y2="352.71" xlink:href="#Dégradé_sans_nom"/>
    <linearGradient id="Dégradé_sans_nom_17" data-name="Dégradé sans nom 17" x1="926.58" y1="423.3" x2="899.44" y2="376.42" xlink:href="#Dégradé_sans_nom"/>
    <linearGradient id="Dégradé_sans_nom_18" data-name="Dégradé sans nom 18" x1="907.75" y1="352.33" x2="950.12" y2="475.77" xlink:href="#Dégradé_sans_nom"/>
    <linearGradient id="Dégradé_sans_nom_19" data-name="Dégradé sans nom 19" x1="992.66" y1="775.7" x2="938.44" y2="682.03" xlink:href="#Dégradé_sans_nom"/>
    <linearGradient id="Dégradé_sans_nom_20" data-name="Dégradé sans nom 20" x1="924.46" y1="752.74" x2="897.32" y2="705.86" xlink:href="#Dégradé_sans_nom"/>
    <linearGradient id="Dégradé_sans_nom_21" data-name="Dégradé sans nom 21" x1="905.65" y1="681.44" x2="947.87" y2="805.02" xlink:href="#Dégradé_sans_nom"/>
    <linearGradient id="Dégradé_sans_nom_22" data-name="Dégradé sans nom 22" x1="825.66" y1="707.35" x2="771.44" y2="613.68" xlink:href="#Dégradé_sans_nom"/>
    <linearGradient id="Dégradé_sans_nom_23" data-name="Dégradé sans nom 23" x1="757.61" y1="684.34" x2="730.47" y2="637.46" xlink:href="#Dégradé_sans_nom"/>
    <linearGradient id="Dégradé_sans_nom_24" data-name="Dégradé sans nom 24" x1="738.75" y1="613.41" x2="781.15" y2="736.9" xlink:href="#Dégradé_sans_nom"/>
    <linearGradient id="Dégradé_sans_nom_25" data-name="Dégradé sans nom 25" x1="665.88" y1="454.65" x2="611.66" y2="360.99" xlink:href="#Dégradé_sans_nom_10"/>
    <linearGradient id="Dégradé_sans_nom_26" data-name="Dégradé sans nom 26" x1="597.48" y1="431.66" x2="570.34" y2="384.78" xlink:href="#Dégradé_sans_nom_10"/>
    <linearGradient id="Dégradé_sans_nom_27" data-name="Dégradé sans nom 27" x1="578.63" y1="360.57" x2="620.98" y2="484.05" xlink:href="#Dégradé_sans_nom_10"/>
    <linearGradient id="Dégradé_sans_nom_28" data-name="Dégradé sans nom 28" x1="666.1" y1="628.55" x2="611.88" y2="534.88" xlink:href="#Dégradé_sans_nom"/>
    <linearGradient id="Dégradé_sans_nom_29" data-name="Dégradé sans nom 29" x1="598.03" y1="605.5" x2="570.89" y2="558.62" xlink:href="#Dégradé_sans_nom"/>
    <linearGradient id="Dégradé_sans_nom_30" data-name="Dégradé sans nom 30" x1="579.21" y1="534.52" x2="621.55" y2="658" xlink:href="#Dégradé_sans_nom"/>
  </defs>
  <g class="keyword stockage hidden" id="stockage">
    <line id="line" class="line cls-1" x1="656.19" y1="70.5" x2="469.19" y2="70.5" pathLength="1" />
    <path id="text" class="text cls-2" d="M77.71,273.34a15.36,15.36,0,0,1-4-.51,9.61,9.61,0,0,1-3.12-1.34L72.19,268a10.71,10.71,0,0,0,5.55,1.66c1.82,0,2.73-.46,2.73-1.37a1.1,1.1,0,0,0-.79-1,13.14,13.14,0,0,0-2.5-.75,25.49,25.49,0,0,1-3.16-.86,5.53,5.53,0,0,1-2.19-1.51,4.06,4.06,0,0,1-.91-2.79,4.78,4.78,0,0,1,.84-2.76,5.59,5.59,0,0,1,2.5-2,10.38,10.38,0,0,1,4.1-.72,13.78,13.78,0,0,1,3.26.39,9.76,9.76,0,0,1,2.84,1.08L83,260.86a9.71,9.71,0,0,0-4.65-1.3,3.8,3.8,0,0,0-2.07.43,1.23,1.23,0,0,0-.65,1.08,1.08,1.08,0,0,0,.77,1,14.24,14.24,0,0,0,2.47.7,21.24,21.24,0,0,1,3.17.88,5.29,5.29,0,0,1,2.19,1.49,3.91,3.91,0,0,1,.93,2.76,4.74,4.74,0,0,1-.84,2.74,5.88,5.88,0,0,1-2.52,2A10.34,10.34,0,0,1,77.71,273.34Zm13-13.37H85.53V256.2h15V260H95.44v13H90.69Zm19.9,13.37a10.12,10.12,0,0,1-4.8-1.13,8.59,8.59,0,0,1,0-15.22,10.12,10.12,0,0,1,4.8-1.13,10,10,0,0,1,4.77,1.13,8.31,8.31,0,0,1,3.34,3.12,8.87,8.87,0,0,1,0,9,8.31,8.31,0,0,1-3.34,3.12A10,10,0,0,1,110.59,273.34Zm0-3.94a4.51,4.51,0,0,0,2.3-.6,4.32,4.32,0,0,0,1.63-1.68,5.21,5.21,0,0,0,.6-2.52,5.08,5.08,0,0,0-.6-2.5,4.31,4.31,0,0,0-1.63-1.7,4.73,4.73,0,0,0-4.61,0,4.31,4.31,0,0,0-1.63,1.7,5.08,5.08,0,0,0-.6,2.5,5.21,5.21,0,0,0,.6,2.52,4.32,4.32,0,0,0,1.63,1.68A4.52,4.52,0,0,0,110.59,269.4Zm20.2,3.94a10.1,10.1,0,0,1-4.76-1.11,8.42,8.42,0,0,1-3.28-3.12,9.08,9.08,0,0,1,0-9A8.3,8.3,0,0,1,126,257a10,10,0,0,1,4.76-1.13,10.25,10.25,0,0,1,4.15.82A8,8,0,0,1,138,259l-3,2.74a5.08,5.08,0,0,0-6.41-1.37,4.24,4.24,0,0,0-1.66,1.7,5.3,5.3,0,0,0-.57,2.5,5.44,5.44,0,0,0,.57,2.52,4.26,4.26,0,0,0,1.66,1.68,5.08,5.08,0,0,0,6.41-1.37l3,2.74a8,8,0,0,1-3.07,2.35A10.25,10.25,0,0,1,130.79,273.34Zm15.82-6.44-1.78,1.9V273h-4.7V256.2h4.7v7l6.51-7h5.23l-6.86,7.44,7.22,9.36h-5.52Zm22,2.84h-7.1L160.21,273h-4.85l7.42-16.8h4.68L174.9,273H170Zm-1.39-3.51-2.16-5.37-2.16,5.37Zm20-2h4.2v7a10.79,10.79,0,0,1-3.31,1.58,13.16,13.16,0,0,1-3.75.56,10.05,10.05,0,0,1-4.75-1.11,8.36,8.36,0,0,1-3.31-3.12,9.08,9.08,0,0,1,0-9,8.24,8.24,0,0,1,3.33-3.1,10.24,10.24,0,0,1,4.83-1.13,10.69,10.69,0,0,1,4.22.8,8,8,0,0,1,3.12,2.28l-3,2.73a5.33,5.33,0,0,0-4.08-1.87,4.7,4.7,0,0,0-3.48,1.32A4.64,4.64,0,0,0,180,264.6a5.16,5.16,0,0,0,.6,2.5,4.42,4.42,0,0,0,1.68,1.7,5,5,0,0,0,2.47.6,6.05,6.05,0,0,0,2.57-.55Zm20.7,5.09V273H194.48V256.2h13.18v3.67h-8.48v2.83h7.47v3.56h-7.47v3.07Zm23.11,0V273H217.59V256.2h13.18v3.67h-8.48v2.83h7.47v3.56h-7.47v3.07Zm6.21-9.36h-5.16V256.2h15.05V260H242v13h-4.75Zm22.22,0h-5.16V256.2h15V260h-5.14v13h-4.75Zm19,8.57h-2.59V273h-4.75V256.2h7.68a9.48,9.48,0,0,1,4,.77,5.7,5.7,0,0,1,2.59,2.16,6.37,6.37,0,0,1,.05,6.48,5.73,5.73,0,0,1-2.43,2.11l3.63,5.28h-5.09Zm3-6.12a2.31,2.31,0,0,0-.74-1.83,3.29,3.29,0,0,0-2.21-.65h-2.64v4.92h2.64a3.35,3.35,0,0,0,2.21-.62A2.3,2.3,0,0,0,281.51,262.42Zm18.68,7.32h-7.1L291.77,273h-4.85l7.41-16.8H299l7.44,16.8h-4.94Zm-1.39-3.51-2.16-5.37-2.16,5.37Zm25-10V273h-3.92l-7.41-8.95V273H307.8V256.2h3.91l7.42,8.95V256.2ZM333,273.34a15.36,15.36,0,0,1-4-.51,9.61,9.61,0,0,1-3.12-1.34l1.56-3.51a10.71,10.71,0,0,0,5.55,1.66c1.82,0,2.73-.46,2.73-1.37a1.1,1.1,0,0,0-.79-1,13.14,13.14,0,0,0-2.5-.75,25.49,25.49,0,0,1-3.16-.86,5.53,5.53,0,0,1-2.19-1.51,4.06,4.06,0,0,1-.91-2.79,4.78,4.78,0,0,1,.84-2.76,5.61,5.61,0,0,1,2.49-2,10.43,10.43,0,0,1,4.11-.72,13.78,13.78,0,0,1,3.26.39,9.87,9.87,0,0,1,2.84,1.08l-1.47,3.53a9.71,9.71,0,0,0-4.65-1.3,3.8,3.8,0,0,0-2.07.43,1.23,1.23,0,0,0-.65,1.08,1.08,1.08,0,0,0,.77,1,14.24,14.24,0,0,0,2.47.7,21.24,21.24,0,0,1,3.17.88,5.29,5.29,0,0,1,2.19,1.49,3.91,3.91,0,0,1,.93,2.76,4.74,4.74,0,0,1-.84,2.74,5.88,5.88,0,0,1-2.52,2A10.34,10.34,0,0,1,333,273.34Zm24.8-.34,0-8.9-4.32,7.24h-2.12l-4.29-7V273h-4.39V256.2h3.91l5.9,9.7,5.76-9.7h3.91l0,16.8Zm7.74-16.8h4.75V273h-4.75Zm14,17.14a15.36,15.36,0,0,1-4-.51,9.61,9.61,0,0,1-3.12-1.34l1.56-3.51a10.71,10.71,0,0,0,5.55,1.66c1.82,0,2.73-.46,2.73-1.37a1.1,1.1,0,0,0-.79-1,13.38,13.38,0,0,0-2.5-.75,25.49,25.49,0,0,1-3.16-.86,5.53,5.53,0,0,1-2.19-1.51,4.06,4.06,0,0,1-.91-2.79,4.78,4.78,0,0,1,.84-2.76,5.61,5.61,0,0,1,2.49-2,10.43,10.43,0,0,1,4.11-.72,13.78,13.78,0,0,1,3.26.39,9.76,9.76,0,0,1,2.84,1.08l-1.47,3.53a9.72,9.72,0,0,0-4.66-1.3,3.79,3.79,0,0,0-2.06.43,1.23,1.23,0,0,0-.65,1.08,1.08,1.08,0,0,0,.77,1,14.24,14.24,0,0,0,2.47.7,21.24,21.24,0,0,1,3.17.88,5.2,5.2,0,0,1,2.18,1.49,3.87,3.87,0,0,1,.94,2.76,4.74,4.74,0,0,1-.84,2.74,5.88,5.88,0,0,1-2.52,2A10.34,10.34,0,0,1,379.61,273.34Zm15.54,0a15.36,15.36,0,0,1-4-.51,9.61,9.61,0,0,1-3.12-1.34l1.56-3.51a10.72,10.72,0,0,0,5.54,1.66c1.83,0,2.74-.46,2.74-1.37a1.1,1.1,0,0,0-.79-1,13.38,13.38,0,0,0-2.5-.75,26.2,26.2,0,0,1-3.17-.86,5.57,5.57,0,0,1-2.18-1.51,4.06,4.06,0,0,1-.91-2.79,4.78,4.78,0,0,1,.84-2.76,5.61,5.61,0,0,1,2.49-2,10.43,10.43,0,0,1,4.11-.72,13.78,13.78,0,0,1,3.26.39,9.7,9.7,0,0,1,2.83,1.08l-1.46,3.53a9.72,9.72,0,0,0-4.66-1.3,3.79,3.79,0,0,0-2.06.43,1.23,1.23,0,0,0-.65,1.08,1.08,1.08,0,0,0,.77,1,14.24,14.24,0,0,0,2.47.7,21.24,21.24,0,0,1,3.17.88,5.2,5.2,0,0,1,2.18,1.49,3.87,3.87,0,0,1,.94,2.76,4.74,4.74,0,0,1-.84,2.74,5.88,5.88,0,0,1-2.52,2A10.34,10.34,0,0,1,395.15,273.34Zm9.64-17.14h4.75V273h-4.75Zm16.6,17.14a10.12,10.12,0,0,1-4.8-1.13,8.59,8.59,0,0,1,0-15.22,10.12,10.12,0,0,1,4.8-1.13,10,10,0,0,1,4.78,1.13,8.6,8.6,0,0,1,0,15.22A10,10,0,0,1,421.39,273.34Zm0-3.94a4.46,4.46,0,0,0,2.3-.6,4.34,4.34,0,0,0,1.64-1.68,5.21,5.21,0,0,0,.6-2.52,5.08,5.08,0,0,0-.6-2.5,4.33,4.33,0,0,0-1.64-1.7,4.71,4.71,0,0,0-4.6,0,4.33,4.33,0,0,0-1.64,1.7,5.08,5.08,0,0,0-.6,2.5,5.21,5.21,0,0,0,.6,2.52,4.34,4.34,0,0,0,1.64,1.68A4.46,4.46,0,0,0,421.39,269.4Zm27.81-13.2V273h-3.91l-7.42-8.95V273h-4.66V256.2h3.92l7.41,8.95V256.2Zm-300.28,29h7.94a11.13,11.13,0,0,1,4.9,1,7.81,7.81,0,0,1,3.31,2.93,8.94,8.94,0,0,1,0,8.88,7.81,7.81,0,0,1-3.31,2.93,11.13,11.13,0,0,1-4.9,1h-7.94Zm7.75,13a4.83,4.83,0,0,0,3.46-1.23,5,5,0,0,0,0-6.76,4.83,4.83,0,0,0-3.46-1.23h-3v9.22ZM170.12,284a2.68,2.68,0,0,1,1.95.74,2.59,2.59,0,0,1,.77,1.94,4.24,4.24,0,0,1-.15,1.11,11.33,11.33,0,0,1-.62,1.65l-1.54,3.51h-2.85L168.8,289a2.42,2.42,0,0,1-1.05-.92,2.8,2.8,0,0,1-.36-1.44,2.58,2.58,0,0,1,.76-1.94A2.71,2.71,0,0,1,170.12,284Zm5.07,1.22h4.75V302h-4.75Zm24.12,0V302H195.4L188,293.05V302h-4.66V285.2h3.92l7.41,8.95V285.2Zm8.1,3.67v3.7h7.42v3.67h-7.42V302h-4.75V285.2h13.18v3.67Zm19,13.47a10.12,10.12,0,0,1-4.8-1.13,8.59,8.59,0,0,1,0-15.22,10.12,10.12,0,0,1,4.8-1.13,10,10,0,0,1,4.78,1.13,8.6,8.6,0,0,1,0,15.22A10,10,0,0,1,226.39,302.34Zm0-3.94a4.46,4.46,0,0,0,2.3-.6,4.34,4.34,0,0,0,1.64-1.68,5.21,5.21,0,0,0,.6-2.52,5.08,5.08,0,0,0-.6-2.5,4.33,4.33,0,0,0-1.64-1.7,4.71,4.71,0,0,0-4.6,0,4.33,4.33,0,0,0-1.64,1.7,5.08,5.08,0,0,0-.6,2.5,5.21,5.21,0,0,0,.6,2.52,4.34,4.34,0,0,0,1.64,1.68A4.46,4.46,0,0,0,226.39,298.4Zm19.17-.86H243V302h-4.76V285.2h7.69a9.43,9.43,0,0,1,3.95.77,5.68,5.68,0,0,1,2.6,2.16,5.92,5.92,0,0,1,.91,3.29,5.82,5.82,0,0,1-.87,3.19,5.7,5.7,0,0,1-2.42,2.11L253.7,302h-5.09Zm3-6.12a2.31,2.31,0,0,0-.74-1.83,3.31,3.31,0,0,0-2.21-.65H243v4.92h2.64a3.37,3.37,0,0,0,2.21-.62A2.3,2.3,0,0,0,248.56,291.42ZM271.15,302l0-8.9-4.32,7.24h-2.11l-4.3-7V302H256V285.2h3.91l5.91,9.7,5.76-9.7h3.91l0,16.8Zm19-3.26H283L281.71,302h-4.85l7.42-16.8H289L296.4,302h-4.95Zm-1.4-3.51-2.16-5.37-2.16,5.37ZM300.48,289h-5.16V285.2h15.05V289h-5.14v13h-4.75Zm11.66-3.77h4.75V302h-4.75Zm16.6,17.14a10.18,10.18,0,0,1-4.8-1.13,8.6,8.6,0,0,1,0-15.22,10.18,10.18,0,0,1,4.8-1.13,10,10,0,0,1,4.78,1.13,8.6,8.6,0,0,1,0,15.22A10,10,0,0,1,328.74,302.34Zm0-3.94a4.52,4.52,0,0,0,2.31-.6,4.39,4.39,0,0,0,1.63-1.68,5.21,5.21,0,0,0,.6-2.52,5.08,5.08,0,0,0-.6-2.5,4.37,4.37,0,0,0-1.63-1.7,4.73,4.73,0,0,0-4.61,0,4.31,4.31,0,0,0-1.63,1.7,5.08,5.08,0,0,0-.6,2.5,5.21,5.21,0,0,0,.6,2.52,4.32,4.32,0,0,0,1.63,1.68A4.49,4.49,0,0,0,328.74,298.4Zm27.81-13.2V302h-3.91l-7.42-8.95V302h-4.65V285.2h3.91l7.41,8.95V285.2Zm9.26,17.14a15.36,15.36,0,0,1-4-.51,9.61,9.61,0,0,1-3.12-1.34l1.56-3.51a10.64,10.64,0,0,0,5.54,1.66c1.82,0,2.74-.46,2.74-1.37a1.11,1.11,0,0,0-.8-1,13.23,13.23,0,0,0-2.49-.75,26.2,26.2,0,0,1-3.17-.86,5.5,5.5,0,0,1-2.18-1.51,4.06,4.06,0,0,1-.91-2.79,4.78,4.78,0,0,1,.84-2.76,5.61,5.61,0,0,1,2.49-2,10.41,10.41,0,0,1,4.1-.72,13.8,13.8,0,0,1,3.27.39,9.81,9.81,0,0,1,2.83,1.08l-1.46,3.53a9.75,9.75,0,0,0-4.66-1.3,3.79,3.79,0,0,0-2.06.43,1.21,1.21,0,0,0-.65,1.08,1.08,1.08,0,0,0,.77,1,14,14,0,0,0,2.47.7,21.24,21.24,0,0,1,3.17.88,5.26,5.26,0,0,1,2.18,1.49,3.91,3.91,0,0,1,.94,2.76,4.74,4.74,0,0,1-.84,2.74,5.88,5.88,0,0,1-2.52,2A10.34,10.34,0,0,1,365.81,302.34Z" transform="translate(-9.81 -209)"/>
  </g>
  <g class="keyword transparent hidden" id="transparent">
    <path id="text" data-name="text" class="text cls-2" d="M172.35,403h-5.16V399.2h15.05V403H177.1v13h-4.75Zm19,8.57h-2.59V416H184V399.2h7.68a9.48,9.48,0,0,1,4,.77,5.7,5.7,0,0,1,2.59,2.16,6.37,6.37,0,0,1,0,6.48,5.73,5.73,0,0,1-2.43,2.11l3.63,5.28H194.4Zm3-6.12a2.31,2.31,0,0,0-.74-1.83,3.29,3.29,0,0,0-2.21-.65h-2.64v4.92h2.64a3.35,3.35,0,0,0,2.21-.62A2.3,2.3,0,0,0,194.35,405.42ZM213,412.74h-7.1L204.61,416h-4.85l7.41-16.8h4.68l7.44,16.8h-4.94Zm-1.39-3.51-2.16-5.37-2.16,5.37Zm25-10V416h-3.91l-7.41-8.95V416h-4.66V399.2h3.91l7.42,8.95V399.2Zm9.26,17.14a15.36,15.36,0,0,1-4-.51,9.61,9.61,0,0,1-3.12-1.34l1.56-3.51a9.86,9.86,0,0,0,2.62,1.2,9.76,9.76,0,0,0,2.92.46c1.83,0,2.74-.46,2.74-1.37a1.1,1.1,0,0,0-.79-1,13.14,13.14,0,0,0-2.5-.75,26.2,26.2,0,0,1-3.17-.86A5.57,5.57,0,0,1,240,407.1a4.06,4.06,0,0,1-.91-2.79,4.78,4.78,0,0,1,.84-2.76,5.59,5.59,0,0,1,2.5-2,10.34,10.34,0,0,1,4.1-.72,13.78,13.78,0,0,1,3.26.39,9.59,9.59,0,0,1,2.83,1.08l-1.46,3.53a9.71,9.71,0,0,0-4.65-1.3,3.8,3.8,0,0,0-2.07.43,1.23,1.23,0,0,0-.65,1.08,1.08,1.08,0,0,0,.77,1,14.24,14.24,0,0,0,2.47.7,21.24,21.24,0,0,1,3.17.88,5.2,5.2,0,0,1,2.18,1.49,3.87,3.87,0,0,1,.94,2.76,4.74,4.74,0,0,1-.84,2.74,5.88,5.88,0,0,1-2.52,2A10.34,10.34,0,0,1,245.88,416.34ZM263.2,399.2a9.48,9.48,0,0,1,4,.77,5.7,5.7,0,0,1,2.59,2.16,6.38,6.38,0,0,1,0,6.57,6,6,0,0,1-2.59,2.16,9.65,9.65,0,0,1-4,.75h-2.93V416h-4.75V399.2Zm-.29,8.66a3.37,3.37,0,0,0,2.21-.62,2.62,2.62,0,0,0,0-3.65,3.31,3.31,0,0,0-2.21-.65h-2.64v4.92Zm20.48,4.88h-7.1L275,416h-4.84l7.41-16.8h4.68l7.44,16.8h-4.94ZM282,409.23l-2.16-5.37-2.16,5.37Zm16.34,2.31h-2.59V416H291V399.2h7.68a9.48,9.48,0,0,1,4,.77,5.7,5.7,0,0,1,2.59,2.16,6.37,6.37,0,0,1,0,6.48,5.76,5.76,0,0,1-2.42,2.11l3.62,5.28h-5.09Zm3-6.12a2.28,2.28,0,0,0-.74-1.83,3.29,3.29,0,0,0-2.21-.65h-2.64v4.92h2.64a3.35,3.35,0,0,0,2.21-.62A2.27,2.27,0,0,0,301.34,405.42Zm20.91,6.91V416H308.77V399.2h13.17v3.67h-8.47v2.83h7.46v3.56h-7.46v3.07Zm18.63-13.13V416H337l-7.41-8.95V416h-4.66V399.2h3.91l7.42,8.95V399.2ZM347.8,403h-5.16V399.2h15.05V403h-5.14v13H347.8ZM373,412.33V416H359.46V399.2h13.18v3.67h-8.47v2.83h7.46v3.56h-7.46v3.07Z" transform="translate(-9.81 -209)"/>
    <line id="line" data-name="line" class="line cls-1" x1="519.19" y1="199.5" x2="396.19" y2="199.5" pathLength="1" />
  </g>
  <g class="keyword secure hidden" id="secure">
    <path id="text" data-name="text" class="text cls-2" d="M191.22,537.34a15.36,15.36,0,0,1-4-.51,9.61,9.61,0,0,1-3.12-1.34L185.7,532a10.72,10.72,0,0,0,5.54,1.66c1.83,0,2.74-.46,2.74-1.37a1.1,1.1,0,0,0-.79-1,13.14,13.14,0,0,0-2.5-.75,26.2,26.2,0,0,1-3.17-.86,5.57,5.57,0,0,1-2.18-1.51,4.06,4.06,0,0,1-.91-2.79,4.78,4.78,0,0,1,.84-2.76,5.61,5.61,0,0,1,2.49-2,10.43,10.43,0,0,1,4.11-.72,13.78,13.78,0,0,1,3.26.39,9.59,9.59,0,0,1,2.83,1.08l-1.46,3.53a9.71,9.71,0,0,0-4.65-1.3,3.8,3.8,0,0,0-2.07.43,1.23,1.23,0,0,0-.65,1.08,1.08,1.08,0,0,0,.77,1,14.24,14.24,0,0,0,2.47.7,21.24,21.24,0,0,1,3.17.88,5.29,5.29,0,0,1,2.19,1.49,3.91,3.91,0,0,1,.93,2.76,4.74,4.74,0,0,1-.84,2.74,5.88,5.88,0,0,1-2.52,2A10.34,10.34,0,0,1,191.22,537.34Zm23.12-4V537H200.86V520.2H214v3.67h-8.47v2.83H213v3.56h-7.46v3.07Zm-6-18.15h4.56l-4.51,3.65H205.1Zm17,22.16a10.05,10.05,0,0,1-4.75-1.11,8.44,8.44,0,0,1-3.29-3.12,9.08,9.08,0,0,1,0-9,8.32,8.32,0,0,1,3.29-3.1,10,10,0,0,1,4.75-1.13,10.29,10.29,0,0,1,4.16.82,8,8,0,0,1,3.07,2.35l-3,2.74a5.08,5.08,0,0,0-6.41-1.37,4.29,4.29,0,0,0-1.65,1.7,5.3,5.3,0,0,0-.58,2.5,5.44,5.44,0,0,0,.58,2.52,4.3,4.3,0,0,0,1.65,1.68,5.08,5.08,0,0,0,6.41-1.37l3,2.74a8,8,0,0,1-3.07,2.35A10.29,10.29,0,0,1,225.33,537.34Zm16.91,0a8,8,0,0,1-5.83-2,7.76,7.76,0,0,1-2.06-5.79V520.2h4.75v9.17q0,4,3.19,4t3.17-4V520.2h4.68v9.31a7.74,7.74,0,0,1-2.09,5.79A7.91,7.91,0,0,1,242.24,537.34Zm18.46-4.8h-2.59V537h-4.75V520.2H261a9.48,9.48,0,0,1,4,.77,5.7,5.7,0,0,1,2.59,2.16,6.37,6.37,0,0,1,.05,6.48,5.73,5.73,0,0,1-2.43,2.11l3.63,5.28h-5.09Zm3-6.12a2.31,2.31,0,0,0-.74-1.83,3.31,3.31,0,0,0-2.21-.65h-2.64v4.92h2.64a3.37,3.37,0,0,0,2.21-.62A2.3,2.3,0,0,0,263.7,526.42Zm7.42-6.22h4.75V537h-4.75Zm14,17.14a15.36,15.36,0,0,1-4-.51,9.61,9.61,0,0,1-3.12-1.34l1.56-3.51a10.64,10.64,0,0,0,5.54,1.66c1.83,0,2.74-.46,2.74-1.37a1.11,1.11,0,0,0-.79-1,13.63,13.63,0,0,0-2.5-.75,26.2,26.2,0,0,1-3.17-.86,5.5,5.5,0,0,1-2.18-1.51,4.06,4.06,0,0,1-.91-2.79,4.78,4.78,0,0,1,.84-2.76,5.61,5.61,0,0,1,2.49-2,10.43,10.43,0,0,1,4.11-.72,13.78,13.78,0,0,1,3.26.39,9.7,9.7,0,0,1,2.83,1.08l-1.46,3.53a9.72,9.72,0,0,0-4.66-1.3,3.79,3.79,0,0,0-2.06.43,1.23,1.23,0,0,0-.65,1.08,1.08,1.08,0,0,0,.77,1,14,14,0,0,0,2.47.7,21.24,21.24,0,0,1,3.17.88,5.26,5.26,0,0,1,2.18,1.49,3.87,3.87,0,0,1,.94,2.76,4.74,4.74,0,0,1-.84,2.74,5.88,5.88,0,0,1-2.52,2A10.34,10.34,0,0,1,285.16,537.34Zm23.12-4V537H294.79V520.2H308v3.67H299.5v2.83H307v3.56H299.5v3.07Zm-6-18.15h4.56l-4.52,3.65H299Zm22.15,18.15V537H310.92V520.2h13.17v3.67h-8.47v2.83h7.47v3.56h-7.47v3.07Z" transform="translate(-9.81 -209)"/>
    <line id="line" data-name="line" class="line cls-1" x1="510.21" y1="323.5" x2="349.19" y2="323.5" pathLength="1" />
  </g>
  <g class="keyword central hidden" id="central">
    <path id="text" data-name="text" class="text cls-2" d="M23.08,651.74H16L14.66,655H9.81l7.42-16.8h4.68L29.35,655h-5Zm-1.39-3.51-2.16-5.37-2.16,5.37Zm16.41,7.11a8,8,0,0,1-5.84-2,7.8,7.8,0,0,1-2.06-5.79V638.2H35v9.17c0,2.69,1.07,4,3.19,4s3.17-1.34,3.17-4V638.2H46v9.31a7.7,7.7,0,0,1-2.09,5.79A7.89,7.89,0,0,1,38.1,655.34Zm19.49,0a10,10,0,0,1-4.75-1.11,8.38,8.38,0,0,1-3.29-3.12,9.08,9.08,0,0,1,0-9,8.26,8.26,0,0,1,3.29-3.1,9.92,9.92,0,0,1,4.75-1.13,10.25,10.25,0,0,1,4.15.82A8,8,0,0,1,64.81,641l-3,2.74a5.08,5.08,0,0,0-6.41-1.37,4.31,4.31,0,0,0-1.66,1.7,5.3,5.3,0,0,0-.57,2.5,5.44,5.44,0,0,0,.57,2.52,4.32,4.32,0,0,0,1.66,1.68,5.08,5.08,0,0,0,6.41-1.37l3,2.74a8,8,0,0,1-3.07,2.35A10.25,10.25,0,0,1,57.59,655.34Zm16.9,0a8,8,0,0,1-5.83-2,7.8,7.8,0,0,1-2.06-5.79V638.2h4.75v9.17q0,4,3.19,4t3.17-4V638.2h4.68v9.31a7.74,7.74,0,0,1-2.09,5.79A7.9,7.9,0,0,1,74.49,655.34Zm27.1-17.14V655H97.68l-7.41-9v9H85.61V638.2h3.91l7.42,8.95V638.2Zm18.81,17.14a10.18,10.18,0,0,1-4.8-1.13,8.6,8.6,0,0,1,0-15.22,10.18,10.18,0,0,1,4.8-1.13,10,10,0,0,1,4.78,1.13,8.6,8.6,0,0,1,0,15.22A10,10,0,0,1,120.4,655.34Zm0-3.94a4.52,4.52,0,0,0,2.31-.6,4.39,4.39,0,0,0,1.63-1.68,5.21,5.21,0,0,0,.6-2.52,5.08,5.08,0,0,0-.6-2.5,4.37,4.37,0,0,0-1.63-1.7,4.73,4.73,0,0,0-4.61,0,4.31,4.31,0,0,0-1.63,1.7,5.08,5.08,0,0,0-.6,2.5,5.21,5.21,0,0,0,.6,2.52,4.32,4.32,0,0,0,1.63,1.68A4.49,4.49,0,0,0,120.4,651.4Zm19.17-.86H137V655h-4.75V638.2h7.68a9.48,9.48,0,0,1,4,.77,5.7,5.7,0,0,1,2.59,2.16,6.37,6.37,0,0,1,0,6.48,5.73,5.73,0,0,1-2.43,2.11l3.63,5.28h-5.09Zm3-6.12a2.31,2.31,0,0,0-.74-1.83,3.29,3.29,0,0,0-2.21-.65H137v4.92h2.64a3.35,3.35,0,0,0,2.21-.62A2.3,2.3,0,0,0,142.57,644.42Zm18.68,1.82h4.2v7a10.79,10.79,0,0,1-3.31,1.58,13.16,13.16,0,0,1-3.75.56,10.05,10.05,0,0,1-4.75-1.11,8.36,8.36,0,0,1-3.31-3.12,9.08,9.08,0,0,1,0-9,8.24,8.24,0,0,1,3.33-3.1,10.24,10.24,0,0,1,4.83-1.13,10.69,10.69,0,0,1,4.22.8,8,8,0,0,1,3.12,2.28l-3,2.73a5.33,5.33,0,0,0-4.08-1.87,4.7,4.7,0,0,0-3.48,1.32,4.64,4.64,0,0,0-1.32,3.48,5.16,5.16,0,0,0,.6,2.5,4.42,4.42,0,0,0,1.68,1.7,5,5,0,0,0,2.47.6,6.05,6.05,0,0,0,2.57-.55Zm18.47,5.5h-7.11L171.29,655h-4.84l7.41-16.8h4.68L186,655H181Zm-1.4-3.51-2.16-5.37L174,648.23Zm25-10V655H199.4l-7.42-9v9h-4.65V638.2h3.91l7.42,8.95V638.2Zm16.84,13.13V655H206.66V638.2h13.18v3.67h-8.47v2.83h7.46v3.56h-7.46v3.07Zm18,4a10.05,10.05,0,0,1-4.75-1.11,8.44,8.44,0,0,1-3.29-3.12,9.08,9.08,0,0,1,0-9,8.32,8.32,0,0,1,3.29-3.1,10,10,0,0,1,4.75-1.13,10.21,10.21,0,0,1,4.15.82,8,8,0,0,1,3.07,2.35l-3,2.74a5.08,5.08,0,0,0-6.41-1.37,4.29,4.29,0,0,0-1.65,1.7,5.18,5.18,0,0,0-.58,2.5,5.32,5.32,0,0,0,.58,2.52,4.3,4.3,0,0,0,1.65,1.68,5.08,5.08,0,0,0,6.41-1.37l3,2.74a8,8,0,0,1-3.07,2.35A10.21,10.21,0,0,1,238.15,655.34Zm22.83-4V655H247.49V638.2h13.18v3.67H252.2v2.83h7.46v3.56H252.2v3.07ZM279.6,638.2V655h-3.91l-7.42-9v9h-4.65V638.2h3.91l7.42,8.95V638.2Zm6.93,3.77h-5.16V638.2h15.05V642h-5.14v13h-4.75Zm19,8.57h-2.59V655h-4.75V638.2h7.68a9.48,9.48,0,0,1,4,.77,5.7,5.7,0,0,1,2.59,2.16,6.37,6.37,0,0,1,.05,6.48,5.73,5.73,0,0,1-2.43,2.11l3.63,5.28h-5.09Zm3-6.12a2.31,2.31,0,0,0-.74-1.83,3.29,3.29,0,0,0-2.21-.65h-2.64v4.92h2.64a3.35,3.35,0,0,0,2.21-.62A2.3,2.3,0,0,0,308.53,644.42Zm18.68,7.32h-7.1L318.79,655h-4.85l7.41-16.8H326l7.44,16.8h-4.94Zm-1.39-3.51-2.16-5.37-2.16,5.37Zm9-10h4.75v13h8V655H334.82ZM363,651.33V655H349.47V638.2h13.17v3.67h-8.47v2.83h7.47v3.56h-7.47v3.07Zm9.62-13.13h7.94a11.13,11.13,0,0,1,4.9,1,7.81,7.81,0,0,1,3.31,2.93,8.94,8.94,0,0,1,0,8.88,7.81,7.81,0,0,1-3.31,2.93,11.13,11.13,0,0,1-4.9,1h-7.94Zm7.75,13a4.83,4.83,0,0,0,3.46-1.23,5,5,0,0,0,0-6.76,4.83,4.83,0,0,0-3.46-1.23h-3v9.22Zm25.56.12V655H392.41V638.2h13.17v3.67h-8.47v2.83h7.47v3.56h-7.47v3.07ZM148,684.34a10.05,10.05,0,0,1-4.75-1.11,8.44,8.44,0,0,1-3.29-3.12,9.08,9.08,0,0,1,0-9,8.32,8.32,0,0,1,3.29-3.1,10,10,0,0,1,4.75-1.13,10.21,10.21,0,0,1,4.15.82,8,8,0,0,1,3.07,2.35l-3,2.74a5.08,5.08,0,0,0-6.41-1.37,4.29,4.29,0,0,0-1.65,1.7,5.18,5.18,0,0,0-.58,2.5,5.32,5.32,0,0,0,.58,2.52,4.3,4.3,0,0,0,1.65,1.68,5.08,5.08,0,0,0,6.41-1.37l3,2.74a8,8,0,0,1-3.07,2.35A10.21,10.21,0,0,1,148,684.34Zm17.46,0a10.18,10.18,0,0,1-4.8-1.13,8.6,8.6,0,0,1,0-15.22,10.18,10.18,0,0,1,4.8-1.13,10,10,0,0,1,4.78,1.13,8.38,8.38,0,0,1,3.34,3.12,8.87,8.87,0,0,1,0,9,8.38,8.38,0,0,1-3.34,3.12A10,10,0,0,1,165.48,684.34Zm0-3.94a4.52,4.52,0,0,0,2.31-.6,4.32,4.32,0,0,0,1.63-1.68,5.21,5.21,0,0,0,.6-2.52,5.08,5.08,0,0,0-.6-2.5,4.31,4.31,0,0,0-1.63-1.7,4.73,4.73,0,0,0-4.61,0,4.31,4.31,0,0,0-1.63,1.7,5.08,5.08,0,0,0-.6,2.5,5.21,5.21,0,0,0,.6,2.52,4.32,4.32,0,0,0,1.63,1.68A4.51,4.51,0,0,0,165.48,680.4Zm27.81-13.2V684h-3.91l-7.42-9v9h-4.65V667.2h3.91l7.42,8.95V667.2Zm6.93,3.77h-5.16V667.2h15.05V671H205v13h-4.75Zm19,8.57h-2.59V684h-4.75V667.2h7.68a9.48,9.48,0,0,1,4,.77,5.7,5.7,0,0,1,2.59,2.16,6.37,6.37,0,0,1,0,6.48,5.76,5.76,0,0,1-2.42,2.11l3.62,5.28h-5.09Zm3-6.12a2.28,2.28,0,0,0-.74-1.83,3.29,3.29,0,0,0-2.21-.65h-2.64v4.92h2.64a3.35,3.35,0,0,0,2.21-.62A2.27,2.27,0,0,0,222.22,673.42Zm15.9,10.92a10.12,10.12,0,0,1-4.8-1.13,8.59,8.59,0,0,1,0-15.22,10.12,10.12,0,0,1,4.8-1.13,10,10,0,0,1,4.77,1.13,8.31,8.31,0,0,1,3.34,3.12,8.87,8.87,0,0,1,0,9,8.31,8.31,0,0,1-3.34,3.12A10,10,0,0,1,238.12,684.34Zm0-3.94a4.51,4.51,0,0,0,2.3-.6,4.32,4.32,0,0,0,1.63-1.68,5.21,5.21,0,0,0,.6-2.52,5.08,5.08,0,0,0-.6-2.5,4.31,4.31,0,0,0-1.63-1.7,4.73,4.73,0,0,0-4.61,0,4.31,4.31,0,0,0-1.63,1.7,5.08,5.08,0,0,0-.6,2.5,5.21,5.21,0,0,0,.6,2.52,4.32,4.32,0,0,0,1.63,1.68A4.52,4.52,0,0,0,238.12,680.4Zm2.06-14.57L238.12,664l-2.07,1.82h-3l3.12-3.65h3.94l3.12,3.65Zm9.76,1.37h4.75v13h8V684H249.94Zm28.14,13.13V684H264.59V667.2h13.18v3.67h-8.48v2.83h7.47v3.56h-7.47v3.07Z" transform="translate(-9.81 -209)"/>
    <line id="line" data-name="line" class="line cls-3" x1="504.23" y1="449" x2="418.18" y2="448" pathLength="1" />
  </g>
  <g class="exchanges hidden" id="exchanges">
    <path id="text-5" data-name="text" class="cls-2" d="M1588,441.8V467h-7.13V447.31h-4.68V441.8Zm35.79,19.69V467h-20.23V441.8h19.77v5.51h-12.71v4.25h11.19v5.32h-11.19v4.61Zm-9-27.21h6.84l-6.77,5.47H1610Zm25.52,33.22a15.2,15.2,0,0,1-7.13-1.65,12.69,12.69,0,0,1-4.93-4.68,13.63,13.63,0,0,1,0-13.54,12.38,12.38,0,0,1,4.93-4.64,14.87,14.87,0,0,1,7.13-1.69,15.22,15.22,0,0,1,6.23,1.22,12,12,0,0,1,4.6,3.53l-4.53,4.1a7.61,7.61,0,0,0-9.61-2,6.33,6.33,0,0,0-2.49,2.56,7.88,7.88,0,0,0-.86,3.74,8.1,8.1,0,0,0,.86,3.78,6.42,6.42,0,0,0,2.49,2.52,7.61,7.61,0,0,0,9.61-2.05l4.53,4.1a12,12,0,0,1-4.6,3.53A15.22,15.22,0,0,1,1640.3,467.5Zm38-25.7V467h-7.13v-9.83h-9.72V467h-7.13V441.8h7.13v9.47h9.72V441.8Zm21.91,20.3h-10.66l-2,4.9h-7.27l11.13-25.2h7L1709.6,467h-7.42Zm-2.09-5.25-3.24-8.07-3.24,8.07Zm37.48-15.05V467h-5.86l-11.13-13.43V467h-7V441.8h5.87l11.12,13.43V441.8Zm21.92,12.06h6.3V464.3a16.71,16.71,0,0,1-5,2.38,19.86,19.86,0,0,1-5.62.82,15.23,15.23,0,0,1-7.13-1.65,12.63,12.63,0,0,1-5-4.68,13.63,13.63,0,0,1,0-13.54,12.25,12.25,0,0,1,5-4.64,15.25,15.25,0,0,1,7.24-1.69,16.12,16.12,0,0,1,6.33,1.18,12.41,12.41,0,0,1,4.68,3.42l-4.53,4.11a8,8,0,0,0-6.12-2.81,6.8,6.8,0,0,0-7.2,7.2,7.69,7.69,0,0,0,.9,3.74,6.6,6.6,0,0,0,2.52,2.56,7.48,7.48,0,0,0,3.7.9,9.17,9.17,0,0,0,3.86-.83Zm31,7.63V467h-20.24V441.8h19.77v5.51h-12.71v4.25h11.2v5.32h-11.2v4.61Z" transform="translate(-9.81 -209)"/>
    <g class="line" id="lines">
      <line id="line-5" data-name="line" class="cls-4" x1="1313.43" y1="381.35" x2="1426.43" y2="249.35"/>
      <line id="line-6" data-name="line" class="cls-4" x1="1426.19" y1="250" x2="1539.19" y2="250"/>
    </g>
  </g>
  <g class="blockchain hidden" id="blockchain">
    <g class="cube-10 hidden" id="cube-10">
      <path class="cls-custom" d="M1363.88,653.36l-48.9,28-.23-56.07,49-28.24Z" transform="translate(-9.81 -209)"/>
      <path class="cls-custom" d="M1311.76,625.26l.23,56-49.35-28.91-.23-56Z" transform="translate(-9.81 -209)"/>
      <path class="cls-custom" d="M1362.3,594.44l-49,28.23-49.38-28.92,48.9-28Z" transform="translate(-9.81 -209)"/>
    </g>
    <path class="inter-line-9 hidden cls-custom-line" id="inter-line-9" d="M1165,704.75,1287,641" transform="translate(-9.81 -209)"/>
    <g id="cube-9">
      <path class="cls-custom" d="M1183.74,731.1l-51.39,29.41-.23-58.93,51.54-29.67Z" transform="translate(-9.81 -209)"/>
      <path class="cls-custom" d="M1129.13,701.58l.23,58.88-51.85-30.37-.24-58.89Z" transform="translate(-9.81 -209)"/>
      <path class="cls-custom" d="M1182.15,669.32,1130.62,699l-51.88-30.39,51.38-29.4Z" transform="translate(-9.81 -209)"/>
    </g>
    <path id="inter-line-8" class="cls-custom-line" d="M1129.57,499.23l-2.65,171.62" transform="translate(-9.81 -209)"/>
    <path id="inter-line-6" class="cls-custom-line" d="M939.23,427.26l-2.65,171.62" transform="translate(-9.81 -209)"/>
    <g id="cube-3">
      <path class="cls-custom" d="M824.12,561.15l-51.38,29.39,0-58.75,51.11-29.56Z" transform="translate(-9.81 -209)"/>
      <path class="cls-custom" d="M769.78,531.78l0,58.74-52-30.12.18-59Z" transform="translate(-9.81 -209)"/>
      <path class="cls-custom" d="M822.39,499.63l-51.11,29.56L719.39,498.8l51.11-29.56Z" transform="translate(-9.81 -209)"/>
    </g>
    <g id="cube-6">
      <path class="cls-custom" d="M993,494l-51.39,29.41-.24-58.93L993,434.82Z" transform="translate(-9.81 -209)"/>
      <path class="cls-custom" d="M938.42,464.48l.24,58.91-52-30.12-.08-59.16Z" transform="translate(-9.81 -209)"/>
      <path class="cls-custom" d="M991.45,432.23,939.92,461.9,888,431.51l51.38-29.4Z" transform="translate(-9.81 -209)"/>
    </g>
    <g id="cube-8">
      <path class="cls-custom" d="M1183.06,566.53,1132,596.09l-.24-58.91,51.53-29.67Z" transform="translate(-9.81 -209)"/>
      <path class="cls-custom" d="M1128.72,537.17l.24,58.91-52-30.12-.09-59.16Z" transform="translate(-9.81 -209)"/>
      <path class="cls-custom" d="M1181.75,504.92l-51.53,29.67-51.88-30.39,51.38-29.41Z" transform="translate(-9.81 -209)"/>
    </g>
    <path id="inter-line-7" class="cls-custom-line" d="M910.81,651.81l189.38-99.88" transform="translate(-9.81 -209)"/>
    <g id="cube-7">
      <path class="cls-custom" d="M993.44,658.41l-51.39,29.41-.23-58.93,51.53-29.67Z" transform="translate(-9.81 -209)"/>
      <path class="cls-custom" d="M938.82,628.89l.24,58.88L887.2,657.4,887,598.51Z" transform="translate(-9.81 -209)"/>
      <path class="cls-custom" d="M991.85,596.63,940.32,626.3l-51.88-30.39,51.38-29.4Z" transform="translate(-9.81 -209)"/>
    </g>
    <path id="inter-line-5" class="cls-custom-line" d="M939.78,266.41,937.43,433" transform="translate(-9.81 -209)"/>
    <path id="inter-line-3" class="cls-custom-line" d="M772.18,333.18l-2.34,166.56" transform="translate(-9.81 -209)"/>
    <g id="cube-5">
      <path class="cls-custom" d="M991.22,328.8l-51.37,29.4,0-58.75L991,269.89Z" transform="translate(-9.81 -209)"/>
      <path class="cls-custom" d="M936.89,299.43l0,58.75-52-30.12.18-59Z" transform="translate(-9.81 -209)"/>
      <path class="cls-custom" d="M989.5,267.29l-51.11,29.56-51.89-30.4,51.11-29.55Z" transform="translate(-9.81 -209)"/>
    </g>
    <path id="inter-line-4" class="cls-custom-line" d="M767.46,379.55,906,315.06" transform="translate(-9.81 -209)"/>
    <path id="inter-line-2" class="cls-custom-line" d="M586.74,634.73l159-87.5" transform="translate(-9.81 -209)"/>
    <g id="cube-4">
      <path class="cls-custom" d="M824.28,397.07l-51.11,29.55-.24-58.91,51.37-29.4Z" transform="translate(-9.81 -209)"/>
      <path class="cls-custom" d="M769.94,367.71l.23,58.9-52.29-30.28,0-58.74Z" transform="translate(-9.81 -209)"/>
      <path class="cls-custom" d="M822.82,335.71l-51.38,29.41L719.39,335l51.27-29.82Z" transform="translate(-9.81 -209)"/>
    </g>
    <g id="cube-2">
      <path class="cls-custom" d="M664.34,650,613,679.44l0-58.75,51.26-29.82Z" transform="translate(-9.81 -209)"/>
      <path class="cls-custom" d="M610,620.68l0,58.73L558.09,649l-.23-58.89Z" transform="translate(-9.81 -209)"/>
      <path class="cls-custom" d="M662.76,588.27l-51.27,29.82-52.15-30.55,51.38-29.4Z" transform="translate(-9.81 -209)"/>
    </g>
    <path id="inter-line-1" class="cls-custom-line" d="M616,419.69l-2.5,166.83" transform="translate(-9.81 -209)"/>
    <g id="cube-1">
      <path class="cls-custom" d="M664.66,476l-51.11,29.56-.23-58.91,51.37-29.4Z" transform="translate(-9.81 -209)"/>
      <path class="cls-custom" d="M610.33,446.59l.24,58.91-52.3-30.28.18-59Z" transform="translate(-9.81 -209)"/>
      <path class="cls-custom" d="M663.2,414.61,611.83,444l-51.9-30.4L611,384.06Z" transform="translate(-9.81 -209)"/>
    </g>
  </g>
  <g class="dispatch-one hidden" id="dispatch-one">
    <g class="computer hidden" id="computer-one">
      <path class="cls-36" d="M1603.25,342.67h-40.76l1.38-18h38Z" transform="translate(-9.81 -209)"/>
      <path class="cls-36" d="M1606,340.6h-45.59v4.14H1606Z" transform="translate(-9.81 -209)"/>
      <path class="cls-37" d="M1660.93,209H1505.15a4.13,4.13,0,0,0-4.14,4.15h0v95h164.06v-95a4.1,4.1,0,0,0-.32-1.59,4,4,0,0,0-2.24-2.24,4.09,4.09,0,0,0-1.58-.32Z" transform="translate(-9.81 -209)"/>
      <path class="cls-36" d="M1501,308.13v15.54a4.37,4.37,0,0,0,.31,1.59,4.21,4.21,0,0,0,.9,1.34,4.19,4.19,0,0,0,2.93,1.22h155.78a4.15,4.15,0,0,0,4.14-4.15V308.13Z" transform="translate(-9.81 -209)"/>
      <path class="cls-36" d="M1657.13,217.63H1509.3v82.9h147.83Z" transform="translate(-9.81 -209)"/>
      <path class="cls-37" d="M1583.21,321.94a4.15,4.15,0,1,0-4.14-4.14A4.14,4.14,0,0,0,1583.21,321.94Z" transform="translate(-9.81 -209)"/>
      <path class="cls-2" d="M1652.87,223H1513.12v69.62h139.75Z" transform="translate(-9.81 -209)"/>
      <path class="cls-36" d="M1522.41,233.61a.47.47,0,0,0-.35.15.49.49,0,0,0-.15.34v25a.53.53,0,0,0,.15.35.5.5,0,0,0,.35.14h28.84a.48.48,0,0,0,.49-.49v-25a.48.48,0,0,0-.14-.34.49.49,0,0,0-.35-.15Z" transform="translate(-9.81 -209)"/>
      <path class="cls-36" d="M1568.71,233.69a.49.49,0,0,0-.35.15.48.48,0,0,0-.14.34v24.9a.48.48,0,0,0,.49.49h28.75a.5.5,0,0,0,.35-.14.52.52,0,0,0,.14-.35v-24.9a.48.48,0,0,0-.14-.34.47.47,0,0,0-.35-.15Z" transform="translate(-9.81 -209)"/>
      <path class="cls-36" d="M1614.53,233.43a.5.5,0,0,0-.49.5v25.15a.48.48,0,0,0,.49.49h29a.48.48,0,0,0,.49-.49V233.93a.5.5,0,0,0-.49-.5Z" transform="translate(-9.81 -209)"/>
      <path class="cls-36" d="M1522.94,271.93a1,1,0,0,0-1,1,1,1,0,0,0,.3.73,1,1,0,0,0,.72.3h27.11a1,1,0,0,0,.72-.3,1,1,0,0,0,.3-.73,1,1,0,0,0-1-1Z" transform="translate(-9.81 -209)"/>
      <path class="cls-38" d="M1522.94,276.79a1,1,0,0,0-.72,1.74,1,1,0,0,0,.72.3h12.21a1,1,0,0,0,.72-.3,1,1,0,0,0-.72-1.74Z" transform="translate(-9.81 -209)"/>
      <path class="cls-36" d="M1569.74,271.93a1,1,0,0,0-1,1,1,1,0,0,0,.3.73,1,1,0,0,0,.72.3h27.11a1,1,0,0,0,.72-.3,1,1,0,0,0,.3-.73,1,1,0,0,0-1-1Z" transform="translate(-9.81 -209)"/>
      <path class="cls-38" d="M1569.74,276.79a1,1,0,0,0-.72,1.74,1,1,0,0,0,.72.3H1582a1,1,0,0,0,.72-.3,1,1,0,0,0-.72-1.74Z" transform="translate(-9.81 -209)"/>
      <path class="cls-36" d="M1615.37,271.93a1,1,0,0,0-1,1,1,1,0,0,0,.3.73,1,1,0,0,0,.72.3h27.11a1,1,0,0,0,1-1,1,1,0,0,0-.29-.72,1,1,0,0,0-.73-.3Z" transform="translate(-9.81 -209)"/>
      <path class="cls-36" d="M1522.94,266.92a1,1,0,0,0-.72.29,1.06,1.06,0,0,0-.3.73,1,1,0,0,0,1,1h27.11a1,1,0,0,0,1-1,1.06,1.06,0,0,0-.3-.73,1,1,0,0,0-.72-.29Z" transform="translate(-9.81 -209)"/>
      <path class="cls-36" d="M1569.74,266.92a1,1,0,0,0-.72.29,1.06,1.06,0,0,0-.3.73,1,1,0,0,0,1,1h27.11a1,1,0,0,0,1-1,1.06,1.06,0,0,0-.3-.73,1,1,0,0,0-.72-.29Z" transform="translate(-9.81 -209)"/>
      <path class="cls-36" d="M1615.37,266.92a1,1,0,0,0-.72.29,1.06,1.06,0,0,0-.3.73,1,1,0,0,0,1,1h27.11a1,1,0,0,0,.73-.3,1,1,0,0,0,.29-.72,1.05,1.05,0,0,0-.29-.73,1,1,0,0,0-.73-.29Z" transform="translate(-9.81 -209)"/>
      <path class="cls-38" d="M1615.37,276.79a1,1,0,0,0-.72,1.74,1,1,0,0,0,.72.3h12.21a1,1,0,0,0,.72-.3,1,1,0,0,0-.72-1.74Z" transform="translate(-9.81 -209)"/>
    </g>
    <line id="line-7" data-name="line" class="cls-4" x1="1029.19" y1="85" x2="1463.19" y2="85"/>
    <path id="validate" class="validate cls-39 hidden" d="M1250,271.73,1263.36,285,1289,259.6l-3.68-3.6-22,21.75-9.72-9.64Z" transform="translate(-9.81 -209)"/>
  </g>
  <g class="dispatch-two hidden" id="dispatch-two">
    <g class="computer hidden" id="computer-two">
      <path class="cls-36" d="M1773.25,532.67h-40.76l1.38-18h38Z" transform="translate(-9.81 -209)"/>
      <path class="cls-36" d="M1776,530.6h-45.59v4.14H1776Z" transform="translate(-9.81 -209)"/>
      <path class="cls-37" d="M1830.93,399H1675.15a4.13,4.13,0,0,0-4.14,4.14h0v95h164.06v-95a4.09,4.09,0,0,0-.32-1.58,4,4,0,0,0-2.24-2.24,4.09,4.09,0,0,0-1.58-.32Z" transform="translate(-9.81 -209)"/>
      <path class="cls-36" d="M1671,498.13v15.54a4.33,4.33,0,0,0,.31,1.59,4.21,4.21,0,0,0,.9,1.34,4.19,4.19,0,0,0,2.93,1.22h155.78a4.15,4.15,0,0,0,4.14-4.15V498.13Z" transform="translate(-9.81 -209)"/>
      <path class="cls-36" d="M1827.13,407.64H1679.3v82.89h147.83Z" transform="translate(-9.81 -209)"/>
      <path class="cls-37" d="M1753.21,511.94a4.15,4.15,0,1,0-4.14-4.14A4.14,4.14,0,0,0,1753.21,511.94Z" transform="translate(-9.81 -209)"/>
      <path class="cls-2" d="M1822.87,413H1683.12v69.62h139.75Z" transform="translate(-9.81 -209)"/>
      <path class="cls-36" d="M1692.41,423.61a.47.47,0,0,0-.35.15.49.49,0,0,0-.15.35v25a.53.53,0,0,0,.15.35.5.5,0,0,0,.35.14h28.84a.48.48,0,0,0,.49-.49v-25a.5.5,0,0,0-.49-.5Z" transform="translate(-9.81 -209)"/>
      <path class="cls-36" d="M1738.71,423.69a.49.49,0,0,0-.35.15.48.48,0,0,0-.14.34v24.9a.48.48,0,0,0,.49.49h28.75a.5.5,0,0,0,.35-.14.52.52,0,0,0,.14-.35v-24.9a.48.48,0,0,0-.14-.34.47.47,0,0,0-.35-.15Z" transform="translate(-9.81 -209)"/>
      <path class="cls-36" d="M1784.53,423.43a.49.49,0,0,0-.35.15.48.48,0,0,0-.14.34v25.16a.48.48,0,0,0,.49.49h29a.48.48,0,0,0,.49-.49V423.92a.48.48,0,0,0-.14-.34.49.49,0,0,0-.35-.15Z" transform="translate(-9.81 -209)"/>
      <path class="cls-36" d="M1692.94,461.93a1,1,0,0,0-1,1,1,1,0,0,0,.3.73,1,1,0,0,0,.72.3h27.11a1,1,0,0,0,.72-.3,1,1,0,0,0,.3-.73,1,1,0,0,0-1-1Z" transform="translate(-9.81 -209)"/>
      <path class="cls-38" d="M1692.94,466.79a1,1,0,0,0-.72,1.74,1,1,0,0,0,.72.3h12.21a1,1,0,0,0,.72-.3,1,1,0,0,0-.72-1.74Z" transform="translate(-9.81 -209)"/>
      <path class="cls-36" d="M1739.74,461.93a1,1,0,0,0-1,1,1,1,0,0,0,.3.73,1,1,0,0,0,.72.3h27.11a1,1,0,0,0,.72-.3,1,1,0,0,0,.3-.73,1,1,0,0,0-1-1Z" transform="translate(-9.81 -209)"/>
      <path class="cls-38" d="M1739.74,466.79a1,1,0,0,0-.72,1.74,1,1,0,0,0,.72.3H1752a1,1,0,0,0,.72-.3,1,1,0,0,0-.72-1.74Z" transform="translate(-9.81 -209)"/>
      <path class="cls-36" d="M1785.37,461.93a1,1,0,0,0-1,1,1,1,0,0,0,.3.73,1,1,0,0,0,.72.3h27.11a1,1,0,0,0,1-1,1,1,0,0,0-.29-.72,1,1,0,0,0-.73-.3Z" transform="translate(-9.81 -209)"/>
      <path class="cls-36" d="M1692.94,456.92a1,1,0,0,0-.72.29,1.06,1.06,0,0,0-.3.73,1,1,0,0,0,1,1h27.11a1,1,0,0,0,1-1,1.06,1.06,0,0,0-.3-.73,1,1,0,0,0-.72-.29Z" transform="translate(-9.81 -209)"/>
      <path class="cls-36" d="M1739.74,456.92a1,1,0,0,0-.72.29,1.06,1.06,0,0,0-.3.73,1,1,0,0,0,1,1h27.11a1,1,0,0,0,1-1,1.06,1.06,0,0,0-.3-.73,1,1,0,0,0-.72-.29Z" transform="translate(-9.81 -209)"/>
      <path class="cls-36" d="M1785.37,456.92a1,1,0,0,0-.72.29,1.06,1.06,0,0,0-.3.73,1,1,0,0,0,1,1h27.11a1,1,0,0,0,.73-.3,1,1,0,0,0,.29-.72,1.05,1.05,0,0,0-.29-.73,1,1,0,0,0-.73-.29Z" transform="translate(-9.81 -209)"/>
      <path class="cls-38" d="M1785.37,466.79a1,1,0,0,0-.72,1.74,1,1,0,0,0,.72.3h12.21a1,1,0,0,0,.72-.3,1,1,0,0,0-.72-1.74Z" transform="translate(-9.81 -209)"/>
    </g>
    <line id="line-8" data-name="line" class="cls-4" x1="1199.2" y1="281" x2="1633.2" y2="281"/>
    <path id="validate-2" data-name="validate" class="validate cls-39 hidden" d="M1431,467.73,1444.36,481,1470,455.6l-3.68-3.6-22,21.75-9.72-9.64Z" transform="translate(-9.81 -209)"/>
  </g>
  <g class="dispatch-three hidden" id="dispatch-three">
    <g class="computer hidden" id="computer-three">
      <path class="cls-36" d="M1603.25,722.67h-40.76l1.38-18h38Z" transform="translate(-9.81 -209)"/>
      <path class="cls-36" d="M1606,720.6h-45.59v4.14H1606Z" transform="translate(-9.81 -209)"/>
      <path class="cls-37" d="M1660.93,589H1505.15a4.13,4.13,0,0,0-4.14,4.15h0v95h164.06v-95a4.1,4.1,0,0,0-.32-1.59,4,4,0,0,0-2.24-2.24,4.09,4.09,0,0,0-1.58-.32Z" transform="translate(-9.81 -209)"/>
      <path class="cls-36" d="M1501,688.13v15.54a4.33,4.33,0,0,0,.31,1.59,4.21,4.21,0,0,0,.9,1.34,4.19,4.19,0,0,0,2.93,1.22h155.78a4.15,4.15,0,0,0,4.14-4.15V688.13Z" transform="translate(-9.81 -209)"/>
      <path class="cls-36" d="M1657.13,597.64H1509.3v82.89h147.83Z" transform="translate(-9.81 -209)"/>
      <path class="cls-37" d="M1583.21,701.94a4.15,4.15,0,1,0-4.14-4.14A4.14,4.14,0,0,0,1583.21,701.94Z" transform="translate(-9.81 -209)"/>
      <path class="cls-2" d="M1652.87,603H1513.12v69.62h139.75Z" transform="translate(-9.81 -209)"/>
      <path class="cls-36" d="M1522.41,613.61a.47.47,0,0,0-.35.15.49.49,0,0,0-.15.34v25a.53.53,0,0,0,.15.35.5.5,0,0,0,.35.14h28.84a.48.48,0,0,0,.49-.49v-25a.48.48,0,0,0-.14-.34.49.49,0,0,0-.35-.15Z" transform="translate(-9.81 -209)"/>
      <path class="cls-36" d="M1568.71,613.69a.49.49,0,0,0-.35.15.48.48,0,0,0-.14.34v24.9a.48.48,0,0,0,.49.49h28.75a.5.5,0,0,0,.35-.14.52.52,0,0,0,.14-.35v-24.9a.48.48,0,0,0-.14-.34.47.47,0,0,0-.35-.15Z" transform="translate(-9.81 -209)"/>
      <path class="cls-36" d="M1614.53,613.43a.49.49,0,0,0-.35.15.48.48,0,0,0-.14.34v25.16a.48.48,0,0,0,.49.49h29a.48.48,0,0,0,.49-.49V613.92a.48.48,0,0,0-.14-.34.49.49,0,0,0-.35-.15Z" transform="translate(-9.81 -209)"/>
      <path class="cls-36" d="M1522.94,651.93a1,1,0,0,0-1,1,1.06,1.06,0,0,0,.3.73,1,1,0,0,0,.72.29h27.11a1,1,0,0,0,.72-.29,1.06,1.06,0,0,0,.3-.73,1,1,0,0,0-1-1Z" transform="translate(-9.81 -209)"/>
      <path class="cls-38" d="M1522.94,656.79a1,1,0,0,0-.72,1.74,1,1,0,0,0,.72.3h12.21a1,1,0,0,0,.72-.3,1,1,0,0,0-.72-1.74Z" transform="translate(-9.81 -209)"/>
      <path class="cls-36" d="M1569.74,651.93a1,1,0,0,0-1,1,1.06,1.06,0,0,0,.3.73,1,1,0,0,0,.72.29h27.11a1,1,0,0,0,.72-.29,1.06,1.06,0,0,0,.3-.73,1,1,0,0,0-1-1Z" transform="translate(-9.81 -209)"/>
      <path class="cls-38" d="M1569.74,656.79a1,1,0,0,0-.72,1.74,1,1,0,0,0,.72.3H1582a1,1,0,0,0,.72-.3,1,1,0,0,0-.72-1.74Z" transform="translate(-9.81 -209)"/>
      <path class="cls-36" d="M1615.37,651.93a1,1,0,0,0-1,1,1.06,1.06,0,0,0,.3.73,1,1,0,0,0,.72.29h27.11a1,1,0,0,0,.73-.29,1.05,1.05,0,0,0,.29-.73,1,1,0,0,0-.29-.72,1,1,0,0,0-.73-.3Z" transform="translate(-9.81 -209)"/>
      <path class="cls-36" d="M1522.94,646.91a1,1,0,0,0,0,2.05h27.11a1,1,0,0,0,0-2.05Z" transform="translate(-9.81 -209)"/>
      <path class="cls-36" d="M1569.74,646.91a1,1,0,0,0,0,2.05h27.11a1,1,0,0,0,0-2.05Z" transform="translate(-9.81 -209)"/>
      <path class="cls-36" d="M1615.37,646.91a1,1,0,0,0,0,2.05h27.11a1,1,0,0,0,.73-.3,1,1,0,0,0,0-1.44,1.06,1.06,0,0,0-.73-.31Z" transform="translate(-9.81 -209)"/>
      <path class="cls-38" d="M1615.37,656.79a1,1,0,0,0-.72,1.74,1,1,0,0,0,.72.3h12.21a1,1,0,0,0,.72-.3,1,1,0,0,0-.72-1.74Z" transform="translate(-9.81 -209)"/>
    </g>
    <line id="line-9" data-name="line" class="cls-4" x1="1376.19" y1="422.06" x2="1463.23" y2="422.06"/>
    <path id="validate-3" data-name="validate" class="validate hidden cls-39" d="M1411,608.73,1424.36,622,1450,596.6l-3.68-3.6-22,21.75-9.72-9.64Z" transform="translate(-9.81 -209)"/>
  </g>
</svg>