<svg id="illustrationchapterOnePartTwo" xmlns="http://www.w3.org/2000/svg" xmlns:xlink="http://www.w3.org/1999/xlink" width="1019" height="608" viewBox="0 0 1019 608">
  <defs>
    <style>
      .hidden {
        opacity: 0
      }
      .partTwo-cls-1 {
        fill: #1959ff;
      }

      .partTwo-cls-2 {
        fill: url(#Dégradé_sans_nom);
      }

      .partTwo-cls-3 {
        fill: #ffe419;
      }

      .partTwo-cls-4 {
        fill: #f2f2f2;
      }

      .partTwo-cls-31, .partTwo-cls-32, .partTwo-cls-33, .partTwo-cls-5 {
        fill: #186fe1;
      }

      .partTwo-cls-6 {
        fill: #2f2e41;
      }

      .partTwo-cls-7 {
        fill: #ffb9b9;
      }

      .partTwo-cls-8 {
        opacity: 0.1;
      }

      .partTwo-cls-10, .partTwo-cls-11, .partTwo-cls-31, .partTwo-cls-32, .partTwo-cls-33, .partTwo-cls-35, .partTwo-cls-8 {
        isolation: isolate;
      }

      .partTwo-cls-9 {
        fill: #575a89;
      }

      .partTwo-cls-10, .partTwo-cls-11, .partTwo-cls-35 {
        opacity: 0.2;
      }

      .partTwo-cls-11 {
        fill: none;
        stroke: #000;
        stroke-miterlimit: 10;
        stroke-width: 2px;
      }

      .partTwo-cls-12 {
        fill: #3f3d56;
      }

      .partTwo-cls-13 {
        fill: #9f616a;
      }

      .partTwo-cls-14 {
        fill: #d0cde1;
      }

      .partTwo-cls-15 {
        fill: url(#Dégradé_sans_nom_2);
      }

      .partTwo-cls-16 {
        fill: #f5f5f5;
      }

      .partTwo-cls-17 {
        fill: url(#Dégradé_sans_nom_3);
      }

      .partTwo-cls-18 {
        fill: url(#Dégradé_sans_nom_4);
      }

      .partTwo-cls-19 {
        fill: #fafafa;
      }

      .partTwo-cls-20 {
        fill: url(#Dégradé_sans_nom_5);
      }

      .partTwo-cls-21 {
        fill: url(#Dégradé_sans_nom_6);
      }

      .partTwo-cls-22, .partTwo-cls-35 {
        fill: #fff;
      }

      .partTwo-cls-23 {
        fill: #69f0ae;
      }

      .partTwo-cls-24 {
        fill: url(#Dégradé_sans_nom_7);
      }

      .partTwo-cls-25 {
        fill: url(#Dégradé_sans_nom_8);
      }

      .partTwo-cls-26 {
        fill: url(#Dégradé_sans_nom_9);
      }

      .partTwo-cls-27 {
        fill: url(#Dégradé_sans_nom_10);
      }

      .partTwo-cls-28 {
        fill: url(#Dégradé_sans_nom_11);
      }

      .partTwo-cls-29 {
        fill: url(#Dégradé_sans_nom_12);
      }

      .partTwo-cls-30 {
        fill: url(#Dégradé_sans_nom_13);
      }

      .partTwo-cls-31 {
        opacity: 0.7;
      }

      .partTwo-cls-32 {
        opacity: 0.5;
      }

      .partTwo-cls-33 {
        opacity: 0.3;
      }

      .partTwo-cls-34 {
        fill: url(#Dégradé_sans_nom_14);
      }

      .partTwo-cls-36 {
        fill: url(#Dégradé_sans_nom_15);
      }

      .partTwo-cls-37 {
        fill: url(#Dégradé_sans_nom_16);
      }
    </style>
    <linearGradient id="Dégradé_sans_nom" data-name="Dégradé sans nom" x1="398.75" y1="-2.19" x2="437.48" y2="596.17" gradientTransform="matrix(1, 0, 0, -1, 0, 641)" gradientUnits="userSpaceOnUse">
      <stop offset="0" stop-color="#3dffff"/>
      <stop offset="1" stop-color="#fff" stop-opacity="0"/>
    </linearGradient>
    <linearGradient id="Dégradé_sans_nom_2" data-name="Dégradé sans nom 2" x1="518.48" y1="256.99" x2="518.48" y2="277.73" gradientTransform="matrix(1, 0, 0, -1, 0, 641)" gradientUnits="userSpaceOnUse">
      <stop offset="0" stop-color="gray" stop-opacity="0.25"/>
      <stop offset="0.54" stop-color="gray" stop-opacity="0.12"/>
      <stop offset="1" stop-color="gray" stop-opacity="0.1"/>
    </linearGradient>
    <linearGradient id="Dégradé_sans_nom_3" data-name="Dégradé sans nom 3" x1="346.82" y1="277.73" x2="346.82" y2="-13690.2" xlink:href="#Dégradé_sans_nom_2"/>
    <linearGradient id="Dégradé_sans_nom_4" data-name="Dégradé sans nom 4" x1="432.45" y1="-161839" x2="432.45" y2="513" xlink:href="#Dégradé_sans_nom_2"/>
    <linearGradient id="Dégradé_sans_nom_5" data-name="Dégradé sans nom 5" x1="432.45" y1="-90495.6" x2="432.45" y2="-17346.2" xlink:href="#Dégradé_sans_nom_2"/>
    <linearGradient id="Dégradé_sans_nom_6" data-name="Dégradé sans nom 6" x1="3316.89" y1="-10185.68" x2="2832.39" y2="-8359.53" xlink:href="#Dégradé_sans_nom_2"/>
    <linearGradient id="Dégradé_sans_nom_7" data-name="Dégradé sans nom 7" x1="-8088.1" y1="-24632.6" x2="-6831.2" y2="-20973.9" xlink:href="#Dégradé_sans_nom_2"/>
    <linearGradient id="Dégradé_sans_nom_8" data-name="Dégradé sans nom 8" x1="511.5" y1="-9258.01" x2="511.5" y2="-7368.67" xlink:href="#Dégradé_sans_nom_2"/>
    <linearGradient id="Dégradé_sans_nom_9" data-name="Dégradé sans nom 9" x1="432.45" y1="-24425.7" x2="432.45" y2="-14554.2" xlink:href="#Dégradé_sans_nom_2"/>
    <linearGradient id="Dégradé_sans_nom_10" data-name="Dégradé sans nom 10" x1="415.32" y1="-4373.4" x2="415.32" y2="-4142.99" xlink:href="#Dégradé_sans_nom_2"/>
    <linearGradient id="Dégradé_sans_nom_11" data-name="Dégradé sans nom 11" x1="426.74" y1="-4373.4" x2="426.74" y2="-4142.99" xlink:href="#Dégradé_sans_nom_2"/>
    <linearGradient id="Dégradé_sans_nom_12" data-name="Dégradé sans nom 12" x1="438.16" y1="-4373.4" x2="438.16" y2="-4142.99" xlink:href="#Dégradé_sans_nom_2"/>
    <linearGradient id="Dégradé_sans_nom_13" data-name="Dégradé sans nom 13" x1="449.57" y1="-4373.4" x2="449.57" y2="-4142.99" xlink:href="#Dégradé_sans_nom_2"/>
    <linearGradient id="Dégradé_sans_nom_14" data-name="Dégradé sans nom 14" x1="432.45" y1="-13418.7" x2="432.45" y2="-9816" xlink:href="#Dégradé_sans_nom_2"/>
    <linearGradient id="Dégradé_sans_nom_15" data-name="Dégradé sans nom 15" x1="354.78" y1="-12435.3" x2="354.78" y2="-9155.93" xlink:href="#Dégradé_sans_nom_2"/>
    <linearGradient id="Dégradé_sans_nom_16" data-name="Dégradé sans nom 16" x1="354.77" y1="-18702.4" x2="354.77" y2="-15423" xlink:href="#Dégradé_sans_nom_2"/>
  </defs>
    <g class="flask hidden" id="flask">
      <path class="partTwo-cls-1" d="M274,326.35c23.19-39.92,17.18-59.36,14.59-87.87s-1.28-66.09,17.78-77.93c18.89-12.06,55.64,1.16,84.88,5.9,29.52,4.53,51.43,1,96.35-15.1s113.3-44.88,120.2-28.39c7.19,16.26-47,77.3-45.13,126,2.33,48.69,60.54,84.78,67.88,119.39,7.05,34.84-36.86,68.66-81.35,87.09s-89.83,21.71-133.29,29.17-85.31,19.31-130.62,20.3c-44.84,1-92.67-8.88-90.1-43.67C197.58,426.19,250.63,366,274,326.35Z" transform="translate(0 -16)"/>
      <path class="partTwo-cls-2" d="M274,326.35c23.19-39.92,17.18-59.36,14.59-87.87s-1.28-66.09,17.78-77.93c18.89-12.06,55.64,1.16,84.88,5.9,29.52,4.53,51.43,1,96.35-15.1s113.3-44.88,120.2-28.39c7.19,16.26-47,77.3-45.13,126,2.33,48.69,60.54,84.78,67.88,119.39,7.05,34.84-36.86,68.66-81.35,87.09s-89.83,21.71-133.29,29.17-85.31,19.31-130.62,20.3c-44.84,1-92.67-8.88-90.1-43.67C197.58,426.19,250.63,366,274,326.35Z" transform="translate(0 -16)"/>
    </g>
      <g class="rounded hidden" id="rounded">
        <path id="round" class="round partTwo-cls-4" d="M358.71,584.61c156.9,0,284.08-127.29,284.08-284.31S515.61,16,358.71,16,74.64,143.29,74.64,300.3,201.82,584.61,358.71,584.61Z" transform="translate(0 -16)"/>
        <path class="commission hidden partTwo-cls-5" id="commission" d="M245.38,167.58a15.46,15.46,0,0,1-7.2-1.66,12.79,12.79,0,0,1-5-4.68,13.14,13.14,0,0,1-1.8-6.84,12.92,12.92,0,0,1,1.8-6.8,12.37,12.37,0,0,1,5-4.68,15.13,15.13,0,0,1,7.2-1.7,15.89,15.89,0,0,1,6.55,1.3,12.14,12.14,0,0,1,4.75,3.74l-5.36,4.79a6.88,6.88,0,0,0-5.51-3,5.61,5.61,0,0,0-4.29,1.73,6.38,6.38,0,0,0-1.62,4.57,6.51,6.51,0,0,0,1.62,4.61,5.66,5.66,0,0,0,4.29,1.69,6.88,6.88,0,0,0,5.51-2.95l5.36,4.79a12.14,12.14,0,0,1-4.75,3.74A15.89,15.89,0,0,1,245.38,167.58Zm26.44,0a15.54,15.54,0,0,1-7.31-1.7,12.69,12.69,0,0,1-5.08-4.68,12.85,12.85,0,0,1-1.83-6.8,12.63,12.63,0,0,1,6.91-11.48,16.57,16.57,0,0,1,14.62,0A12.68,12.68,0,0,1,286,154.4a12.77,12.77,0,0,1-1.84,6.8,12.6,12.6,0,0,1-5.07,4.68A15.54,15.54,0,0,1,271.82,167.58Zm0-6.88a5.34,5.34,0,0,0,2.84-.76,5.55,5.55,0,0,0,2-2.19,7,7,0,0,0,.76-3.35,6.8,6.8,0,0,0-.76-3.31,5.33,5.33,0,0,0-2-2.2,5.19,5.19,0,0,0-2.84-.79,5.38,5.38,0,0,0-2.88.79,5.53,5.53,0,0,0-2,2.2,6.91,6.91,0,0,0-.75,3.31,7.16,7.16,0,0,0,.75,3.35,5.78,5.78,0,0,0,2,2.19A5.54,5.54,0,0,0,271.82,160.7Zm39.8,6.3-.07-11.48-5.47,9.21h-3.75l-5.47-8.82V167h-7.74V141.8h7l8.2,13.43,8-13.43h7l.07,25.2ZM346,167l-.07-11.48-5.47,9.21h-3.75l-5.47-8.82V167h-7.74V141.8h7l8.21,13.43,8-13.43h7l.07,25.2Zm11.85-25.2h8.49V167h-8.49Zm22,25.78a27.09,27.09,0,0,1-6.12-.69,16.42,16.42,0,0,1-4.86-1.91l2.74-6.19a17.68,17.68,0,0,0,4,1.69,16.1,16.1,0,0,0,4.28.62,6.83,6.83,0,0,0,2.52-.33,1.13,1.13,0,0,0,.76-1c0-.53-.34-.93-1-1.19a21,21,0,0,0-3.24-.86,39.2,39.2,0,0,1-4.86-1.3,8.53,8.53,0,0,1-3.38-2.3,6.33,6.33,0,0,1-1.44-4.36,7.47,7.47,0,0,1,1.33-4.32,8.78,8.78,0,0,1,4-3.06,16.69,16.69,0,0,1,6.44-1.12,22.68,22.68,0,0,1,5.08.58,15.66,15.66,0,0,1,4.43,1.62l-2.56,6.16a15.6,15.6,0,0,0-7-1.88c-2.18,0-3.28.53-3.28,1.59,0,.5.33.89,1,1.15a22.52,22.52,0,0,0,3.2.79,31.34,31.34,0,0,1,4.86,1.26,8.17,8.17,0,0,1,3.42,2.27,6.12,6.12,0,0,1,1.48,4.32,7.48,7.48,0,0,1-1.34,4.32,9.13,9.13,0,0,1-4,3.06A16.46,16.46,0,0,1,379.8,167.58Zm23.66,0a27.09,27.09,0,0,1-6.12-.69,16.42,16.42,0,0,1-4.86-1.91l2.74-6.19a17.68,17.68,0,0,0,4,1.69,16.1,16.1,0,0,0,4.28.62,6.83,6.83,0,0,0,2.52-.33,1.13,1.13,0,0,0,.76-1c0-.53-.34-.93-1-1.19a21,21,0,0,0-3.24-.86,39.2,39.2,0,0,1-4.86-1.3,8.53,8.53,0,0,1-3.38-2.3,6.33,6.33,0,0,1-1.44-4.36,7.47,7.47,0,0,1,1.33-4.32,8.78,8.78,0,0,1,4-3.06,16.69,16.69,0,0,1,6.44-1.12,22.68,22.68,0,0,1,5.08.58,15.66,15.66,0,0,1,4.43,1.62l-2.56,6.16a15.6,15.6,0,0,0-7-1.88c-2.18,0-3.28.53-3.28,1.59,0,.5.33.89,1,1.15a22.52,22.52,0,0,0,3.2.79,31.34,31.34,0,0,1,4.86,1.26,8.17,8.17,0,0,1,3.42,2.27,6.12,6.12,0,0,1,1.48,4.32,7.48,7.48,0,0,1-1.34,4.32,9.13,9.13,0,0,1-4,3.06A16.46,16.46,0,0,1,403.46,167.58Zm14.26-25.78h8.5V167h-8.5Zm25.8,25.78a15.54,15.54,0,0,1-7.31-1.7,12.6,12.6,0,0,1-5.07-4.68,12.77,12.77,0,0,1-1.84-6.8,12.68,12.68,0,0,1,6.91-11.48,16.57,16.57,0,0,1,14.62,0,12.63,12.63,0,0,1,6.91,11.48,12.85,12.85,0,0,1-1.83,6.8,12.69,12.69,0,0,1-5.08,4.68A15.54,15.54,0,0,1,443.52,167.58Zm0-6.88a5.38,5.38,0,0,0,2.85-.76,5.7,5.7,0,0,0,2.05-2.19,7.16,7.16,0,0,0,.75-3.35,6.91,6.91,0,0,0-.75-3.31,5.46,5.46,0,0,0-2.05-2.2,5.22,5.22,0,0,0-2.85-.79,5.37,5.37,0,0,0-4.89,3,6.8,6.8,0,0,0-.76,3.31,7,7,0,0,0,.76,3.35,5.68,5.68,0,0,0,2,2.19A5.59,5.59,0,0,0,443.52,160.7Zm42.15-18.9V167h-7l-9.57-11.45V167h-8.28V141.8h7l9.58,11.45V141.8Z" transform="translate(0 -16)"/>
        <path class="lose-time hidden partTwo-cls-5" id="lose-time" d="M207.2,203.8a14.87,14.87,0,0,1,6.09,1.15,9.09,9.09,0,0,1,0,16.71,15,15,0,0,1-6.09,1.15h-3.63V229h-8.5V203.8Zm-.54,12.46a3.85,3.85,0,0,0,2.59-.76,2.83,2.83,0,0,0,.87-2.2,2.72,2.72,0,0,0-.87-2.16,3.75,3.75,0,0,0-2.59-.79h-3.09v5.91Zm35.76,6.33V229H221.47V203.8H242v6.41H229.82v2.95h10.66v6.12H229.82v3.31Zm14.07.07h-2.3V229H245.7V203.8h12.13a14.86,14.86,0,0,1,6.08,1.15A9.32,9.32,0,0,1,268.09,218a8.65,8.65,0,0,1-3.53,3.2l5.29,7.78h-9.07Zm4.25-9.36a2.75,2.75,0,0,0-.86-2.16,3.77,3.77,0,0,0-2.59-.79h-3.1v5.91h3.1a3.87,3.87,0,0,0,2.59-.76A2.85,2.85,0,0,0,260.74,213.3Zm16.9-2.91h-7.38V203.8h23.26v6.59h-7.38V229h-8.5Zm39,12.2V229H295.72V203.8h20.49v6.41H304.07v2.95h10.66v6.12H304.07v3.31Zm14.07-18.79h12.42a16.83,16.83,0,0,1,7.41,1.55,11.47,11.47,0,0,1,5,4.35,13.37,13.37,0,0,1,0,13.4,11.68,11.68,0,0,1-5,4.39,17.11,17.11,0,0,1-7.41,1.51H330.74Zm12.06,18.58a6,6,0,0,0,4.35-1.55,5.82,5.82,0,0,0,1.66-4.43,5.69,5.69,0,0,0-1.66-4.39,5.94,5.94,0,0,0-4.35-1.59h-3.57v12Zm38.63.21V229H360.48V203.8H381v6.41H368.83v2.95h10.66v6.12H368.83v3.31ZM401,210.39h-7.38V203.8h23.25v6.59h-7.38V229H401Zm39,12.2V229H419.05V203.8h20.48v6.41H427.4v2.95h10.66v6.12H427.4v3.31ZM465.77,229l-.07-11.48-5.47,9.21h-3.75L451,217.91V229h-7.74V203.8h7l8.2,13.43,8-13.43h7l.07,25.2Zm24-25.2a14.87,14.87,0,0,1,6.09,1.15,9.09,9.09,0,0,1,0,16.71,15,15,0,0,1-6.09,1.15h-3.63V229h-8.5V203.8Zm-.54,12.46a3.85,3.85,0,0,0,2.59-.76,2.83,2.83,0,0,0,.87-2.2,2.72,2.72,0,0,0-.87-2.16,3.75,3.75,0,0,0-2.59-.79h-3.09v5.91Zm24.56,13.32a27.09,27.09,0,0,1-6.12-.69,16.42,16.42,0,0,1-4.86-1.91l2.74-6.19a17.68,17.68,0,0,0,4,1.69,16.1,16.1,0,0,0,4.28.62,6.83,6.83,0,0,0,2.52-.33,1.13,1.13,0,0,0,.76-1c0-.53-.34-.93-1-1.19a21,21,0,0,0-3.24-.86,39.2,39.2,0,0,1-4.86-1.3,8.53,8.53,0,0,1-3.38-2.3,6.33,6.33,0,0,1-1.44-4.36,7.47,7.47,0,0,1,1.33-4.32,8.78,8.78,0,0,1,4-3.06,16.69,16.69,0,0,1,6.44-1.12,22.68,22.68,0,0,1,5.08.58,15.66,15.66,0,0,1,4.43,1.62l-2.56,6.16a15.6,15.6,0,0,0-7-1.88c-2.18,0-3.28.53-3.28,1.59,0,.5.33.89,1,1.15a22.52,22.52,0,0,0,3.2.79,31.34,31.34,0,0,1,4.86,1.26,8.17,8.17,0,0,1,3.42,2.27,6.12,6.12,0,0,1,1.48,4.32,7.48,7.48,0,0,1-1.34,4.32,9.13,9.13,0,0,1-4,3.06A16.46,16.46,0,0,1,513.77,229.58Z" transform="translate(0 -16)"/>
      </g>
      <g class="woman hidden" id="woman">
        <path class="partTwo-cls-4" d="M662.59,605.65c96.33,0,174.41-12.5,174.41-27.93S758.92,549.8,662.59,549.8s-174.4,12.5-174.4,27.92S566.27,605.65,662.59,605.65Z" transform="translate(0 -16)"/>
        <path class="partTwo-cls-6" d="M623.84,309.29s1.49,4.95-6.93,9.41S606,340,615.92,345s12.87,11.4,7.92,15.85-13.85,16.35-2,19.32,13.37,8.92,9.9,11.39,7.92-4.45,7.92-4.45,2,11.88,12.38,8.91,39.59-59.44,24.74-67.36S623.84,309.29,623.84,309.29Z" transform="translate(0 -16)"/>
        <path class="partTwo-cls-7" d="M641.78,357.12s5.14,18-3.85,19.27a35.06,35.06,0,0,0-15.4,6.42l16.69,21.84H670l19.26-19.27s-25.68-19.27-20.54-30.83S641.78,357.12,641.78,357.12Z" transform="translate(0 -16)"/>
        <path class="partTwo-cls-8" d="M641.78,357.12s5.14,18-3.85,19.27a35.06,35.06,0,0,0-15.4,6.42l16.69,21.84H670l19.26-19.27s-25.68-19.27-20.54-30.83S641.78,357.12,641.78,357.12Z" transform="translate(0 -16)"/>
        <path class="partTwo-cls-7" d="M649.48,580.63,679,590.91l20.53,1.28-1.28-18L655.9,561.67Z" transform="translate(0 -16)"/>
        <path class="partTwo-cls-9" d="M687.35,576.78s0,18,2.56,18,37.23-3.85,47.5,0,25.67-10.28,18-18-20.26-19.27-28.1-16.7-39.92,9-39.92,9Z" transform="translate(0 -16)"/>
        <path class="partTwo-cls-9" d="M593,560.08s-15.41,30.83-5.14,33.39,21.82-1.28,23.11-2.56,19.25-6.43,21.82-3.86,2.56-10.27,2.56-10.27Z" transform="translate(0 -16)"/>
        <path class="partTwo-cls-6" d="M605.84,517.69s-24.38,33.39-6.41,42.39,104,9,110.38,0,9-37.26,0-39.82S605.84,517.69,605.84,517.69Z" transform="translate(0 -16)"/>
        <path class="partTwo-cls-10" d="M605.84,517.69s-24.38,33.39-6.41,42.39,104,9,110.38,0,9-37.26,0-39.82S605.84,517.69,605.84,517.69Z" transform="translate(0 -16)"/>
        <path class="partTwo-cls-7" d="M652.05,366.11a29.55,29.55,0,1,0-29.52-29.55A29.53,29.53,0,0,0,652.05,366.11Z" transform="translate(0 -16)"/>
        <path class="partTwo-cls-5" d="M605.84,382.81l25.67-5.14s6.42,20.55,27,16.7,25.67-16.7,25.67-16.7,15.4,6.42,16.69,6.42,18,6.43,18,10.28-19.25,42.39-19.25,42.39l2.57,69.36-95-2.56,6.41-68.08Z" transform="translate(0 -16)"/>
        <path class="partTwo-cls-7" d="M591.73,416.21s-7.7,68.08-2.57,73.21,25.67,19.27,25.67,19.27V493.28L604.56,474l10.27-45Z" transform="translate(0 -16)"/>
        <path class="partTwo-cls-7" d="M724.57,414.28s-4.49,70-4.49,72.58-11.55,11.56-15.41,11.56-6.41-6.43-6.41-6.43l9-10.27-6.41-52.67Z" transform="translate(0 -16)"/>
        <path class="partTwo-cls-6" d="M712.38,512.55s57.76-32.12,59,0-29.52,45-29.52,45-79.58,23.88-82.79,15.15-9.63-22.86-4.49-24.14,11.55-3.86,14.12-1.29S703.39,528,703.39,528Z" transform="translate(0 -16)"/>
        <path class="partTwo-cls-11" d="M739.33,508.69s-11.55,5.14-15.4,9S703.39,528,703.39,528" transform="translate(0 -16)"/>
        <path class="partTwo-cls-5" d="M613.54,385.38l-7.7-2.57s-28.24,29.54-19.25,37.25,14.12,10.28,16.69,12.84,15.4,3.86,15.4,3.86Z" transform="translate(0 -16)"/>
        <path class="partTwo-cls-5" d="M707.24,391.8l11.55,2.57s9,19.27,11.56,21.84-3.85,1.28-7.7,6.42-7.71,14.13-15.41,14.13-18-12.85-18-12.85Z" transform="translate(0 -16)"/>
        <path class="partTwo-cls-6" d="M608.41,524.11s-48.77-34.68-65.46-9,71.88,60.37,84.71,65.51,24.39,10.28,24.39,10.28,11.55-28.26,11.55-33.4-9-5.14-11.55-5.14-14.12-2.57-16.68-6.42S608.41,524.11,608.41,524.11Z" transform="translate(0 -16)"/>
        <path class="partTwo-cls-11" d="M581.46,515.12s12.83,10.27,24.38,12.84,15.41,9,15.41,9" transform="translate(0 -16)"/>
        <path class="partTwo-cls-9" d="M599.56,466.82l1,54.39a6.83,6.83,0,0,0,6.88,6.68l101.13-1.14a6.83,6.83,0,0,0,6.72-6.42l3.07-53.25a7,7,0,0,0-.4-2.72,6.76,6.76,0,0,0-1.45-2.34,6.56,6.56,0,0,0-2.25-1.58,6.75,6.75,0,0,0-2.69-.56H606.36a6.79,6.79,0,0,0-6.32,4.29,6.66,6.66,0,0,0-.48,2.65Z" transform="translate(0 -16)"/>
        <path class="partTwo-cls-6" d="M653.63,299.45s1.64,5.49-7.68,10.43-12.06,23.59-1.1,29.08,14.26,12.62,8.78,17.56-15.36,18.11-2.2,21.4,14.81,9.88,11,12.62,8.77-4.94,8.77-4.94,2.19,13.17,13.71,9.88,23-63.14,10.17-78.56C683.11,302.59,653.63,299.45,653.63,299.45Z" transform="translate(0 -16)"/>
        <path class="partTwo-cls-6" d="M650.12,293.8c0-8,24-2.26,34.34,9,7.14,7.77,18,19.46,8.89,27.71s15.57,19,22.18,22.32,19.67,13.3,7.88,20-11.59,13.5-7.16,15.11-9.78-2.39-9.78-2.39,1.44,13.28-10.54,13.21-46.33-65.93-38.12-84.23C665.44,297.49,650.12,293.8,650.12,293.8Z" transform="translate(0 -16)"/>
        <path class="partTwo-cls-6" d="M655.33,292C623.19,290.1,620,314.31,620,314.31c.22,14,22.45,7.19,28.63,9.28,7.45-5.37,21.81-15.51,32.08-22.76A48.58,48.58,0,0,0,655.33,292Z" transform="translate(0 -16)"/>
      </g>
      <g class="man hidden" id="man">
        <path class="partTwo-cls-4" d="M112.72,624c62.25,0,112.71-8.08,112.71-18S175,587.9,112.72,587.9,0,596,0,606,50.47,624,112.72,624Z" transform="translate(0 -16)"/>
        <path class="partTwo-cls-5" d="M52.15,584.69c0,17.13-10.17,23.11-22.72,23.11h-.87c-.58,0-1.16,0-1.73-.08-11.32-.8-20.12-7.09-20.12-23,0-16.48,21-37.28,22.62-38.82h0l.09-.09S52.15,567.57,52.15,584.69Z" transform="translate(0 -16)"/>
        <path class="partTwo-cls-12" d="M28.6,605.18l8.31-11.62-8.33,12.9,0,1.33c-.58,0-1.16,0-1.73-.08l.9-17.13v-.14l0,0,.08-1.62-8.35-12.93,8.38,11.72,0,.34L28.54,575l-7.15-13.36,7.24,11.09.71-26.84v0L29.22,567l7.12-8.39-7.15,10.22L29,580.45l6.65-11.12L29,582.15l-.11,6.45,9.65-15.49-9.69,17.74Z" transform="translate(0 -16)"/>
        <path class="partTwo-cls-6" d="M160.52,580.26l4.86-3.62s3.22,18-.37,20.68-17,7.19-17,12.58-30.52,12.57-31.41,4.49,2.69-12.57,2.69-12.57,14.36-14.38,16.15-17.07,6.29-8.09,6.29-8.09Z" transform="translate(0 -16)"/>
        <path class="partTwo-cls-6" d="M88.73,356.6s.13.79.36,2.23.52,3.1.88,5.34c3.76,23,14.76,90.79,14,93-.89,2.69-7.18,12.57,0,15.27a5.51,5.51,0,0,1,2.24,2.43,53.18,53.18,0,0,1,3.8,9c4.28,12.43,8.85,32.33,11.5,46.1,1.16,6.06,2,10.93,2.18,13.48a7.56,7.56,0,0,1,0,1.78c-.9,3.59,5.39,16.16,8.08,19.76s7.18,7.18,6.28,10.78,22.44,13.47,25.13,7.18,2.69-9.88,3.59-11.67,1.8-14.38-2.69-16.17-1.8-33.24-6.28-39.53c-1.5-2.09-3.79-9.18-6.19-17.7-.94-3.34-1.89-6.9-2.83-10.46-3.78-14.62-7.14-29.32-7.14-29.32l.9-105.1-49.37-6.28L92,349.51l-2.52,5.54Z" transform="translate(0 -16)"/>
        <path class="partTwo-cls-6" d="M86,529.06s-7.18-7.19-10.77,0-7.18,35-13.46,41.32S47.44,608.1,56.41,609.9s18.85-2.7,19.75-8.08S95.9,568.58,95.9,565.89s-12.56-12.58-12.56-12.58Z" transform="translate(0 -16)"/>
        <path class="partTwo-cls-6" d="M196.43,307.19s-11.67,105.1-14.36,115-17.06,47.6-21.55,53.89-33.2,57.49-36.79,60.18S113,546.12,113,546.12,99.49,559.6,97.7,562.29s-17-5.39-18-10.78.9-14.37,1.79-18-1.79-9,.9-11.68S98.6,505.7,98.6,499.42s23.33-43.12,32.31-51.2,7.18-21.56,7.18-21.56V371.87L88.72,356.6s2.7-43.12,9-43.12S186.55,299.11,196.43,307.19Z" transform="translate(0 -16)"/>
        <path class="partTwo-cls-13" d="M123.73,157.19a29.65,29.65,0,1,0-29.62-29.64A29.63,29.63,0,0,0,123.73,157.19Z" transform="translate(0 -16)"/>
        <path class="partTwo-cls-13" d="M133.6,150.9s3.59,13.47,8.08,17.07S130,186.83,130,186.83l-30.52,1.8-5.38-17.07s9.87-19.76,7.18-32.34S133.6,150.9,133.6,150.9Z" transform="translate(0 -16)"/>
        <path class="partTwo-cls-5" d="M146.17,166.17s-8.08.9-9.88,3.59-14.36,10.78-24.23,9-16.15-4.49-18-3.6-5.38,19.76-5.38,19.76l9.87,28.75-1.8,79-2.69,21.56s-5.38-7.19,16.16-2.69,49.36-3.6,58.34-4.5,24.23-3.59,25.13-9-2.7-25.15-2.7-25.15l-14.36-60.18-9-32.34Z" transform="translate(0 -16)"/>
        <path class="partTwo-cls-14" d="M137.68,162.12s7.59-4,10.28-.44,36.8,9,36.8,11.68,7.18,75.45,5.38,81.74,3.59,13.47,3.59,13.47L200,295.52s17,51.2,9.87,53-13.46,0-16.16,0-1.79-34.13-9-43.11-17-31.44-18.85-35.93S141.68,203,142.57,195.81,137.68,162.12,137.68,162.12Z" transform="translate(0 -16)"/>
        <path class="partTwo-cls-14" d="M100.39,166.17s-7.18,0-8.08,1.8-9.87,13.47-13.46,16.17S62.7,198.51,62.7,201.2s26,22.46,26,22.46,10.77,53,5.39,71-13.46,61.08-9.87,63.77,11.66,3.6,11.66,0,5.39-42.21,9.88-50.3,18-59.28,12.56-73.65S100.39,166.17,100.39,166.17Z" transform="translate(0 -16)"/>
        <path class="partTwo-cls-13" d="M218.86,255.1s.9,27.84-9,42.21a171.09,171.09,0,0,0-16.16,30.54s-16.15-4.49-18.84-9.88-19.75-.9-19.75-2.69,20.64-10.78,22.44-12.58,8.08-1.79,11.67-5.39,4.48-11.67,4.48-11.67l3.59-23.36Z" transform="translate(0 -16)"/>
        <path class="partTwo-cls-6" d="M144.13,109.27a17.2,17.2,0,0,0,6.64-1.52c4.51-2.44,5.71-9.37,2.27-13.18A16.78,16.78,0,0,0,149.89,92l-6.82-4.65c-3-2-6.11-4.14-9.63-5.11a29.78,29.78,0,0,0-9.84-.58c-6.4.4-12.83,1.22-18.85,3.43S93.12,91,89.48,96.3c-5.78,8.37-5.86,19.65-2.67,29.3S96,143.67,102,151.91l3.08-15.09c.28-1.34.64-2.82,1.75-3.61,2.78-2,6.17,2.08,9.58,2,2.19,0,4-1.81,4.86-3.84a21.86,21.86,0,0,0,1.07-6.46c.41-4.62,2-11,6.4-13.6C132.8,109,139.55,109.69,144.13,109.27Z" transform="translate(0 -16)"/>
        <path class="partTwo-cls-8" d="M142.47,357.32s-3,87.75-4.83,90.45,0-90.72,0-90.72Z" transform="translate(0 -16)"/>
        <path class="partTwo-cls-14" d="M177.58,173.36h7.18s30.51,41.32,26.92,44,0,9.88,0,9.88l7.18,13.47s9,8.09,6.29,9.88-6.29,9-6.29,9-18-2.7-23.33,8.08L183.89,253Z" transform="translate(0 -16)"/>
        <path class="partTwo-cls-6" d="M180.12,186.65l-24.64,10.18,19,45.95,24.63-10.18Z" transform="translate(0 -16)"/>
        <path class="partTwo-cls-5" d="M177.23,213.6a4.92,4.92,0,1,0-6.8-2.5A5.14,5.14,0,0,0,177.23,213.6Z" transform="translate(0 -16)"/>
        <path class="partTwo-cls-13" d="M159.63,245.21S95,299.11,84.24,282,95.91,250.6,95.91,250.6s19.74.9,42.18-13.47l22.44-9.88S181,198,188,209.13,176.08,239.67,159.63,245.21Z" transform="translate(0 -16)"/>
        <path class="partTwo-cls-14" d="M72.57,197.61,62.7,201.2v27l-3.59,5.39S60,244.32,62.7,247s8.07,1.8,6.28,8.09a33.93,33.93,0,0,0-.9,12.57s16.16,20.66,17,18,13.47-35.93,15.26-35.93-18-52.1-18-52.1Z" transform="translate(0 -16)"/>
        <path class="partTwo-cls-6" d="M190.59,333.69s9.28-9,4.64-9.43-20.79-9.43-23.49-4.94S190.59,333.69,190.59,333.69Z" transform="translate(0 -16)"/>
      </g>
      <g class="bank hidden" id="bank">
        <path class="partTwo-cls-15" d="M527.25,363.27H509.71V384h17.54Z" transform="translate(0 -16)"/>
        <path class="partTwo-cls-16" d="M510.12,383.25h16.72v-20H510.12Z" transform="translate(0 -16)"/>
        <path class="partTwo-cls-17" d="M355.59,363.27H338.06V384h17.53Z" transform="translate(0 -16)"/>
        <path class="partTwo-cls-16" d="M355.18,363.27H338.46v20h16.72Z" transform="translate(0 -16)"/>
        <path class="partTwo-cls-18" d="M545.71,128H319.19a5.19,5.19,0,0,0-5.19,5.19V360.93a5.19,5.19,0,0,0,5.19,5.19H545.71a5.19,5.19,0,0,0,5.19-5.19V133.19A5.19,5.19,0,0,0,545.71,128Z" transform="translate(0 -16)"/>
        <path class="partTwo-cls-19" d="M544.49,129.22H320.82a5.2,5.2,0,0,0-5.19,5.19V358.08a5.2,5.2,0,0,0,5.19,5.19H544.49a5.2,5.2,0,0,0,5.19-5.19V134.41A5.2,5.2,0,0,0,544.49,129.22Z" transform="translate(0 -16)"/>
        <path class="partTwo-cls-20" d="M511.55,166.94H353.35V326.78h158.2Z" transform="translate(0 -16)"/>
        <path class="partTwo-cls-21" d="M526.69,207.48,475.86,221l6.58,24.82,50.84-13.48Z" transform="translate(0 -16)"/>
        <path class="partTwo-cls-22" d="M526.4,208l-50,13.28,6.38,24,50-13.28Z" transform="translate(0 -16)"/>
        <path class="partTwo-cls-23" d="M525,209.2l-46.77,12.41,6,22.46,46.77-12.41Z" transform="translate(0 -16)"/>
        <path class="partTwo-cls-22" d="M505.57,231.22c4.79-1.27,8.11-4.41,7.42-7s-5.14-3.71-9.93-2.44-8.1,4.42-7.41,7S500.79,232.49,505.57,231.22Z" transform="translate(0 -16)"/>
        <path class="partTwo-cls-24" d="M482.82,243.64l-8.35,24.29L524.22,285l8.34-24.29Z" transform="translate(0 -16)"/>
        <path class="partTwo-cls-22" d="M532,261l-49-16.83L475,267.68l49,16.83Z" transform="translate(0 -16)"/>
        <path class="partTwo-cls-23" d="M530.18,261.2l-45.77-15.72-7.55,22,45.77,15.72Z" transform="translate(0 -16)"/>
        <path class="partTwo-cls-22" d="M511.88,267c.87-2.56-2.21-5.94-6.9-7.55s-9.19-.84-10.07,1.72,2.21,5.93,6.89,7.54S511,269.54,511.88,267Z" transform="translate(0 -16)"/>
        <path class="partTwo-cls-25" d="M537.8,233.72H485.2v25.69h52.6Z" transform="translate(0 -16)"/>
        <path class="partTwo-cls-22" d="M537.39,234.13H485.61V259h51.78Z" transform="translate(0 -16)"/>
        <path class="partTwo-cls-23" d="M535.69,235H487.3v23.24h48.39Z" transform="translate(0 -16)"/>
        <path class="partTwo-cls-22" d="M511.29,251.26c5,0,9-2.19,9-4.9s-4-4.89-9-4.89-9,2.19-9,4.89S506.34,251.26,511.29,251.26Z" transform="translate(0 -16)"/>
        <path class="partTwo-cls-22" d="M510.33,168.57H354.57V324.33H510.33Z" transform="translate(0 -16)"/>
        <path class="partTwo-cls-26" d="M432.45,275.81a29.36,29.36,0,1,0-29.36-29.36A29.37,29.37,0,0,0,432.45,275.81Z" transform="translate(0 -16)"/>
        <path class="partTwo-cls-19" d="M432.45,274.59a28.14,28.14,0,1,0-28.14-28.14A28.13,28.13,0,0,0,432.45,274.59Z" transform="translate(0 -16)"/>
        <path class="partTwo-cls-27" d="M419.61,302.51H411v9h8.57Z" transform="translate(0 -16)"/>
        <path class="partTwo-cls-28" d="M431,302.51h-8.56v9H431Z" transform="translate(0 -16)"/>
        <path class="partTwo-cls-29" d="M442.44,302.51h-8.56v9h8.56Z" transform="translate(0 -16)"/>
        <path class="partTwo-cls-30" d="M453.86,302.51h-8.57v9h8.57Z" transform="translate(0 -16)"/>
        <path class="partTwo-cls-5" d="M419.4,302.92h-8.15v8.16h8.15Z" transform="translate(0 -16)"/>
        <path class="partTwo-cls-31" d="M430.82,302.92h-8.16v8.16h8.16Z" transform="translate(0 -16)"/>
        <path class="partTwo-cls-32" d="M442.24,302.92h-8.16v8.16h8.16Z" transform="translate(0 -16)"/>
        <path class="partTwo-cls-33" d="M453.65,302.92H445.5v8.16h8.15Z" transform="translate(0 -16)"/>
        <path class="partTwo-cls-5" d="M445.56,229.5l-1.33-.94L441,233.24l1.34.93Z" transform="translate(0 -16)"/>
        <path class="partTwo-cls-5" d="M449.4,259.56l.94-1.33L445.66,255l-.93,1.34Z" transform="translate(0 -16)"/>
        <path class="partTwo-cls-5" d="M419.34,263.4l1.33.93,3.28-4.67-1.34-.93Z" transform="translate(0 -16)"/>
        <path class="partTwo-cls-5" d="M415.5,233.34l-.93,1.33,4.67,3.28.94-1.34Z" transform="translate(0 -16)"/>
        <path class="partTwo-cls-10" d="M445.55,229.45l-1.34-.93-3.27,4.67,1.34.94Z" transform="translate(0 -16)"/>
        <path class="partTwo-cls-10" d="M449.39,259.52l.93-1.34-4.67-3.27-.94,1.33Z" transform="translate(0 -16)"/>
        <path class="partTwo-cls-10" d="M419.32,263.35l1.34.94,3.27-4.68-1.33-.93Z" transform="translate(0 -16)"/>
        <path class="partTwo-cls-10" d="M415.49,233.29l-.94,1.33,4.68,3.28.93-1.34Z" transform="translate(0 -16)"/>
        <path class="partTwo-cls-34" d="M432.45,264.18a17.74,17.74,0,1,0-17.74-17.73A17.73,17.73,0,0,0,432.45,264.18Z" transform="translate(0 -16)"/>
        <path class="partTwo-cls-5" d="M432.45,263.17a16.72,16.72,0,1,0-16.72-16.72A16.73,16.73,0,0,0,432.45,263.17Z" transform="translate(0 -16)"/>
        <path class="partTwo-cls-35" d="M418.79,248.69a16.72,16.72,0,0,1,25-14.52,16.75,16.75,0,0,0-12.93-4.61,16.72,16.72,0,0,0-7,31.16,16.65,16.65,0,0,1-5.12-12Z" transform="translate(0 -16)"/>
        <path class="partTwo-cls-36" d="M361.3,231.57H348.25V199a1.26,1.26,0,0,1,1.27-1.26H360A1.26,1.26,0,0,1,361.3,199Z" transform="translate(0 -16)"/>
        <path class="partTwo-cls-37" d="M360,295.58H349.58a1.33,1.33,0,0,1-.94-.39,1.32,1.32,0,0,1-.39-.94V261.74H361.3v32.5a1.3,1.3,0,0,1-.1.52,1.36,1.36,0,0,1-.72.72,1.29,1.29,0,0,1-.51.1Z" transform="translate(0 -16)"/>
        <path class="partTwo-cls-19" d="M349.77,198.13h10a1.11,1.11,0,0,1,1.1,1.11v31.51H348.67v-31.5a1.06,1.06,0,0,1,.08-.43,1.16,1.16,0,0,1,.23-.36,1.41,1.41,0,0,1,.36-.24,1.07,1.07,0,0,1,.43-.09Z" transform="translate(0 -16)"/>
        <path class="partTwo-cls-19" d="M348.66,262.15h12.22v32.24a.39.39,0,0,1-.11.27.36.36,0,0,1-.26.11H349a.36.36,0,0,1-.26-.11.39.39,0,0,1-.11-.27V262.15Z" transform="translate(0 -16)"/>
      </g>
      <g class="interrogation hidden" id="interrogation">
        <path class="partTwo-cls-3" d="M317.56,319.67C354.92,290.61,336.68,254,298.13,254c-24.8,0-37.13,15.07-37.13,26.48,0,8.76,7.2,13.48,14,13.48,5.88,0,8.5-3.85,10.4-6.67,2.31-3.4,4.3-6.34,12.24-6.34,3.42,0,11.36.75,11.36,7.65,0,13.46-26.35,13.76-26.35,44.77,0,7.5,1.56,15.16,13.13,15.16,12.47,0,13.81-7.53,13.81-10.77,0-8.14,0-11.85,8-18.09Zm-15.67,18.09c0,1,0,3.08-6.13,3.08-3.46,0-4.09-.75-4.3-1-.52-.62-1.14-2.25-1.14-6.48,0-12.48,5-18.52,10-22.75,5.47-4.65,16.39-10.81,16.39-22,0-9.32-7.48-15.34-19.05-15.34-12,0-16,5.85-18.6,9.72-1.84,2.71-2.39,3.29-4,3.29-2.18,0-6.29-1.21-6.29-5.78,0-7,8.87-18.8,29.44-18.8,31.2,0,46.32,27.33,14.7,51.92C302.4,321.72,301.89,328.17,301.89,337.76Z" transform="translate(0 -16)"/>
        <path class="partTwo-cls-3" d="M295.93,352.5a16.86,16.86,0,1,0,16.86,16.85,16.79,16.79,0,0,0-16.86-16.85Zm0,26a9.17,9.17,0,0,1,0-18.33,9.17,9.17,0,1,1,0,18.33Z" transform="translate(0 -16)"/>
      </g>
      <g class="second-bubbles" id="second-bubble">
        <circle class="bubble hidden partTwo-cls-5" cx="297.22" cy="220" r="4.29" transform="translate(-24.28 21.31) rotate(-6.9)"/>
        <circle class="bubble hidden partTwo-cls-5" cx="270.32" cy="219.78" r="1.43" transform="translate(-24.45 18.08) rotate(-6.9)"/>
        <circle class="bubble hidden partTwo-cls-5" cx="262.4" cy="194.8" r="2.86" transform="translate(-28.18 29.26) rotate(-9.36)"/>
        <circle class="bubble hidden partTwo-cls-5" cx="237.91" cy="176.83" r="2.5"/>
        <circle class="bubble hidden partTwo-cls-5" cx="190.22" cy="128.22" r="7.16"/>
        <circle class="bubble hidden partTwo-cls-5" cx="219.95" cy="153.2" r="3.22"/>
      </g>
      <g class="first-bubbles" id="first-bubbles">
        <circle class="bubble hidden partTwo-cls-5" cx="616.57" cy="339.94" r="1.54"/>
        <circle class="bubble hidden partTwo-cls-5" cx="600.27" cy="354.83" r="1.76" transform="translate(-4.14 -8.9) rotate(-0.68)"/>
        <circle class="bubble hidden partTwo-cls-5" cx="601.42" cy="337.42" r="0.88" transform="translate(-4.21 -8.38) rotate(-0.72)"/>
        <circle class="bubble hidden partTwo-cls-5" cx="589.47" cy="320.84" r="1.54"/>
        <circle class="bubble hidden partTwo-cls-5" cx="583.73" cy="305.35" r="1.98"/>
        <circle class="bubble hidden partTwo-cls-5" cx="569.36" cy="303.27" r="1.98"/>
        <circle class="bubble hidden partTwo-cls-5" cx="568.78" cy="289.04" r="1.98"/>
        <circle class="bubble hidden partTwo-cls-5" cx="554.61" cy="285.2" r="1.98"/>
      </g>
      <g class="secondary-bubbles" id="secondary-bubbles">
        <circle class="bubble hidden partTwo-cls-5" cx="559.29" cy="352.66" r="5.27"/>
        <circle class="bubble hidden partTwo-cls-5" cx="525.34" cy="413.16" r="6.03" transform="matrix(0.54, -0.84, 0.84, 0.54, -106.37, 615.37)"/>
        <circle class="bubble hidden partTwo-cls-5" cx="477.73" cy="361" r="3.01"/>
        <circle class="bubble hidden partTwo-cls-5" cx="453.49" cy="394.08" r="5.27"/>
        <circle class="bubble hidden partTwo-cls-5" cx="398.37" cy="381.26" r="6.78"/>
        <circle class="bubble hidden partTwo-cls-5" cx="365.27" cy="418.41" r="6.78"/>
        <circle class="bubble hidden partTwo-cls-5" cx="323.47" cy="393.22" r="6.78"/>
        <circle class="bubble hidden partTwo-cls-5" cx="285.76" cy="426.5" r="6.78"/>
      </g>
    </g>
    <g class="bubbles-text" id="bubbles-text">
      <circle class="bubble hidden partTwo-cls-22" id="bubble-1" cx="717" cy="262" r="3"/>
      <circle class="bubble hidden partTwo-cls-22" id="bubble-2" cx="726" cy="255" r="4"/>
      <circle class="bubble hidden partTwo-cls-22" id="bubble-3" cx="738.5" cy="245.5" r="6.5"/>
      <circle class="bubble hidden partTwo-cls-22" id="bubble-4" cx="755.5" cy="231.5" r="10.5"/>
      <ellipse class="bubble hidden partTwo-cls-22" id="bubble-5" cx="887.5" cy="184.5" rx="131.5" ry="70.5"/>
      <g class="text hidden" id="text">
        <path d="M805.55,168.22a6.73,6.73,0,0,1-3.17-.73,5.9,5.9,0,0,1-2.19-8.1,5.5,5.5,0,0,1,2.19-2.06,6.63,6.63,0,0,1,3.17-.75,6.88,6.88,0,0,1,2.77.54,5.28,5.28,0,0,1,2,1.57l-2,1.82a3.34,3.34,0,0,0-2.64-1.31,3.26,3.26,0,0,0-1.63.4,2.83,2.83,0,0,0-1.11,1.14,3.53,3.53,0,0,0-.38,1.66,3.65,3.65,0,0,0,.38,1.68,2.91,2.91,0,0,0,1.11,1.12,3.26,3.26,0,0,0,1.63.4,3.34,3.34,0,0,0,2.64-1.31l2,1.82a5.28,5.28,0,0,1-2,1.57A6.88,6.88,0,0,1,805.55,168.22Zm10.17-.08a5.42,5.42,0,0,1-2.51-.57,4.4,4.4,0,0,1-1.76-1.6,4.57,4.57,0,0,1,0-4.63,4.29,4.29,0,0,1,1.74-1.58,5.81,5.81,0,0,1,5.06,0,4.16,4.16,0,0,1,1.74,1.58,4.27,4.27,0,0,1,.62,2.31,4.27,4.27,0,0,1-2.36,3.92A5.51,5.51,0,0,1,815.72,168.14Zm0-2.41a1.7,1.7,0,0,0,1.31-.55,2.18,2.18,0,0,0,.51-1.53,2.14,2.14,0,0,0-.51-1.51,1.86,1.86,0,0,0-2.62,0,2.14,2.14,0,0,0-.51,1.51,2.18,2.18,0,0,0,.51,1.53A1.69,1.69,0,0,0,815.72,165.73Zm17.6-6.55a3.39,3.39,0,0,1,2.54,1,4,4,0,0,1,1,2.9v5h-3v-4.46a2.1,2.1,0,0,0-.35-1.35,1.13,1.13,0,0,0-1-.43,1.37,1.37,0,0,0-1.1.48,2.16,2.16,0,0,0-.42,1.46V168h-3v-4.46c0-1.19-.44-1.78-1.31-1.78a1.41,1.41,0,0,0-1.12.48,2.16,2.16,0,0,0-.42,1.46V168h-3v-8.67h2.9v.91a3,3,0,0,1,1.13-.78,3.72,3.72,0,0,1,1.46-.28,3.86,3.86,0,0,1,1.63.34,2.81,2.81,0,0,1,1.17,1,3.32,3.32,0,0,1,1.3-1A4,4,0,0,1,833.32,159.18Zm16.72,0a3.41,3.41,0,0,1,2.54,1,4,4,0,0,1,1,2.9v5h-3v-4.46a2.16,2.16,0,0,0-.35-1.35,1.13,1.13,0,0,0-1-.43,1.37,1.37,0,0,0-1.1.48,2.16,2.16,0,0,0-.42,1.46V168h-3v-4.46c0-1.19-.44-1.78-1.31-1.78a1.4,1.4,0,0,0-1.12.48,2.16,2.16,0,0,0-.42,1.46V168h-3v-8.67h2.9v.91a3,3,0,0,1,1.13-.78,3.72,3.72,0,0,1,1.46-.28,3.86,3.86,0,0,1,1.63.34,2.81,2.81,0,0,1,1.17,1,3.32,3.32,0,0,1,1.3-1A4,4,0,0,1,850,159.18Zm14.41,4.5s0,.27-.05.75h-6.3a1.76,1.76,0,0,0,.73,1,2.54,2.54,0,0,0,1.39.35,3.14,3.14,0,0,0,1.08-.17,3,3,0,0,0,.92-.58l1.61,1.67a4.72,4.72,0,0,1-3.7,1.4,5.93,5.93,0,0,1-2.67-.57,4.18,4.18,0,0,1-2.42-3.92,4.29,4.29,0,0,1,.61-2.29,4.39,4.39,0,0,1,1.71-1.6,5.21,5.21,0,0,1,2.45-.58,5.09,5.09,0,0,1,2.35.55,4,4,0,0,1,1.67,1.55A4.51,4.51,0,0,1,864.45,163.68Zm-4.62-2.34a1.7,1.7,0,0,0-1.78,1.49h3.55a1.78,1.78,0,0,0-.61-1.09A1.76,1.76,0,0,0,859.83,161.34Zm11.67-2.16a3.53,3.53,0,0,1,2.59,1,3.87,3.87,0,0,1,1,2.9v5h-3v-4.46c0-1.19-.47-1.78-1.42-1.78a1.67,1.67,0,0,0-1.27.51,2.27,2.27,0,0,0-.46,1.54V168h-3v-8.67h2.9v.94a3.32,3.32,0,0,1,1.21-.8A4.06,4.06,0,0,1,871.5,159.18ZM883,167.65a3.19,3.19,0,0,1-1,.37,5.39,5.39,0,0,1-1.17.12,3.68,3.68,0,0,1-2.6-.83,3.18,3.18,0,0,1-.92-2.48v-2.91h-1.26v-2.27h1.26v-2.26h3v2.26h2v2.27h-2v2.88a1.1,1.1,0,0,0,.24.74.92.92,0,0,0,.68.25,1.58,1.58,0,0,0,.92-.27Zm11.28-8.47a4.19,4.19,0,0,1,2.14.56,3.94,3.94,0,0,1,1.54,1.57,4.7,4.7,0,0,1,.58,2.35,4.78,4.78,0,0,1-.58,2.37,4,4,0,0,1-1.54,1.57,4.28,4.28,0,0,1-2.14.54,3.24,3.24,0,0,1-2.42-.91v3.87h-3V159.33h2.9v.86A3.17,3.17,0,0,1,894.26,159.18Zm-.64,6.55a1.7,1.7,0,0,0,1.31-.55,2.17,2.17,0,0,0,.51-1.52,2.1,2.1,0,0,0-.51-1.5,1.81,1.81,0,0,0-2.62,0,2.1,2.1,0,0,0-.51,1.5,2.17,2.17,0,0,0,.51,1.52A1.7,1.7,0,0,0,893.62,165.73Zm10.66,2.41a5.45,5.45,0,0,1-2.51-.57A4.47,4.47,0,0,1,900,166a4.36,4.36,0,0,1,1.74-6.21,5.81,5.81,0,0,1,5.06,0,4.1,4.1,0,0,1,1.74,1.58,4.28,4.28,0,0,1,.63,2.31,4.34,4.34,0,0,1-.63,2.32,4.28,4.28,0,0,1-1.74,1.6A5.51,5.51,0,0,1,904.28,168.14Zm0-2.41a1.7,1.7,0,0,0,1.31-.55,2.18,2.18,0,0,0,.51-1.53,2.14,2.14,0,0,0-.51-1.51,1.86,1.86,0,0,0-2.62,0,2.14,2.14,0,0,0-.51,1.51,2.18,2.18,0,0,0,.51,1.53A1.7,1.7,0,0,0,904.28,165.73Zm15.43-6.4V168h-2.9v-.93a3.18,3.18,0,0,1-1.15.8,3.83,3.83,0,0,1-1.43.27,3.69,3.69,0,0,1-2.69-1,4,4,0,0,1-1-3v-4.85h3v4.35a2.26,2.26,0,0,0,.37,1.42,1.31,1.31,0,0,0,1.07.45,1.5,1.5,0,0,0,1.17-.49,2.27,2.27,0,0,0,.46-1.56v-4.17Zm4.85,1a2.73,2.73,0,0,1,1.2-.88,4.57,4.57,0,0,1,1.71-.31v2.74a6.75,6.75,0,0,0-.69,0,2.14,2.14,0,0,0-1.53.53,2.17,2.17,0,0,0-.55,1.62v4h-3v-8.67h2.9Zm7.06,0a2.73,2.73,0,0,1,1.2-.88,4.57,4.57,0,0,1,1.71-.31v2.74a6.58,6.58,0,0,0-.68,0,1.88,1.88,0,0,0-2.08,2.15v4h-3v-8.67h2.89Zm7.8-1.19a4.84,4.84,0,0,1,3.3,1,3.76,3.76,0,0,1,1.13,3V168H941v-1.12a2.6,2.6,0,0,1-2.56,1.26,3.92,3.92,0,0,1-1.74-.35,2.62,2.62,0,0,1-1.12-.94,2.59,2.59,0,0,1-.37-1.38,2.19,2.19,0,0,1,.94-1.9,5,5,0,0,1,2.92-.69h1.72c0-.92-.66-1.38-1.84-1.38a4.06,4.06,0,0,0-1.26.21,3.19,3.19,0,0,0-1.09.55l-1-2.07a5.53,5.53,0,0,1,1.74-.73A7.83,7.83,0,0,1,939.42,159.18Zm-.11,7a1.71,1.71,0,0,0,.93-.25,1.36,1.36,0,0,0,.57-.75v-.76H939.5c-.88,0-1.33.3-1.33.88a.78.78,0,0,0,.31.64A1.3,1.3,0,0,0,939.31,166.22Zm6.46-6.89h3V168h-3Zm1.52-1a1.92,1.92,0,0,1-1.34-.47,1.55,1.55,0,0,1,0-2.3,1.91,1.91,0,0,1,1.34-.46,2,2,0,0,1,1.35.44,1.4,1.4,0,0,1,.51,1.12,1.58,1.58,0,0,1-.51,1.2A1.93,1.93,0,0,1,947.29,158.37Zm6.65,9.77a9.62,9.62,0,0,1-2.14-.24,6,6,0,0,1-1.7-.65l.91-2.08a5.7,5.7,0,0,0,1.41.59A6.49,6.49,0,0,0,954,166a2.58,2.58,0,0,0,1-.15.48.48,0,0,0,.32-.44c0-.2-.13-.33-.39-.4a5.91,5.91,0,0,0-1.18-.24,12.58,12.58,0,0,1-1.78-.34,2.74,2.74,0,0,1-1.25-.77,2.19,2.19,0,0,1-.52-1.57,2.35,2.35,0,0,1,.49-1.47,3.14,3.14,0,0,1,1.44-1,6.06,6.06,0,0,1,2.29-.39,9.07,9.07,0,0,1,1.87.2,4.93,4.93,0,0,1,1.55.54L957,162a5.13,5.13,0,0,0-2.49-.64,2.35,2.35,0,0,0-1.06.18c-.22.11-.34.25-.34.43a.46.46,0,0,0,.37.43,8.06,8.06,0,0,0,1.22.24,13.42,13.42,0,0,1,1.77.37,2.68,2.68,0,0,1,1.22.77,2.12,2.12,0,0,1,.53,1.54,2.4,2.4,0,0,1-.5,1.47,3.26,3.26,0,0,1-1.47,1A6.61,6.61,0,0,1,953.94,168.14Zm5.39-5.87H964v2.34h-4.67Zm6,9a4.24,4.24,0,0,1-2.11-.45l.77-2.16a1.77,1.77,0,0,0,.94.26.82.82,0,0,0,.66-.29,1.31,1.31,0,0,0,.24-.85v-8.43h3v8.45a3.41,3.41,0,0,1-.94,2.52A3.49,3.49,0,0,1,965.37,171.25Zm2-12.88a1.92,1.92,0,0,1-1.34-.47,1.53,1.53,0,0,1,0-2.3,1.91,1.91,0,0,1,1.34-.46,2,2,0,0,1,1.34.44,1.38,1.38,0,0,1,.52,1.12,1.55,1.55,0,0,1-.52,1.2A1.92,1.92,0,0,1,967.39,158.37Zm12.34,5.31s0,.27-.05.75h-6.3a1.8,1.8,0,0,0,.73,1,2.55,2.55,0,0,0,1.4.35,3.12,3.12,0,0,0,1.07-.17,3.16,3.16,0,0,0,.93-.58l1.6,1.67a4.72,4.72,0,0,1-3.7,1.4,6,6,0,0,1-2.67-.57,4.38,4.38,0,0,1-.1-7.81,5.21,5.21,0,0,1,2.45-.58,5.06,5.06,0,0,1,2.35.55,4,4,0,0,1,1.67,1.55A4.51,4.51,0,0,1,979.73,163.68Zm-4.62-2.34a1.7,1.7,0,0,0-1.78,1.49h3.55a1.81,1.81,0,0,0-.6-1.09A1.76,1.76,0,0,0,975.11,161.34ZM794.2,183.68s0,.27-.05.75h-6.3a1.76,1.76,0,0,0,.73,1,2.54,2.54,0,0,0,1.39.35,3.14,3.14,0,0,0,1.08-.17,3,3,0,0,0,.92-.58l1.61,1.67a4.72,4.72,0,0,1-3.7,1.4,5.93,5.93,0,0,1-2.67-.57,4.18,4.18,0,0,1-2.42-3.92,4.29,4.29,0,0,1,.61-2.29,4.39,4.39,0,0,1,1.71-1.6,5.21,5.21,0,0,1,2.45-.58,5.09,5.09,0,0,1,2.35.55,4,4,0,0,1,1.67,1.55A4.51,4.51,0,0,1,794.2,183.68Zm-4.62-2.34a1.7,1.7,0,0,0-1.78,1.49h3.55a1.78,1.78,0,0,0-.61-1.09A1.76,1.76,0,0,0,789.58,181.34Zm9.33-1.69H801v2.27h-2V188h-3v-6.08h-1.26v-2.27H796v-.23a3.37,3.37,0,0,1,.95-2.51,3.68,3.68,0,0,1,2.67-.93,5.19,5.19,0,0,1,1.12.12,2.64,2.64,0,0,1,.9.33l-.76,2.15a1.73,1.73,0,0,0-.91-.26,1,1,0,0,0-.75.29,1.23,1.23,0,0,0-.26.85Zm6.5,0h2.07v2.27h-2V188h-3v-6.08h-1.26v-2.27h1.26v-.23a3.37,3.37,0,0,1,.95-2.51,3.68,3.68,0,0,1,2.67-.93,5.19,5.19,0,0,1,1.12.12,2.64,2.64,0,0,1,.9.33l-.76,2.15a1.73,1.73,0,0,0-.91-.26,1,1,0,0,0-.75.29,1.23,1.23,0,0,0-.26.85Zm12,4s0,.27,0,.75H811a1.77,1.77,0,0,0,.74,1,2.5,2.5,0,0,0,1.39.35,3.12,3.12,0,0,0,1.07-.17,3.16,3.16,0,0,0,.93-.58l1.6,1.67a4.71,4.71,0,0,1-3.7,1.4,6,6,0,0,1-2.67-.57,4.38,4.38,0,0,1-.1-7.81,5.24,5.24,0,0,1,2.45-.58,5.09,5.09,0,0,1,2.35.55,4,4,0,0,1,1.67,1.55A4.51,4.51,0,0,1,817.37,183.68Zm-4.62-2.34a1.7,1.7,0,0,0-1.78,1.49h3.55a1.78,1.78,0,0,0-.61-1.09A1.72,1.72,0,0,0,812.75,181.34Zm10.46,6.8a5.66,5.66,0,0,1-2.58-.57,4.21,4.21,0,0,1-2.4-3.92,4.36,4.36,0,0,1,.62-2.31,4.27,4.27,0,0,1,1.78-1.58,5.66,5.66,0,0,1,2.58-.58,4.94,4.94,0,0,1,2.54.64,3.5,3.5,0,0,1,1.52,1.75l-2.35,1.2a1.91,1.91,0,0,0-3.09-.63,2.1,2.1,0,0,0-.53,1.51,2.14,2.14,0,0,0,.53,1.53,1.82,1.82,0,0,0,1.36.55,1.87,1.87,0,0,0,1.73-1.17l2.35,1.2a3.57,3.57,0,0,1-1.52,1.76A4.93,4.93,0,0,1,823.21,188.14Zm11.33-.49a3.19,3.19,0,0,1-.95.37,5.36,5.36,0,0,1-1.16.12,3.7,3.7,0,0,1-2.61-.83,3.17,3.17,0,0,1-.91-2.48v-2.91h-1.27v-2.27h1.27v-2.26h3v2.26h2v2.27h-2v2.88a1.1,1.1,0,0,0,.24.74.9.9,0,0,0,.67.25,1.64,1.64,0,0,0,.93-.27Zm10.29-8.32V188h-2.9v-.93a3.1,3.1,0,0,1-1.15.8,3.78,3.78,0,0,1-1.42.27,3.67,3.67,0,0,1-2.69-1,4,4,0,0,1-1-3v-4.85h3v4.35a2.2,2.2,0,0,0,.37,1.42,1.29,1.29,0,0,0,1.07.45,1.5,1.5,0,0,0,1.17-.49,2.27,2.27,0,0,0,.46-1.56v-4.17Zm10.82,4.35s0,.27,0,.75h-6.3a1.77,1.77,0,0,0,.74,1,2.5,2.5,0,0,0,1.39.35,3.12,3.12,0,0,0,1.07-.17,3.16,3.16,0,0,0,.93-.58l1.6,1.67a4.71,4.71,0,0,1-3.7,1.4,6,6,0,0,1-2.67-.57,4.37,4.37,0,0,1-.09-7.81,5.17,5.17,0,0,1,2.44-.58,5.06,5.06,0,0,1,2.35.55,4,4,0,0,1,1.67,1.55A4.42,4.42,0,0,1,855.65,183.68ZM851,181.34a1.7,1.7,0,0,0-1.78,1.49h3.55a1.72,1.72,0,0,0-1.77-1.49Zm8.92-1a2.73,2.73,0,0,1,1.2-.88,4.57,4.57,0,0,1,1.71-.31v2.74a6.75,6.75,0,0,0-.69,0,2.14,2.14,0,0,0-1.53.53,2.17,2.17,0,0,0-.55,1.62v4h-3v-8.67H860Zm18-1V188H875v-.93a3.18,3.18,0,0,1-1.15.8,3.83,3.83,0,0,1-1.43.27,3.69,3.69,0,0,1-2.69-1,4,4,0,0,1-1-3v-4.85h3v4.35a2.2,2.2,0,0,0,.37,1.42,1.29,1.29,0,0,0,1.07.45,1.5,1.5,0,0,0,1.17-.49,2.27,2.27,0,0,0,.46-1.56v-4.17Zm7.61-.15a3.53,3.53,0,0,1,2.59,1,3.87,3.87,0,0,1,1,2.9v5h-3v-4.46c0-1.19-.47-1.78-1.42-1.78a1.65,1.65,0,0,0-1.26.51,2.22,2.22,0,0,0-.47,1.54V188h-3v-8.67h2.9v.94a3.41,3.41,0,0,1,1.21-.8A4.1,4.1,0,0,1,885.53,179.18Zm97.54,4.5s0,.27,0,.75h-6.31a1.81,1.81,0,0,0,.74,1,2.52,2.52,0,0,0,1.39.35,3.08,3.08,0,0,0,1.07-.17,3.16,3.16,0,0,0,.93-.58l1.6,1.67a4.7,4.7,0,0,1-3.7,1.4,6,6,0,0,1-2.67-.57,4.42,4.42,0,0,1-1.79-1.6,4.38,4.38,0,0,1,1.7-6.21,5.38,5.38,0,0,1,4.8,0,4,4,0,0,1,1.66,1.55A4.42,4.42,0,0,1,983.07,183.68Zm-4.62-2.34a1.81,1.81,0,0,0-1.18.4,1.87,1.87,0,0,0-.6,1.09h3.56a1.83,1.83,0,0,0-.61-1.09A1.76,1.76,0,0,0,978.45,181.34Zm11.67-2.16a3.55,3.55,0,0,1,2.6,1,3.87,3.87,0,0,1,1,2.9v5h-3v-4.46c0-1.19-.48-1.78-1.43-1.78a1.65,1.65,0,0,0-1.26.51,2.22,2.22,0,0,0-.46,1.54V188h-3v-8.67h2.89v.94a3.36,3.36,0,0,1,1.22-.8A4,4,0,0,1,990.12,179.18Zm-177.85,24.5s0,.27,0,.75h-6.3a1.8,1.8,0,0,0,.73,1,2.55,2.55,0,0,0,1.4.35,3.12,3.12,0,0,0,1.07-.17,3.16,3.16,0,0,0,.93-.58l1.6,1.67a4.72,4.72,0,0,1-3.7,1.4,6,6,0,0,1-2.67-.57,4.23,4.23,0,0,1-2.42-3.92,4.29,4.29,0,0,1,.61-2.29,4.39,4.39,0,0,1,1.71-1.6,5.21,5.21,0,0,1,2.45-.58,5.09,5.09,0,0,1,2.35.55,4,4,0,0,1,1.67,1.55A4.51,4.51,0,0,1,812.27,203.68Zm-4.62-2.34a1.7,1.7,0,0,0-1.78,1.49h3.55a1.78,1.78,0,0,0-.61-1.09A1.76,1.76,0,0,0,807.65,201.34ZM818.94,208l-1.55-2.27L815.72,208h-3.29l3.29-4.34-3.19-4.33H816l1.53,2.19,1.61-2.19h3.21l-3.2,4.22,3.31,4.45Zm8.59.14a5.69,5.69,0,0,1-2.58-.57,4.21,4.21,0,0,1-2.4-3.92,4.36,4.36,0,0,1,.62-2.31,4.27,4.27,0,0,1,1.78-1.58,5.69,5.69,0,0,1,2.58-.58,4.94,4.94,0,0,1,2.54.64,3.5,3.5,0,0,1,1.52,1.75l-2.35,1.2a1.91,1.91,0,0,0-3.09-.63,2.1,2.1,0,0,0-.53,1.51,2.14,2.14,0,0,0,.53,1.53,1.82,1.82,0,0,0,1.36.55,1.87,1.87,0,0,0,1.73-1.17l2.35,1.2a3.57,3.57,0,0,1-1.52,1.76A4.93,4.93,0,0,1,827.53,208.14Zm5.17-12h3V208h-3Zm14.14,3.2V208h-2.9v-.93a3.1,3.1,0,0,1-1.15.8,3.78,3.78,0,0,1-1.42.27,3.67,3.67,0,0,1-2.69-1,4,4,0,0,1-1-3v-4.85h3v4.35a2.26,2.26,0,0,0,.36,1.42,1.33,1.33,0,0,0,1.08.45,1.47,1.47,0,0,0,1.16-.49,2.27,2.27,0,0,0,.47-1.56v-4.17Zm5.65-.15a4.84,4.84,0,0,1,3.3,1,3.73,3.73,0,0,1,1.13,3V208h-2.83v-1.12a2.6,2.6,0,0,1-2.56,1.26,3.92,3.92,0,0,1-1.74-.35,2.62,2.62,0,0,1-1.12-.94,2.59,2.59,0,0,1-.37-1.38,2.19,2.19,0,0,1,.94-1.9,5,5,0,0,1,2.92-.69h1.72c0-.92-.66-1.38-1.84-1.38a4.06,4.06,0,0,0-1.26.21,3.19,3.19,0,0,0-1.09.55l-1-2.07a5.53,5.53,0,0,1,1.74-.73A7.89,7.89,0,0,1,852.49,199.18Zm-.11,7a1.71,1.71,0,0,0,.93-.25,1.36,1.36,0,0,0,.57-.75v-.76h-1.31c-.88,0-1.33.3-1.33.88a.78.78,0,0,0,.31.64A1.3,1.3,0,0,0,852.38,206.22Zm12.11-7a3.53,3.53,0,0,1,2.59,1,3.88,3.88,0,0,1,1,2.9v5H865v-4.46c0-1.19-.47-1.78-1.42-1.78a1.65,1.65,0,0,0-1.26.51,2.22,2.22,0,0,0-.47,1.54V208h-3v-8.67h2.9v.94a3.36,3.36,0,0,1,1.22-.8A4,4,0,0,1,864.49,199.18ZM876,207.65a3.19,3.19,0,0,1-1,.37,5.36,5.36,0,0,1-1.16.12,3.7,3.7,0,0,1-2.61-.83,3.17,3.17,0,0,1-.91-2.48v-2.91h-1.27v-2.27h1.27v-2.26h3v2.26h2v2.27h-2v2.88a1.1,1.1,0,0,0,.24.74.9.9,0,0,0,.67.25,1.64,1.64,0,0,0,.93-.27Zm11.81,0a3.24,3.24,0,0,1-.94.37,5.52,5.52,0,0,1-1.17.12,3.72,3.72,0,0,1-2.61-.83,3.17,3.17,0,0,1-.91-2.48v-2.91h-1.27v-2.27h1.27v-2.26h3v2.26h2v2.27h-2v2.88a1.1,1.1,0,0,0,.24.74.9.9,0,0,0,.67.25,1.64,1.64,0,0,0,.93-.27Zm5.27.49a5.48,5.48,0,0,1-2.51-.57,4.54,4.54,0,0,1-1.76-1.6,4.63,4.63,0,0,1,0-4.63,4.31,4.31,0,0,1,1.75-1.58,5.79,5.79,0,0,1,5.05,0,4.19,4.19,0,0,1,1.75,1.58,4.36,4.36,0,0,1,.62,2.31,4.42,4.42,0,0,1-.62,2.32,4.37,4.37,0,0,1-1.75,1.6A5.48,5.48,0,0,1,893.05,208.14Zm0-2.41a1.71,1.71,0,0,0,1.32-.55,2.18,2.18,0,0,0,.51-1.53,2.14,2.14,0,0,0-.51-1.51,1.87,1.87,0,0,0-2.63,0,2.14,2.14,0,0,0-.51,1.51,2.18,2.18,0,0,0,.51,1.53A1.7,1.7,0,0,0,893.05,205.73Zm15.43-6.4V208h-2.9v-.93a3.1,3.1,0,0,1-1.15.8,3.78,3.78,0,0,1-1.42.27,3.67,3.67,0,0,1-2.69-1,4,4,0,0,1-1-3v-4.85h3v4.35a2.26,2.26,0,0,0,.36,1.42,1.33,1.33,0,0,0,1.08.45,1.47,1.47,0,0,0,1.16-.49,2.27,2.27,0,0,0,.47-1.56v-4.17Zm7.94,8.32a3.24,3.24,0,0,1-.94.37,5.52,5.52,0,0,1-1.17.12,3.72,3.72,0,0,1-2.61-.83,3.17,3.17,0,0,1-.91-2.48v-2.91h-1.26v-2.27h1.26v-2.26h3v2.26h2v2.27h-2v2.88a1.1,1.1,0,0,0,.24.74.9.9,0,0,0,.67.25,1.64,1.64,0,0,0,.93-.27Zm9.53-8.47a4.81,4.81,0,0,1,3.29,1,3.73,3.73,0,0,1,1.14,3V208h-2.84v-1.12a2.59,2.59,0,0,1-2.56,1.26,3.92,3.92,0,0,1-1.74-.35,2.4,2.4,0,0,1-1.49-2.32,2.2,2.2,0,0,1,1-1.9,5,5,0,0,1,2.91-.69h1.73c-.06-.92-.67-1.38-1.84-1.38a4.07,4.07,0,0,0-1.27.21,3.14,3.14,0,0,0-1.08.55l-1-2.07a5.53,5.53,0,0,1,1.74-.73A7.91,7.91,0,0,1,926,199.18Zm-.12,7a1.71,1.71,0,0,0,.93-.25,1.42,1.42,0,0,0,.58-.75v-.76H926c-.89,0-1.33.3-1.33.88a.77.77,0,0,0,.3.64A1.3,1.3,0,0,0,925.83,206.22Zm11,1.92a5.62,5.62,0,0,1-2.57-.57,4.21,4.21,0,0,1-2.4-3.92,4.36,4.36,0,0,1,.62-2.31,4.27,4.27,0,0,1,1.78-1.58,5.62,5.62,0,0,1,2.57-.58,5,5,0,0,1,2.55.64,3.5,3.5,0,0,1,1.52,1.75l-2.35,1.2a1.88,1.88,0,0,0-1.73-1.17,1.84,1.84,0,0,0-1.36.54,2.06,2.06,0,0,0-.53,1.51,2.1,2.1,0,0,0,.53,1.53,1.81,1.81,0,0,0,1.36.55,1.88,1.88,0,0,0,1.73-1.17l2.35,1.2a3.57,3.57,0,0,1-1.52,1.76A4.94,4.94,0,0,1,936.85,208.14Zm11.34-.49a3.19,3.19,0,0,1-1,.37,5.36,5.36,0,0,1-1.16.12,3.7,3.7,0,0,1-2.61-.83,3.18,3.18,0,0,1-.92-2.48v-2.91h-1.26v-2.27h1.26v-2.26h3v2.26h2v2.27h-2v2.88a1.05,1.05,0,0,0,.25.74.9.9,0,0,0,.67.25,1.58,1.58,0,0,0,.92-.27Zm9.78-4s0,.27-.05.75h-6.3a1.77,1.77,0,0,0,.74,1,2.5,2.5,0,0,0,1.39.35,3.12,3.12,0,0,0,1.07-.17,3.16,3.16,0,0,0,.93-.58l1.6,1.67a4.71,4.71,0,0,1-3.7,1.4,6,6,0,0,1-2.67-.57,4.37,4.37,0,0,1-.09-7.81,5.17,5.17,0,0,1,2.44-.58,5.06,5.06,0,0,1,2.35.55,4,4,0,0,1,1.67,1.55A4.42,4.42,0,0,1,958,203.68Zm-4.62-2.34a1.7,1.7,0,0,0-1.78,1.49h3.55a1.72,1.72,0,0,0-1.77-1.49Zm15.14-2V208H965.6v-.93a3.18,3.18,0,0,1-1.15.8,3.83,3.83,0,0,1-1.43.27,3.69,3.69,0,0,1-2.69-1,4,4,0,0,1-1-3v-4.85h3v4.35a2.26,2.26,0,0,0,.37,1.42,1.31,1.31,0,0,0,1.07.45,1.5,1.5,0,0,0,1.17-.49,2.27,2.27,0,0,0,.46-1.56v-4.17Zm4.86,1a2.73,2.73,0,0,1,1.2-.88,4.57,4.57,0,0,1,1.71-.31v2.74c-.28,0-.51,0-.69,0a1.89,1.89,0,0,0-2.08,2.15v4h-3v-8.67h2.9Zm-65,23.31s0,.27-.05.75H902a1.76,1.76,0,0,0,.73,1,2.52,2.52,0,0,0,1.39.35,2.7,2.7,0,0,0,2-.75l1.6,1.67a4.69,4.69,0,0,1-3.69,1.4,5.9,5.9,0,0,1-2.67-.57,4.18,4.18,0,0,1-2.42-3.92,4.28,4.28,0,0,1,2.32-3.89,5.18,5.18,0,0,1,2.45-.58,5.09,5.09,0,0,1,2.35.55,3.94,3.94,0,0,1,1.66,1.55A4.43,4.43,0,0,1,908.35,223.68Zm-4.63-2.34a1.7,1.7,0,0,0-1.77,1.49h3.55a1.83,1.83,0,0,0-.61-1.09A1.76,1.76,0,0,0,903.72,221.34Zm12,6.31a3.13,3.13,0,0,1-.94.37,5.39,5.39,0,0,1-1.17.12,3.72,3.72,0,0,1-2.61-.83,3.21,3.21,0,0,1-.91-2.48v-2.91h-1.26v-2.27h1.26v-2.26h3v2.26h2v2.27h-2v2.88a1.1,1.1,0,0,0,.24.74.91.91,0,0,0,.67.25,1.59,1.59,0,0,0,.93-.27Zm5.83-11.52h3V228h-3Zm13.88,7.55s0,.27-.05.75h-6.3a1.77,1.77,0,0,0,.74,1,2.5,2.5,0,0,0,1.39.35,3.12,3.12,0,0,0,1.07-.17,3.16,3.16,0,0,0,.93-.58l1.6,1.67a4.72,4.72,0,0,1-3.7,1.4,6,6,0,0,1-2.67-.57,4.38,4.38,0,0,1-.1-7.81,5.24,5.24,0,0,1,2.45-.58,5.06,5.06,0,0,1,2.35.55,4,4,0,0,1,1.67,1.55A4.51,4.51,0,0,1,935.44,223.68Zm-4.62-2.34a1.7,1.7,0,0,0-1.78,1.49h3.55a1.72,1.72,0,0,0-1.77-1.49Zm15.14-2V228h-2.89v-.93a3.14,3.14,0,0,1-1.16.8,3.74,3.74,0,0,1-1.42.27,3.67,3.67,0,0,1-2.69-1,4,4,0,0,1-1-3v-4.85h3v4.35a2.2,2.2,0,0,0,.37,1.42,1.31,1.31,0,0,0,1.07.45,1.5,1.5,0,0,0,1.17-.49,2.27,2.27,0,0,0,.46-1.56v-4.17Zm4.86,1a2.73,2.73,0,0,1,1.2-.88,4.57,4.57,0,0,1,1.71-.31v2.74c-.28,0-.51,0-.69,0A1.89,1.89,0,0,0,951,224v4h-3v-8.67h2.9Zm7.33,7.77a9.62,9.62,0,0,1-2.14-.24,6,6,0,0,1-1.7-.65l.91-2.08a5.7,5.7,0,0,0,1.41.59,6.43,6.43,0,0,0,1.62.21,2.55,2.55,0,0,0,1-.15.48.48,0,0,0,.32-.44c0-.2-.13-.33-.39-.4a5.91,5.91,0,0,0-1.18-.24,12.58,12.58,0,0,1-1.78-.34,2.66,2.66,0,0,1-1.24-.77,2.15,2.15,0,0,1-.53-1.57,2.35,2.35,0,0,1,.49-1.47,3.14,3.14,0,0,1,1.44-1,6.1,6.1,0,0,1,2.29-.39,9,9,0,0,1,1.87.2,5.09,5.09,0,0,1,1.56.54l-.92,2.06a5.1,5.1,0,0,0-2.49-.64,2.38,2.38,0,0,0-1.06.18.49.49,0,0,0-.33.43.45.45,0,0,0,.36.43,8.06,8.06,0,0,0,1.22.24,14,14,0,0,1,1.78.37,2.7,2.7,0,0,1,1.21.77,2.12,2.12,0,0,1,.53,1.54,2.4,2.4,0,0,1-.5,1.47,3.26,3.26,0,0,1-1.47,1A6.61,6.61,0,0,1,958.15,228.14ZM839,248.14a5.62,5.62,0,0,1-2.57-.57,4.21,4.21,0,0,1-2.4-3.92,4.36,4.36,0,0,1,.62-2.31,4.27,4.27,0,0,1,1.78-1.58,5.62,5.62,0,0,1,2.57-.58,5,5,0,0,1,2.55.64,3.5,3.5,0,0,1,1.52,1.75l-2.35,1.2A1.88,1.88,0,0,0,839,241.6a1.84,1.84,0,0,0-1.36.54,2.1,2.1,0,0,0-.53,1.51,2.14,2.14,0,0,0,.53,1.53,1.81,1.81,0,0,0,1.36.55,1.88,1.88,0,0,0,1.73-1.17l2.35,1.2a3.57,3.57,0,0,1-1.52,1.76A5,5,0,0,1,839,248.14Zm9.47,0a5.45,5.45,0,0,1-2.51-.57,4.4,4.4,0,0,1-1.76-1.6,4.63,4.63,0,0,1,0-4.63,4.29,4.29,0,0,1,1.74-1.58,5.81,5.81,0,0,1,5.06,0,4.16,4.16,0,0,1,1.74,1.58,4.28,4.28,0,0,1,.63,2.31,4.3,4.3,0,0,1-2.37,3.92A5.51,5.51,0,0,1,848.46,248.14Zm0-2.41a1.7,1.7,0,0,0,1.31-.55,2.18,2.18,0,0,0,.51-1.53,2.14,2.14,0,0,0-.51-1.51,1.86,1.86,0,0,0-2.62,0,2.14,2.14,0,0,0-.51,1.51,2.18,2.18,0,0,0,.51,1.53A1.7,1.7,0,0,0,848.46,245.73Zm11.95-6.55a3.57,3.57,0,0,1,2.6,1,3.87,3.87,0,0,1,1,2.9v5h-3v-4.46c0-1.19-.48-1.78-1.43-1.78a1.65,1.65,0,0,0-1.26.51,2.22,2.22,0,0,0-.47,1.54V248h-3v-8.67h2.89v.94a3.36,3.36,0,0,1,1.22-.8A4,4,0,0,1,860.41,239.18Zm11.48,8.47a3.24,3.24,0,0,1-.94.37,5.52,5.52,0,0,1-1.17.12,3.72,3.72,0,0,1-2.61-.83,3.17,3.17,0,0,1-.91-2.48v-2.91H865v-2.27h1.27v-2.26h3v2.26h2v2.27h-2v2.88a1.1,1.1,0,0,0,.24.74.9.9,0,0,0,.67.25,1.64,1.64,0,0,0,.93-.27Zm4.07-7.28a2.73,2.73,0,0,1,1.2-.88,4.57,4.57,0,0,1,1.71-.31v2.74c-.28,0-.51,0-.69,0A1.89,1.89,0,0,0,876.1,244v4h-3v-8.67H876Zm7.8-1.19a4.8,4.8,0,0,1,3.29,1,3.73,3.73,0,0,1,1.14,3V248h-2.83v-1.12a2.61,2.61,0,0,1-2.56,1.26,4,4,0,0,1-1.75-.35,2.38,2.38,0,0,1-1.48-2.32,2.19,2.19,0,0,1,.94-1.9,5,5,0,0,1,2.91-.69h1.73c0-.92-.67-1.38-1.84-1.38a4,4,0,0,0-1.26.21,3.19,3.19,0,0,0-1.09.55l-1-2.07a5.49,5.49,0,0,1,1.75-.73A7.83,7.83,0,0,1,883.76,239.18Zm-.11,7a1.65,1.65,0,0,0,.92-.25,1.42,1.42,0,0,0,.58-.75v-.76h-1.31c-.89,0-1.33.3-1.33.88a.77.77,0,0,0,.3.64A1.33,1.33,0,0,0,883.65,246.22Zm6.46-6.89h3V248h-3Zm1.52-1a2,2,0,0,1-1.35-.47,1.55,1.55,0,0,1,0-2.3,1.94,1.94,0,0,1,1.35-.46,2,2,0,0,1,1.34.44,1.4,1.4,0,0,1,.51,1.12,1.58,1.58,0,0,1-.51,1.2A1.92,1.92,0,0,1,891.63,238.37Zm9.14.81a3.53,3.53,0,0,1,2.59,1,3.84,3.84,0,0,1,1,2.9v5h-3v-4.46c0-1.19-.48-1.78-1.43-1.78a1.65,1.65,0,0,0-1.26.51,2.22,2.22,0,0,0-.47,1.54V248h-3v-8.67H898v.94a3.36,3.36,0,0,1,1.22-.8A4,4,0,0,1,900.77,239.18Zm11.48,8.47a3.19,3.19,0,0,1-1,.37,5.36,5.36,0,0,1-1.16.12,3.72,3.72,0,0,1-2.61-.83,3.17,3.17,0,0,1-.91-2.48v-2.91h-1.27v-2.27h1.27v-2.26h3v2.26h2v2.27h-2v2.88a1.1,1.1,0,0,0,.24.74.9.9,0,0,0,.67.25,1.64,1.64,0,0,0,.93-.27Zm9.78-4s0,.27,0,.75h-6.31a1.81,1.81,0,0,0,.74,1,2.52,2.52,0,0,0,1.39.35,3,3,0,0,0,1.07-.17,3.16,3.16,0,0,0,.93-.58l1.6,1.67a4.69,4.69,0,0,1-3.69,1.4,6,6,0,0,1-2.68-.57,4.49,4.49,0,0,1-1.79-1.6,4.42,4.42,0,0,1-.62-2.32,4.23,4.23,0,0,1,2.32-3.89,5.18,5.18,0,0,1,2.45-.58,5.12,5.12,0,0,1,2.35.55,3.94,3.94,0,0,1,1.66,1.55A4.42,4.42,0,0,1,922,243.68Zm-4.62-2.34a1.7,1.7,0,0,0-1.77,1.49h3.55a1.83,1.83,0,0,0-.61-1.09A1.76,1.76,0,0,0,917.41,241.34Zm9.18,6.8a9.55,9.55,0,0,1-2.14-.24,6,6,0,0,1-1.7-.65l.91-2.08a5.7,5.7,0,0,0,1.41.59,6.41,6.41,0,0,0,1.61.21,2.52,2.52,0,0,0,1-.15.47.47,0,0,0,.32-.44c0-.2-.12-.33-.38-.4a5.91,5.91,0,0,0-1.18-.24,12.3,12.3,0,0,1-1.78-.34,2.69,2.69,0,0,1-1.25-.77,2.19,2.19,0,0,1-.53-1.57,2.35,2.35,0,0,1,.5-1.47,3.14,3.14,0,0,1,1.44-1,6.06,6.06,0,0,1,2.29-.39,9.07,9.07,0,0,1,1.87.2,4.93,4.93,0,0,1,1.55.54l-.91,2.06a5.14,5.14,0,0,0-2.5-.64,2.3,2.3,0,0,0-1,.18c-.22.11-.34.25-.34.43a.46.46,0,0,0,.37.43,8.06,8.06,0,0,0,1.22.24,13.78,13.78,0,0,1,1.77.37,2.68,2.68,0,0,1,1.22.77,2.12,2.12,0,0,1,.53,1.54,2.4,2.4,0,0,1-.5,1.47,3.26,3.26,0,0,1-1.47,1A6.61,6.61,0,0,1,926.59,248.14Zm12.67-4.22a2.3,2.3,0,0,1,.35-1.31,6.79,6.79,0,0,1,1-1.15,6.74,6.74,0,0,0,.68-.72,1.09,1.09,0,0,0,.23-.64.87.87,0,0,0-.4-.74,1.68,1.68,0,0,0-1-.29,2.23,2.23,0,0,0-1.17.31,2.31,2.31,0,0,0-.83.84l-2.38-1.28a4.51,4.51,0,0,1,1.85-1.74,6.18,6.18,0,0,1,2.9-.62,5.19,5.19,0,0,1,3,.8,2.49,2.49,0,0,1,1.17,2.2,2.87,2.87,0,0,1-.22,1.17,3,3,0,0,1-.55.85,10.26,10.26,0,0,1-.8.77,5.41,5.41,0,0,0-.8.8,1.15,1.15,0,0,0-.25.75Zm1.42,4.22a1.81,1.81,0,0,1-1.29-.48,1.61,1.61,0,0,1-.51-1.2,1.54,1.54,0,0,1,.49-1.18,2.1,2.1,0,0,1,2.62,0,1.5,1.5,0,0,1,.52,1.18,1.58,1.58,0,0,1-.52,1.2A1.82,1.82,0,0,1,940.68,248.14Z" transform="translate(0 -16)"/>
        <path class="partTwo-cls-3" d="M904.54,183.68s0,.27,0,.75h-6.3a1.77,1.77,0,0,0,.74,1,2.5,2.5,0,0,0,1.39.35,3.12,3.12,0,0,0,1.07-.17,3.16,3.16,0,0,0,.93-.58l1.6,1.67a4.71,4.71,0,0,1-3.7,1.4,6,6,0,0,1-2.67-.57,4.42,4.42,0,0,1-1.79-1.6,4.38,4.38,0,0,1,1.7-6.21,5.38,5.38,0,0,1,4.8,0,4,4,0,0,1,1.66,1.55A4.42,4.42,0,0,1,904.54,183.68Zm-4.62-2.34a1.84,1.84,0,0,0-1.19.4,1.91,1.91,0,0,0-.59,1.09h3.56a1.83,1.83,0,0,0-.61-1.09A1.76,1.76,0,0,0,899.92,181.34Zm.49-5.48h3.05l-3,2.43h-2.18Zm10,12.28a5.69,5.69,0,0,1-2.58-.57,4.25,4.25,0,0,1-2.4-3.92,4.28,4.28,0,0,1,.63-2.31,4.18,4.18,0,0,1,1.77-1.58,5.69,5.69,0,0,1,2.58-.58,4.91,4.91,0,0,1,2.54.64,3.46,3.46,0,0,1,1.52,1.75l-2.35,1.2a1.91,1.91,0,0,0-3.09-.63,2.1,2.1,0,0,0-.53,1.51,2.14,2.14,0,0,0,.53,1.53,1.82,1.82,0,0,0,1.36.55,1.87,1.87,0,0,0,1.73-1.17l2.35,1.2a3.52,3.52,0,0,1-1.52,1.76A4.91,4.91,0,0,1,910.38,188.14Zm10.82-9a3.53,3.53,0,0,1,2.59,1,3.84,3.84,0,0,1,1,2.9v5h-3v-4.46c0-1.19-.48-1.78-1.43-1.78a1.65,1.65,0,0,0-1.26.51,2.22,2.22,0,0,0-.47,1.54V188h-3V176.13h3v4a3.31,3.31,0,0,1,1.17-.71A4.27,4.27,0,0,1,921.2,179.18Zm9.19,0a4.84,4.84,0,0,1,3.3,1,3.76,3.76,0,0,1,1.13,3V188H932v-1.12a2.61,2.61,0,0,1-2.56,1.26,3.92,3.92,0,0,1-1.74-.35,2.62,2.62,0,0,1-1.12-.94,2.59,2.59,0,0,1-.37-1.38,2.19,2.19,0,0,1,.94-1.9,5,5,0,0,1,2.91-.69h1.73c0-.92-.66-1.38-1.84-1.38a4,4,0,0,0-1.26.21,3.19,3.19,0,0,0-1.09.55l-1-2.07a5.53,5.53,0,0,1,1.74-.73A7.83,7.83,0,0,1,930.39,179.18Zm-.11,7a1.71,1.71,0,0,0,.93-.25,1.46,1.46,0,0,0,.57-.75v-.76h-1.31c-.88,0-1.33.3-1.33.88a.76.76,0,0,0,.31.64A1.3,1.3,0,0,0,930.28,186.22Zm12.11-7a3.53,3.53,0,0,1,2.59,1,3.87,3.87,0,0,1,1,2.9v5h-3v-4.46c0-1.19-.47-1.78-1.42-1.78a1.65,1.65,0,0,0-1.26.51,2.22,2.22,0,0,0-.47,1.54V188h-3v-8.67h2.9v.94a3.32,3.32,0,0,1,1.21-.8A4.1,4.1,0,0,1,942.39,179.18Zm15,.15v7.09A4.63,4.63,0,0,1,956,190a5.34,5.34,0,0,1-3.77,1.22,9.62,9.62,0,0,1-2.4-.29,5.58,5.58,0,0,1-1.91-.85l1.11-2.13a3.7,3.7,0,0,0,1.33.68,5.27,5.27,0,0,0,1.59.25,2.44,2.44,0,0,0,1.76-.53,2,2,0,0,0,.56-1.56v-.29a3.2,3.2,0,0,1-2.57,1,4.53,4.53,0,0,1-2.13-.51,4,4,0,0,1-1.55-1.47,4.26,4.26,0,0,1-.58-2.21,4.15,4.15,0,0,1,.58-2.18,3.85,3.85,0,0,1,1.55-1.47,4.43,4.43,0,0,1,2.13-.53,3.13,3.13,0,0,1,2.72,1.2v-1Zm-4.9,5.81a1.88,1.88,0,0,0,1.34-.5,1.76,1.76,0,0,0,0-2.54,1.87,1.87,0,0,0-1.36-.5,2,2,0,0,0-1.38.5,1.63,1.63,0,0,0-.53,1.26,1.67,1.67,0,0,0,.55,1.28A2,2,0,0,0,952.44,185.14Zm15.71-1.46s0,.27,0,.75h-6.3a1.77,1.77,0,0,0,.74,1,2.5,2.5,0,0,0,1.39.35,3.12,3.12,0,0,0,1.07-.17,3.16,3.16,0,0,0,.93-.58l1.6,1.67a4.71,4.71,0,0,1-3.7,1.4,6,6,0,0,1-2.67-.57,4.37,4.37,0,0,1-.09-7.81,5.17,5.17,0,0,1,2.44-.58,5.06,5.06,0,0,1,2.35.55,4,4,0,0,1,1.67,1.55A4.42,4.42,0,0,1,968.15,183.68Zm-4.62-2.34a1.7,1.7,0,0,0-1.78,1.49h3.55a1.72,1.72,0,0,0-1.77-1.49ZM826.07,223.68s0,.27-.05.75h-6.3a1.76,1.76,0,0,0,.73,1,2.52,2.52,0,0,0,1.39.35,3,3,0,0,0,1.07-.17,3.16,3.16,0,0,0,.93-.58l1.6,1.67a4.69,4.69,0,0,1-3.69,1.4,5.9,5.9,0,0,1-2.67-.57,4.18,4.18,0,0,1-2.42-3.92,4.28,4.28,0,0,1,2.32-3.89,5.18,5.18,0,0,1,2.45-.58,5.09,5.09,0,0,1,2.35.55,3.94,3.94,0,0,1,1.66,1.55A4.43,4.43,0,0,1,826.07,223.68Zm-4.63-2.34a1.7,1.7,0,0,0-1.77,1.49h3.55a1.83,1.83,0,0,0-.61-1.09A1.76,1.76,0,0,0,821.44,221.34Zm11.3,6.66-1.55-2.27L829.52,228h-3.29l3.29-4.34-3.2-4.33h3.43l1.53,2.19,1.6-2.19h3.22l-3.2,4.22,3.31,4.45Zm10.38-.35a3.13,3.13,0,0,1-.94.37,5.39,5.39,0,0,1-1.17.12,3.72,3.72,0,0,1-2.61-.83,3.21,3.21,0,0,1-.91-2.48v-2.91h-1.26v-2.27h1.26v-2.26h3v2.26h2v2.27h-2v2.88a1.1,1.1,0,0,0,.24.74.91.91,0,0,0,.67.25,1.62,1.62,0,0,0,.93-.27Zm9.79-4s0,.27,0,.75h-6.3a1.8,1.8,0,0,0,.73,1,2.55,2.55,0,0,0,1.4.35,3.12,3.12,0,0,0,1.07-.17,3.16,3.16,0,0,0,.93-.58l1.6,1.67a4.72,4.72,0,0,1-3.7,1.4,6,6,0,0,1-2.67-.57,4.38,4.38,0,0,1-.1-7.81,5.21,5.21,0,0,1,2.45-.58,5.09,5.09,0,0,1,2.35.55,4,4,0,0,1,1.67,1.55A4.51,4.51,0,0,1,852.91,223.68Zm-4.62-2.34a1.7,1.7,0,0,0-1.78,1.49h3.55a1.78,1.78,0,0,0-.61-1.09A1.72,1.72,0,0,0,848.29,221.34Zm.49-5.48h3l-3,2.43h-2.17Zm8.43,4.51a2.73,2.73,0,0,1,1.2-.88,4.57,4.57,0,0,1,1.71-.31v2.74c-.28,0-.51,0-.69,0a1.89,1.89,0,0,0-2.08,2.15v4h-3v-8.67h2.9Zm4.16-1h3V228h-3Zm1.52-1a1.92,1.92,0,0,1-1.34-.47,1.55,1.55,0,0,1,0-2.3,1.91,1.91,0,0,1,1.34-.46,2,2,0,0,1,1.35.44,1.4,1.4,0,0,1,.51,1.12,1.58,1.58,0,0,1-.51,1.2A1.93,1.93,0,0,1,862.89,218.37Zm12.36,5.31s0,.27,0,.75H868.9a1.81,1.81,0,0,0,.74,1,2.5,2.5,0,0,0,1.39.35,3.08,3.08,0,0,0,1.07-.17,3.16,3.16,0,0,0,.93-.58l1.6,1.67a4.71,4.71,0,0,1-3.7,1.4,6,6,0,0,1-2.67-.57,4.42,4.42,0,0,1-1.79-1.6,4.38,4.38,0,0,1,1.7-6.21,5.38,5.38,0,0,1,4.8,0,4,4,0,0,1,1.66,1.55A4.42,4.42,0,0,1,875.25,223.68Zm-4.62-2.34a1.81,1.81,0,0,0-1.18.4,1.87,1.87,0,0,0-.6,1.09h3.56a1.83,1.83,0,0,0-.61-1.09A1.76,1.76,0,0,0,870.63,221.34Zm15.15-2V228h-2.9v-.93a3.1,3.1,0,0,1-1.15.8,3.83,3.83,0,0,1-1.43.27,3.65,3.65,0,0,1-2.68-1,4,4,0,0,1-1-3v-4.85h3v4.35a2.26,2.26,0,0,0,.37,1.42,1.31,1.31,0,0,0,1.07.45,1.5,1.5,0,0,0,1.17-.49,2.27,2.27,0,0,0,.47-1.56v-4.17Zm4.85,1a2.73,2.73,0,0,1,1.2-.88,4.57,4.57,0,0,1,1.71-.31v2.74c-.28,0-.51,0-.69,0a2.14,2.14,0,0,0-1.53.53,2.17,2.17,0,0,0-.55,1.62v4h-3v-8.67h2.9Z" transform="translate(0 -16)"/>
      </g>
</svg>
