<svg id="illustrationchapterOnePartOne" xmlns="http://www.w3.org/2000/svg" xmlns:xlink="http://www.w3.org/1999/xlink" width="822" height="650" viewBox="0 0 822 650">
  <defs>
    <style>
      .hidden {
        opacity: 0
      }
      .partOne-cls-1 {
        fill: url(#Dégradé_sans_nom);
      }

      .partOne-cls-15, .partOne-cls-2, .partOne-cls-36 {
        fill: #fff;
      }

      .partOne-cls-2, .partOne-cls-33 {
        opacity: 0.3;
      }

      .partOne-cls-2, .partOne-cls-31, .partOne-cls-32, .partOne-cls-33, .partOne-cls-34, .partOne-cls-36, .partOne-cls-4, .partOne-cls-6 {
        isolation: isolate;
      }

      .partOne-cls-3 {
        fill: #f78181;
      }

      .partOne-cls-4 {
        opacity: 0.1;
      }

      .partOne-cls-5 {
        fill: #ffb9b9;
      }

      .partOne-cls-6 {
        opacity: 0.05;
      }

      .partOne-cls-7 {
        fill: #8189a6;
      }

      .partOne-cls-8 {
        fill: #4c4c78;
      }

      .partOne-cls-9 {
        fill: #f9d048;
      }

      .partOne-cls-10 {
        fill: #cdd0db;
      }

      .partOne-cls-11 {
        fill: #9da7c0;
      }

      .partOne-cls-12 {
        fill: #1959ff;
      }

      .partOne-cls-13 {
        fill: url(#Dégradé_sans_nom_2);
      }

      .partOne-cls-14 {
        fill: url(#Dégradé_sans_nom_7);
      }

      .partOne-cls-16 {
        fill: #69f0ae;
      }

      .partOne-cls-17 {
        fill: url(#Dégradé_sans_nom_8);
      }

      .partOne-cls-18 {
        fill: url(#Dégradé_sans_nom_9);
      }

      .partOne-cls-19 {
        fill: url(#Dégradé_sans_nom_3);
      }

      .partOne-cls-20 {
        fill: #f5f5f5;
      }

      .partOne-cls-21 {
        fill: url(#Dégradé_sans_nom_4);
      }

      .partOne-cls-22 {
        fill: url(#Dégradé_sans_nom_5);
      }

      .partOne-cls-23 {
        fill: #fafafa;
      }

      .partOne-cls-24 {
        fill: url(#Dégradé_sans_nom_6);
      }

      .partOne-cls-25 {
        fill: url(#Dégradé_sans_nom_10);
      }

      .partOne-cls-26 {
        fill: url(#Dégradé_sans_nom_11);
      }

      .partOne-cls-27 {
        fill: url(#Dégradé_sans_nom_12);
      }

      .partOne-cls-28 {
        fill: url(#Dégradé_sans_nom_13);
      }

      .partOne-cls-29 {
        fill: url(#Dégradé_sans_nom_14);
      }

      .partOne-cls-30, .partOne-cls-31, .partOne-cls-32, .partOne-cls-33 {
        fill: #186fe1;
      }

      .partOne-cls-31 {
        opacity: 0.7;
      }

      .partOne-cls-32 {
        opacity: 0.5;
      }

      .partOne-cls-34, .partOne-cls-36 {
        opacity: 0.2;
      }

      .partOne-cls-35 {
        fill: url(#Dégradé_sans_nom_15);
      }

      .partOne-cls-37 {
        fill: url(#Dégradé_sans_nom_16);
      }

      .partOne-cls-38 {
        fill: url(#Dégradé_sans_nom_17);
      }

      .partOne-cls-39 {
        fill: #2f2e41;
      }

      .partOne-cls-40 {
        fill: #3f3d56;
      }

      .partOne-cls-41 {
        fill: #ffe419;
      }

      .partOne-cls-42 {
        fill: #ff6584;
      }

      .partOne-cls-43 {
        fill: none;
        stroke: #3f3d56;
        stroke-miterlimit: 10;
        stroke-width: 2px;
      }
    </style>
    <linearGradient id="Dégradé_sans_nom" data-name="Dégradé sans nom" x1="72.83" y1="143.85" x2="72.83" y2="667.62" gradientTransform="matrix(1, 0, 0, -1, 0, 693)" gradientUnits="userSpaceOnUse">
      <stop offset="0" stop-color="gray" stop-opacity="0.25"/>
      <stop offset="0.54" stop-color="gray" stop-opacity="0.12"/>
      <stop offset="1" stop-color="gray" stop-opacity="0.1"/>
    </linearGradient>
    <linearGradient id="Dégradé_sans_nom_2" data-name="Dégradé sans nom 2" x1="386.75" y1="-2.8" x2="425.48" y2="595.56" gradientTransform="matrix(1, 0, 0, -1, 0, 693)" gradientUnits="userSpaceOnUse">
      <stop offset="0" stop-color="#3dffff"/>
      <stop offset="1" stop-color="#fff" stop-opacity="0"/>
    </linearGradient>
    <linearGradient id="Dégradé_sans_nom_7" data-name="Dégradé sans nom 7" x1="3182.89" y1="-10243.09" x2="2698.39" y2="-8416.94" xlink:href="#Dégradé_sans_nom"/>
    <linearGradient id="Dégradé_sans_nom_8" data-name="Dégradé sans nom 8" x1="-8222.25" y1="-24689.77" x2="-6965.35" y2="-21031.17" xlink:href="#Dégradé_sans_nom"/>
    <linearGradient id="Dégradé_sans_nom_9" data-name="Dégradé sans nom 9" x1="377.5" y1="-9315.4" x2="377.5" y2="-7426.1" xlink:href="#Dégradé_sans_nom"/>
    <linearGradient id="Dégradé_sans_nom_3" data-name="Dégradé sans nom 3" x1="384.48" y1="199.57" x2="384.48" y2="220.31" xlink:href="#Dégradé_sans_nom"/>
    <linearGradient id="Dégradé_sans_nom_4" data-name="Dégradé sans nom 4" x1="212.82" y1="220.31" x2="212.82" y2="-13747.6" xlink:href="#Dégradé_sans_nom"/>
    <linearGradient id="Dégradé_sans_nom_5" data-name="Dégradé sans nom 5" x1="298.45" y1="-161897" x2="298.45" y2="455.58" xlink:href="#Dégradé_sans_nom"/>
    <linearGradient id="Dégradé_sans_nom_6" data-name="Dégradé sans nom 6" x1="298.45" y1="-90553" x2="298.45" y2="-17403.6" xlink:href="#Dégradé_sans_nom"/>
    <linearGradient id="Dégradé_sans_nom_10" data-name="Dégradé sans nom 10" x1="298.45" y1="-24483.1" x2="298.45" y2="-14611.6" xlink:href="#Dégradé_sans_nom"/>
    <linearGradient id="Dégradé_sans_nom_11" data-name="Dégradé sans nom 11" x1="281.33" y1="-4430.83" x2="281.33" y2="-4200.42" xlink:href="#Dégradé_sans_nom"/>
    <linearGradient id="Dégradé_sans_nom_12" data-name="Dégradé sans nom 12" x1="292.75" y1="-4430.83" x2="292.75" y2="-4200.42" xlink:href="#Dégradé_sans_nom"/>
    <linearGradient id="Dégradé_sans_nom_13" data-name="Dégradé sans nom 13" x1="304.16" y1="-4430.83" x2="304.16" y2="-4200.42" xlink:href="#Dégradé_sans_nom"/>
    <linearGradient id="Dégradé_sans_nom_14" data-name="Dégradé sans nom 14" x1="315.57" y1="-4430.83" x2="315.57" y2="-4200.42" xlink:href="#Dégradé_sans_nom"/>
    <linearGradient id="Dégradé_sans_nom_15" data-name="Dégradé sans nom 15" x1="298.45" y1="-13476.1" x2="298.45" y2="-9873.4" xlink:href="#Dégradé_sans_nom"/>
    <linearGradient id="Dégradé_sans_nom_16" data-name="Dégradé sans nom 16" x1="220.78" y1="-12492.7" x2="220.78" y2="-9213.35" xlink:href="#Dégradé_sans_nom"/>
    <linearGradient id="Dégradé_sans_nom_17" data-name="Dégradé sans nom 17" x1="220.78" y1="-18759.8" x2="220.78" y2="-15480.4" xlink:href="#Dégradé_sans_nom"/>
  </defs>
  <g class="woman hidden" id="woman">
    <path class="partOne-cls-1" d="M6.4,127.05c.41-.46.83-.92,1.27-1.38C4.33,121.88.87,118,.9,113.12c0-5.92,5.29-10.47,7.25-16.06,2.67-7.6-1-15.77-2.55-23.69a44.39,44.39,0,0,1,9.63-36.55,12.79,12.79,0,0,1,5.64-4.32c3.49-1.09,7.21.43,10.85.88,12,1.49,23-8.87,35-7.94a6.58,6.58,0,0,1,2.32.52c1.57.75,2.42,2.4,3.38,3.81,3.75,5.53,10,8.3,16.31,11.1a8.14,8.14,0,0,1,2.22,1c1.88.88,3.74,1.79,5.49,2.83,11.83,7,10.11,16.8,3.13,22.85,1.39,6.79,8.3,12.77,7.12,19.76-.94,5.47-6.65,9.2-7.75,14.65-.63,3.16.37,6.18,1.77,9.17,13.23,3.06,28.19,8.71,29.36,18.66,2,17.32,8.14,65.17,8.14,65.17s7.09,38.32-19.8,20.17l.34,1a223.19,223.19,0,0,1,9.88,45.18c.27,2.29.82,4.09,1.82,4.68.36.21-.35.55-1.91,1,.17.64.37,1.29.53,1.93a182.92,182.92,0,0,1,5.64,34.23A240.85,240.85,0,0,0,139,333.63c6.38,32.06,0,73.19,0,73.19l-13.9,65.47-2.38,11.19a16.67,16.67,0,0,1-5.63,4.06,86.41,86.41,0,0,0-1.94,12.19c0,.45-.07.91-.1,1.38a5.85,5.85,0,0,1,2.36.83,5.75,5.75,0,0,1,1.79,1.75c5,7-.69,12.54,18.41,26.48,4.94,3.61,7.32,6.88,7.93,9.68.65,3-.76,5.42-3.29,7.06a13.41,13.41,0,0,1-1.34.74h0l-.69.32-.75.29h0l-.74.23h-.06l-.79.21h-.07l-.75.16h-.1l-.82.13H136l-.75.1h-.14l-.84.06h-2l-.75,0h-.2l-.84-.08h-.1l-.75-.11-.21,0-.84-.16h-.08l-.76-.19-.21,0-.83-.25h0l-.77-.26-.21-.08c-.27-.11-.53-.21-.79-.33-12.75-5.57-38.94-20.21-38.94-20.21v-2.76c.07-6,.69-20,3.46-19.48.95.19,1.59,1.51,2.24,3l.33-.62c2.7-5.2,6.6-14.14,7-22.86a41.29,41.29,0,0,1-6-5.34s1.42-6,2.63-12.32c1-5.48,2-11.2,1.62-13.47-.69-4.88,8.5-42.52,8.5-42.52s-1-8.29-2.86-19.78c-3.7-22.37-11-56.93-21.88-66.7a8.89,8.89,0,0,0-.76-.64S72.39,325.28,66,369.2l-1.84,19.55a113.79,113.79,0,0,1-2.77,16.08,84.62,84.62,0,0,0-1.77,25.7c.8,11.53,1.15,25.1,1.29,34.62.12,7.18.12,12.07.12,12.07a27.11,27.11,0,0,1-4.26,2.94v6.39a5.33,5.33,0,0,0,1.5,3.64h0a9.86,9.86,0,0,1,2.13,3.93c1.24,2.23,2.28,5.84,2.72,11.65,1.38,18.82,2.12,16.73,2.12,16.73a25.31,25.31,0,0,1,1.61,6.35h0c0,.4.06.81.07,1.23v1a4.1,4.1,0,0,1,0,.41,1.65,1.65,0,0,1,0,.38.61.61,0,0,1,0,.26,4.45,4.45,0,0,0-.11.5l0,.21-.15.5-.06.16a3.43,3.43,0,0,1-.19.44l-.06.13a4.67,4.67,0,0,1-.27.49l-.09.13a5,5,0,0,1-.34.46l-.09.1a5.77,5.77,0,0,1-.42.44l0,0a5.85,5.85,0,0,1-.49.38l-.08.05a4.88,4.88,0,0,1-.58.34l-.12.06a7.07,7.07,0,0,1-.69.27l-.12,0a7.59,7.59,0,0,1-.78.22h0c-.28,0-.57.1-.88.13h-.12c-.3,0-.62,0-.95,0H58.72a8.89,8.89,0,0,1-1.22-.13c-14.87-2.08-22-3.46-21.24-11.85.43-5,1.62-12.36,2.51-17.39a26.18,26.18,0,0,1,2.44-7.32c0-.4-.07-.8-.1-1.21-.25-3.46-.24-7.61.81-10.32L41.6,483A19.36,19.36,0,0,1,32,477.23s-.1-4.52-.42-10.52c-.47-9.26-1.38-22-3.12-27.11-2.83-8.37,0-37.64,0-37.64s10.62-50.18.69-71.78c-8.74-19.06-8.67-38.13-.25-56.68a2.4,2.4,0,0,1-.45-.45s2.12-1.38,1.38-17.42c-.54-12.23,3-24.88,4.77-30.16a73.89,73.89,0,0,1-8.3,3c-16.25,4.85-17.66-13.3-17.66-13.3L5.13,188,.92,147.48C-.22,144.3-1.76,136.35,6.4,127.05Zm72-26.85a11.9,11.9,0,0,0,.1,1.34,18,18,0,0,0,.9,4.23,28.4,28.4,0,0,1-.88-5.65Zm-42.81,99c-.24.46-.49.9-.69,1.38l1.79-.91a39.81,39.81,0,0,0-3.19-9.5,67.65,67.65,0,0,1-4.33-10.94,109.11,109.11,0,0,1-.63,13C27.08,203.33,35.57,199.15,35.57,199.15Z" transform="translate(0 -0.38)"/>
    <path class="partOne-cls-2" d="M123.55,542.72c8.08,3.59,18.78,1.06,20.18-4.93,1.69,7.92-10.95,11.81-20.18,7.7-12.44-5.53-38-20-38-20s0-1.08,0-2.77C86.32,523.12,111.3,537.24,123.55,542.72Z" transform="translate(0 -0.38)"/>
    <path class="partOne-cls-3" d="M95.62,47.61c2.26,1.55,4.63,3.33,5.43,6,1.3,4.22-2,8.46-2.28,12.87-.58,8,8.48,14.63,7.14,22.56-.91,5.43-6.48,9.12-7.55,14.51-1.56,7.88,7,14.83,6.3,22.81-.36,4.27-3.32,7.89-6.68,10.53a32.56,32.56,0,0,1-16.33,6.71c.39-6.85,5.48-13.1,4.6-19.9-.6-4.67-3.89-8.49-5.79-12.8-3.33-7.56-2.26-16.31-.27-24.33s4.9-15.94,5-24.19c.09-5-2.24-12.28-.53-17C86.78,39.58,91.74,45,95.62,47.61Z" transform="translate(0 -0.38)"/>
    <path class="partOne-cls-4" d="M95.62,47.61c2.26,1.55,4.63,3.33,5.43,6,1.3,4.22-2,8.46-2.28,12.87-.58,8,8.48,14.63,7.14,22.56-.91,5.43-6.48,9.12-7.55,14.51-1.56,7.88,7,14.83,6.3,22.81-.36,4.27-3.32,7.89-6.68,10.53a32.56,32.56,0,0,1-16.33,6.71c.39-6.85,5.48-13.1,4.6-19.9-.6-4.67-3.89-8.49-5.79-12.8-3.33-7.56-2.26-16.31-.27-24.33s4.9-15.94,5-24.19c.09-5-2.24-12.28-.53-17C86.78,39.58,91.74,45,95.62,47.61Z" transform="translate(0 -0.38)"/>
    <path class="partOne-cls-5" d="M89,510.24l6.22,6.22s22.12,11.75,19.35-4.15a57.44,57.44,0,0,1-.47-14.29A89,89,0,0,1,118,478.44L97.28,474.3c3.46,10.84-2.23,24.48-5.77,31.43C90.09,508.52,89,510.24,89,510.24Z" transform="translate(0 -0.38)"/>
    <path class="partOne-cls-5" d="M41.89,497.67q.24,3.19.79,6.35S60,515.77,61.34,502.64c.9-8.56-1.13-12.44-2.67-14.08a5.34,5.34,0,0,1-1.45-3.6v-15.5L42,474.3l.69,13.13C41.66,490.16,41.64,494.24,41.89,497.67Z" transform="translate(0 -0.38)"/>
    <path class="partOne-cls-6" d="M89,510.24l6.22,6.22s22.12,11.75,19.36-4.15a57,57,0,0,1-.48-14.29c-4.84-.69-10.58,4.62-10.58,4.62-8.1,11.43-10.29,7.1-12,3.09C90.09,508.52,89,510.24,89,510.24Z" transform="translate(0 -0.38)"/>
    <path class="partOne-cls-7" d="M103.5,504s9.68-9,14.52-2.07-.69,12.44,18,26.26,0,22.81-12.44,17.28-38-20-38-20,0-22.81,3.46-22.12S91.75,520.61,103.5,504Z" transform="translate(0 -0.38)"/>
    <path class="partOne-cls-6" d="M41.89,497.67q.24,3.19.79,6.35S60,515.77,61.34,502.64c.9-8.56-1.13-12.44-2.67-14.08a4.19,4.19,0,0,0-4.24-.44c-2.76-1.23-5.81.82-8.29,3.46A24.32,24.32,0,0,0,41.89,497.67Z" transform="translate(0 -0.38)"/>
    <path class="partOne-cls-7" d="M54.43,489.5s7.6-4.14,9,14.52,2.08,16.59,2.08,16.59,6.91,16.59-7.61,14.51-21.42-3.45-20.73-11.75c.41-5,1.59-12.26,2.45-17.24A25.32,25.32,0,0,1,46.11,493C48.62,490.32,51.66,488.27,54.43,489.5Z" transform="translate(0 -0.38)"/>
    <path class="partOne-cls-8" d="M29.55,401s-2.77,29,0,37.33c1.68,5,2.59,17.7,3.05,26.89.3,5.94.4,10.43.4,10.43,13.14,13.82,28.34,0,28.34,0s0-4.84-.11-12c-.14-9.45-.48-22.91-1.27-34.34a85.21,85.21,0,0,1,1.73-25.49A114.69,114.69,0,0,0,64.38,388l1.8-19.4C72.4,325,80,323.62,80,323.62c.25.2.5.41.74.63,10.63,9.68,17.75,44,21.36,66.15C104,401.81,104.87,410,104.87,410s-9,37.33-8.3,42.17c.32,2.24-.55,7.92-1.57,13.36-1.19,6.27-2.57,12.21-2.57,12.21,17.28,18.66,29,4.15,29,4.15l2.32-11.1,13.57-64.93s6.22-40.78,0-72.58a242.18,242.18,0,0,1-4.14-30.23,185.44,185.44,0,0,0-5.53-33.93q-1.28-4.93-2.81-9.8s-25.95-4.51-50.39-4.51c-18.34,0-35.81,2.53-40.85,11.42q-1.74,3.08-3.16,6.15c-8.75,18.81-9,38.13-.29,57.44C39.92,351.26,29.55,401,29.55,401Z" transform="translate(0 -0.38)"/>
    <path class="partOne-cls-5" d="M87.61,150.13s36.63-37.33,9-34.56c-6.26.62-10.51-.49-13.32-2.6-3.21-2.39-4.56-6-4.93-9.87-.76-7.61,2.36-15.9,2.36-15.9S43.37,57.48,51,94.8a64.14,64.14,0,0,1,1.45,11.54c.12,7.92-2.48,11-6.14,12.2-6.17,2.11-15.33-.85-19.51,6C19.18,137,87.61,150.13,87.61,150.13Z" transform="translate(0 -0.38)"/>
    <path class="partOne-cls-6" d="M51,94.83a64,64,0,0,1,1.45,11.54,28.35,28.35,0,0,0,3,.86,29.79,29.79,0,0,0,22.88-4.15c-.76-7.6,2.36-15.89,2.36-15.89S43.37,57.51,51,94.83Z" transform="translate(0 -0.38)"/>
    <path class="partOne-cls-5" d="M32.31,76.86a29.72,29.72,0,0,0,59.44,0c0-.55,0-1.11,0-1.65a29.72,29.72,0,0,0-59.4,1.65Z" transform="translate(0 -0.38)"/>
    <path class="partOne-cls-6" d="M87.61,150.12s36.63-37.32,9-34.55c-6.26.62-10.51-.5-13.32-2.6,5.35,8.88,11.37,24.84-15.71,23.33-24.78-1.38-24.35-11.25-21.27-17.73-6.17,2.1-15.33-.85-19.51,6C19.18,137,87.61,150.12,87.61,150.12Z" transform="translate(0 -0.38)"/>
    <path class="partOne-cls-4" d="M29.55,275.23c6.29,8.18,86.47-2.54,98.19-6.1q-1.26-4.94-2.81-9.8S99,254.82,74.54,254.82c-18.33,0-35.8,2.54-40.84,11.43q-1.74,3.06-3.17,6.15C30.09,274.87,29.55,275.23,29.55,275.23Z" transform="translate(0 -0.38)"/>
    <path class="partOne-cls-9" d="M80,109.35s46.65,3.8,48.73,21.77c2,17.18,7.94,64.62,7.94,64.62s6.92,38-19.35,20l.34,1a223.6,223.6,0,0,1,9.64,44.81c.27,2.27.8,4.05,1.78,4.64,3.45,2.07-92.62,15.89-99.53,6.91,0,0,2.07-1.38,1.38-17.28s5.53-32.49,5.53-32.49S42,206.8,34.39,190.91s-4.83-20.74-4.83-20.74l-26.27-20S-2.38,140.4,8,128.4a35.93,35.93,0,0,1,24.69-12.16l18.11-1.32s-19.85,21.36,17.47,23.43S80,109.35,80,109.35Z" transform="translate(0 -0.38)"/>
    <path class="partOne-cls-6" d="M111.11,147.36s-1.38,11.06,1.38,14.52,3.46,19.35,0,29" transform="translate(0 -0.38)"/>
    <path class="partOne-cls-4" d="M80.74,324.24c10.63,9.68,17.75,44,21.36,66.15,5-30.87-15.89-82-15.89-82Z" transform="translate(0 -0.38)"/>
    <path class="partOne-cls-4" d="M92.45,477.75c17.28,18.67,29,4.15,29,4.15l2.32-11.1c-6.53,3.39-17.57,6-28.78-5.26C93.84,471.81,92.45,477.75,92.45,477.75Z" transform="translate(0 -0.38)"/>
    <path class="partOne-cls-4" d="M32.6,465.25c.3,5.94.4,10.43.4,10.43,13.14,13.82,28.34,0,28.34,0s0-4.84-.11-12C55.53,467.33,45.28,471.32,32.6,465.25Z" transform="translate(0 -0.38)"/>
    <path class="partOne-cls-10" d="M63.25,170.86h41.81a2.59,2.59,0,0,1,2.6,2.59v14.17a2.59,2.59,0,0,1-2.6,2.59H63.25a2.6,2.6,0,0,1-2.6-2.59V173.45A2.6,2.6,0,0,1,63.25,170.86Z" transform="translate(0 -0.38)"/>
    <path class="partOne-cls-6" d="M63.25,170.86h41.81a2.59,2.59,0,0,1,2.6,2.59v14.17a2.59,2.59,0,0,1-2.6,2.59H63.25a2.6,2.6,0,0,1-2.6-2.59V173.45A2.6,2.6,0,0,1,63.25,170.86Z" transform="translate(0 -0.38)"/>
    <path class="partOne-cls-10" d="M63.25,171.55h41.81a2.59,2.59,0,0,1,2.6,2.6v14.16a2.59,2.59,0,0,1-2.6,2.6H63.25a2.6,2.6,0,0,1-2.6-2.6V174.15A2.6,2.6,0,0,1,63.25,171.55Z" transform="translate(0 -0.38)"/>
    <path class="partOne-cls-11" d="M70.67,183a2.08,2.08,0,1,1,2.08-2.08A2.08,2.08,0,0,1,70.67,183Z" transform="translate(0 -0.38)"/>
    <path class="partOne-cls-6" d="M127.66,201.51a13.38,13.38,0,0,0-3-5,13.24,13.24,0,0,0-4.81-3.24,12.22,12.22,0,0,1-6.71-6c-2.72-6-7.56-12.25-20-8.1s3.46,6.91,3.46,6.91-28.34-4.15-17.28,4.15,24.88,13.13,24.88,13.13l6.81,7.21a10.18,10.18,0,0,0,15.2-.31A8.82,8.82,0,0,0,127.66,201.51Z" transform="translate(0 -0.38)"/>
    <path class="partOne-cls-5" d="M128.35,200.13a13.48,13.48,0,0,0-7.81-8.23,12.13,12.13,0,0,1-6.71-6c-2.72-6-7.56-12.25-20-8.11s3.46,6.92,3.46,6.92S69,180.54,80,188.83,104.89,202,104.89,202l6.81,7.21a10.18,10.18,0,0,0,15.2-.31A8.82,8.82,0,0,0,128.35,200.13Z" transform="translate(0 -0.38)"/>
    <path class="partOne-cls-6" d="M30.93,214.41l4.84,11.75L42,221.6l17.28-12.72L71,201.27c16.59-12.44,0-14.51,0-14.51,6.22-2.77,0-5.53,0-5.53-22.12-4.84-18,13.13-18,13.13l-14,7.27L34.39,204Z" transform="translate(0 -0.38)"/>
    <path class="partOne-cls-5" d="M29.55,213l4.84,11.75,6.22-4.55,17.28-12.73,11.75-7.6c16.59-12.44,0-14.51,0-14.51,6.22-2.77,0-5.53,0-5.53C47.52,175,51.67,193,51.67,193l-14,7.26L33,202.66Z" transform="translate(0 -0.38)"/>
    <path class="partOne-cls-6" d="M29.55,213l4.83,11.76,6.23-4.56c-5.61.2-12.23-2.51-2.93-20L33,202.66Z" transform="translate(0 -0.38)"/>
    <path class="partOne-cls-9" d="M4,143.21l-1.34,5.44,4.1,40.18,3.46,27s1.38,18,17.28,13.13,17.28-9.67,17.28-9.67-22.81,7.6-8.3-19.36c0,0-8.29,4.15-6.91-6.91s0-30.41,0-30.41Z" transform="translate(0 -0.38)"/>
    <path class="partOne-cls-6" d="M32.31,76.86a29.73,29.73,0,0,0,23.15,29c1-2.88,1.7-5.74,1-8.65-1.39-5.65-7.93-9.77-7.2-15.54a3.86,3.86,0,0,1,.69-1.81c1.46-1.92,4.43-1,6.8-.49a12.93,12.93,0,0,0,14.46-8.92,20.2,20.2,0,0,0,20.55,4.77,29.72,29.72,0,0,0-59.39,1.65Z" transform="translate(0 -0.38)"/>
    <path class="partOne-cls-3" d="M70.46,69.06A12.9,12.9,0,0,1,56,78c-2.37-.47-5.34-1.42-6.8.5a3.77,3.77,0,0,0-.65,1.8c-.74,5.78,5.78,9.89,7.19,15.55,1.44,5.82-2.77,11.44-3.7,17.36-.49,3.24,0,6.55,0,9.82s-.78,6.8-3.21,9-6.91,2.22-8.55-.62c-7.78,4.11-4.67,16.85-10.57,23.37-3.26,3.59-8.62,4.45-13.45,4a5.69,5.69,0,0,1-3.16-1,5.5,5.5,0,0,1-1.55-2.9,23.5,23.5,0,0,1,.61-14c.77-2.15,1.88-4.32,1.59-6.58a9.71,9.71,0,0,0-2.4-4.7c-3.71-4.6-8.77-9.06-8.74-15s5.16-10.37,7.08-15.9c2.6-7.55-1-15.65-2.5-23.5a44.58,44.58,0,0,1,9.4-36.29,12.53,12.53,0,0,1,5.53-4.28c3.41-1.09,7,.43,10.6.87,11.75,1.48,22.4-8.8,34.19-7.88a6.37,6.37,0,0,1,2.27.52c1.53.74,2.35,2.38,3.3,3.79,5.2,7.78,15.43,10,23.45,14.82C119.32,60.81,88.37,86.3,70.46,69.06Z" transform="translate(0 -0.38)"/>
    <path class="partOne-cls-2" d="M37.18,523c.8,6.22,7.7,7.53,20.71,9.39,6.61.94,8.77-2,9.17-5.46.43,4.44-.83,9.41-9.17,8.22-14.52-2.07-21.43-3.45-20.74-11.75C37.16,523.24,37.18,523.1,37.18,523Z" transform="translate(0 -0.38)"/>
  </g>
  <g class="flask hidden" id="Flask">
    <path class="partOne-cls-12" d="M262,379C285.2,339,279.19,319.6,276.6,291.09s-1.28-66.09,17.78-77.92c18.89-12.07,55.64,1.15,84.88,5.9,29.52,4.52,51.43,1,96.35-15.1s113.3-44.88,120.2-28.4c7.19,16.26-47,77.3-45.13,126,2.33,48.69,60.54,84.77,67.88,119.39,7.05,34.83-36.86,68.65-81.35,87.09s-89.83,21.7-133.29,29.16-85.31,19.32-130.62,20.3c-44.84,1-92.67-8.88-90.1-43.66C185.58,478.81,238.63,418.65,262,379Z" transform="translate(0 -0.38)"/>
    <path class="partOne-cls-13" d="M262,379C285.2,339,279.19,319.6,276.6,291.09s-1.28-66.09,17.78-77.92c18.89-12.07,55.64,1.15,84.88,5.9,29.52,4.52,51.43,1,96.35-15.1s113.3-44.88,120.2-28.4c7.19,16.26-47,77.3-45.13,126,2.33,48.69,60.54,84.77,67.88,119.39,7.05,34.83-36.86,68.65-81.35,87.09s-89.83,21.7-133.29,29.16-85.31,19.32-130.62,20.3c-44.84,1-92.67-8.88-90.1-43.66C185.58,478.81,238.63,418.65,262,379Z" transform="translate(0 -0.38)"/>
  </g>
  <g class="bank hidden" id="bank">
    <path class="partOne-cls-19" d="M393.25,472.69H375.72v20.74h17.53Z" transform="translate(0 -0.38)"/>
    <path class="partOne-cls-20" d="M376.13,492.67h16.72v-20H376.13Z" transform="translate(0 -0.38)"/>
    <path class="partOne-cls-21" d="M221.59,472.69H204.06v20.74h17.53Z" transform="translate(0 -0.38)"/>
    <path class="partOne-cls-20" d="M221.19,472.69H204.47v20h16.72Z" transform="translate(0 -0.38)"/>
    <path class="partOne-cls-22" d="M411.71,237.42H185.19a5.19,5.19,0,0,0-5.19,5.19V470.36a5.19,5.19,0,0,0,5.19,5.19H411.71a5.19,5.19,0,0,0,5.19-5.19V242.61A5.19,5.19,0,0,0,411.71,237.42Z" transform="translate(0 -0.38)"/>
    <path class="partOne-cls-23" d="M410.48,238.65H186.82a5.19,5.19,0,0,0-5.19,5.19V467.5a5.2,5.2,0,0,0,5.19,5.19H410.48a5.19,5.19,0,0,0,5.19-5.19V243.84A5.19,5.19,0,0,0,410.48,238.65Z" transform="translate(0 -0.38)"/>
    <path class="partOne-cls-24" d="M377.55,276.36H219.35V436.2h158.2Z" transform="translate(0 -0.38)"/>
    <g class="money hidden" id="money">
      <path class="partOne-cls-14" d="M392.7,316.9l-50.84,13.49,6.59,24.83,50.83-13.49Z" transform="translate(0 -0.38)"/>
      <path class="partOne-cls-15" d="M392.41,317.4l-50.06,13.28,6.38,24,50.06-13.28Z" transform="translate(0 -0.38)"/>
      <path class="partOne-cls-16" d="M391,318.62,344.21,331l6,22.47,46.77-12.41Z" transform="translate(0 -0.38)"/>
      <path class="partOne-cls-15" d="M371.57,340.65c4.79-1.27,8.11-4.42,7.42-7s-5.14-3.7-9.93-2.43-8.1,4.42-7.41,7S366.79,341.92,371.57,340.65Z" transform="translate(0 -0.38)"/>
      <path class="partOne-cls-17" d="M348.82,353.06l-8.35,24.3,49.75,17.09,8.34-24.3Z" transform="translate(0 -0.38)"/>
      <path class="partOne-cls-15" d="M398.05,370.4l-49-16.82L341,377.1l49,16.83Z" transform="translate(0 -0.38)"/>
      <path class="partOne-cls-16" d="M396.18,370.62,350.42,354.9l-7.56,22,45.77,15.72Z" transform="translate(0 -0.38)"/>
      <path class="partOne-cls-15" d="M377.88,376.41c.88-2.56-2.21-5.93-6.9-7.54s-9.19-.85-10.07,1.71,2.21,5.93,6.89,7.54S377,379,377.88,376.41Z" transform="translate(0 -0.38)"/>
      <path class="partOne-cls-18" d="M403.8,343.15H351.2v25.68h52.6Z" transform="translate(0 -0.38)"/>
      <path class="partOne-cls-15" d="M403.39,343.55H351.61v24.88h51.78Z" transform="translate(0 -0.38)"/>
      <path class="partOne-cls-16" d="M401.69,344.37H353.3v23.24h48.39Z" transform="translate(0 -0.38)"/>
      <path class="partOne-cls-15" d="M377.3,360.68c4.95,0,9-2.19,9-4.89s-4-4.9-9-4.9-9,2.19-9,4.9S372.34,360.68,377.3,360.68Z" transform="translate(0 -0.38)"/>
    </g>
    <path class="partOne-cls-15" d="M376.33,278H220.57V433.75H376.33Z" transform="translate(0 -0.38)"/>
    <path class="partOne-cls-25" d="M298.45,385.23a29.36,29.36,0,1,0-29.36-29.36A29.35,29.35,0,0,0,298.45,385.23Z" transform="translate(0 -0.38)"/>
    <path class="partOne-cls-23" d="M298.45,384a28.14,28.14,0,1,0-28.13-28.14A28.14,28.14,0,0,0,298.45,384Z" transform="translate(0 -0.38)"/>
    <path class="partOne-cls-26" d="M285.61,411.94h-8.56v9h8.56Z" transform="translate(0 -0.38)"/>
    <path class="partOne-cls-27" d="M297,411.94h-8.57v9H297Z" transform="translate(0 -0.38)"/>
    <path class="partOne-cls-28" d="M308.44,411.94h-8.56v9h8.56Z" transform="translate(0 -0.38)"/>
    <path class="partOne-cls-29" d="M319.86,411.94h-8.57v9h8.57Z" transform="translate(0 -0.38)"/>
    <path class="partOne-cls-30" d="M285.4,412.35h-8.15v8.15h8.15Z" transform="translate(0 -0.38)"/>
    <path class="partOne-cls-31" d="M296.82,412.35h-8.15v8.15h8.15Z" transform="translate(0 -0.38)"/>
    <path class="partOne-cls-32" d="M308.24,412.35h-8.16v8.15h8.16Z" transform="translate(0 -0.38)"/>
    <path class="partOne-cls-33" d="M319.65,412.35H311.5v8.15h8.15Z" transform="translate(0 -0.38)"/>
    <path class="partOne-cls-30" d="M311.57,338.92l-1.34-.93L307,342.66l1.34.94Z" transform="translate(0 -0.38)"/>
    <path class="partOne-cls-30" d="M315.4,369l.94-1.33-4.68-3.27-.93,1.33Z" transform="translate(0 -0.38)"/>
    <path class="partOne-cls-30" d="M285.34,372.82l1.33.94,3.28-4.68-1.34-.93Z" transform="translate(0 -0.38)"/>
    <path class="partOne-cls-30" d="M281.5,342.76l-.93,1.34,4.67,3.27.94-1.34Z" transform="translate(0 -0.38)"/>
    <path class="partOne-cls-34" d="M311.55,338.87l-1.34-.93-3.27,4.67,1.34.94Z" transform="translate(0 -0.38)"/>
    <path class="partOne-cls-34" d="M315.39,368.94l.93-1.34-4.67-3.27-.94,1.34Z" transform="translate(0 -0.38)"/>
    <path class="partOne-cls-34" d="M285.33,372.77l1.33.94,3.27-4.68-1.33-.93Z" transform="translate(0 -0.38)"/>
    <path class="partOne-cls-34" d="M281.49,342.71l-.94,1.34,4.68,3.27.93-1.34Z" transform="translate(0 -0.38)"/>
    <path class="partOne-cls-35" d="M298.45,373.61a17.74,17.74,0,1,0-17.73-17.74A17.74,17.74,0,0,0,298.45,373.61Z" transform="translate(0 -0.38)"/>
    <path class="partOne-cls-30" d="M298.45,372.59a16.72,16.72,0,1,0-16.72-16.72A16.72,16.72,0,0,0,298.45,372.59Z" transform="translate(0 -0.38)"/>
    <path class="partOne-cls-36" d="M284.79,358.12a16.71,16.71,0,0,1,25-14.52,16.72,16.72,0,0,0-19.66-2.6,16.73,16.73,0,0,0-8.24,11,16.71,16.71,0,0,0,8,18.15,16.85,16.85,0,0,1-3.8-5.49,16.69,16.69,0,0,1-1.33-6.53Z" transform="translate(0 -0.38)"/>
    <path class="partOne-cls-37" d="M227.3,341H214.25V308.41a1.3,1.3,0,0,1,.37-.89,1.26,1.26,0,0,1,.9-.37H226a1.24,1.24,0,0,1,.89.37,1.26,1.26,0,0,1,.37.9Z" transform="translate(0 -0.38)"/>
    <path class="partOne-cls-38" d="M226,405H215.58a1.33,1.33,0,0,1-1.33-1.34V371.16H227.3v32.51a1.29,1.29,0,0,1-.1.51,1.26,1.26,0,0,1-.29.43,1.13,1.13,0,0,1-.43.29,1.26,1.26,0,0,1-.51.11Z" transform="translate(0 -0.38)"/>
    <path class="partOne-cls-23" d="M215.76,307.55h10a1.11,1.11,0,0,1,.78.33,1.14,1.14,0,0,1,.32.78v31.51H214.67v-31.5a1,1,0,0,1,.08-.42.88.88,0,0,1,.24-.36,1.07,1.07,0,0,1,.35-.25,1.06,1.06,0,0,1,.42-.09Z" transform="translate(0 -0.38)"/>
    <path class="partOne-cls-23" d="M214.66,371.57h12.22v32.25a.38.38,0,0,1-.37.37H215a.38.38,0,0,1-.37-.37V371.57Z" transform="translate(0 -0.38)"/>
  </g>
  <g class="man hidden" id="man">
    <path class="partOne-cls-39" d="M521.27,8.51S519.47,2,516.76.38V8.51S505.93,6.88,498.25,15l7.23,1.62s-10.61,3.52-12.87,18.69l4.51-2.17,12.19,26L517,45.07l15.35,15.7-3.61-8.66,5.87,2.71-4.06-7,18.05,8.13-1.35-4.33,6.61,11.08s22.73-23.54-2.1-48.46C551.74,14.19,540.46,2.28,521.27,8.51Z" transform="translate(0 -0.38)"/>
    <path class="partOne-cls-5" d="M519.19,66.35s6.73,25.57,4.71,28.94,19.51,21.53,19.51,21.53l20.86-4,1.35-28.93s-18.84-16.15-14.8-28.26Z" transform="translate(0 -0.38)"/>
    <path class="partOne-cls-4" d="M519.19,66.35s6.73,25.57,4.71,28.94,19.51,21.53,19.51,21.53l20.86-4,1.35-28.93s-18.84-16.15-14.8-28.26Z" transform="translate(0 -0.38)"/>
    <path class="partOne-cls-39" d="M501.69,227.85s-5.38,33.64-1.34,61.23,6,47.77,4,51.81-4,3.36-2.7,8.07,4,2.7,1.35,7.41-2,12.78-2,14.8-3.36,45.76,0,50.47,4.71,4,4.71,4l4,24.23,21.53-3.37-3.36-22.2s8.07-4,4.71-6.73-5.39-2.69-3.37-2.69,5.39-.68,2.69-2-.67-37.68-.67-37.68,4.71-66.62,23.55-64.6,33.65,41.05,33.65,41.05l5.38,17.49s2,33,3.36,35.66.68,3.37,0,4.71-5.38-2-.67,3.37,4.71,7.4,4.71,7.4l3,35.33,21.87-13.8V421s4-6.73,2.69-12.11-1.35-31,0-35.66.67-6.06-.67-8.08-4.71-.67-2-5.38,4.71-16.82.67-25.57-26.24-94.88-35.66-99.59S501.69,227.85,501.69,227.85Z" transform="translate(0 -0.38)"/>
    <path class="partOne-cls-40" d="M531.3,435.09s-15.47-2.69-16.15,1.35a46.23,46.23,0,0,0,0,10.09s-5.38.68-4.71,5.39,1.35,17.49,1.35,17.49-8.41,19.85-3.7,24.56c0,0,9.29-.33,14.6-.33h19.38s2.69-9.43,0-10.77-8.75-13.46-8.08-16.15,0-22.21,0-22.21l-3,.17Z" transform="translate(0 -0.38)"/>
    <path class="partOne-cls-40" d="M610,447.21,602,453.26s3.36,11.44,1.34,13.46S596.91,492,601,493.3s28.93-.67,28.93-.67,27.92,1,28.6-.34,2-9.42-6.06-12.11-12.78-2-15.47-10.1-8.75-20.18-8.75-20.18l-1.35-14.8s-8.07,1.34-9.42,1.34-8.07,3.36-7.4,6.06a9.17,9.17,0,0,1,0,4.71Z" transform="translate(0 -0.38)"/>
    <path class="partOne-cls-5" d="M530.63,74.76A27.93,27.93,0,1,0,502.7,46.84,27.92,27.92,0,0,0,530.63,74.76Z" transform="translate(0 -0.38)"/>
    <path class="partOne-cls-40" d="M548.8,94.61,558.89,77s23.55-1.2,24.9,1.49,12.78,135.93,12.78,135.93,5.38,7.4,2,12.11l-3.36,4.71v9.42s-16.83,13.46-39.7,10.77-51.82-14.81-51.82-14.81l6.06-37.68-.67-111,13.55-6.6s15.38,10.64,18.07,14S548.8,94.61,548.8,94.61Z" transform="translate(0 -0.38)"/>
    <path class="partOne-cls-30" d="M525.25,94.61l-3-17.83-41.39,29.27,22.88,67.29s-14.13,25.57-11.44,35,4,23.55,4,23.55,36.34,9.42,35.66,4.71S532,211,532,211s11.77-87.14,5.89-100.43S525.25,94.61,525.25,94.61Z" transform="translate(0 -0.38)"/>
    <path class="partOne-cls-30" d="M562.26,85.87l-6.4-12.45c0-.39,45.42,5.89,47.44,9.75L597.92,186.8s.67,14.8,4,18.84,2.69,10.76,1.34,11.44-23.55,7.4-23.55,7.4-21.53-37-19.51-81.42S562.26,85.87,562.26,85.87Z" transform="translate(0 -0.38)"/>
    <path class="partOne-cls-30" d="M595.23,83.85l7.12-1.52a15.07,15.07,0,0,1,6.33,6.9c2,4.71,25.57,55.18,25.57,58.54S634.93,176,620.12,176s-26.24-63.25-26.24-63.25Z" transform="translate(0 -0.38)"/>
    <path class="partOne-cls-5" d="M494.29,258.12l12.11,18.17,6.73-22.88-4.71-6.72Z" transform="translate(0 -0.38)"/>
    <path class="partOne-cls-30" d="M486.89,106.72l-6.06-.67L466,185.45l25.57,79.4L513.81,248l-15.48-53.16,5.38-41Z" transform="translate(0 -0.38)"/>
    <path class="partOne-cls-39" d="M559.78,39c-3.69-13.48-15.26-23.32-29-23.32a29.49,29.49,0,0,0-24.15,13l6.91,13.24,6.89-11.36L534.25,43.2l-3.24-7,5.26,2.18-3.64-5.67,16.21,6.55-1.22-3.5,7.7,10A30.16,30.16,0,0,0,559.78,39Z" transform="translate(0 -0.38)"/>
    <path class="partOne-cls-4" d="M590.85,116.48,609,132.29l-9.38-20.52Z" transform="translate(0 -0.38)"/>
    <path class="partOne-cls-39" d="M583.31,91.67l-.63-.25,3.41-8.57a2,2,0,0,0,0-1.52,1.94,1.94,0,0,0-.44-.63,2,2,0,0,0-.65-.42l-19.34-7.7a1.8,1.8,0,0,0-.76-.14,1.9,1.9,0,0,0-.75.16,1.88,1.88,0,0,0-.64.44,1.78,1.78,0,0,0-.42.65l-15.86,39.84a1.93,1.93,0,0,0,0,1.51,2,2,0,0,0,1.09,1.06l19.33,7.7a2,2,0,0,0,.76.14,2,2,0,0,0,.76-.16,1.88,1.88,0,0,0,.64-.44,2.13,2.13,0,0,0,.42-.65l8.18-20.55.63.25Z" transform="translate(0 -0.38)"/>
    <path class="partOne-cls-30" d="M571,90.17a3.4,3.4,0,1,0-3.39-3.4A3.4,3.4,0,0,0,571,90.17Z" transform="translate(0 -0.38)"/>
    <path class="partOne-cls-5" d="M583.11,114.13s-8.74-26.92-19.51-22.21,4,33,4,33l9.42,6.06Z" transform="translate(0 -0.38)"/>
    <path class="partOne-cls-30" d="M629.54,148.44l-47.1-37-16.82,24.89S610,183.43,620.12,174,629.54,148.44,629.54,148.44Z" transform="translate(0 -0.38)"/>
  </g>
  <g class="bubbles" id="bubbles">
    <circle class="partOne-cls-30 bubble hidden" cx="135.49" cy="107.11" r="10"/>
    <circle class="partOne-cls-30 bubble hidden" cx="172.83" cy="146.47" r="4.5"/>
    <circle class="partOne-cls-30 bubble hidden" cx="194.04" cy="182.13" r="3.5"/>
    <circle class="partOne-cls-30 bubble hidden" cx="227.75" cy="188.73" r="4"/>
    <circle class="partOne-cls-30 bubble hidden" cx="234.8" cy="224.66" r="2"/>
    <circle class="partOne-cls-30 bubble hidden" cx="272.12" cy="229.21" r="6"/>
    <circle class="partOne-cls-30 bubble hidden" cx="318.65" cy="224.27" r="3.5"/>
    <circle class="partOne-cls-30 bubble hidden" cx="323.65" cy="196.27" r="3.5"/>
    <circle class="partOne-cls-30 bubble hidden" cx="356.65" cy="167.27" r="3.5"/>
    <circle class="partOne-cls-30 bubble hidden" cx="398.65" cy="160.27" r="3.5"/>
    <circle class="partOne-cls-30 bubble hidden" cx="380.7" cy="136.93" r="4.5"/>
    <circle class="partOne-cls-30 bubble hidden" cx="417.39" cy="121.3" r="3.5"/>
    <circle class="partOne-cls-30 bubble hidden" cx="420.29" cy="96.24" r="2"/>
    <circle class="partOne-cls-30 bubble hidden" cx="459.65" cy="99.12" r="4"/>
    <circle class="partOne-cls-30 bubble hidden" cx="464.3" cy="62.27" r="3.5"/>
  </g>
  <g class="flower hidden" id="flower">
    <path class="partOne-cls-42" d="M678.77,337.29a12.51,12.51,0,1,0-12.41-12.51A12.46,12.46,0,0,0,678.77,337.29Z" transform="translate(0 -0.38)"/>
    <path class="partOne-cls-43" d="M776.58,460.92V318.52" transform="translate(0 -0.38)"/>
    <path class="partOne-cls-40" d="M776.58,338.66a20.14,20.14,0,1,0-20-20.14A20.07,20.07,0,0,0,776.58,338.66Z" transform="translate(0 -0.38)"/>
    <path class="partOne-cls-40" d="M737.24,398.25c-28.86,44.61-21,101.34-21,101.34S771,484,799.84,439.4s20.94-101.34,20.94-101.34S766.09,353.64,737.24,398.25Z" transform="translate(0 -0.38)"/>
    <path class="partOne-cls-30" d="M716.14,499.08s-.71-.12-2-.38c-1-.21-2.45-.51-4.19-.93-15.49-3.68-56.7-16.13-83.64-48.87-33.72-41-32.3-98.27-32.3-98.27s51.56,8.44,85.53,45.26q2.21,2.37,4.3,4.92c29.33,35.67,32.07,83.66,32.29,95.52C716.16,498.11,716.14,499.08,716.14,499.08Z" transform="translate(0 -0.38)"/>
    <path class="partOne-cls-43" d="M695.34,398.25c28.86,44.61,20.95,101.34,20.95,101.34S661.6,484,632.74,439.4s-21-101.34-21-101.34S666.48,353.64,695.34,398.25Z" transform="translate(0 -0.38)"/>
    <path class="partOne-cls-30" d="M758.91,406.14c-2.28,53.2-41.46,94.71-41.46,94.71s-35.48-44.76-33.2-98,41.46-94.71,41.46-94.71S761.19,352.93,758.91,406.14Z" transform="translate(0 -0.38)"/>
    <path class="partOne-cls-43" d="M717,500.38l9-192" transform="translate(0 -0.38)"/>
  </g>
</svg>